<svg width="344" height="245" viewBox="0 0 344 245" fill="none" xmlns="http://www.w3.org/2000/svg">
<path d="M148.299 30.0586C160.506 14.9869 183.494 14.9869 195.701 30.0586L201.398 37.0918C208.706 46.1148 220.385 50.3867 231.79 48.207L254.911 43.7871C271.516 40.6135 285.184 56.853 279.224 72.6729C274.904 84.1356 280.657 97.0181 291.978 101.669C310.432 109.251 310.432 135.75 291.978 143.331C280.657 147.982 274.904 160.864 279.224 172.327C285.184 188.147 271.516 204.387 254.911 201.213L231.79 196.793C220.385 194.613 208.706 198.885 201.398 207.908L195.701 214.941C183.494 230.013 160.506 230.013 148.299 214.941L142.602 207.908C135.294 198.885 123.615 194.613 112.21 196.793L89.0889 201.213C72.4838 204.386 58.8156 188.147 64.7764 172.327C69.0956 160.864 63.3431 147.982 52.0225 143.331C33.568 135.75 33.568 109.251 52.0225 101.669C63.3431 97.0181 69.0956 84.1356 64.7764 72.6729C58.8156 56.853 72.4838 40.6135 89.0889 43.7871L112.21 48.207C123.615 50.3867 135.294 46.1148 142.602 37.0918L148.299 30.0586Z" fill="#1ABFFF" stroke="black"/>
</svg>
