<svg width="275" height="183" viewBox="0 0 275 183" fill="none" xmlns="http://www.w3.org/2000/svg">
<mask id="path-1-inside-1_1542_468" fill="white">
<path d="M259 183C267.837 183 275.055 175.827 274.474 167.01C271.663 124.336 257.666 84.1293 234.727 53.5995C208.941 19.2803 173.967 3.66426e-06 137.5 0C101.033 -3.66426e-06 66.0591 19.2803 40.2728 53.5994C17.3338 84.1293 3.33682 124.336 0.525547 167.01C-0.0553274 175.827 7.16344 183 16 183L137.5 183H259Z"/>
</mask>
<path d="M259 183C267.837 183 275.055 175.827 274.474 167.01C271.663 124.336 257.666 84.1293 234.727 53.5995C208.941 19.2803 173.967 3.66426e-06 137.5 0C101.033 -3.66426e-06 66.0591 19.2803 40.2728 53.5994C17.3338 84.1293 3.33682 124.336 0.525547 167.01C-0.0553274 175.827 7.16344 183 16 183L137.5 183H259Z" fill="#EB818B" stroke="black" stroke-width="2" mask="url(#path-1-inside-1_1542_468)"/>
</svg>
