<svg width="23" height="24" viewBox="0 0 23 24" fill="none" xmlns="http://www.w3.org/2000/svg">
<path fill-rule="evenodd" clip-rule="evenodd" d="M13.2031 9.98025C13.2031 11.1981 13.2338 12.2137 12.6183 13.2952C12.1215 14.1746 11.3345 14.7153 10.4552 14.7153C9.25487 14.7153 8.55583 13.8008 8.55583 12.4511C8.55583 9.78675 10.9431 9.30318 13.2031 9.30318V9.98025ZM16.3554 17.5995C16.1487 17.7842 15.8497 17.7974 15.6168 17.6742C14.5792 16.8126 14.3945 16.4125 13.823 15.5903C12.1083 17.3402 10.8948 17.8633 8.67019 17.8633C6.04103 17.8633 3.99219 16.2409 3.99219 12.9919C3.99219 10.4551 5.3684 8.72721 7.32475 7.88313C9.02189 7.13562 11.3917 7.00375 13.2031 6.79718V6.39266C13.2031 5.6496 13.2601 4.7703 12.825 4.12844C12.4424 3.55247 11.7126 3.31504 11.0706 3.31504C9.87921 3.31504 8.81522 3.92614 8.55583 5.19234C8.503 5.47379 8.29643 5.7508 8.01508 5.76396L4.98139 5.43867C4.72644 5.3814 4.44509 5.17483 4.51543 4.78346C5.21447 1.10801 8.53377 0 11.5058 0C13.0271 0 15.0143 0.404522 16.2146 1.55646C17.7358 2.97651 17.5907 4.87141 17.5907 6.93341V11.8048C17.5907 13.2689 18.1975 13.9107 18.769 14.7022C18.9712 14.9835 19.0152 15.3222 18.7602 15.5331C18.1227 16.065 16.9883 17.0543 16.3641 17.6083L16.3553 17.5995" fill="black"/>
<path d="M20.1116 19.7225C10.359 24.3639 4.30648 20.4806 0.432059 18.1219C0.192312 17.9733 -0.215176 18.1567 0.138375 18.5628C1.42914 20.1278 5.65925 23.9001 11.1808 23.9001C16.7061 23.9001 19.9931 20.8853 20.4043 20.3593C20.8127 19.8379 20.5243 19.5502 20.1115 19.7225H20.1116ZM22.8506 18.2099C22.5887 17.8688 21.258 17.8052 20.4206 17.9081C19.5819 18.008 18.3231 18.5206 18.4325 18.8284C18.4887 18.9436 18.6033 18.8919 19.1795 18.8401C19.7572 18.7825 21.3756 18.5782 21.7129 19.0191C22.0517 19.463 21.1967 21.5776 21.0405 21.9187C20.8897 22.2597 21.0982 22.3477 21.3816 22.1205C21.6611 21.8935 22.1671 21.3054 22.5066 20.4733C22.8439 19.6367 23.0495 18.4695 22.8505 18.2099H22.8506Z" fill="#FF9900"/>
</svg>
