<svg width="40" height="57" viewBox="0 0 40 57" fill="none" xmlns="http://www.w3.org/2000/svg">
<path d="M20.475 54.0183L3.63915 26.2159C3.63915 26.2159 3.46836 23.5133 3.87234 21.8504C4.28306 20.1597 5.71462 17.7873 5.71462 17.7873L4.46031 15.6644L2.30192 16.9823L0.461779 13.868L4.95805 11.1225L0.242136 3.14103C0.242136 3.14103 0.459447 0.88921 1.26797 0.394558C2.0773 -0.100591 4.13983 0.761076 4.13983 0.761076L8.85575 8.74255L12.7571 6.36035L14.5973 9.47471L12.5961 10.6966L13.8486 12.8206C13.8486 12.8206 16.0487 12.3784 17.4232 12.6101C19.2508 12.9181 21.6429 14.7586 21.6429 14.7586L38.435 42.8813L38.856 45.7012L37.9597 47.5446L25.0991 55.5655L22.7926 55.9324L20.475 54.0183Z" fill="#B2DEF6" stroke="black" stroke-width="0.47892" stroke-linecap="round"/>
</svg>
