<svg width="76" height="188" viewBox="0 0 76 188" fill="none" xmlns="http://www.w3.org/2000/svg">
<path d="M0.328125 176.979V71.0473C0.328125 71.0473 1.93355 59.9096 6.23073 54.6237C10.6199 49.2247 21.4791 45.4265 21.4791 45.4265L21.971 23.5832C21.971 23.5832 21.8619 21.9832 22.6269 21.1196C23.2456 20.4211 24.2665 19.97 24.2665 19.97H34.596V7.81656L29.0213 5.6815L29.5132 2.39678L62.6334 0.425956C62.6334 0.425956 65.3461 0.201442 67.0604 0.425956C68.2311 0.579282 70.0117 1.0829 70.0117 1.0829L75.2584 3.05373L70.8315 6.66691L67.5522 5.6815C67.5522 5.6815 66.0869 5.02456 65.0928 5.02456C64.0988 5.02456 62.6334 5.6815 62.6334 5.6815L42.3022 9.45892V20.6269H51.1561C51.1561 20.6269 52.2191 21.0231 52.7957 21.4481C53.3063 21.8244 53.9435 22.5978 53.9435 22.5978V46.0835C53.9435 46.0835 65.3177 49.9657 69.5198 55.7734C73.1693 60.8173 74.1107 71.0473 74.1107 71.0473V176.979C74.1107 176.979 73.9714 181.462 72.4711 183.713C71.2603 185.53 68.2081 187.326 68.2081 187.326H6.06677C6.06677 187.326 3.42144 185.415 2.29566 183.713C0.784607 181.429 0.328125 176.979 0.328125 176.979Z" fill="#FDEB85" stroke="black" stroke-width="0.651568"/>
<path d="M15.9225 98.289V98.0128C16.0235 97.9891 16.1037 97.9742 16.1631 97.9683L17.0004 97.9237C17.6953 97.8643 18.4732 97.8168 19.3344 97.7812C19.6788 97.7693 20.2222 97.7634 20.9646 97.7634C21.9741 97.7634 22.7135 97.8376 23.1827 97.9861C23.8656 98.2058 24.3734 98.5384 24.706 98.9838C25.0445 99.4233 25.2137 99.9132 25.2137 100.454C25.2137 101.333 24.5872 102.072 23.3341 102.672L23.2896 102.743C23.931 102.915 24.4566 103.156 24.8663 103.465C25.2761 103.773 25.5909 104.151 25.8106 104.596C25.9709 104.923 26.0511 105.35 26.0511 105.879C26.0511 106.764 25.6473 107.553 24.8396 108.248C24.0379 108.937 22.9303 109.282 21.5169 109.282H20.1895L18.8444 109.326C17.6567 109.338 16.9618 109.344 16.7599 109.344C16.5521 109.344 16.3472 109.335 16.1452 109.317V109.219C16.1452 109.148 16.1601 109.098 16.1898 109.068C16.2254 109.032 16.2937 109.003 16.3947 108.979C17.137 108.824 17.5557 108.72 17.6507 108.667C17.7517 108.608 17.82 108.516 17.8556 108.391C17.9269 108.153 17.9625 107.542 17.9625 106.556C17.9625 106.467 17.9595 106.354 17.9536 106.217C17.9417 105.819 17.9358 105.591 17.9358 105.531V104.605C17.9358 103.037 17.918 101.668 17.8823 100.498L17.8734 98.7077L17.8645 98.4849C17.3597 98.4137 16.9143 98.3691 16.5283 98.3513C16.2789 98.3454 16.0769 98.3246 15.9225 98.289ZM19.4591 102.796C19.756 102.856 20.0678 102.886 20.3944 102.886C21.6772 102.886 22.5472 102.603 23.0045 102.039C23.4618 101.475 23.6905 100.914 23.6905 100.356C23.6905 100.106 23.6489 99.8538 23.5657 99.5985C23.4885 99.3372 23.346 99.1026 23.1381 98.8947C22.9362 98.6869 22.6838 98.5325 22.381 98.4315C21.8643 98.2593 21.3357 98.1732 20.7953 98.1732C20.2905 98.1732 19.8213 98.2296 19.3878 98.3424C19.3819 98.4671 19.3789 98.5592 19.3789 98.6186C19.3789 98.678 19.3848 98.8472 19.3967 99.1263C19.4027 99.3045 19.4056 99.4827 19.4056 99.6608L19.3789 100.739L19.3878 101.38L19.4502 102.636L19.4591 102.796ZM21.5525 108.854C22.1404 108.812 22.6334 108.688 23.0312 108.48C23.2154 108.385 23.4321 108.216 23.6815 107.972C23.9369 107.723 24.1329 107.426 24.2695 107.081C24.412 106.737 24.4833 106.404 24.4833 106.084C24.4833 105.84 24.4328 105.54 24.3318 105.184C24.2368 104.828 24.0705 104.516 23.833 104.249C23.6014 103.975 23.254 103.753 22.7907 103.58C22.3275 103.402 21.8168 103.313 21.2585 103.313C20.1777 103.313 19.5719 103.334 19.4413 103.376C19.4353 103.512 19.4324 103.613 19.4324 103.678L19.4413 104.008L19.4324 104.676V105.433C19.4502 106.829 19.4828 107.654 19.5303 107.91C19.5779 108.165 19.7382 108.385 20.0114 108.569C20.2905 108.753 20.8042 108.848 21.5525 108.854ZM27.9215 105.745C27.9215 105.341 28.0046 104.911 28.1709 104.453C28.3431 103.99 28.6015 103.577 28.9459 103.215C29.2904 102.847 29.6556 102.574 30.0416 102.396C30.582 102.146 31.2412 102.021 32.0192 102.021C33.1298 102.021 34.0562 102.402 34.7986 103.162C35.5468 103.922 35.921 104.836 35.921 105.905C35.921 106.856 35.529 107.705 34.7451 108.453C33.9671 109.196 32.9813 109.567 31.7876 109.567C31.0512 109.567 30.3564 109.374 29.7031 108.988C29.2161 108.697 28.7974 108.266 28.447 107.696C28.0967 107.126 27.9215 106.476 27.9215 105.745ZM31.8589 109.219C32.3102 109.219 32.7438 109.098 33.1595 108.854C33.5811 108.611 33.9167 108.222 34.1661 107.687C34.4155 107.147 34.5402 106.523 34.5402 105.816C34.5402 105.353 34.4422 104.816 34.2463 104.204C34.0562 103.592 33.7593 103.135 33.3554 102.832C32.9575 102.523 32.4884 102.369 31.948 102.369C31.556 102.369 31.1551 102.461 30.7454 102.645C30.3415 102.829 29.9971 103.183 29.712 103.705C29.4329 104.228 29.2933 104.97 29.2933 105.932C29.2933 107.013 29.5368 107.833 30.0238 108.391C30.5167 108.943 31.1284 109.219 31.8589 109.219ZM43.4569 102.859L43.4658 102.601L43.4569 101.558L43.4658 99.5896C43.4658 99.0432 43.4065 98.6958 43.2877 98.5473C43.1689 98.3988 42.8215 98.2474 42.2454 98.093C42.2039 98.0811 42.1385 98.0633 42.0494 98.0395V97.9415C42.0494 97.8822 42.0554 97.8168 42.0673 97.7456C42.8749 97.6624 43.5698 97.5229 44.1518 97.3269L44.6061 97.318C44.6298 97.7218 44.6417 98.1732 44.6417 98.672L44.6061 102.102L44.6684 105.968L44.6417 108.026C44.6417 108.447 44.6714 108.685 44.7308 108.738C44.8496 108.857 45.1109 108.919 45.5147 108.925C45.5979 108.925 45.7107 108.931 45.8532 108.943V109.103C45.8532 109.145 45.8503 109.19 45.8443 109.237C45.6602 109.279 45.4702 109.317 45.2742 109.353L43.9825 109.602C43.7925 109.638 43.641 109.656 43.5282 109.656V108.801C43.4272 108.83 43.2699 108.89 43.0561 108.979C42.1296 109.371 41.2774 109.567 40.4994 109.567C40.0303 109.567 39.5522 109.415 39.0652 109.112C38.5782 108.804 38.2041 108.376 37.9428 107.83C37.6815 107.283 37.5508 106.725 37.5508 106.155C37.5508 105.644 37.6369 105.157 37.8092 104.694C37.9814 104.225 38.2071 103.836 38.4862 103.527C38.6643 103.325 38.9167 103.126 39.2434 102.93C39.57 102.728 39.8402 102.601 40.054 102.547C40.5826 102.41 40.9359 102.342 41.1141 102.342C41.9158 102.342 42.575 102.461 43.0917 102.699C43.252 102.776 43.3738 102.829 43.4569 102.859ZM43.4658 108.364C43.4896 107.966 43.5015 107.147 43.5015 105.905C43.5015 104.854 43.451 104.192 43.35 103.919C43.255 103.64 43.0115 103.378 42.6196 103.135C42.2276 102.886 41.7881 102.761 41.3012 102.761C40.6182 102.761 40.0392 103.025 39.5641 103.554C39.089 104.082 38.8514 104.863 38.8514 105.897C38.8514 106.805 39.1068 107.53 39.6175 108.07C40.1342 108.611 40.7756 108.881 41.5417 108.881C41.9812 108.881 42.382 108.821 42.7443 108.703C43.1065 108.584 43.3471 108.471 43.4658 108.364ZM46.5477 102.307C46.6784 102.295 46.7882 102.289 46.8773 102.289H47.3049L47.8839 102.271L48.6411 102.298L49.2558 102.28C49.5824 102.28 49.8764 102.301 50.1377 102.342C50.1615 102.402 50.1733 102.449 50.1733 102.485L50.1644 102.556C50.0397 102.615 49.8467 102.657 49.5854 102.681C49.2172 102.71 48.9529 102.776 48.7926 102.877L48.7747 102.975C48.7747 103.034 48.7985 103.123 48.846 103.242C48.8757 103.313 48.9143 103.42 48.9618 103.563C49.0925 104.002 49.3746 104.851 49.8081 106.11C50.1228 107.019 50.4138 107.8 50.6811 108.453C50.8474 108.097 51.0374 107.645 51.2512 107.099L52.0084 104.988C52.1747 104.525 52.3024 104.061 52.3915 103.598C52.4271 103.414 52.4449 103.269 52.4449 103.162C52.4449 103.073 52.4063 102.99 52.3291 102.912C52.2519 102.835 52.0975 102.77 51.8659 102.716C51.4442 102.609 51.2156 102.544 51.1799 102.52C51.1443 102.491 51.1235 102.431 51.1176 102.342C51.1532 102.312 51.1948 102.289 51.2423 102.271H51.7946L52.3915 102.28L53.2823 102.271L53.8524 102.28L53.9949 102.271C54.0365 102.271 54.1048 102.277 54.1998 102.289C54.2592 102.318 54.2889 102.366 54.2889 102.431C54.2889 102.491 54.2622 102.544 54.2087 102.592L54.0306 102.618C53.6861 102.666 53.4218 102.755 53.2377 102.886C53.1368 102.957 53.0507 103.105 52.9794 103.331C52.9556 103.414 52.917 103.521 52.8636 103.652C52.8339 103.723 52.7894 103.842 52.73 104.008C52.6765 104.174 52.6053 104.37 52.5162 104.596L52.4093 104.845L52.4004 104.89L50.886 108.881L49.7814 111.883C49.7101 112.031 49.627 112.215 49.5319 112.435C49.3063 112.857 49.1726 113.088 49.1311 113.13C48.9529 113.35 48.7985 113.504 48.6679 113.593L48.2135 113.789C48.1245 113.813 48.0294 113.825 47.9285 113.825C47.6612 113.825 47.4652 113.765 47.3405 113.647C47.2158 113.534 47.1535 113.376 47.1535 113.174C47.1535 112.984 47.2455 112.812 47.4296 112.658C47.489 112.64 47.5484 112.616 47.6078 112.587L47.7236 112.56C48.2521 112.655 48.5817 112.702 48.7124 112.702C48.8371 112.637 48.9292 112.56 48.9885 112.471C49.2795 112.037 49.529 111.553 49.7368 111.019C49.9447 110.484 50.0486 110.125 50.0486 109.941C50.0486 109.739 49.9714 109.445 49.817 109.059L48.8282 106.44C48.6916 106.101 48.2848 104.997 47.6078 103.126C47.5662 103.007 47.5128 102.918 47.4474 102.859L46.8417 102.636L46.6546 102.601C46.5536 102.559 46.5032 102.5 46.5032 102.422L46.5477 102.307ZM12.551 130.38C12.5569 130.291 12.5807 130.21 12.6222 130.139C13.0855 130.014 13.5368 129.931 13.9763 129.89C14.2673 129.866 14.4544 129.801 14.5375 129.694C14.5969 129.616 14.6325 129.331 14.6444 128.839L14.7068 126.487L14.6978 124.892L14.7068 122.808V122.255C14.7127 121.002 14.7068 120.221 14.6889 119.913C14.683 119.853 14.6592 119.77 14.6177 119.663C14.4633 119.592 14.3326 119.544 14.2257 119.521C14.1248 119.497 13.6615 119.411 12.836 119.262C12.8301 119.197 12.8271 119.149 12.8271 119.12C12.8271 119.084 12.8301 119.037 12.836 118.977C12.9489 118.977 13.133 118.983 13.3883 118.995L14.7424 119.04L15.5263 119.057L15.7579 119.048C15.7876 119.048 15.8737 119.054 16.0163 119.066C16.3666 119.066 16.5686 119.063 16.622 119.057L17.3347 119.004C17.8157 119.004 18.1542 119.013 18.3502 119.031C18.3443 119.138 18.3235 119.253 18.2878 119.378C18.2225 119.39 17.9137 119.408 17.3614 119.431C16.8091 119.449 16.4914 119.482 16.4082 119.529C16.2716 119.607 16.2033 119.844 16.2033 120.242C16.2033 120.337 16.1974 120.53 16.1855 120.821V121.356L16.1944 123.004V123.565L16.2122 126.513L16.1855 129.026L16.1944 129.578C16.1944 129.756 16.2241 129.866 16.2835 129.907C16.432 129.913 16.8685 129.919 17.593 129.925H18.1988L19.7399 129.872C20.1437 129.86 20.4317 129.821 20.604 129.756C20.7762 129.685 21.0642 129.483 21.468 129.15C21.7115 128.936 21.9016 128.717 22.0382 128.491C22.0679 128.444 22.1183 128.372 22.1896 128.277C22.3024 128.123 22.4539 127.814 22.6439 127.351H22.9379C22.9023 127.565 22.8637 127.767 22.8221 127.957C22.6499 128.794 22.5311 129.492 22.4658 130.05C22.4539 130.169 22.442 130.279 22.4301 130.38L19.0985 130.282C16.236 130.282 14.5375 130.308 14.003 130.362C13.8367 130.374 13.6615 130.38 13.4774 130.38H12.551ZM23.9263 126.745C23.9263 126.341 24.0095 125.911 24.1758 125.453C24.348 124.99 24.6063 124.577 24.9508 124.215C25.2952 123.847 25.6605 123.574 26.0465 123.396C26.5869 123.146 27.2461 123.021 28.0241 123.021C29.1346 123.021 30.0611 123.402 30.8034 124.162C31.5517 124.922 31.9259 125.836 31.9259 126.905C31.9259 127.856 31.5339 128.705 30.75 129.453C29.972 130.196 28.9862 130.567 27.7925 130.567C27.0561 130.567 26.3612 130.374 25.708 129.988C25.221 129.697 24.8023 129.266 24.4519 128.696C24.1015 128.126 23.9263 127.476 23.9263 126.745ZM27.8637 130.219C28.3151 130.219 28.7486 130.098 29.1643 129.854C29.586 129.611 29.9215 129.222 30.171 128.687C30.4204 128.147 30.5451 127.523 30.5451 126.816C30.5451 126.353 30.4471 125.816 30.2511 125.204C30.0611 124.592 29.7642 124.135 29.3603 123.832C28.9624 123.523 28.4933 123.369 27.9528 123.369C27.5609 123.369 27.16 123.461 26.7502 123.645C26.3464 123.829 26.0019 124.183 25.7169 124.705C25.4378 125.228 25.2982 125.97 25.2982 126.932C25.2982 128.013 25.5417 128.833 26.0287 129.391C26.5216 129.943 27.1333 130.219 27.8637 130.219ZM35.5066 121.525L35.7827 121.534L35.8184 122.38L35.8006 123.476C35.9134 123.482 35.9847 123.485 36.0144 123.485C36.1688 123.485 36.4627 123.473 36.8963 123.449C37.1754 123.431 37.4426 123.422 37.698 123.422C37.8168 123.422 37.9949 123.425 38.2325 123.431C38.2444 123.55 38.2503 123.645 38.2503 123.716C38.2503 123.794 38.2325 123.915 38.1968 124.082H38.0454L36.6646 124.126L35.9787 124.144L35.8184 124.162C35.7709 124.31 35.7471 124.482 35.7471 124.678L35.7738 126.015L35.756 128.366C35.756 128.984 35.8362 129.394 35.9965 129.596C36.1509 129.804 36.3826 129.907 36.6914 129.907C36.8458 129.907 37.1368 129.86 37.5644 129.765C37.695 129.735 37.8702 129.637 38.09 129.471H38.1701C38.2236 129.471 38.2651 129.489 38.2948 129.524C38.3305 129.554 38.3483 129.596 38.3483 129.649L38.3394 129.712C38.084 129.991 37.79 130.196 37.4575 130.326C37.1308 130.451 36.6943 130.513 36.148 130.513C35.762 130.513 35.4413 130.424 35.1859 130.246C34.9365 130.068 34.7761 129.857 34.7049 129.614C34.6336 129.37 34.598 128.839 34.598 128.019L34.6336 126.015L34.6247 125.053V124.696C34.6247 124.53 34.6187 124.364 34.6069 124.197L34.4554 124.188L33.725 124.215L33.6537 124.224C33.5884 124.224 33.5379 124.209 33.5023 124.18C33.4726 124.15 33.4577 124.114 33.4577 124.073C33.4577 124.001 33.4785 123.945 33.5201 123.903C33.5676 123.856 33.7042 123.785 33.9298 123.69C34.0842 123.624 34.2624 123.503 34.4643 123.324C34.6722 123.14 34.8474 122.938 34.9899 122.719C35.0612 122.6 35.1621 122.374 35.2928 122.042C35.3878 121.798 35.4591 121.626 35.5066 121.525ZM39.9158 119.378C39.9158 119.182 39.99 119.013 40.1385 118.87C40.2929 118.728 40.477 118.656 40.6908 118.656C40.9105 118.656 41.1035 118.737 41.2698 118.897C41.4361 119.057 41.5192 119.23 41.5192 119.414C41.5192 119.598 41.4361 119.773 41.2698 119.939C41.1035 120.1 40.9105 120.18 40.6908 120.18C40.471 120.18 40.2869 120.106 40.1385 119.957C39.99 119.809 39.9158 119.616 39.9158 119.378ZM39.1675 123.992L39.1764 123.734C39.5624 123.621 39.7703 123.556 39.8 123.538C40.0138 123.443 40.2365 123.298 40.4681 123.102C40.7056 122.906 40.9046 122.686 41.0649 122.442C41.1362 122.431 41.1926 122.425 41.2342 122.425L41.3411 122.434C41.3648 122.719 41.3767 122.926 41.3767 123.057C41.3767 123.087 41.3708 123.22 41.3589 123.458V123.93L41.3678 126.496L41.3411 129.213C41.3351 129.432 41.3708 129.587 41.448 129.676C41.5252 129.759 41.7538 129.854 42.1339 129.961C42.3714 130.026 42.5496 130.083 42.6684 130.13C42.6862 130.172 42.6951 130.207 42.6951 130.237C42.6951 130.273 42.6803 130.317 42.6506 130.371C42.419 130.365 42.122 130.35 41.7598 130.326C41.2668 130.285 40.9402 130.264 40.7799 130.264C40.7027 130.264 40.2276 130.279 39.3546 130.308C39.1764 130.314 39.0042 130.329 38.8379 130.353C38.8082 130.353 38.7607 130.344 38.6953 130.326C38.6657 130.285 38.6508 130.249 38.6508 130.219C38.6508 130.136 38.7072 130.071 38.8201 130.023C38.8438 130.011 39.1467 129.943 39.7287 129.818C39.9187 129.783 40.0434 129.723 40.1028 129.64C40.2038 129.516 40.2543 129.317 40.2543 129.043C40.2662 128.586 40.2721 127.333 40.2721 125.284C40.2721 124.874 40.2543 124.619 40.2186 124.518C40.1889 124.447 40.1088 124.367 39.9781 124.278C39.8534 124.183 39.5832 124.087 39.1675 123.992ZM43.8528 126.745C43.8528 126.341 43.936 125.911 44.1022 125.453C44.2745 124.99 44.5328 124.577 44.8773 124.215C45.2217 123.847 45.5869 123.574 45.973 123.396C46.5134 123.146 47.1726 123.021 47.9506 123.021C49.0611 123.021 49.9876 123.402 50.7299 124.162C51.4782 124.922 51.8523 125.836 51.8523 126.905C51.8523 127.856 51.4604 128.705 50.6765 129.453C49.8985 130.196 48.9126 130.567 47.719 130.567C46.9825 130.567 46.2877 130.374 45.6344 129.988C45.1475 129.697 44.7288 129.266 44.3784 128.696C44.028 128.126 43.8528 127.476 43.8528 126.745ZM47.7902 130.219C48.2416 130.219 48.6751 130.098 49.0908 129.854C49.5125 129.611 49.848 129.222 50.0974 128.687C50.3469 128.147 50.4716 127.523 50.4716 126.816C50.4716 126.353 50.3736 125.816 50.1776 125.204C49.9876 124.592 49.6906 124.135 49.2868 123.832C48.8889 123.523 48.4197 123.369 47.8793 123.369C47.4873 123.369 47.0865 123.461 46.6767 123.645C46.2729 123.829 45.9284 124.183 45.6434 124.705C45.3642 125.228 45.2247 125.97 45.2247 126.932C45.2247 128.013 45.4682 128.833 45.9551 129.391C46.4481 129.943 47.0597 130.219 47.7902 130.219ZM53.2238 130.041C53.3723 130 53.5445 129.964 53.7405 129.934C54.1147 129.881 54.3374 129.818 54.4086 129.747C54.4858 129.676 54.5244 129.513 54.5244 129.257L54.5422 128.936C54.5482 128.818 54.5512 128.666 54.5512 128.482L54.5333 125.747C54.5333 125.379 54.4858 125.142 54.3908 125.035C54.2305 124.868 53.9335 124.753 53.5 124.687V124.367C53.9335 124.248 54.2661 124.093 54.4977 123.903C54.8362 123.636 55.1213 123.274 55.3529 122.817L55.6558 122.826C55.6736 123.105 55.6825 123.304 55.6825 123.422V124.01L55.6914 124.171C55.7627 124.123 55.8458 124.064 55.9408 123.992C56.2971 123.725 56.6624 123.508 57.0365 123.342C57.4107 123.17 57.7432 123.051 58.0342 122.986C58.2183 122.938 58.4262 122.915 58.6578 122.915C59.1448 122.915 59.5635 123.045 59.9139 123.307C60.2642 123.568 60.4899 123.877 60.5909 124.233C60.6978 124.583 60.7512 125.284 60.7512 126.335V127.68C60.7512 127.716 60.7453 127.835 60.7334 128.037C60.7275 128.239 60.7245 128.47 60.7245 128.732C60.7245 129.147 60.7423 129.412 60.778 129.524C60.8076 129.602 60.8848 129.679 61.0096 129.756C61.5797 129.833 61.9123 129.925 62.0073 130.032V130.103C62.0073 130.163 61.9895 130.237 61.9538 130.326H61.7846L60.6087 130.317L59.4506 130.335C59.023 130.347 58.6281 130.344 58.2659 130.326L58.2124 130.139C58.2124 130.103 58.2332 130.056 58.2748 129.997C58.4351 129.925 58.6608 129.878 58.9518 129.854C59.124 129.842 59.2428 129.824 59.3081 129.801C59.3734 129.777 59.4536 129.729 59.5486 129.658C59.6199 129.516 59.6555 129.397 59.6555 129.302C59.6555 129.26 59.6496 129.177 59.6377 129.052C59.6199 128.779 59.608 128.099 59.6021 127.012V126.549L59.6199 125.836C59.6199 125.07 59.4655 124.542 59.1567 124.251C58.8479 123.96 58.4351 123.814 57.9184 123.814C57.5205 123.814 57.1315 123.903 56.7515 124.082C56.3714 124.254 56.0032 124.515 55.6469 124.865C55.635 125.151 55.629 125.394 55.629 125.596L55.6558 127.565C55.6558 128.592 55.6706 129.222 55.7003 129.453C55.7122 129.548 55.733 129.614 55.7627 129.649C55.8102 129.697 55.9052 129.735 56.0477 129.765C56.1903 129.795 56.3536 129.836 56.5377 129.89C56.7277 129.943 56.8524 129.976 56.9118 129.988C57.0306 130.017 57.1108 130.077 57.1523 130.166L57.1434 130.344H56.2081L54.2839 130.317C53.8385 130.329 53.5564 130.335 53.4376 130.335H53.2149L53.1971 130.219C53.1971 130.178 53.206 130.118 53.2238 130.041Z" fill="black"/>
</svg>
