<svg width="76" height="188" viewBox="0 0 76 188" fill="none" xmlns="http://www.w3.org/2000/svg">
<path d="M0.328125 176.979V71.0473C0.328125 71.0473 1.93355 59.9096 6.23073 54.6237C10.6199 49.2247 21.4791 45.4265 21.4791 45.4265L21.971 23.5832C21.971 23.5832 21.8619 21.9832 22.6269 21.1196C23.2456 20.4211 24.2665 19.97 24.2665 19.97H34.596V7.81656L29.0213 5.6815L29.5132 2.39678L62.6334 0.425956C62.6334 0.425956 65.3461 0.201442 67.0604 0.425956C68.2311 0.579282 70.0117 1.0829 70.0117 1.0829L75.2584 3.05373L70.8315 6.66691L67.5522 5.6815C67.5522 5.6815 66.0869 5.02456 65.0928 5.02456C64.0988 5.02456 62.6334 5.6815 62.6334 5.6815L42.3022 9.45892V20.6269H51.1561C51.1561 20.6269 52.2191 21.0231 52.7957 21.4481C53.3063 21.8244 53.9435 22.5978 53.9435 22.5978V46.0835C53.9435 46.0835 65.3177 49.9657 69.5198 55.7734C73.1693 60.8173 74.1107 71.0473 74.1107 71.0473V176.979C74.1107 176.979 73.9714 181.462 72.4711 183.713C71.2603 185.53 68.2081 187.326 68.2081 187.326H6.06677C6.06677 187.326 3.42144 185.415 2.29566 183.713C0.784607 181.429 0.328125 176.979 0.328125 176.979Z" fill="#A6EFFE" stroke="black" stroke-width="0.651568"/>
<path d="M16.7515 116.188C16.8227 116.646 16.8584 117.115 16.8584 117.596C16.8584 117.691 16.8554 117.818 16.8495 117.979C16.7663 117.997 16.704 118.005 16.6624 118.005C16.6268 118.005 16.5763 118 16.511 117.988C16.2615 117.293 15.8547 116.758 15.2905 116.384C14.7264 116.01 14.0286 115.823 13.1971 115.823C12.7577 115.823 12.3865 115.873 12.0836 115.974C11.5491 116.159 11.08 116.414 10.6761 116.741C10.2723 117.061 9.9308 117.447 9.65168 117.899C9.37255 118.344 9.14985 118.887 8.98357 119.529C8.82322 120.164 8.74304 120.815 8.74304 121.48C8.74304 122.751 8.93605 123.802 9.32208 124.633C9.7081 125.459 10.2366 126.05 10.9077 126.406C11.5788 126.756 12.2558 126.931 12.9388 126.931L13.3575 126.923C13.8326 126.863 14.1562 126.807 14.3285 126.753C14.762 126.629 15.1183 126.483 15.3974 126.317C15.6825 126.145 15.9587 125.904 16.2259 125.595C16.4991 125.286 16.7307 124.927 16.9207 124.517L17.0276 124.482C17.0573 124.482 17.1019 124.5 17.1613 124.535C17.1553 124.678 17.1494 124.77 17.1434 124.811C16.894 125.815 16.7129 126.501 16.6 126.869C16.505 126.893 16.3862 126.928 16.2437 126.976C15.5489 127.214 14.6195 127.332 13.4555 127.332C12.5171 127.332 11.8134 127.267 11.3442 127.136C10.881 127.012 10.3732 126.816 9.82093 126.548C9.27456 126.275 8.79352 125.916 8.37781 125.471C7.9621 125.025 7.62656 124.464 7.37119 123.787C7.11582 123.104 6.98814 122.362 6.98814 121.56C6.98814 120.8 7.0891 120.137 7.29102 119.573C7.49293 119.003 7.80472 118.427 8.22637 117.845C8.64802 117.263 9.14391 116.779 9.71403 116.393C10.2901 116.007 10.9285 115.734 11.6293 115.574C12.1222 115.467 12.82 115.413 13.7227 115.413C14.3819 115.413 15.0025 115.502 15.5845 115.68C16.1665 115.853 16.5555 116.022 16.7515 116.188ZM18.6218 116.055V115.859C18.7881 115.805 18.9722 115.749 19.1741 115.689C19.4711 115.594 19.9105 115.449 20.4925 115.253H20.9112C20.9172 115.538 20.9201 115.701 20.9201 115.743C20.9201 120.619 20.9053 123.526 20.8756 124.464C20.8578 125.016 20.8489 125.31 20.8489 125.346C20.8489 126.011 20.8756 126.382 20.929 126.459C21.0003 126.566 21.2171 126.64 21.5793 126.682C21.9475 126.724 22.1643 126.765 22.2296 126.807C22.2771 126.83 22.3009 126.872 22.3009 126.931C22.3009 126.997 22.2861 127.044 22.2564 127.074C22.2326 127.098 22.1851 127.11 22.1138 127.11C22.0723 127.11 21.7605 127.101 21.1785 127.083L20.0115 127.047L18.5149 127.11C18.4199 127.116 18.3486 127.098 18.3011 127.056C18.2655 127.026 18.2477 126.985 18.2477 126.931C18.2477 126.872 18.2655 126.83 18.3011 126.807C18.3427 126.777 18.5565 126.73 18.9425 126.664C19.3345 126.599 19.5572 126.545 19.6106 126.504C19.67 126.456 19.7086 126.355 19.7264 126.201C19.7502 125.987 19.7621 125.384 19.7621 124.393L19.7532 122.344L19.7799 120.224L19.771 118.103L19.7977 117.061C19.7977 116.853 19.765 116.705 19.6997 116.616C19.6344 116.521 19.4948 116.429 19.281 116.34C18.9603 116.209 18.7406 116.114 18.6218 116.055ZM29.7656 122.388L26.1934 122.415H25.5164C25.2432 122.415 24.9641 122.427 24.679 122.451C24.6256 122.629 24.5988 122.751 24.5988 122.816L24.6078 122.905V122.994L24.5988 123.431C24.5988 123.793 24.7117 124.238 24.9374 124.767C25.169 125.289 25.4956 125.69 25.9173 125.969C26.3448 126.243 26.8764 126.388 27.5118 126.406C27.8503 126.388 28.1205 126.346 28.3225 126.281C28.5244 126.216 28.8094 126.064 29.1776 125.827L29.819 125.301L29.8725 125.658C29.8725 125.699 29.8695 125.744 29.8636 125.791C29.5963 126.13 29.2578 126.427 28.848 126.682C28.4383 126.937 28.0225 127.124 27.6009 127.243C27.399 127.297 27.0664 127.323 26.6032 127.323C26.1815 127.323 25.7658 127.237 25.356 127.065C24.7503 126.804 24.2722 126.385 23.9218 125.809C23.5774 125.227 23.4052 124.523 23.4052 123.698C23.4052 123.436 23.4527 123.101 23.5477 122.691C23.6486 122.281 23.8268 121.845 24.0822 121.382C24.2544 121.067 24.4652 120.809 24.7147 120.607C25.071 120.322 25.3828 120.123 25.65 120.01C26.036 119.849 26.4844 119.769 26.9951 119.769C27.5474 119.769 27.9988 119.87 28.3492 120.072C28.8243 120.339 29.1776 120.684 29.4093 121.106C29.6468 121.527 29.7656 121.913 29.7656 122.264V122.388ZM24.7948 122.068H25.2135C25.5164 122.068 26.4191 122.02 27.9216 121.925C28.1591 121.913 28.3046 121.889 28.3581 121.854C28.465 121.741 28.5184 121.64 28.5184 121.551C28.5184 121.367 28.459 121.159 28.3403 120.927C28.2215 120.69 28.0374 120.509 27.788 120.384C27.5445 120.253 27.2594 120.188 26.9328 120.188C26.2439 120.188 25.6916 120.446 25.2759 120.963C24.9552 121.355 24.7948 121.723 24.7948 122.068ZM37.9251 125.88C37.9607 125.957 37.9785 126.014 37.9785 126.05C37.9785 126.139 37.9073 126.296 37.7647 126.522C37.5806 126.819 37.3758 127.035 37.1501 127.172C37.0076 127.261 36.8116 127.306 36.5621 127.306C36.1346 127.306 35.8139 127.175 35.6001 126.914C35.4694 126.759 35.3774 126.483 35.3239 126.085L34.3262 126.78C33.9758 126.982 33.7086 127.11 33.5245 127.163C33.2275 127.24 32.8712 127.279 32.4555 127.279C32.1526 127.279 31.9121 127.19 31.7339 127.012C31.5617 126.828 31.4756 126.593 31.4756 126.308C31.4756 125.898 31.725 125.408 32.2239 124.838C32.7287 124.268 33.4116 123.802 34.2727 123.439C34.8785 123.184 35.2497 123.021 35.3863 122.95C35.3981 122.754 35.4041 122.54 35.4041 122.308C35.4041 121.554 35.2972 121.043 35.0834 120.776C34.8755 120.509 34.5756 120.375 34.1837 120.375C33.7739 120.375 33.3908 120.535 33.0345 120.856C32.8148 121.058 32.6485 121.438 32.5357 121.996C32.5 122.151 32.4317 122.317 32.3308 122.495C32.0754 122.661 31.8705 122.745 31.7161 122.745C31.5855 122.745 31.4667 122.706 31.3598 122.629C31.3004 122.587 31.2707 122.54 31.2707 122.486C31.2707 122.332 31.434 121.984 31.7606 121.444C32.0932 120.898 32.5089 120.491 33.0078 120.224C33.5126 119.95 33.9521 119.814 34.3262 119.814C34.8369 119.814 35.217 119.861 35.4664 119.956C35.7159 120.045 35.9356 120.206 36.1256 120.437C36.3157 120.669 36.4315 120.921 36.4731 121.195C36.4968 121.325 36.5087 121.791 36.5087 122.593L36.482 124.01L36.4909 125.043C36.4909 125.18 36.4879 125.295 36.482 125.39C36.476 125.563 36.4731 125.69 36.4731 125.773C36.4731 125.969 36.5295 126.127 36.6423 126.246C36.7552 126.364 36.8888 126.424 37.0432 126.424C37.2689 126.424 37.4619 126.311 37.6222 126.085L37.7291 125.943C37.7588 125.925 37.8241 125.904 37.9251 125.88ZM35.3061 125.622C35.3477 124.868 35.3685 124.336 35.3685 124.027C35.3685 123.867 35.3595 123.65 35.3417 123.377C34.9438 123.52 34.5222 123.736 34.0768 124.027C33.6314 124.318 33.278 124.654 33.0167 125.034C32.8267 125.307 32.7316 125.566 32.7316 125.809C32.7316 126.041 32.8088 126.234 32.9632 126.388C33.1236 126.542 33.3225 126.62 33.5601 126.62C33.7442 126.62 33.9669 126.554 34.2282 126.424C34.5727 126.251 34.932 125.984 35.3061 125.622ZM38.7977 126.807C38.9462 126.765 39.1184 126.73 39.3144 126.7C39.6886 126.646 39.9113 126.584 39.9825 126.513C40.0597 126.442 40.0983 126.278 40.0983 126.023L40.1161 125.702C40.1221 125.583 40.125 125.432 40.125 125.248L40.1072 122.513C40.1072 122.145 40.0597 121.907 39.9647 121.8C39.8044 121.634 39.5074 121.518 39.0739 121.453V121.132C39.5074 121.013 39.84 120.859 40.0716 120.669C40.4101 120.402 40.6952 120.04 40.9268 119.582L41.2297 119.591C41.2475 119.87 41.2564 120.069 41.2564 120.188V120.776L41.2653 120.936C41.3366 120.889 41.4197 120.829 41.5147 120.758C41.871 120.491 42.2363 120.274 42.6104 120.108C42.9846 119.936 43.3171 119.817 43.6081 119.751C43.7922 119.704 44.0001 119.68 44.2317 119.68C44.7187 119.68 45.1374 119.811 45.4878 120.072C45.8381 120.333 46.0638 120.642 46.1648 120.999C46.2717 121.349 46.3251 122.05 46.3251 123.101V124.446C46.3251 124.482 46.3192 124.6 46.3073 124.802C46.3014 125.004 46.2984 125.236 46.2984 125.497C46.2984 125.913 46.3162 126.177 46.3519 126.29C46.3815 126.367 46.4587 126.444 46.5835 126.522C47.1536 126.599 47.4862 126.691 47.5812 126.798V126.869C47.5812 126.928 47.5634 127.003 47.5277 127.092H47.3585L46.1826 127.083L45.0245 127.101C44.5969 127.113 44.202 127.11 43.8398 127.092L43.7863 126.905C43.7863 126.869 43.8071 126.822 43.8487 126.762C44.009 126.691 44.2347 126.643 44.5257 126.62C44.6979 126.608 44.8167 126.59 44.882 126.566C44.9473 126.542 45.0275 126.495 45.1225 126.424C45.1938 126.281 45.2294 126.162 45.2294 126.067C45.2294 126.026 45.2235 125.943 45.2116 125.818C45.1938 125.545 45.1819 124.865 45.176 123.778V123.315L45.1938 122.602C45.1938 121.836 45.0394 121.307 44.7306 121.016C44.4218 120.725 44.009 120.58 43.4923 120.58C43.0944 120.58 42.7054 120.669 42.3254 120.847C41.9453 121.019 41.5771 121.281 41.2208 121.631C41.2089 121.916 41.2029 122.16 41.2029 122.362L41.2297 124.33C41.2297 125.358 41.2445 125.987 41.2742 126.219C41.2861 126.314 41.3069 126.379 41.3366 126.415C41.3841 126.462 41.4791 126.501 41.6216 126.531C41.7642 126.56 41.9275 126.602 42.1116 126.655C42.3016 126.709 42.4263 126.741 42.4857 126.753C42.6045 126.783 42.6847 126.842 42.7262 126.931L42.7173 127.11H41.782L39.8578 127.083C39.4124 127.095 39.1303 127.101 39.0115 127.101H38.7888L38.771 126.985C38.771 126.943 38.7799 126.884 38.7977 126.807ZM49.4337 124.829C49.6534 125.393 49.8197 125.759 49.9326 125.925C50.1582 126.263 50.4285 126.528 50.7432 126.718C51.058 126.902 51.3994 126.994 51.7677 126.994C52.1062 126.994 52.4417 126.848 52.7743 126.557C53.0118 126.338 53.1306 126.082 53.1306 125.791C53.1306 125.405 52.991 125.049 52.7119 124.722C52.4328 124.402 51.9013 124.096 51.1174 123.805C50.3394 123.508 49.8168 123.193 49.5495 122.86C49.2823 122.528 49.1487 122.148 49.1487 121.72C49.1487 121.316 49.2585 120.96 49.4783 120.651C49.698 120.342 50.0009 120.111 50.3869 119.956C50.7729 119.796 51.1292 119.716 51.4559 119.716C51.8775 119.716 52.2546 119.749 52.5872 119.814C52.9257 119.879 53.2167 119.98 53.4602 120.117C53.5077 120.42 53.5463 120.865 53.576 121.453L53.5938 121.738C53.5166 121.744 53.4513 121.747 53.3978 121.747H53.2731C53.095 121.254 52.8218 120.865 52.4536 120.58C52.0913 120.289 51.732 120.143 51.3757 120.143C51.0194 120.143 50.7313 120.253 50.5116 120.473C50.2919 120.687 50.182 120.969 50.182 121.319C50.182 121.587 50.2711 121.824 50.4492 122.032C50.6274 122.24 51.0431 122.477 51.6964 122.745C52.3556 123.012 52.8337 123.261 53.1306 123.493C53.4335 123.719 53.6562 123.995 53.7987 124.321C53.9412 124.648 54.0125 124.96 54.0125 125.257C54.0125 125.666 53.8759 126.05 53.6027 126.406C53.3355 126.762 52.997 127.012 52.5872 127.154C52.1834 127.303 51.8211 127.377 51.5004 127.377C50.7462 127.377 50.0513 127.237 49.4159 126.958C49.3565 126.911 49.3238 126.822 49.3179 126.691C49.3179 126.637 49.312 126.551 49.3001 126.433C49.2051 125.631 49.1576 125.156 49.1576 125.007C49.1576 124.936 49.1724 124.889 49.2021 124.865C49.2318 124.841 49.309 124.829 49.4337 124.829ZM62.2255 122.388L58.6533 122.415H57.9763C57.7031 122.415 57.424 122.427 57.1389 122.451C57.0855 122.629 57.0587 122.751 57.0587 122.816L57.0676 122.905V122.994L57.0587 123.431C57.0587 123.793 57.1716 124.238 57.3973 124.767C57.6289 125.289 57.9555 125.69 58.3771 125.969C58.8047 126.243 59.3363 126.388 59.9717 126.406C60.3102 126.388 60.5804 126.346 60.7823 126.281C60.9843 126.216 61.2693 126.064 61.6375 125.827L62.2789 125.301L62.3324 125.658C62.3324 125.699 62.3294 125.744 62.3235 125.791C62.0562 126.13 61.7177 126.427 61.3079 126.682C60.8982 126.937 60.4824 127.124 60.0608 127.243C59.8589 127.297 59.5263 127.323 59.0631 127.323C58.6414 127.323 58.2257 127.237 57.8159 127.065C57.2102 126.804 56.7321 126.385 56.3817 125.809C56.0373 125.227 55.865 124.523 55.865 123.698C55.865 123.436 55.9126 123.101 56.0076 122.691C56.1085 122.281 56.2867 121.845 56.5421 121.382C56.7143 121.067 56.9251 120.809 57.1745 120.607C57.5309 120.322 57.8427 120.123 58.1099 120.01C58.4959 119.849 58.9443 119.769 59.455 119.769C60.0073 119.769 60.4587 119.87 60.8091 120.072C61.2842 120.339 61.6375 120.684 61.8691 121.106C62.1067 121.527 62.2255 121.913 62.2255 122.264V122.388ZM57.2547 122.068H57.6734C57.9763 122.068 58.879 122.02 60.3815 121.925C60.619 121.913 60.7645 121.889 60.818 121.854C60.9249 121.741 60.9783 121.64 60.9783 121.551C60.9783 121.367 60.9189 121.159 60.8002 120.927C60.6814 120.69 60.4973 120.509 60.2479 120.384C60.0044 120.253 59.7193 120.188 59.3927 120.188C58.7038 120.188 58.1515 120.446 57.7358 120.963C57.4151 121.355 57.2547 121.723 57.2547 122.068ZM63.5079 127.119L63.4723 127.003C63.4723 126.961 63.499 126.899 63.5524 126.816L64.078 126.709L64.8174 126.575C64.8768 126.545 64.9183 126.504 64.9421 126.45C64.9777 126.373 64.9956 126.145 64.9956 125.764C64.9956 123.745 64.9837 122.581 64.9599 122.272C64.9362 121.958 64.8827 121.759 64.7996 121.676C64.7164 121.592 64.5026 121.527 64.1582 121.48C63.9563 121.45 63.7959 121.411 63.6771 121.364L63.7128 121.097C64.3363 120.841 64.755 120.622 64.9688 120.437C65.2658 120.17 65.5182 119.82 65.726 119.386L66.0289 119.395C66.0645 119.692 66.0823 120.351 66.0823 121.373L66.0734 121.524C66.0734 121.56 66.0794 121.616 66.0913 121.693C66.3169 121.284 66.599 120.907 66.9375 120.562L67.1424 120.357C67.2256 120.262 67.3057 120.188 67.3829 120.135C67.7987 119.885 68.1075 119.76 68.3094 119.76C68.5707 119.76 68.7845 119.849 68.9508 120.028C69.1171 120.2 69.2002 120.414 69.2002 120.669C69.2002 120.871 69.1408 121.028 69.022 121.141C68.8617 121.29 68.6776 121.364 68.4697 121.364C68.3747 121.364 68.1876 121.313 67.9085 121.212C67.6294 121.111 67.4453 121.061 67.3562 121.061C67.1899 121.061 67.0741 121.088 67.0088 121.141C66.8425 121.272 66.6406 121.539 66.403 121.943C66.2189 122.246 66.1269 122.525 66.1269 122.78L66.1714 124.25L66.1892 126.014C66.2071 126.216 66.2308 126.346 66.2605 126.406C66.2843 126.447 66.3437 126.498 66.4387 126.557C67.0801 126.611 67.4601 126.649 67.5789 126.673C67.6621 126.679 67.7244 126.685 67.766 126.691C68.0214 126.697 68.1995 126.733 68.3005 126.798C68.3539 126.828 68.3806 126.872 68.3806 126.931C68.3806 126.967 68.3569 127.015 68.3094 127.074L67.3206 127.065L66.9464 127.056L66.403 127.065H65.4944L65.0045 127.092L63.5079 127.119Z" fill="black"/>
</svg>
