<svg width="111" height="105" viewBox="0 0 111 105" fill="none" xmlns="http://www.w3.org/2000/svg">
<path d="M2.13533 41.8522L107.248 41.3583C108.14 41.3542 108.866 42.0736 108.87 42.965L109.123 96.7613C109.14 100.34 106.252 103.255 102.673 103.272L7.29227 103.72C3.71338 103.737 0.798272 100.849 0.781424 97.2703L0.528672 43.474C0.524627 42.5827 1.24404 41.8565 2.13533 41.8522Z" fill="#FA644B" stroke="black" stroke-width="0.664654"/>
<path d="M11.2733 40.5575L12.0685 41.1037C12.5684 41.4471 13.1606 41.6309 13.767 41.6309L89.9892 41.6309C91.9479 41.6309 93.2844 39.6488 92.55 37.8329C92.3297 37.2882 91.9415 36.8279 91.4417 36.5189L87.8044 34.2705C87.414 34.0291 86.9734 33.8805 86.5165 33.8362L76.5859 32.8733L72.8359 32.8733L66.9604 32.8733C66.7117 32.8733 66.464 32.8424 66.2229 32.7812L58.8239 30.9047C58.5829 30.8436 58.3351 30.8127 58.0864 30.8127L50.9609 30.8127L47.038 30.8127C46.3417 30.8127 45.6671 30.5705 45.1298 30.1277L43.3756 28.6817C43.0206 28.3891 42.603 28.1821 42.1552 28.0766L38.8001 27.2865C38.5748 27.2334 38.344 27.2066 38.1125 27.2066L31.5859 27.2066L26.7785 27.2066C26.2432 27.2066 25.7177 27.0634 25.2564 26.7918L22.2904 25.0456C21.8292 24.7741 21.3037 24.6309 20.7684 24.6309L16.5324 24.6309C15.4131 24.6309 14.387 25.2539 13.8707 26.2469L13.1816 27.5722C12.9546 28.0086 12.6239 28.3826 12.2184 28.6611L11.0719 29.4486C9.9118 30.2454 9.46157 31.7415 9.9892 33.0462L10.4425 34.1671C10.7715 34.9806 10.7234 35.9059 10.3186 36.6844C9.6196 38.0287 10.0243 39.6996 11.2733 40.5575Z" fill="#FDE67B" stroke="black" stroke-width="0.5"/>
<path d="M14.1888 1.81629L105.534 21.3773C107.982 21.9016 109.542 24.3119 109.018 26.7604L105.663 42.4296L5.45024 20.9697L8.8057 5.30051C9.33011 2.85209 11.7403 1.29207 14.1888 1.81629Z" fill="#FA644B" stroke="black" stroke-width="0.664654"/>
<path d="M19.893 78.4855C19.9535 78.4309 20.005 78.3976 20.0474 78.3855C20.1504 78.3552 20.3261 78.331 20.5745 78.3128C21.1621 78.2765 21.5256 78.2219 21.6649 78.1492C21.7498 78.0281 21.7922 77.8585 21.7922 77.6404L21.7831 77.0043L21.7922 74.6962L21.774 73.6057L21.7831 71.3249L21.7376 68.735C21.7316 68.1171 21.6922 67.7688 21.6195 67.69C21.5105 67.5749 21.1864 67.5083 20.6472 67.4901C20.417 67.4841 20.214 67.4659 20.0384 67.4356C19.9596 67.3932 19.9202 67.3387 19.9202 67.272C19.9202 67.2236 19.9354 67.166 19.9657 67.0994C20.0202 67.0691 20.0686 67.0539 20.111 67.0539C20.1959 67.0539 20.2988 67.057 20.42 67.063C20.7774 67.0933 21.147 67.1085 21.5286 67.1085L22.2011 67.0903L23.8004 67.1266C24.6001 67.1266 25.224 67.1175 25.6723 67.0994C26.1206 67.0812 26.4235 67.0721 26.581 67.0721C26.7204 67.0721 27.0657 67.0842 27.617 67.1085L28.9073 67.0994L29.0618 67.1266L29.816 67.0994L29.9069 67.1448C29.9372 67.1933 29.9584 67.2448 29.9705 67.2993C29.9705 67.3841 29.9554 67.5143 29.9251 67.69C29.9009 67.8657 29.8887 67.9748 29.8887 68.0172C29.8887 68.6472 29.9099 69.1803 29.9523 69.6165C29.9463 69.6528 29.9281 69.6771 29.8978 69.6892C29.8312 69.6892 29.7706 69.6801 29.7161 69.6619C29.6494 69.5468 29.5586 69.3439 29.4435 69.0531C29.3344 68.7623 29.1678 68.4261 28.9437 68.0444C28.7922 67.79 28.6741 67.6385 28.5893 67.5901C28.5045 67.5416 28.3288 67.5174 28.0622 67.5174C28.0077 67.5174 27.7321 67.5113 27.2353 67.4992C27.102 67.4931 26.9718 67.4901 26.8446 67.4901L24.2548 67.5446H24.0276C23.6944 67.5446 23.4945 67.587 23.4278 67.6719C23.3248 67.8172 23.2733 68.2443 23.2733 68.9531C23.2733 69.0258 23.2885 69.7528 23.3188 71.134V72.3971C23.3854 72.4153 23.4581 72.4244 23.5369 72.4244H23.6914C23.7943 72.4244 23.9458 72.4274 24.1457 72.4335C24.4607 72.4456 24.6728 72.4517 24.7818 72.4517C24.8545 72.4517 24.9181 72.4486 24.9726 72.4426C25.6269 72.4183 26.469 72.4062 27.4988 72.4062C27.8199 72.3517 28.0077 72.2881 28.0622 72.2154C28.1531 72.1063 28.2197 71.8216 28.2622 71.3612C28.3106 70.9008 28.4136 70.6403 28.5711 70.5797C28.6499 70.5797 28.7226 70.5949 28.7892 70.6252C28.8013 70.6736 28.8074 70.7191 28.8074 70.7615C28.8074 70.8039 28.8013 70.8735 28.7892 70.9705C28.7589 71.1946 28.7438 71.8973 28.7438 73.0787C28.7438 73.3937 28.7589 73.745 28.7892 74.1328C28.8255 74.5205 28.8437 74.7295 28.8437 74.7598C28.8437 74.8143 28.8346 74.887 28.8165 74.9779C28.768 75.0021 28.7286 75.0142 28.6983 75.0142H28.6347C28.5378 74.8446 28.4439 74.5811 28.353 74.2236C28.1955 73.6118 28.0289 73.2301 27.8532 73.0787C27.6836 72.9212 27.4049 72.8424 27.0172 72.8424C26.9324 72.8424 26.7779 72.8485 26.5538 72.8606C26.3296 72.8666 25.9964 72.8697 25.5542 72.8697H24.9635C24.1215 72.8697 23.5702 72.8878 23.3097 72.9242L23.3006 73.2241L23.3097 74.8961L23.3006 75.9502L23.3097 76.977C23.3158 77.5949 23.3551 77.9524 23.4278 78.0493C23.5308 78.1826 23.755 78.2492 24.1003 78.2492L24.6546 78.2401C24.703 78.2401 24.8908 78.2462 25.218 78.2583C25.5512 78.2643 25.9601 78.2674 26.4447 78.2674C27.6139 78.2674 28.3924 78.2189 28.7801 78.122C29.1678 78.019 29.4859 77.8403 29.7343 77.5858C29.9887 77.3314 30.3067 76.7832 30.6884 75.9411C30.8035 75.6927 30.9186 75.5685 31.0337 75.5685C31.0882 75.5685 31.1488 75.5927 31.2154 75.6412C31.0398 76.241 30.9398 76.6347 30.9156 76.8225C30.8489 77.2466 30.8096 77.6797 30.7974 78.122C30.7974 78.3219 30.749 78.4885 30.6521 78.6218H30.4521L27.8987 78.649L26.7537 78.6399L24.0276 78.6763H22.919C22.7796 78.6763 22.6494 78.6793 22.5282 78.6854C21.4378 78.7338 20.6351 78.7581 20.1201 78.7581C20.0293 78.7581 19.9657 78.7429 19.9293 78.7126C19.899 78.6824 19.8839 78.6369 19.8839 78.5763L19.893 78.4855ZM32.2964 71.8246C32.2843 71.7459 32.2783 71.6793 32.2783 71.6247V71.5066C32.3752 71.4824 32.4812 71.4702 32.5963 71.4702H32.9325C33.4535 71.4884 33.7807 71.4975 33.9139 71.4975C34.332 71.4975 34.756 71.4915 35.1861 71.4793C35.4527 71.4733 35.6163 71.4702 35.6768 71.4702H35.8949C35.9373 71.5551 35.9585 71.6187 35.9585 71.6611C35.9585 71.6914 35.9464 71.7338 35.9222 71.7883L35.7859 71.8065C35.3436 71.8489 35.065 71.9034 34.9499 71.97C34.9014 72.0003 34.8772 72.0397 34.8772 72.0882C34.8772 72.1851 34.9499 72.3275 35.0953 72.5153C35.8041 73.4361 36.2857 74.0298 36.5401 74.2963C37.1096 73.533 37.4488 73.0453 37.5579 72.8333C37.673 72.6152 37.7305 72.4456 37.7305 72.3244C37.7305 72.1851 37.676 72.07 37.5669 71.9791C37.4579 71.8822 37.1913 71.8034 36.7673 71.7429C36.7188 71.6702 36.6946 71.6096 36.6946 71.5611L36.7219 71.4702L36.9581 71.4612C37.0187 71.4612 37.1247 71.4642 37.2762 71.4702C37.5367 71.4884 37.7972 71.4975 38.0576 71.4975C38.1909 71.4975 38.4211 71.4945 38.7483 71.4884C39.0754 71.4763 39.3238 71.4702 39.4934 71.4702H39.9114C39.9902 71.5066 40.0295 71.5551 40.0295 71.6156C40.0295 71.6459 40.0235 71.6853 40.0114 71.7338C39.9144 71.758 39.7963 71.7822 39.657 71.8065C39.3298 71.8549 39.0118 71.9731 38.7028 72.1609C38.4726 72.3002 38.2454 72.5213 38.0213 72.8242L36.7309 74.5689L38.0486 76.2228C38.6544 77.0406 39.0239 77.5222 39.1572 77.6676C39.2965 77.813 39.4449 77.9312 39.6025 78.022C39.76 78.1129 39.9902 78.1977 40.2931 78.2765C40.2991 78.3492 40.3022 78.4128 40.3022 78.4673C40.3022 78.5097 40.29 78.5672 40.2658 78.6399C40.1568 78.6399 39.6055 78.6248 38.612 78.5945C38.5514 78.5945 38.2606 78.6006 37.7396 78.6127C37.576 78.6187 37.4185 78.6218 37.2671 78.6218C37.1277 78.6218 36.9551 78.6157 36.7491 78.6036L36.7764 78.331C36.8672 78.3128 36.9672 78.2916 37.0762 78.2674C37.3852 78.2068 37.6063 78.125 37.7396 78.022C37.8184 77.9554 37.8577 77.8827 37.8577 77.8039C37.8577 77.6707 37.4458 77.1133 36.6219 76.1319L36.0858 75.4867C35.8313 75.7412 35.5496 76.1016 35.2407 76.5681C35.065 76.8407 34.9226 77.0437 34.8136 77.1769C34.6076 77.4193 34.5046 77.6222 34.5046 77.7858C34.5046 77.8403 34.541 77.8978 34.6137 77.9584C34.6863 78.0129 34.8984 78.0796 35.2497 78.1583C35.486 78.2068 35.6526 78.2462 35.7495 78.2765C35.7677 78.3552 35.7768 78.4158 35.7768 78.4582C35.7768 78.4946 35.7707 78.5521 35.7586 78.6309C35.2922 78.6066 34.8378 78.5945 34.3956 78.5945C33.8382 78.5945 33.4323 78.6036 33.1779 78.6218C32.9295 78.6339 32.775 78.6399 32.7145 78.6399C32.6418 78.6399 32.5267 78.6339 32.3691 78.6218C32.3449 78.537 32.3328 78.4734 32.3328 78.4309L32.351 78.3128C32.4358 78.2704 32.5418 78.2431 32.669 78.231C33.0749 78.1886 33.4354 78.0372 33.7504 77.7767C34.0654 77.5162 34.7651 76.6468 35.8495 75.1687L34.6409 73.7148L33.3505 72.17C33.3142 72.1336 33.2688 72.0973 33.2142 72.0609C33.1173 72.0064 32.9871 71.964 32.8235 71.9337C32.5751 71.8852 32.3994 71.8489 32.2964 71.8246ZM44.2819 71.552C45.7904 71.5884 46.5931 71.6066 46.69 71.6066C46.7021 71.7398 46.7082 71.8398 46.7082 71.9064C46.7082 71.9852 46.6991 72.1033 46.6809 72.2608C46.5295 72.2851 46.375 72.2972 46.2175 72.2972H45.8722C45.121 72.2972 44.6 72.3244 44.3092 72.379C44.2971 72.5183 44.291 72.6243 44.291 72.697C44.291 72.7273 44.294 72.7727 44.3001 72.8333C44.3304 73.7844 44.3455 74.3599 44.3455 74.5599L44.3274 76.8952C44.3274 77.2405 44.3849 77.5283 44.5 77.7585C44.5667 77.8918 44.6908 77.9978 44.8726 78.0765C44.9877 78.1311 45.2664 78.1856 45.7086 78.2401C46.0418 78.2886 46.2659 78.3219 46.381 78.3401C46.381 78.4673 46.372 78.5642 46.3538 78.6309L46.2266 78.6399C45.9358 78.6218 45.5571 78.6066 45.0907 78.5945L44.4182 78.5672L42.1283 78.6399H41.8284L41.8193 78.3582C41.9102 78.3401 41.9768 78.3249 42.0192 78.3128C42.5402 78.2159 42.8765 78.1068 43.0279 77.9857C43.0885 77.9372 43.1309 77.8494 43.1551 77.7222C43.1672 77.6495 43.1733 77.3102 43.1733 76.7044C43.1733 74.9779 43.1582 73.5997 43.1279 72.5698C42.9704 72.5213 42.728 72.491 42.4009 72.4789C42.2797 72.4789 42.0889 72.4668 41.8284 72.4426L41.8102 72.3426C41.8102 72.2699 41.8405 72.2093 41.9011 72.1609C41.9253 72.1366 42.1798 72.0094 42.6644 71.7792C42.8522 71.6944 42.9855 71.5884 43.0643 71.4612C43.1067 71.3945 43.1309 71.2552 43.137 71.0432C43.143 70.9462 43.1612 70.7796 43.1915 70.5434C43.2642 69.9194 43.3217 69.5347 43.3641 69.3893C43.4732 68.9834 43.6549 68.5806 43.9094 68.1807C44.1699 67.7748 44.4818 67.4204 44.8453 67.1175C45.1119 66.8995 45.4118 66.7359 45.7449 66.6268C46.0842 66.5178 46.4689 66.4633 46.899 66.4633C47.4745 66.4633 47.8956 66.5572 48.1621 66.745C48.3438 66.8722 48.4347 67.0358 48.4347 67.2357C48.4347 67.4053 48.3711 67.5507 48.2439 67.6719C48.1167 67.793 47.9592 67.8536 47.7714 67.8536C47.5412 67.8536 47.2928 67.796 47.0262 67.6809C46.5234 67.481 46.2387 67.372 46.172 67.3538C46.0569 67.3235 45.9388 67.3084 45.8176 67.3084C45.4845 67.3084 45.1785 67.4144 44.8998 67.6264C44.6272 67.8384 44.4546 68.0989 44.3819 68.4079C44.3092 68.7169 44.2728 69.4105 44.2728 70.4888C44.2728 70.8766 44.2759 71.231 44.2819 71.552ZM47.9891 74.9779C47.9891 74.5659 48.0739 74.1267 48.2435 73.6602C48.4192 73.1877 48.6827 72.7667 49.0341 72.3971C49.3855 72.0215 49.758 71.7429 50.1518 71.5611C50.7031 71.3067 51.3755 71.1795 52.1691 71.1795C53.302 71.1795 54.2471 71.5672 55.0043 72.3426C55.7676 73.118 56.1493 74.051 56.1493 75.1414C56.1493 76.1107 55.7494 76.977 54.9498 77.7403C54.1562 78.4976 53.1505 78.8762 51.9329 78.8762C51.1817 78.8762 50.4729 78.6793 49.8065 78.2856C49.3097 77.9887 48.8827 77.5495 48.5252 76.9679C48.1678 76.3864 47.9891 75.723 47.9891 74.9779ZM52.0056 78.5218C52.466 78.5218 52.9082 78.3976 53.3323 78.1492C53.7624 77.9009 54.1047 77.5041 54.3591 76.9588C54.6136 76.4076 54.7408 75.7715 54.7408 75.0506C54.7408 74.578 54.6408 74.0298 54.4409 73.4058C54.2471 72.7818 53.9441 72.3153 53.5322 72.0064C53.1263 71.6914 52.6477 71.5339 52.0964 71.5339C51.6966 71.5339 51.2877 71.6278 50.8697 71.8156C50.4577 72.0034 50.1064 72.3638 49.8156 72.8969C49.5309 73.43 49.3885 74.1873 49.3885 75.1687C49.3885 76.2713 49.6369 77.1073 50.1336 77.6767C50.6365 78.2401 51.2604 78.5218 52.0056 78.5218ZM57.6755 67.372V67.1721C57.8452 67.1175 58.033 67.06 58.2389 66.9994C58.5418 66.9025 58.9901 66.7541 59.5838 66.5541H60.0109C60.017 66.8449 60.02 67.0115 60.02 67.0539C60.02 72.0276 60.0049 74.993 59.9746 75.9502C59.9564 76.5136 59.9473 76.8134 59.9473 76.8498C59.9473 77.5283 59.9746 77.9069 60.0291 77.9857C60.1018 78.0947 60.3229 78.1704 60.6924 78.2129C61.068 78.2553 61.2892 78.2977 61.3558 78.3401C61.4043 78.3643 61.4285 78.4067 61.4285 78.4673C61.4285 78.5339 61.4134 78.5824 61.3831 78.6127C61.3588 78.6369 61.3104 78.649 61.2377 78.649C61.1953 78.649 60.8772 78.6399 60.2835 78.6218L59.0931 78.5854L57.5665 78.649C57.4696 78.6551 57.3969 78.6369 57.3484 78.5945C57.3121 78.5642 57.2939 78.5218 57.2939 78.4673C57.2939 78.4067 57.3121 78.3643 57.3484 78.3401C57.3908 78.3098 57.6089 78.2613 58.0027 78.1947C58.4025 78.128 58.6297 78.0735 58.6842 78.0311C58.7448 77.9826 58.7842 77.8797 58.8023 77.7222C58.8266 77.5041 58.8387 76.8892 58.8387 75.8775L58.8296 73.7875L58.8569 71.6247L58.8478 69.462L58.875 68.3988C58.875 68.1868 58.8417 68.0353 58.7751 67.9445C58.7084 67.8475 58.5661 67.7536 58.348 67.6628C58.0209 67.5295 57.7967 67.4326 57.6755 67.372ZM63.1365 67.4629C63.1365 67.2629 63.2122 67.0903 63.3637 66.9449C63.5212 66.7995 63.709 66.7268 63.9271 66.7268C64.1512 66.7268 64.3481 66.8086 64.5177 66.9721C64.6874 67.1357 64.7722 67.3114 64.7722 67.4992C64.7722 67.687 64.6874 67.8657 64.5177 68.0353C64.3481 68.1989 64.1512 68.2807 63.9271 68.2807C63.7029 68.2807 63.5151 68.205 63.3637 68.0535C63.2122 67.9021 63.1365 67.7052 63.1365 67.4629ZM62.3732 72.17L62.3823 71.9064C62.7761 71.7913 62.9881 71.7247 63.0184 71.7065C63.2365 71.6096 63.4636 71.4612 63.6999 71.2612C63.9422 71.0613 64.1452 70.8372 64.3087 70.5888C64.3814 70.5767 64.439 70.5706 64.4814 70.5706L64.5904 70.5797C64.6147 70.8705 64.6268 71.0825 64.6268 71.2158C64.6268 71.2461 64.6207 71.3824 64.6086 71.6247V72.1063L64.6177 74.7234L64.5904 77.495C64.5844 77.7191 64.6207 77.8766 64.6995 77.9675C64.7782 78.0523 65.0115 78.1492 65.3992 78.2583C65.6415 78.3249 65.8233 78.3825 65.9444 78.4309C65.9626 78.4734 65.9717 78.5097 65.9717 78.54C65.9717 78.5763 65.9565 78.6218 65.9262 78.6763C65.69 78.6702 65.3871 78.6551 65.0175 78.6309C64.5147 78.5885 64.1815 78.5672 64.018 78.5672C63.9392 78.5672 63.4546 78.5824 62.564 78.6127C62.3823 78.6187 62.2066 78.6339 62.037 78.6581C62.0067 78.6581 61.9582 78.649 61.8916 78.6309C61.8613 78.5885 61.8461 78.5521 61.8461 78.5218C61.8461 78.437 61.9037 78.3704 62.0188 78.3219C62.043 78.3098 62.352 78.2401 62.9457 78.1129C63.1395 78.0765 63.2668 78.016 63.3273 77.9312C63.4303 77.8039 63.4818 77.601 63.4818 77.3223C63.4939 76.8559 63.5 75.5776 63.5 73.4876C63.5 73.0696 63.4818 72.8091 63.4455 72.7061C63.4152 72.6334 63.3334 72.5516 63.2001 72.4607C63.0729 72.3638 62.7973 72.2669 62.3732 72.17ZM73.8771 77.395C73.9134 77.4738 73.9316 77.5313 73.9316 77.5677C73.9316 77.6585 73.8589 77.8191 73.7135 78.0493C73.5257 78.3522 73.3167 78.5733 73.0865 78.7126C72.9411 78.8035 72.7412 78.8489 72.4867 78.8489C72.0506 78.8489 71.7234 78.7157 71.5053 78.4491C71.3721 78.2916 71.2782 78.0099 71.2236 77.604L70.2059 78.3128C69.8485 78.5188 69.5758 78.649 69.388 78.7036C69.0851 78.7823 68.7217 78.8217 68.2976 78.8217C67.9886 78.8217 67.7433 78.7308 67.5615 78.5491C67.3859 78.3613 67.298 78.122 67.298 77.8312C67.298 77.4132 67.5525 76.9134 68.0613 76.3318C68.5763 75.7503 69.2729 75.2747 70.1514 74.9052C70.7693 74.6447 71.1479 74.4781 71.2872 74.4054C71.2994 74.2055 71.3054 73.9874 71.3054 73.7511C71.3054 72.9817 71.1964 72.4607 70.9783 72.1881C70.7663 71.9155 70.4603 71.7792 70.0605 71.7792C69.6425 71.7792 69.2517 71.9428 68.8883 72.2699C68.6641 72.4759 68.4945 72.8636 68.3794 73.4331C68.343 73.5906 68.2734 73.7602 68.1704 73.9419C67.9099 74.1116 67.7009 74.1964 67.5434 74.1964C67.4101 74.1964 67.2889 74.157 67.1799 74.0782C67.1193 74.0358 67.089 73.9874 67.089 73.9328C67.089 73.7753 67.2556 73.4209 67.5888 72.8697C67.9281 72.3123 68.3521 71.8973 68.861 71.6247C69.3759 71.3461 69.8242 71.2067 70.2059 71.2067C70.7269 71.2067 71.1146 71.2552 71.369 71.3521C71.6235 71.443 71.8476 71.6066 72.0415 71.8428C72.2353 72.0791 72.3535 72.3365 72.3959 72.6152C72.4201 72.7485 72.4322 73.2241 72.4322 74.0419L72.405 75.4867L72.414 76.5408C72.414 76.6802 72.411 76.7983 72.405 76.8952C72.3989 77.0709 72.3959 77.2012 72.3959 77.286C72.3959 77.4859 72.4534 77.6464 72.5685 77.7676C72.6836 77.8887 72.8199 77.9493 72.9774 77.9493C73.2076 77.9493 73.4045 77.8342 73.5681 77.604L73.6771 77.4586C73.7074 77.4405 73.7741 77.4193 73.8771 77.395ZM71.2055 77.1315C71.2479 76.3621 71.2691 75.8199 71.2691 75.5049C71.2691 75.3413 71.26 75.1202 71.2418 74.8416C70.8359 74.9869 70.4058 75.2081 69.9514 75.5049C69.4971 75.8018 69.1366 76.144 68.8701 76.5317C68.6762 76.8104 68.5793 77.0739 68.5793 77.3223C68.5793 77.5586 68.6581 77.7555 68.8156 77.913C68.9791 78.0705 69.1821 78.1492 69.4244 78.1492C69.6122 78.1492 69.8394 78.0826 70.1059 77.9493C70.4573 77.7736 70.8238 77.501 71.2055 77.1315ZM74.7672 78.3401C74.9187 78.2977 75.0944 78.2613 75.2943 78.231C75.6759 78.1765 75.9031 78.1129 75.9758 78.0402C76.0546 77.9675 76.0939 77.8009 76.0939 77.5404L76.1121 77.2133C76.1182 77.0921 76.1212 76.9376 76.1212 76.7498L76.103 73.9601C76.103 73.5845 76.0546 73.3422 75.9576 73.2331C75.7941 73.0635 75.4912 72.9454 75.0489 72.8787V72.5516C75.4912 72.4304 75.8304 72.2729 76.0667 72.0791C76.412 71.8065 76.7028 71.4369 76.939 70.9705L77.248 70.9795C77.2662 71.2643 77.2753 71.4672 77.2753 71.5884V72.1881L77.2843 72.3517C77.357 72.3032 77.4419 72.2426 77.5388 72.17C77.9023 71.8973 78.2748 71.6762 78.6565 71.5066C79.0382 71.3309 79.3774 71.2098 79.6742 71.1431C79.862 71.0946 80.0741 71.0704 80.3103 71.0704C80.8071 71.0704 81.2342 71.2037 81.5916 71.4702C81.949 71.7368 82.1792 72.0518 82.2822 72.4153C82.3913 72.7727 82.4458 73.4876 82.4458 74.5599V75.932C82.4458 75.9683 82.4397 76.0895 82.4276 76.2955C82.4216 76.5015 82.4185 76.7377 82.4185 77.0043C82.4185 77.4283 82.4367 77.6979 82.4731 77.813C82.5034 77.8918 82.5821 77.9705 82.7093 78.0493C83.2909 78.128 83.6302 78.2219 83.7271 78.331V78.4037C83.7271 78.4643 83.7089 78.54 83.6726 78.6309H83.4999L82.3004 78.6218L81.1191 78.6399C80.6829 78.6521 80.2801 78.649 79.9105 78.6309L79.856 78.44C79.856 78.4037 79.8772 78.3552 79.9196 78.2946C80.0832 78.2219 80.3134 78.1735 80.6102 78.1492C80.7859 78.1371 80.9071 78.119 80.9737 78.0947C81.0403 78.0705 81.1221 78.022 81.219 77.9493C81.2917 77.8039 81.3281 77.6828 81.3281 77.5858C81.3281 77.5434 81.322 77.4586 81.3099 77.3314C81.2917 77.0527 81.2796 76.3591 81.2736 75.2505V74.7779L81.2917 74.051C81.2917 73.2695 81.1342 72.7303 80.8192 72.4335C80.5042 72.1366 80.0832 71.9882 79.5561 71.9882C79.1502 71.9882 78.7534 72.0791 78.3657 72.2608C77.978 72.4365 77.6024 72.7031 77.2389 73.0605C77.2268 73.3513 77.2207 73.5997 77.2207 73.8056L77.248 75.8139C77.248 76.8619 77.2631 77.5041 77.2934 77.7403C77.3056 77.8373 77.3268 77.9039 77.357 77.9402C77.4055 77.9887 77.5024 78.0281 77.6478 78.0584C77.7932 78.0887 77.9598 78.1311 78.1476 78.1856C78.3415 78.2401 78.4687 78.2734 78.5293 78.2856C78.6504 78.3158 78.7322 78.3764 78.7746 78.4673L78.7655 78.649H77.8114L75.8486 78.6218C75.3942 78.6339 75.1065 78.6399 74.9853 78.6399H74.7581L74.74 78.5218C74.74 78.4794 74.7491 78.4188 74.7672 78.3401ZM86.8981 69.6528L87.1798 69.6619L87.2162 70.5252L87.198 71.6429C87.3131 71.649 87.3858 71.652 87.4161 71.652C87.5736 71.652 87.8734 71.6399 88.3157 71.6156C88.6004 71.5975 88.873 71.5884 89.1335 71.5884C89.2547 71.5884 89.4364 71.5914 89.6787 71.5975C89.6909 71.7186 89.6969 71.8156 89.6969 71.8883C89.6969 71.967 89.6787 72.0912 89.6424 72.2608H89.4879L88.0794 72.3063L87.3797 72.3244L87.2162 72.3426C87.1677 72.4941 87.1435 72.6697 87.1435 72.8697L87.1707 74.2327L87.1525 76.6317C87.1525 77.2617 87.2343 77.6797 87.3979 77.8857C87.5554 78.0978 87.7917 78.2038 88.1067 78.2038C88.2642 78.2038 88.561 78.1553 88.9972 78.0584C89.1305 78.0281 89.3092 77.9281 89.5334 77.7585H89.6151C89.6697 77.7585 89.7121 77.7767 89.7424 77.813C89.7787 77.8433 89.7969 77.8857 89.7969 77.9402L89.7878 78.0039C89.5273 78.2886 89.2274 78.4976 88.8882 78.6309C88.555 78.7581 88.1097 78.8217 87.5524 78.8217C87.1586 78.8217 86.8315 78.7308 86.571 78.5491C86.3165 78.3673 86.153 78.1523 86.0803 77.9039C86.0076 77.6555 85.9712 77.1133 85.9712 76.2773L86.0076 74.2327L85.9985 73.2513V72.8878C85.9985 72.7182 85.9924 72.5486 85.9803 72.379L85.8258 72.3699L85.0807 72.3971L85.008 72.4062C84.9414 72.4062 84.8899 72.3911 84.8535 72.3608C84.8232 72.3305 84.8081 72.2941 84.8081 72.2517C84.8081 72.179 84.8293 72.1215 84.8717 72.0791C84.9202 72.0306 85.0595 71.9579 85.2897 71.861C85.4472 71.7944 85.6289 71.6702 85.8349 71.4884C86.0469 71.3006 86.2257 71.0946 86.3711 70.8705C86.4438 70.7493 86.5467 70.5191 86.68 70.1799C86.7769 69.9315 86.8496 69.7558 86.8981 69.6528Z" fill="black"/>
<circle cx="56.5859" cy="38.1309" r="0.5" fill="black" fill-opacity="0.59"/>
<circle cx="30.5859" cy="33.1309" r="0.5" fill="black" fill-opacity="0.5"/>
<circle cx="19.5859" cy="28.1309" r="0.5" fill="black" fill-opacity="0.5"/>
<circle cx="14.5859" cy="34.1309" r="0.5" fill="black" fill-opacity="0.5"/>
<circle cx="37.5859" cy="31.1309" r="0.5" fill="black" fill-opacity="0.5"/>
<circle cx="71.5859" cy="37.1309" r="0.5" fill="black" fill-opacity="0.5"/>
<circle cx="22.5859" cy="38.1309" r="0.5" fill="black" fill-opacity="0.5"/>
<circle cx="38.5859" cy="38.1309" r="0.5" fill="black" fill-opacity="0.5"/>
</svg>
