<svg width="50" height="153" viewBox="0 0 50 153" fill="none" xmlns="http://www.w3.org/2000/svg">
<path d="M0.5 145V68.5C0.5 68.5 0.837551 62.4074 2.5 59C3.78431 56.3677 7 53 7 53V8.5L13.5 4.5V0.5H36V4.5L42 7V53C42 53 44.7254 56.4888 46 59C47.7609 62.4693 49 68.5 49 68.5V145C49 145 48.1076 147.875 46.5 149.5C44.7627 151.256 41 152.5 41 152.5H7C7 152.5 3.86236 151.857 2.5 150.5C0.880925 148.887 0.5 145 0.5 145Z" fill="#574CFF"/>
<path d="M7 53C7 53 3.78431 56.3677 2.5 59C0.837551 62.4074 0.5 68.5 0.5 68.5V145C0.5 145 0.880925 148.887 2.5 150.5C3.86236 151.857 7 152.5 7 152.5H41C41 152.5 44.7627 151.256 46.5 149.5C48.1076 147.875 49 145 49 145V68.5C49 68.5 47.7609 62.4693 46 59C44.7254 56.4888 42 53 42 53M7 53V8.5L13.5 4.5V0.5H36V4.5L42 7V53M7 53H42" stroke="black"/>
<path d="M10.3116 92.6168L10.3194 92.4221C10.4336 92.3651 10.623 92.3157 10.8877 92.2742C11.1576 92.2275 11.3419 92.1834 11.4405 92.1419C11.5443 92.0952 11.6299 92.0355 11.6974 91.9628C11.7441 91.7344 11.7675 91.3218 11.7675 90.7249L11.6585 84.6679L11.6818 83.6636C11.6818 83.456 11.6429 83.3133 11.5651 83.2354C11.4924 83.1576 11.2978 83.0875 10.9812 83.0252C10.6646 82.9577 10.4777 82.9032 10.4206 82.8617C10.3635 82.8202 10.335 82.7761 10.335 82.7294C10.335 82.7034 10.3428 82.6697 10.3583 82.6281C10.4258 82.5866 10.4959 82.5659 10.5685 82.5659C10.6464 82.5659 10.8047 82.5711 11.0434 82.5814H11.2614C11.3341 82.5814 11.5391 82.5762 11.8765 82.5659H12.9587L15.1931 82.5269L17.5598 82.4335H17.77L18.1048 82.4257C18.1982 82.4257 18.2813 82.4517 18.3539 82.5036C18.3851 82.5866 18.4032 82.6463 18.4084 82.6826L18.4006 82.9941L18.4707 84.3876C18.4707 84.4447 18.4655 84.5174 18.4551 84.6056C18.3721 84.642 18.2968 84.6601 18.2293 84.6601C18.1826 84.6601 18.1463 84.6446 18.1204 84.6134C18.0788 84.5563 18.0529 84.4473 18.0425 84.2864C18.0217 84.0632 17.9413 83.7752 17.8012 83.4223C17.7337 83.2562 17.6221 83.142 17.4664 83.0797C17.155 82.9603 16.6308 82.9006 15.8937 82.9006C15.546 82.9006 15.2216 82.911 14.9206 82.9318C14.6195 82.9473 14.4353 82.9551 14.3678 82.9551L13.7605 82.9473C13.5114 82.9473 13.3064 82.9837 13.1455 83.0563C13.0365 83.1031 12.982 83.2146 12.982 83.3911V83.5079C12.9976 83.7726 13.0054 84.0658 13.0054 84.3876L12.982 86.5053C12.982 86.7129 12.9976 86.9101 13.0287 87.097L13.2545 87.1125L13.6905 87.0892H15.1775C15.7744 87.0892 16.1896 87.0476 16.4231 86.9646C16.5788 86.9075 16.6956 86.8219 16.7735 86.7077C16.7994 86.6714 16.8643 86.4663 16.9681 86.0926L17.0693 85.4465C17.1316 85.4153 17.1783 85.3997 17.2095 85.3997C17.2354 85.3997 17.2769 85.4127 17.334 85.4387C17.3548 85.558 17.3678 85.7397 17.373 85.9836L17.4664 88.8487C17.3781 88.885 17.3107 88.9032 17.264 88.9032L17.1783 88.8876C17.0953 88.3686 16.9655 87.9611 16.7891 87.6653C16.7268 87.5615 16.6567 87.5018 16.5788 87.4862C16.4439 87.4551 15.8263 87.4395 14.7259 87.4395C14.3834 87.4395 14.1472 87.4421 14.0175 87.4473C13.706 87.4629 13.5192 87.4706 13.4569 87.4706H13.3791C13.2234 87.4706 13.1118 87.4914 13.0443 87.5329C13.0235 87.5952 13.0131 87.6393 13.0131 87.6653V88.2025C13.0131 88.2648 13.0157 88.5243 13.0209 88.981L13.0054 91.558C13.0054 91.6306 13.0261 91.7215 13.0676 91.8305C13.1766 91.9187 13.3739 91.9784 13.6593 92.0095C13.95 92.0355 14.2225 92.1029 14.4768 92.2119C14.6221 92.2794 14.6948 92.3547 14.6948 92.4377C14.6948 92.474 14.6844 92.5078 14.6636 92.5389C14.6429 92.5701 14.6066 92.5934 14.5547 92.609C14.1291 92.5208 13.54 92.4766 12.7874 92.4766C12.3877 92.4766 11.9647 92.513 11.5184 92.5856C11.2121 92.6324 10.8618 92.6557 10.4673 92.6557L10.3116 92.6168ZM25.0646 91.4412C25.0957 91.5087 25.1113 91.558 25.1113 91.5891C25.1113 91.667 25.049 91.8045 24.9245 92.0017C24.7636 92.2612 24.5845 92.4507 24.3873 92.5701C24.2627 92.6479 24.0914 92.6868 23.8734 92.6868C23.4997 92.6868 23.2195 92.5727 23.0326 92.3443C22.9184 92.2093 22.838 91.968 22.7913 91.6203L21.9193 92.2275C21.6131 92.404 21.3795 92.5156 21.2186 92.5623C20.9591 92.6298 20.6477 92.6635 20.2844 92.6635C20.0197 92.6635 19.8095 92.5856 19.6538 92.4299C19.5032 92.269 19.428 92.064 19.428 91.8149C19.428 91.4568 19.646 91.0286 20.082 90.5303C20.5231 90.032 21.12 89.6246 21.8726 89.308C22.402 89.0848 22.7264 88.9421 22.8458 88.8798C22.8561 88.7085 22.8613 88.5217 22.8613 88.3193C22.8613 87.6601 22.7679 87.2137 22.5811 86.9802C22.3994 86.7466 22.1373 86.6298 21.7947 86.6298C21.4366 86.6298 21.1018 86.77 20.7904 87.0502C20.5984 87.2267 20.4531 87.5589 20.3544 88.0468C20.3233 88.1817 20.2636 88.327 20.1754 88.4827C19.9522 88.6281 19.7731 88.7007 19.6382 88.7007C19.524 88.7007 19.4202 88.667 19.3268 88.5995C19.2749 88.5632 19.2489 88.5217 19.2489 88.475C19.2489 88.34 19.3917 88.0364 19.6771 87.5641C19.9678 87.0866 20.3311 86.731 20.7671 86.4975C21.2082 86.2587 21.5923 86.1393 21.9193 86.1393C22.3657 86.1393 22.6978 86.1809 22.9158 86.2639C23.1338 86.3418 23.3259 86.4819 23.4919 86.6843C23.658 86.8867 23.7592 87.1073 23.7956 87.3461C23.8163 87.4603 23.8267 87.8677 23.8267 88.5684L23.8034 89.8063L23.8112 90.7094C23.8112 90.8287 23.8086 90.9299 23.8034 91.013C23.7982 91.1635 23.7956 91.2751 23.7956 91.3478C23.7956 91.519 23.8449 91.6566 23.9435 91.7604C24.0421 91.8642 24.1589 91.9161 24.2938 91.9161C24.4911 91.9161 24.6598 91.8175 24.7999 91.6203L24.8933 91.4957C24.9193 91.4801 24.9764 91.462 25.0646 91.4412ZM22.7757 91.2154C22.812 90.5563 22.8302 90.0917 22.8302 89.8218C22.8302 89.6817 22.8224 89.4923 22.8068 89.2535C22.4591 89.3781 22.0906 89.5675 21.7013 89.8218C21.312 90.0762 21.0032 90.3694 20.7749 90.7016C20.6088 90.9403 20.5257 91.1661 20.5257 91.3789C20.5257 91.5813 20.5932 91.75 20.7281 91.885C20.8683 92.0199 21.0422 92.0874 21.2498 92.0874C21.4107 92.0874 21.6053 92.0303 21.8337 91.9161C22.1347 91.7656 22.4487 91.532 22.7757 91.2154ZM31.7519 91.0753L31.7597 91.5813C31.3549 92.0121 30.9552 92.3132 30.5608 92.4844C30.1663 92.6557 29.7018 92.7413 29.1672 92.7413C28.5859 92.7413 28.0617 92.5908 27.5945 92.2898C27.1274 91.9836 26.7667 91.5528 26.5124 90.9974C26.2632 90.4421 26.1387 89.8971 26.1387 89.3625C26.1387 88.776 26.2892 88.2232 26.5902 87.7042C26.8964 87.18 27.2987 86.7907 27.797 86.5364C28.3004 86.2769 28.931 86.1471 29.6888 86.1471C30.4154 86.1471 30.9682 86.2717 31.3471 86.5208C31.5599 86.6662 31.6663 86.853 31.6663 87.0814C31.6663 87.2475 31.6118 87.385 31.5028 87.494C31.3938 87.603 31.2537 87.6575 31.0824 87.6575C30.8229 87.6575 30.5374 87.4966 30.226 87.1748C30.0339 86.9776 29.8601 86.8426 29.7044 86.77C29.5487 86.6921 29.3748 86.6532 29.1827 86.6532C28.7208 86.6532 28.3367 86.8426 28.0305 87.2215C27.6049 87.7613 27.3921 88.4386 27.3921 89.2535C27.3921 90.0943 27.6101 90.7639 28.0461 91.2621C28.4821 91.7604 28.9907 92.0095 29.572 92.0095C29.9769 92.0095 30.335 91.9446 30.6464 91.8149C30.963 91.6799 31.3315 91.4334 31.7519 91.0753ZM38.665 88.3893L35.5431 88.4127H34.9514C34.7126 88.4127 34.4687 88.4231 34.2196 88.4438C34.1729 88.5995 34.1495 88.7059 34.1495 88.763L34.1573 88.8409V88.9187L34.1495 89.3002C34.1495 89.6168 34.2481 90.0061 34.4453 90.468C34.6478 90.9248 34.9332 91.2751 35.3017 91.519C35.6754 91.7578 36.14 91.885 36.6953 91.9005C36.9912 91.885 37.2273 91.8486 37.4038 91.7915C37.5803 91.7344 37.8294 91.6021 38.1512 91.3945L38.7117 90.9351L38.7584 91.2466C38.7584 91.2829 38.7558 91.3218 38.7507 91.3633C38.5171 91.6592 38.2213 91.9187 37.8631 92.1419C37.505 92.3651 37.1417 92.5285 36.7732 92.6324C36.5967 92.6791 36.3061 92.7024 35.9012 92.7024C35.5327 92.7024 35.1694 92.6272 34.8113 92.4766C34.2819 92.2483 33.864 91.8824 33.5578 91.3789C33.2568 90.8703 33.1063 90.2552 33.1063 89.5338C33.1063 89.3054 33.1478 89.0122 33.2308 88.654C33.3191 88.2959 33.4748 87.9144 33.698 87.5096C33.8485 87.2345 34.0327 87.0087 34.2507 86.8322C34.5621 86.5831 34.8346 86.4092 35.0682 86.3106C35.4055 86.1705 35.7974 86.1004 36.2438 86.1004C36.7265 86.1004 37.1209 86.1887 37.4271 86.3651C37.8424 86.5987 38.1512 86.8997 38.3536 87.2682C38.5612 87.6367 38.665 87.9741 38.665 88.2803V88.3893ZM34.3208 88.109H34.6867C34.9514 88.109 35.7403 88.0675 37.0534 87.9845C37.2611 87.9741 37.3882 87.9533 37.4349 87.9222C37.5284 87.8236 37.5751 87.7354 37.5751 87.6575C37.5751 87.4966 37.5232 87.3149 37.4194 87.1125C37.3156 86.9049 37.1547 86.7466 36.9367 86.6376C36.7239 86.5234 36.4747 86.4663 36.1893 86.4663C35.5872 86.4663 35.1045 86.6921 34.7412 87.1437C34.4609 87.4862 34.3208 87.808 34.3208 88.109ZM17.0186 107.37C17.0186 107.017 17.0912 106.641 17.2366 106.241C17.3871 105.837 17.6129 105.476 17.9139 105.159C18.2149 104.837 18.5341 104.599 18.8715 104.443C19.3438 104.225 19.9199 104.116 20.5998 104.116C21.5704 104.116 22.3801 104.448 23.0289 105.113C23.6828 105.777 24.0098 106.576 24.0098 107.51C24.0098 108.341 23.6673 109.083 22.9822 109.737C22.3022 110.386 21.4407 110.71 20.3974 110.71C19.7538 110.71 19.1466 110.542 18.5756 110.204C18.15 109.95 17.7841 109.574 17.4779 109.075C17.1717 108.577 17.0186 108.009 17.0186 107.37ZM20.4597 110.407C20.8542 110.407 21.233 110.3 21.5964 110.087C21.9649 109.875 22.2581 109.535 22.4761 109.067C22.6941 108.595 22.8031 108.05 22.8031 107.433C22.8031 107.028 22.7175 106.558 22.5462 106.023C22.3801 105.489 22.1206 105.089 21.7676 104.824C21.4199 104.555 21.0099 104.42 20.5376 104.42C20.195 104.42 19.8447 104.5 19.4865 104.661C19.1336 104.822 18.8326 105.131 18.5834 105.587C18.3395 106.044 18.2175 106.693 18.2175 107.534C18.2175 108.478 18.4303 109.195 18.8559 109.683C19.2867 110.165 19.8213 110.407 20.4597 110.407ZM26.0181 100.932C26.0181 100.76 26.083 100.613 26.2128 100.488C26.3477 100.363 26.5086 100.301 26.6955 100.301C26.8875 100.301 27.0562 100.371 27.2015 100.511C27.3469 100.652 27.4195 100.802 27.4195 100.963C27.4195 101.124 27.3469 101.277 27.2015 101.422C27.0562 101.562 26.8875 101.632 26.6955 101.632C26.5034 101.632 26.3425 101.568 26.2128 101.438C26.083 101.308 26.0181 101.139 26.0181 100.932ZM25.3642 104.965L25.372 104.739C25.7093 104.64 25.891 104.583 25.9169 104.568C26.1038 104.485 26.2984 104.357 26.5008 104.186C26.7085 104.015 26.8823 103.823 27.0225 103.61C27.0847 103.6 27.1341 103.594 27.1704 103.594L27.2638 103.602C27.2846 103.851 27.2949 104.033 27.2949 104.147C27.2949 104.173 27.2898 104.29 27.2794 104.497V104.91L27.2872 107.152L27.2638 109.527C27.2586 109.719 27.2898 109.854 27.3572 109.932C27.4247 110.004 27.6245 110.087 27.9567 110.181C28.1643 110.238 28.32 110.287 28.4238 110.329C28.4394 110.365 28.4472 110.396 28.4472 110.422C28.4472 110.453 28.4342 110.492 28.4083 110.539C28.2058 110.534 27.9463 110.521 27.6297 110.5C27.1989 110.464 26.9135 110.446 26.7733 110.446C26.7059 110.446 26.2906 110.458 25.5277 110.484C25.372 110.49 25.2214 110.503 25.0761 110.523C25.0502 110.523 25.0086 110.516 24.9516 110.5C24.9256 110.464 24.9126 110.433 24.9126 110.407C24.9126 110.334 24.9619 110.277 25.0605 110.235C25.0813 110.225 25.346 110.165 25.8547 110.056C26.0207 110.025 26.1297 109.973 26.1816 109.901C26.2699 109.792 26.314 109.618 26.314 109.379C26.3244 108.979 26.3296 107.884 26.3296 106.093C26.3296 105.735 26.314 105.512 26.2829 105.424C26.2569 105.362 26.1868 105.292 26.0726 105.214C25.9636 105.131 25.7275 105.048 25.3642 104.965ZM29.2955 100.854V100.683C29.4408 100.636 29.6017 100.587 29.7782 100.535C30.0377 100.452 30.4218 100.325 30.9304 100.153H31.2963C31.3015 100.402 31.3041 100.545 31.3041 100.581C31.3041 104.843 31.2911 107.383 31.2652 108.203C31.2496 108.686 31.2418 108.943 31.2418 108.974C31.2418 109.555 31.2652 109.88 31.3119 109.947C31.3742 110.041 31.5636 110.106 31.8802 110.142C32.202 110.178 32.3915 110.215 32.4486 110.251C32.4901 110.272 32.5108 110.308 32.5108 110.36C32.5108 110.417 32.4979 110.458 32.4719 110.484C32.4512 110.505 32.4096 110.516 32.3473 110.516C32.311 110.516 32.0385 110.508 31.5299 110.492L30.51 110.461L29.2021 110.516C29.119 110.521 29.0567 110.505 29.0152 110.469C28.9841 110.443 28.9685 110.407 28.9685 110.36C28.9685 110.308 28.9841 110.272 29.0152 110.251C29.0515 110.225 29.2384 110.183 29.5758 110.126C29.9183 110.069 30.1129 110.022 30.1597 109.986C30.2116 109.945 30.2453 109.856 30.2609 109.721C30.2816 109.535 30.292 109.008 30.292 108.141L30.2842 106.35L30.3076 104.497L30.2998 102.645L30.3231 101.734C30.3231 101.552 30.2946 101.422 30.2375 101.344C30.1804 101.261 30.0584 101.181 29.8716 101.103C29.5913 100.989 29.3993 100.906 29.2955 100.854Z" fill="black"/>
</svg>
