<svg width="55" height="72" viewBox="0 0 55 72" fill="none" xmlns="http://www.w3.org/2000/svg">
<g filter="url(#filter0_d_309_579)">
<path d="M37.8428 14.1742C42.2468 8.60873 50.6907 8.60874 55.0947 14.1742L58.1188 17.9958C60.2141 20.6437 63.4096 22.1826 66.7863 22.1698L71.6595 22.1514C78.7567 22.1246 84.0213 28.7263 82.4159 35.6395L81.3136 40.3865C80.5498 43.6757 81.339 47.1335 83.4543 49.7655L86.5071 53.5641C90.9531 59.0962 89.0742 67.3283 82.6682 70.3835L78.2696 72.4814C75.2217 73.935 73.0104 76.7079 72.2715 80.0028L71.205 84.7579C69.6518 91.6831 62.0442 95.3468 55.6615 92.2433L51.2789 90.1123C48.2421 88.6357 44.6954 88.6357 41.6586 90.1123L37.276 92.2433C30.8933 95.3468 23.2857 91.6831 21.7325 84.7579L20.666 80.0028C19.9271 76.7079 17.7158 73.935 14.6679 72.4814L10.2693 70.3835C3.86334 67.3283 1.98442 59.0962 6.43039 53.5641L9.48319 49.7655C11.5985 47.1335 12.3877 43.6757 11.6239 40.3865L10.5216 35.6395C8.91616 28.7263 14.1808 22.1246 21.278 22.1514L26.1512 22.1698C29.5279 22.1826 32.7234 20.6437 34.8187 17.9958L37.8428 14.1742Z" fill="#3CBF97"/>
</g>
<defs>
<filter id="filter0_d_309_579" x="0" y="0" width="92.9375" height="93.3574" filterUnits="userSpaceOnUse" color-interpolation-filters="sRGB">
<feFlood flood-opacity="0" result="BackgroundImageFix"/>
<feColorMatrix in="SourceAlpha" type="matrix" values="0 0 0 0 0 0 0 0 0 0 0 0 0 0 0 0 0 0 127 0" result="hardAlpha"/>
<feOffset dy="-6"/>
<feGaussianBlur stdDeviation="2"/>
<feComposite in2="hardAlpha" operator="out"/>
<feColorMatrix type="matrix" values="0 0 0 0 0 0 0 0 0 0 0 0 0 0 0 0 0 0 0.45 0"/>
<feBlend mode="normal" in2="BackgroundImageFix" result="effect1_dropShadow_309_579"/>
<feBlend mode="normal" in="SourceGraphic" in2="effect1_dropShadow_309_579" result="shape"/>
</filter>
</defs>
</svg>
