<svg width="183" height="127" viewBox="0 0 183 127" fill="none" xmlns="http://www.w3.org/2000/svg">
<circle cx="101.5" cy="50" r="50" fill="#FDE67B"/>
<path d="M165.189 121.537C165.189 121.537 175.528 116.713 179.396 106.345C183.795 94.5499 183.266 83.5473 179.395 71.4908C172.952 51.4226 147.958 42.9922 130.043 41.1056C104.614 38.4276 90.4138 87.5785 90.4138 87.5785C90.4138 87.5785 74.9527 76.1657 66.4833 76.8473C56.56 77.6458 49.8972 85.1218 47.0417 96.5083C44.1507 108.036 53.7739 121.537 53.7739 121.537L60.5021 126L82.1879 126L108.359 126L134.53 126L156.962 124.218L165.189 121.537Z" fill="white" stroke="black"/>
<path d="M12.0751 56.0591C12.0751 56.0591 5.16173 53.3603 2.57575 47.5591C-0.365851 40.9602 -0.0123901 34.8044 2.5759 28.0591C6.88416 16.8313 23.5969 12.1146 35.5762 11.0591C52.5798 9.56081 62.0751 37.0598 62.0751 37.0598C62.0751 37.0598 72.4135 30.6746 78.0767 31.0559C84.7121 31.5027 89.1673 35.6853 91.0767 42.0559C93.0099 48.5056 86.5751 56.0591 86.5751 56.0591L82.0762 58.5559L67.5755 58.5559L50.0759 58.5559L32.5763 58.5559L17.5762 57.5591L12.0751 56.0591Z" fill="white" stroke="black"/>
</svg>
