<svg width="181" height="40" viewBox="0 0 181 40" fill="none" xmlns="http://www.w3.org/2000/svg">
<path d="M5.51883 15.6414C4.4255 15.6414 3.37883 15.4881 2.37883 15.1814C1.37883 14.8614 0.585495 14.4547 -0.00117187 13.9614L0.898828 11.9414C1.45883 12.3814 2.15216 12.7481 2.97883 13.0414C3.80549 13.3347 4.65216 13.4814 5.51883 13.4814C6.25216 13.4814 6.8455 13.4014 7.29883 13.2414C7.75216 13.0814 8.0855 12.8681 8.29883 12.6014C8.51216 12.3214 8.61883 12.0081 8.61883 11.6614C8.61883 11.2347 8.4655 10.8947 8.15883 10.6414C7.85216 10.3747 7.45216 10.1681 6.95883 10.0214C6.47883 9.86141 5.93883 9.71474 5.33883 9.58141C4.75216 9.44807 4.15883 9.29474 3.55883 9.12141C2.97216 8.93474 2.43216 8.70141 1.93883 8.42141C1.45883 8.12807 1.06549 7.74141 0.758828 7.26141C0.452162 6.78141 0.298828 6.16807 0.298828 5.42141C0.298828 4.66141 0.498828 3.96807 0.898828 3.34141C1.31216 2.70141 1.93216 2.19474 2.75883 1.82141C3.59883 1.43474 4.65883 1.24141 5.93883 1.24141C6.77883 1.24141 7.61216 1.34807 8.43883 1.56141C9.2655 1.77474 9.9855 2.08141 10.5988 2.48141L9.77883 4.50141C9.15216 4.12807 8.5055 3.85474 7.83883 3.68141C7.17216 3.49474 6.53216 3.40141 5.91883 3.40141C5.19883 3.40141 4.61216 3.48807 4.15883 3.66141C3.71883 3.83474 3.39216 4.06141 3.17883 4.34141C2.97883 4.62141 2.87883 4.94141 2.87883 5.30141C2.87883 5.72807 3.02549 6.07474 3.31883 6.34141C3.62549 6.59474 4.01883 6.79474 4.49883 6.94141C4.99216 7.08807 5.53883 7.23474 6.13883 7.38141C6.73883 7.51474 7.33216 7.66807 7.91883 7.84141C8.51883 8.01474 9.05883 8.24141 9.53883 8.52141C10.0322 8.80141 10.4255 9.18141 10.7188 9.66141C11.0255 10.1414 11.1788 10.7481 11.1788 11.4814C11.1788 12.2281 10.9722 12.9214 10.5588 13.5614C10.1588 14.1881 9.53883 14.6947 8.69883 15.0814C7.85883 15.4547 6.79883 15.6414 5.51883 15.6414ZM15.557 13.0614L15.617 9.92141L21.197 4.76141H24.197L19.457 9.52141L18.137 10.6214L15.557 13.0614ZM13.517 15.4414V0.601405H16.017V15.4414H13.517ZM21.577 15.4414L17.677 10.6214L19.257 8.62141L24.617 15.4414H21.577ZM26.2318 15.4414V4.76141H28.7318V15.4414H26.2318ZM27.4918 3.00141C27.0251 3.00141 26.6385 2.85474 26.3318 2.56141C26.0385 2.26807 25.8918 1.91474 25.8918 1.50141C25.8918 1.07474 26.0385 0.721405 26.3318 0.441405C26.6385 0.148072 27.0251 0.00140595 27.4918 0.00140595C27.9585 0.00140595 28.3385 0.141406 28.6318 0.421405C28.9385 0.688073 29.0918 1.02807 29.0918 1.44141C29.0918 1.88141 28.9451 2.25474 28.6518 2.56141C28.3585 2.85474 27.9718 3.00141 27.4918 3.00141ZM38.073 4.64141C38.9264 4.64141 39.6864 4.80807 40.353 5.14141C41.033 5.47474 41.5664 5.98807 41.953 6.68141C42.3397 7.36141 42.533 8.24141 42.533 9.32141V15.4414H40.033V9.64141C40.033 8.69474 39.8064 7.98807 39.353 7.52141C38.913 7.05474 38.293 6.82141 37.493 6.82141C36.9064 6.82141 36.3864 6.94141 35.933 7.18141C35.4797 7.42141 35.1264 7.78141 34.873 8.26141C34.633 8.72807 34.513 9.32141 34.513 10.0414V15.4414H32.013V4.76141H34.393V7.64141L33.973 6.76141C34.3464 6.08141 34.8864 5.56141 35.593 5.20141C36.313 4.82807 37.1397 4.64141 38.073 4.64141ZM50.624 15.5814C49.504 15.5814 48.504 15.3481 47.624 14.8814C46.7573 14.4014 46.0773 13.7481 45.584 12.9214C45.0907 12.0947 44.844 11.1547 44.844 10.1014C44.844 9.03474 45.0907 8.09474 45.584 7.28141C46.0773 6.45474 46.7573 5.80807 47.624 5.34141C48.504 4.87474 49.504 4.64141 50.624 4.64141C51.664 4.64141 52.5773 4.85474 53.364 5.28141C54.164 5.69474 54.7707 6.30807 55.184 7.12141L53.264 8.24141C52.944 7.73474 52.5507 7.36141 52.084 7.12141C51.6307 6.88141 51.1373 6.76141 50.604 6.76141C49.9907 6.76141 49.4373 6.89474 48.944 7.16141C48.4507 7.42807 48.064 7.81474 47.784 8.32141C47.504 8.81474 47.364 9.40807 47.364 10.1014C47.364 10.7947 47.504 11.3947 47.784 11.9014C48.064 12.3947 48.4507 12.7747 48.944 13.0414C49.4373 13.3081 49.9907 13.4414 50.604 13.4414C51.1373 13.4414 51.6307 13.3214 52.084 13.0814C52.5507 12.8414 52.944 12.4681 53.264 11.9614L55.184 13.0814C54.7707 13.8814 54.164 14.5014 53.364 14.9414C52.5773 15.3681 51.664 15.5814 50.624 15.5814ZM63.9251 15.4414V13.2814L63.7851 12.8214V9.04141C63.7851 8.30807 63.5651 7.74141 63.1251 7.34141C62.6851 6.92807 62.0184 6.72141 61.1251 6.72141C60.5251 6.72141 59.9317 6.81474 59.3451 7.00141C58.7717 7.18807 58.2851 7.44807 57.8851 7.78141L56.9051 5.96141C57.4784 5.52141 58.1584 5.19474 58.9451 4.98141C59.7451 4.75474 60.5717 4.64141 61.4251 4.64141C62.9717 4.64141 64.1651 5.01474 65.0051 5.76141C65.8584 6.49474 66.2851 7.63474 66.2851 9.18141V15.4414H63.9251ZM60.5651 15.5814C59.7651 15.5814 59.0651 15.4481 58.4651 15.1814C57.8651 14.9014 57.3984 14.5214 57.0651 14.0414C56.7451 13.5481 56.5851 12.9947 56.5851 12.3814C56.5851 11.7814 56.7251 11.2414 57.0051 10.7614C57.2984 10.2814 57.7717 9.90141 58.4251 9.62141C59.0784 9.34141 59.9451 9.20141 61.0251 9.20141H64.1251V10.8614H61.2051C60.3517 10.8614 59.7784 11.0014 59.4851 11.2814C59.1917 11.5481 59.0451 11.8814 59.0451 12.2814C59.0451 12.7347 59.2251 13.0947 59.5851 13.3614C59.9451 13.6281 60.4451 13.7614 61.0851 13.7614C61.6984 13.7614 62.2451 13.6214 62.7251 13.3414C63.2184 13.0614 63.5717 12.6481 63.7851 12.1014L64.2051 13.6014C63.9651 14.2281 63.5317 14.7147 62.9051 15.0614C62.2917 15.4081 61.5117 15.5814 60.5651 15.5814ZM69.4935 15.4414V4.76141H71.8735V7.70141L71.5935 6.84141C71.9135 6.12141 72.4135 5.57474 73.0935 5.20141C73.7868 4.82807 74.6468 4.64141 75.6735 4.64141V7.02141C75.5668 6.99474 75.4668 6.98141 75.3735 6.98141C75.2802 6.96807 75.1868 6.96141 75.0935 6.96141C74.1468 6.96141 73.3935 7.24141 72.8335 7.80141C72.2735 8.34807 71.9935 9.16807 71.9935 10.2614V15.4414H69.4935ZM82.7166 15.5814C81.53 15.5814 80.49 15.3481 79.5966 14.8814C78.7166 14.4014 78.03 13.7481 77.5366 12.9214C77.0566 12.0947 76.8166 11.1547 76.8166 10.1014C76.8166 9.03474 77.05 8.09474 77.5166 7.28141C77.9966 6.45474 78.65 5.80807 79.4766 5.34141C80.3166 4.87474 81.27 4.64141 82.3366 4.64141C83.3766 4.64141 84.3033 4.86807 85.1166 5.32141C85.93 5.77474 86.57 6.41474 87.0366 7.24141C87.5033 8.06807 87.7366 9.04141 87.7366 10.1614C87.7366 10.2681 87.73 10.3881 87.7166 10.5214C87.7166 10.6547 87.71 10.7814 87.6966 10.9014H78.7966V9.24141H86.3766L85.3966 9.76141C85.41 9.14807 85.2833 8.60807 85.0166 8.14141C84.75 7.67474 84.3833 7.30807 83.9166 7.04141C83.4633 6.77474 82.9366 6.64141 82.3366 6.64141C81.7233 6.64141 81.1833 6.77474 80.7166 7.04141C80.2633 7.30807 79.9033 7.68141 79.6366 8.16141C79.3833 8.62807 79.2566 9.18141 79.2566 9.82141V10.2214C79.2566 10.8614 79.4033 11.4281 79.6966 11.9214C79.99 12.4147 80.4033 12.7947 80.9366 13.0614C81.47 13.3281 82.0833 13.4614 82.7766 13.4614C83.3766 13.4614 83.9166 13.3681 84.3966 13.1814C84.8766 12.9947 85.3033 12.7014 85.6766 12.3014L87.0166 13.8414C86.5366 14.4014 85.93 14.8347 85.1966 15.1414C84.4766 15.4347 83.65 15.5814 82.7166 15.5814ZM89.478 18.4614L90.638 14.0414L90.978 15.5214C90.5114 15.5214 90.118 15.3814 89.798 15.1014C89.4914 14.8081 89.338 14.4147 89.338 13.9214C89.338 13.4147 89.4914 13.0147 89.798 12.7214C90.118 12.4147 90.5047 12.2614 90.958 12.2614C91.4247 12.2614 91.8114 12.4147 92.118 12.7214C92.4247 13.0281 92.578 13.4281 92.578 13.9214C92.578 14.0547 92.5647 14.2014 92.538 14.3614C92.5114 14.5081 92.4647 14.6814 92.398 14.8814C92.3447 15.0814 92.2514 15.3347 92.118 15.6414L91.098 18.4614H89.478ZM106.468 15.5814C105.562 15.5814 104.755 15.3814 104.048 14.9814C103.342 14.5814 102.782 13.9814 102.368 13.1814C101.968 12.3681 101.768 11.3414 101.768 10.1014C101.768 8.84807 101.975 7.82141 102.388 7.02141C102.815 6.22141 103.382 5.62807 104.088 5.24141C104.808 4.84141 105.602 4.64141 106.468 4.64141C107.522 4.64141 108.448 4.86807 109.248 5.32141C110.062 5.77474 110.702 6.40807 111.168 7.22141C111.648 8.03474 111.888 8.99474 111.888 10.1014C111.888 11.2081 111.648 12.1681 111.168 12.9814C110.702 13.7947 110.062 14.4347 109.248 14.9014C108.448 15.3547 107.522 15.5814 106.468 15.5814ZM100.548 15.4414V0.601405H103.048V7.24141L102.848 10.0814L102.928 12.9214V15.4414H100.548ZM106.188 13.4414C106.788 13.4414 107.322 13.3081 107.788 13.0414C108.268 12.7747 108.648 12.3881 108.928 11.8814C109.208 11.3747 109.348 10.7814 109.348 10.1014C109.348 9.40807 109.208 8.81474 108.928 8.32141C108.648 7.81474 108.268 7.42807 107.788 7.16141C107.322 6.89474 106.788 6.76141 106.188 6.76141C105.588 6.76141 105.048 6.89474 104.568 7.16141C104.088 7.42807 103.708 7.81474 103.428 8.32141C103.148 8.81474 103.008 9.40807 103.008 10.1014C103.008 10.7814 103.148 11.3747 103.428 11.8814C103.708 12.3881 104.088 12.7747 104.568 13.0414C105.048 13.3081 105.588 13.4414 106.188 13.4414ZM118.779 15.5814C117.872 15.5814 117.072 15.4147 116.379 15.0814C115.686 14.7347 115.146 14.2147 114.759 13.5214C114.372 12.8147 114.179 11.9281 114.179 10.8614V4.76141H116.679V10.5214C116.679 11.4814 116.892 12.2014 117.319 12.6814C117.759 13.1481 118.379 13.3814 119.179 13.3814C119.766 13.3814 120.272 13.2614 120.699 13.0214C121.139 12.7814 121.479 12.4214 121.719 11.9414C121.972 11.4614 122.099 10.8681 122.099 10.1614V4.76141H124.599V15.4414H122.219V12.5614L122.639 13.4414C122.279 14.1347 121.752 14.6681 121.059 15.0414C120.366 15.4014 119.606 15.5814 118.779 15.5814ZM127.872 15.4414V4.76141H130.372V15.4414H127.872ZM129.132 3.00141C128.666 3.00141 128.279 2.85474 127.972 2.56141C127.679 2.26807 127.532 1.91474 127.532 1.50141C127.532 1.07474 127.679 0.721405 127.972 0.441405C128.279 0.148072 128.666 0.00140595 129.132 0.00140595C129.599 0.00140595 129.979 0.141406 130.272 0.421405C130.579 0.688073 130.732 1.02807 130.732 1.44141C130.732 1.88141 130.586 2.25474 130.292 2.56141C129.999 2.85474 129.612 3.00141 129.132 3.00141ZM133.654 15.4414V0.601405H136.154V15.4414H133.654ZM143.982 15.5814C142.809 15.5814 141.902 15.2814 141.262 14.6814C140.622 14.0681 140.302 13.1681 140.302 11.9814V2.40141H142.802V11.9214C142.802 12.4281 142.929 12.8214 143.182 13.1014C143.449 13.3814 143.816 13.5214 144.282 13.5214C144.842 13.5214 145.309 13.3747 145.682 13.0814L146.382 14.8614C146.089 15.1014 145.729 15.2814 145.302 15.4014C144.876 15.5214 144.436 15.5814 143.982 15.5814ZM138.542 6.84141V4.84141H145.662V6.84141H138.542ZM154.306 15.4414V4.16141C154.306 3.04141 154.633 2.14807 155.286 1.48141C155.953 0.801406 156.9 0.461406 158.126 0.461406C158.566 0.461406 158.98 0.508072 159.366 0.601405C159.766 0.694739 160.1 0.841406 160.366 1.04141L159.686 2.92141C159.5 2.77474 159.286 2.66807 159.046 2.60141C158.806 2.52141 158.56 2.48141 158.306 2.48141C157.786 2.48141 157.393 2.62807 157.126 2.92141C156.86 3.20141 156.726 3.62807 156.726 4.20141V5.40141L156.806 6.52141V15.4414H154.306ZM152.546 6.84141V4.84141H159.666V6.84141H152.546ZM165.993 15.5814C164.899 15.5814 163.926 15.3481 163.073 14.8814C162.219 14.4014 161.546 13.7481 161.053 12.9214C160.559 12.0947 160.313 11.1547 160.313 10.1014C160.313 9.03474 160.559 8.09474 161.053 7.28141C161.546 6.45474 162.219 5.80807 163.073 5.34141C163.926 4.87474 164.899 4.64141 165.993 4.64141C167.099 4.64141 168.079 4.87474 168.933 5.34141C169.799 5.80807 170.473 6.44807 170.953 7.26141C171.446 8.07474 171.693 9.02141 171.693 10.1014C171.693 11.1547 171.446 12.0947 170.953 12.9214C170.473 13.7481 169.799 14.4014 168.933 14.8814C168.079 15.3481 167.099 15.5814 165.993 15.5814ZM165.993 13.4414C166.606 13.4414 167.153 13.3081 167.633 13.0414C168.113 12.7747 168.486 12.3881 168.753 11.8814C169.033 11.3747 169.173 10.7814 169.173 10.1014C169.173 9.40807 169.033 8.81474 168.753 8.32141C168.486 7.81474 168.113 7.42807 167.633 7.16141C167.153 6.89474 166.613 6.76141 166.013 6.76141C165.399 6.76141 164.853 6.89474 164.373 7.16141C163.906 7.42807 163.533 7.81474 163.253 8.32141C162.973 8.81474 162.833 9.40807 162.833 10.1014C162.833 10.7814 162.973 11.3747 163.253 11.8814C163.533 12.3881 163.906 12.7747 164.373 13.0414C164.853 13.3081 165.393 13.4414 165.993 13.4414ZM174.083 15.4414V4.76141H176.463V7.70141L176.183 6.84141C176.503 6.12141 177.003 5.57474 177.683 5.20141C178.377 4.82807 179.237 4.64141 180.263 4.64141V7.02141C180.157 6.99474 180.057 6.98141 179.963 6.98141C179.87 6.96807 179.777 6.96141 179.683 6.96141C178.737 6.96141 177.983 7.24141 177.423 7.80141C176.863 8.34807 176.583 9.16807 176.583 10.2614V15.4414H174.083ZM48.5566 26.5801L48.7129 26.5703C48.7845 26.5703 48.9212 26.5801 49.123 26.5996L50.4219 26.7168C51.1901 26.7168 52.1113 26.6875 53.1855 26.6289C53.3027 26.6224 53.3809 26.6191 53.4199 26.6191H53.5273C53.5599 26.7233 53.5762 26.8014 53.5762 26.8535C53.5762 26.8861 53.5697 26.9349 53.5566 27L52.209 27.2246C52.0723 27.2702 52.0039 27.3418 52.0039 27.4395C52.0039 27.4785 52.0137 27.5241 52.0332 27.5762L52.5117 28.5332C52.974 29.4577 53.3646 30.2975 53.6836 31.0527C53.8919 31.5475 54.2207 32.1432 54.6699 32.8398C55.9395 31.5638 56.7012 30.8151 56.9551 30.5938C57.2155 30.3659 57.4857 30.1055 57.7656 29.8125C58.1628 29.4089 58.5404 29.0378 58.8984 28.6992C59.4583 28.1719 59.7383 27.7878 59.7383 27.5469C59.7383 27.4036 59.6732 27.293 59.543 27.2148C59.2565 27.0521 58.765 26.9674 58.0684 26.9609C57.9967 26.9544 57.8893 26.9512 57.7461 26.9512L57.7363 26.8438C57.7363 26.7917 57.7526 26.7168 57.7852 26.6191L58.0195 26.6094H59.3086L60.3145 26.6582C60.6986 26.6582 61.1055 26.6419 61.5352 26.6094C61.8151 26.5898 62.0788 26.5801 62.3262 26.5801C62.3197 26.6712 62.3164 26.7428 62.3164 26.7949C62.3164 26.8665 62.3132 26.9251 62.3066 26.9707C62.235 26.9902 62.1634 27.0065 62.0918 27.0195C61.9876 27.0391 61.7077 27.1139 61.252 27.2441C61.0241 27.3483 60.8125 27.4753 60.6172 27.625C60.4674 27.7357 60.2591 27.931 59.9922 28.2109C59.875 28.3151 59.7839 28.3997 59.7188 28.4648C59.3216 28.862 59.0189 29.1517 58.8105 29.334C58.6022 29.5163 58.1921 29.9069 57.5801 30.5059L54.9824 33.0156C54.9499 33.1458 54.9108 33.3118 54.8652 33.5137C54.7806 33.8522 54.6992 34.207 54.6211 34.5781C54.5104 35.0794 54.4258 35.457 54.3672 35.7109L54.1621 36.5703C54.1035 36.8372 54.0547 37.0358 54.0156 37.166C53.8919 37.6217 53.8301 38.0449 53.8301 38.4355C53.8301 38.6569 53.8789 38.8066 53.9766 38.8848C54.1654 39.015 54.5007 39.0833 54.9824 39.0898C55.1777 39.0898 55.3372 39.0996 55.4609 39.1191C55.5911 39.1322 55.7083 39.1419 55.8125 39.1484C55.8255 39.2005 55.832 39.2428 55.832 39.2754C55.832 39.3145 55.819 39.373 55.793 39.4512C55.474 39.4772 55.0215 39.4902 54.4355 39.4902L53.7715 39.4512C53.5762 39.4382 53.3874 39.4316 53.2051 39.4316C53.0879 39.4316 52.8796 39.4382 52.5801 39.4512C51.61 39.4902 50.8353 39.5098 50.2559 39.5098C50.2168 39.5098 50.1126 39.5065 49.9434 39.5L50.0117 39.207L51.8574 38.9141C51.9616 38.8815 52.0332 38.8424 52.0723 38.7969C52.1634 38.6927 52.2546 38.4616 52.3457 38.1035L52.7754 36.5801C53.1465 34.946 53.3711 33.8978 53.4492 33.4355C53.2344 33.0645 52.7331 32.0781 51.9453 30.4766C51.5547 29.6823 51.2812 29.1549 51.125 28.8945C50.7279 28.0612 50.4772 27.5697 50.373 27.4199C50.3014 27.3092 50.2363 27.2409 50.1777 27.2148C50.1517 27.2018 49.8099 27.1432 49.1523 27.0391C48.8724 27.0195 48.6771 27 48.5664 26.9805C48.5534 26.9349 48.5469 26.8893 48.5469 26.8438L48.5566 26.5801ZM64.8848 33.8945C64.8848 35.4049 64.4258 36.7461 63.5078 37.918C62.5964 39.0898 61.6491 39.6758 60.666 39.6758C60.1387 39.6758 59.7122 39.4805 59.3867 39.0898C59.0612 38.6927 58.8984 38.0742 58.8984 37.2344C58.8984 36.668 59.0254 36.0169 59.2793 35.2812C59.5332 34.5391 59.862 33.9238 60.2656 33.4355C60.3568 33.3249 60.4609 33.1914 60.5781 33.0352C60.9232 32.5859 61.3333 32.2083 61.8086 31.9023C62.2839 31.5964 62.7689 31.4434 63.2637 31.4434C63.7194 31.4434 64.1035 31.6354 64.416 32.0195C64.7285 32.3971 64.8848 33.0221 64.8848 33.8945ZM59.8066 38.3379C59.8066 38.6374 59.875 38.8587 60.0117 39.002C60.1549 39.1452 60.3828 39.2168 60.6953 39.2168C61.0013 39.2168 61.3105 39.0671 61.623 38.7676C62.1829 38.2207 62.7428 37.2799 63.3027 35.9453C63.8626 34.6107 64.1426 33.5592 64.1426 32.791C64.1426 32.5176 64.0742 32.3027 63.9375 32.1465C63.8008 31.9837 63.6445 31.9023 63.4688 31.9023C63.0846 31.9023 62.6842 32.127 62.2676 32.5762C61.5579 33.3314 60.946 34.373 60.4316 35.7012C60.015 36.7819 59.8066 37.6608 59.8066 38.3379ZM68.7324 32.293C68.5176 32.3841 68.2148 32.6348 67.8242 33.0449C67.5703 33.2598 67.3327 33.4844 67.1113 33.7188C66.9616 33.888 66.8509 34.0052 66.7793 34.0703L66.4668 34.002C66.571 33.8066 66.8737 33.4421 67.375 32.9082C67.8763 32.3678 68.3874 31.9479 68.9082 31.6484C69.1621 31.4987 69.3932 31.4238 69.6016 31.4238C69.7253 31.4238 69.8327 31.4694 69.9238 31.5605C70.015 31.6517 70.0605 31.7493 70.0605 31.8535C70.0605 31.9902 70.0052 32.1758 69.8945 32.4102C69.875 32.4492 69.8262 32.5599 69.748 32.7422C69.4551 33.4258 68.8887 34.5879 68.0488 36.2285C67.3197 37.6348 66.9551 38.4323 66.9551 38.6211L66.9648 38.6797C67.1341 38.6536 67.362 38.5169 67.6484 38.2695C68.5013 37.5469 69.1458 36.9414 69.582 36.4531C69.6406 36.3945 69.7904 36.2383 70.0312 35.9844C70.7734 35.2161 71.3887 34.4772 71.877 33.7676C72.1699 33.3444 72.5866 32.5762 73.127 31.4629C73.3092 31.4434 73.4622 31.4336 73.5859 31.4336C73.7357 31.4336 73.8496 31.4857 73.9277 31.5898C73.791 32 73.5339 32.6706 73.1562 33.6016L71.3398 38.1328C71.2292 38.3672 71.1576 38.582 71.125 38.7773L71.1934 38.7871C71.2389 38.7871 71.3464 38.7122 71.5156 38.5625C71.8932 38.224 72.209 37.8789 72.4629 37.5273C72.5801 37.3646 72.681 37.2376 72.7656 37.1465L73.0781 37.1953C72.7656 37.7878 72.2383 38.4323 71.4961 39.1289C71.0859 39.5065 70.7637 39.6953 70.5293 39.6953C70.4447 39.6953 70.334 39.6758 70.1973 39.6367C70.0801 39.513 70.0215 39.3958 70.0215 39.2852C70.0215 38.9596 70.1549 38.4844 70.4219 37.8594L71.7988 34.6465C71.8379 34.5814 71.8639 34.5163 71.877 34.4512C71.7598 34.5814 71.5026 34.8743 71.1055 35.3301C70.168 36.4238 69.3607 37.2832 68.6836 37.9082C68.013 38.5332 67.2904 39.0703 66.5156 39.5195C66.3268 39.6237 66.1413 39.6758 65.959 39.6758C65.8678 39.6758 65.7897 39.6432 65.7246 39.5781C65.666 39.513 65.6367 39.4219 65.6367 39.3047C65.6367 39.2005 65.6595 39.0703 65.7051 38.9141C65.8092 38.582 65.9948 38.1589 66.2617 37.6445L67.9316 34.3535L68.6152 32.8984C68.7389 32.7031 68.8008 32.5599 68.8008 32.4688C68.8008 32.4362 68.778 32.3776 68.7324 32.293ZM76.6328 32.2637C76.418 32.4199 76.2161 32.6022 76.0273 32.8105C75.9753 32.8691 75.679 33.2598 75.1387 33.9824L74.7383 34.002C74.901 33.6504 75.2038 33.2174 75.6465 32.7031C76.0892 32.1888 76.4733 31.8372 76.7988 31.6484C77.0072 31.5247 77.2415 31.4531 77.502 31.4336C77.6647 31.4792 77.7754 31.541 77.834 31.6191C77.8991 31.6973 77.9316 31.7917 77.9316 31.9023C77.9316 32.013 77.9186 32.1237 77.8926 32.2344C77.821 32.5924 77.6777 33.1035 77.4629 33.7676C77.248 34.4316 77.056 34.9557 76.8867 35.3398L76.3789 36.541L76.3398 36.7168C76.431 36.5605 76.6165 36.2122 76.8965 35.6719C77.9577 33.6602 78.7227 32.4167 79.1914 31.9414C79.5365 31.6029 79.9401 31.4336 80.4023 31.4336C80.6628 31.4336 80.9069 31.5378 81.1348 31.7461C81.304 31.9089 81.3887 32.1237 81.3887 32.3906C81.3887 32.6901 81.2943 32.9473 81.1055 33.1621C80.9753 33.3118 80.7897 33.3867 80.5488 33.3867C80.347 33.3867 80.2038 33.3411 80.1191 33.25C80.041 33.1523 79.9922 32.9147 79.9727 32.5371C79.888 32.3678 79.7936 32.2832 79.6895 32.2832C79.5853 32.2832 79.4746 32.3385 79.3574 32.4492C79.0449 32.7292 78.4557 33.6276 77.5898 35.1445C76.724 36.6549 76.1803 37.7064 75.959 38.2988C75.7441 38.8848 75.5684 39.2884 75.4316 39.5098C75.36 39.6204 75.2266 39.6758 75.0312 39.6758C74.8555 39.6758 74.7285 39.6432 74.6504 39.5781C74.5788 39.5195 74.543 39.4414 74.543 39.3438C74.543 39.2135 74.5755 39.0638 74.6406 38.8945C74.9206 38.2109 75.3698 36.9512 75.9883 35.1152L76.6719 33.0254C76.7174 32.8366 76.75 32.7161 76.7695 32.6641L76.8281 32.5176C76.8281 32.4525 76.763 32.3678 76.6328 32.2637ZM95.4791 39.5814C94.5857 39.5814 93.7257 39.4681 92.8991 39.2414C92.0857 39.0014 91.4391 38.7147 90.9591 38.3814L91.9191 36.4814C92.3991 36.7881 92.9724 37.0414 93.6391 37.2414C94.3057 37.4414 94.9724 37.5414 95.6391 37.5414C96.4257 37.5414 96.9924 37.4347 97.3391 37.2214C97.6991 37.0081 97.8791 36.7214 97.8791 36.3614C97.8791 36.0681 97.7591 35.8481 97.5191 35.7014C97.2791 35.5414 96.9657 35.4214 96.5791 35.3414C96.1924 35.2614 95.7591 35.1881 95.2791 35.1214C94.8124 35.0547 94.3391 34.9681 93.8591 34.8614C93.3924 34.7414 92.9657 34.5747 92.5791 34.3614C92.1924 34.1347 91.8791 33.8347 91.6391 33.4614C91.3991 33.0881 91.2791 32.5947 91.2791 31.9814C91.2791 31.3014 91.4724 30.7147 91.8591 30.2214C92.2457 29.7147 92.7857 29.3281 93.4791 29.0614C94.1857 28.7814 95.0191 28.6414 95.9791 28.6414C96.6991 28.6414 97.4257 28.7214 98.1591 28.8814C98.8924 29.0414 99.4991 29.2681 99.9791 29.5614L99.0191 31.4614C98.5124 31.1547 97.9991 30.9481 97.4791 30.8414C96.9724 30.7214 96.4657 30.6614 95.9591 30.6614C95.1991 30.6614 94.6324 30.7747 94.2591 31.0014C93.8991 31.2281 93.7191 31.5147 93.7191 31.8614C93.7191 32.1814 93.8391 32.4214 94.0791 32.5814C94.3191 32.7414 94.6324 32.8681 95.0191 32.9614C95.4057 33.0547 95.8324 33.1347 96.2991 33.2014C96.7791 33.2547 97.2524 33.3414 97.7191 33.4614C98.1857 33.5814 98.6124 33.7481 98.9991 33.9614C99.3991 34.1614 99.7191 34.4481 99.9591 34.8214C100.199 35.1947 100.319 35.6814 100.319 36.2814C100.319 36.9481 100.119 37.5281 99.7191 38.0214C99.3324 38.5147 98.7791 38.9014 98.0591 39.1814C97.3391 39.4481 96.4791 39.5814 95.4791 39.5814ZM104.512 37.0614L104.572 33.9214L110.152 28.7614H113.152L108.412 33.5214L107.092 34.6214L104.512 37.0614ZM102.472 39.4414V24.6014H104.972V39.4414H102.472ZM110.532 39.4414L106.632 34.6214L108.212 32.6214L113.572 39.4414H110.532ZM115.187 39.4414V28.7614H117.687V39.4414H115.187ZM116.447 27.0014C115.98 27.0014 115.594 26.8547 115.287 26.5614C114.994 26.2681 114.847 25.9147 114.847 25.5014C114.847 25.0747 114.994 24.7214 115.287 24.4414C115.594 24.1481 115.98 24.0014 116.447 24.0014C116.914 24.0014 117.294 24.1414 117.587 24.4214C117.894 24.6881 118.047 25.0281 118.047 25.4414C118.047 25.8814 117.9 26.2547 117.607 26.5614C117.314 26.8547 116.927 27.0014 116.447 27.0014ZM127.028 28.6414C127.881 28.6414 128.641 28.8081 129.308 29.1414C129.988 29.4747 130.521 29.9881 130.908 30.6814C131.295 31.3614 131.488 32.2414 131.488 33.3214V39.4414H128.988V33.6414C128.988 32.6947 128.761 31.9881 128.308 31.5214C127.868 31.0547 127.248 30.8214 126.448 30.8214C125.861 30.8214 125.341 30.9414 124.888 31.1814C124.435 31.4214 124.081 31.7814 123.828 32.2614C123.588 32.7281 123.468 33.3214 123.468 34.0414V39.4414H120.968V28.7614H123.348V31.6414L122.928 30.7614C123.301 30.0814 123.841 29.5614 124.548 29.2014C125.268 28.8281 126.095 28.6414 127.028 28.6414Z" fill="black"/>
</svg>
