<svg width="42" height="130" viewBox="0 0 42 130" fill="none" xmlns="http://www.w3.org/2000/svg">
<path d="M10 0.5H32C37.2467 0.5 41.5 4.75329 41.5 10V120C41.5 125.247 37.2467 129.5 32 129.5H10C4.7533 129.5 0.5 125.247 0.5 120V10C0.500002 4.7533 4.7533 0.5 10 0.5Z" fill="#574CFF" stroke="black"/>
<path d="M10.2954 53.0467C10.3006 52.9689 10.3214 52.8988 10.3577 52.8365C10.7625 52.7275 11.157 52.6548 11.5411 52.6185C11.7954 52.5978 11.9589 52.5407 12.0316 52.4472C12.0835 52.3798 12.1146 52.1306 12.125 51.6998L12.1795 49.6445L12.1717 48.2509L12.1795 46.4291V45.9465C12.1847 44.8513 12.1795 44.1688 12.1639 43.8989C12.1587 43.847 12.138 43.7743 12.1016 43.6809C11.9667 43.6186 11.8525 43.5771 11.7591 43.5563C11.6708 43.5356 11.266 43.4603 10.5446 43.3306C10.5394 43.2735 10.5368 43.232 10.5368 43.206C10.5368 43.1749 10.5394 43.1333 10.5446 43.0814C10.6432 43.0814 10.8041 43.0866 11.0272 43.097L12.2106 43.1359L12.8957 43.1515L13.0982 43.1437C13.1241 43.1437 13.1994 43.1489 13.3239 43.1593C13.6302 43.1593 13.8066 43.1567 13.8533 43.1515L14.4762 43.1048C14.8966 43.1048 15.1924 43.1126 15.3637 43.1281C15.3585 43.2216 15.3403 43.3228 15.3092 43.4318C15.2521 43.4422 14.9822 43.4577 14.4995 43.4785C14.0168 43.4941 13.7392 43.5226 13.6665 43.5641C13.5471 43.6316 13.4874 43.8392 13.4874 44.187C13.4874 44.27 13.4822 44.4387 13.4719 44.693V45.1601L13.4796 46.6004V47.0909L13.4952 49.6679L13.4719 51.8633L13.4796 52.346C13.4796 52.5017 13.5056 52.5978 13.5575 52.6341C13.6873 52.6393 14.0687 52.6445 14.7019 52.6497H15.2313L16.5782 52.6029C16.9312 52.5926 17.1829 52.5588 17.3334 52.5017C17.4839 52.4395 17.7356 52.263 18.0886 51.9723C18.3014 51.7855 18.4675 51.5934 18.5868 51.3962C18.6128 51.3547 18.6569 51.2924 18.7192 51.2094C18.8178 51.0744 18.9502 50.8045 19.1163 50.3997H19.3732C19.342 50.5865 19.3083 50.763 19.272 50.9291C19.1214 51.6609 19.0176 52.2708 18.9605 52.7587C18.9502 52.8625 18.9398 52.9585 18.9294 53.0467L16.0177 52.9611C13.516 52.9611 12.0316 52.9844 11.5644 53.0311C11.4191 53.0415 11.266 53.0467 11.1051 53.0467H10.2954ZM20.7742 43.4318C20.7742 43.2605 20.8391 43.1126 20.9689 42.988C21.1038 42.8634 21.2647 42.8012 21.4516 42.8012C21.6436 42.8012 21.8123 42.8712 21.9576 43.0114C22.1029 43.1515 22.1756 43.302 22.1756 43.4629C22.1756 43.6238 22.1029 43.7769 21.9576 43.9223C21.8123 44.0624 21.6436 44.1325 21.4516 44.1325C21.2595 44.1325 21.0986 44.0676 20.9689 43.9378C20.8391 43.8081 20.7742 43.6394 20.7742 43.4318ZM20.1203 47.4646L20.128 47.2388C20.4654 47.1402 20.6471 47.0831 20.673 47.0675C20.8599 46.9845 21.0545 46.8573 21.2569 46.6861C21.4645 46.5148 21.6384 46.3227 21.7785 46.1099C21.8408 46.0996 21.8901 46.0944 21.9265 46.0944L22.0199 46.1022C22.0406 46.3513 22.051 46.5329 22.051 46.6471C22.051 46.6731 22.0458 46.7899 22.0355 46.9975V47.4101L22.0432 49.6523L22.0199 52.0268C22.0147 52.2189 22.0458 52.3538 22.1133 52.4317C22.1808 52.5043 22.3806 52.5874 22.7128 52.6808C22.9204 52.7379 23.0761 52.7872 23.1799 52.8287C23.1955 52.8651 23.2033 52.8962 23.2033 52.9221C23.2033 52.9533 23.1903 52.9922 23.1643 53.0389C22.9619 53.0337 22.7024 53.0208 22.3858 53C21.955 52.9637 21.6695 52.9455 21.5294 52.9455C21.4619 52.9455 21.0467 52.9585 20.2837 52.9844C20.128 52.9896 19.9775 53.0026 19.8322 53.0234C19.8062 53.0234 19.7647 53.0156 19.7076 53C19.6817 52.9637 19.6687 52.9325 19.6687 52.9066C19.6687 52.8339 19.718 52.7768 19.8166 52.7353C19.8374 52.7249 20.1021 52.6652 20.6107 52.5562C20.7768 52.5251 20.8858 52.4732 20.9377 52.4005C21.026 52.2915 21.0701 52.1177 21.0701 51.8789C21.0804 51.4793 21.0856 50.3841 21.0856 48.5935C21.0856 48.2354 21.0701 48.0122 21.0389 47.9239C21.013 47.8617 20.9429 47.7916 20.8287 47.7137C20.7197 47.6307 20.4836 47.5476 20.1203 47.4646ZM23.8414 57.064C23.8362 57.0069 23.8336 56.955 23.8336 56.9083C23.8336 56.8719 23.8388 56.8278 23.8491 56.7759L24.6277 56.6202C24.7522 56.5579 24.8535 56.4827 24.9313 56.3944C24.9573 56.301 24.9702 56.2076 24.9702 56.1141C24.9702 55.3149 24.9495 53.7915 24.9079 51.5441L24.8846 48.6947C24.8742 48.2431 24.8457 47.9577 24.799 47.8383C24.773 47.776 24.7341 47.7267 24.6822 47.6904C24.5524 47.5918 24.2929 47.5087 23.9036 47.4412L23.9503 47.2077C24.5109 46.9689 24.8846 46.7847 25.0714 46.6549C25.2635 46.52 25.4451 46.3331 25.6164 46.0944L25.7098 46.071C25.7462 46.071 25.7981 46.0866 25.8655 46.1177C25.8604 46.4447 25.8578 46.6601 25.8578 46.7639L25.8655 47.6203C26.2496 47.3297 26.6493 47.1143 27.0645 46.9741C27.4797 46.8288 27.9105 46.7561 28.3569 46.7561C29.1562 46.7561 29.8309 47.039 30.3811 47.6047C30.9312 48.1653 31.2063 48.8893 31.2063 49.7769C31.2063 50.436 31.0506 51.0277 30.7392 51.5519C30.433 52.0761 30.0074 52.468 29.4624 52.7275C28.9226 52.987 28.3776 53.1168 27.8275 53.1168C27.3603 53.1168 26.8257 52.9896 26.2237 52.7353C26.1251 52.6938 26.0368 52.6574 25.959 52.6263C25.9486 53.0415 25.9434 53.41 25.9434 53.7318C25.9434 55.3356 25.9875 56.2335 26.0758 56.4256C26.1225 56.5294 26.2678 56.5917 26.5117 56.6124C26.927 56.6436 27.202 56.7032 27.337 56.7915C27.4148 56.8382 27.4667 56.9316 27.4927 57.0718L26.7219 57.0873L26.0213 57.0718L24.8535 57.0795L23.8414 57.064ZM25.8733 48.1575C25.863 48.2302 25.8578 48.2976 25.8578 48.3599C25.8578 50.2128 25.8759 51.2509 25.9123 51.4741C25.9849 51.8841 26.1303 52.1722 26.3482 52.3382C26.6856 52.6029 27.1683 52.7353 27.7963 52.7353C28.4451 52.7353 28.9927 52.5121 29.439 52.0658C29.8854 51.6142 30.1086 51.0303 30.1086 50.314C30.1086 49.4525 29.8724 48.7699 29.4001 48.2665C28.9278 47.763 28.305 47.5113 27.5316 47.5113C27.2046 47.5113 26.9036 47.5658 26.6285 47.6748C26.3534 47.7786 26.1017 47.9395 25.8733 48.1575ZM4.60836 61.3539V61.1126C4.6966 61.0918 4.76666 61.0788 4.81857 61.0736L5.55039 61.0347C6.15765 60.9828 6.83757 60.9413 7.59016 60.9102C7.89119 60.8998 8.3661 60.8946 9.01488 60.8946C9.89723 60.8946 10.5434 60.9595 10.9534 61.0892C11.5503 61.2813 11.9941 61.5719 12.2847 61.9612C12.5806 62.3453 12.7285 62.7735 12.7285 63.2458C12.7285 64.0139 12.1809 64.6601 11.0858 65.1843L11.0469 65.2466C11.6074 65.3971 12.0668 65.6073 12.4249 65.8772C12.783 66.1471 13.0581 66.4767 13.2501 66.866C13.3903 67.1514 13.4603 67.5251 13.4603 67.9871C13.4603 68.7604 13.1074 69.4507 12.4015 70.058C11.7008 70.66 10.7329 70.9611 9.49758 70.9611H8.33756L7.16196 71C6.12391 71.0104 5.51666 71.0156 5.34019 71.0156C5.15853 71.0156 4.97947 71.0078 4.803 70.9922V70.9066C4.803 70.8443 4.81597 70.8002 4.84192 70.7742C4.87306 70.7431 4.93275 70.7171 5.02099 70.6964C5.66977 70.5614 6.03568 70.4706 6.11872 70.4239C6.20696 70.372 6.26665 70.2915 6.29779 70.1825C6.36007 69.9749 6.39121 69.4403 6.39121 68.5787C6.39121 68.5009 6.38862 68.4023 6.38343 68.2829C6.37305 67.9352 6.36786 67.7353 6.36786 67.6834V66.8738C6.36786 65.5035 6.35229 64.3072 6.32114 63.2847L6.31336 61.7198L6.30557 61.5252C5.8644 61.4629 5.47513 61.424 5.13777 61.4084C4.91978 61.4032 4.74331 61.3851 4.60836 61.3539ZM7.69916 65.2933C7.95867 65.3452 8.23116 65.3712 8.51662 65.3712C9.63771 65.3712 10.3981 65.1246 10.7977 64.6316C11.1974 64.1385 11.3972 63.648 11.3972 63.1601C11.3972 62.9421 11.3609 62.7216 11.2882 62.4984C11.2207 62.27 11.0962 62.065 10.9145 61.8833C10.738 61.7017 10.5175 61.5667 10.2528 61.4785C9.80121 61.328 9.33927 61.2527 8.86696 61.2527C8.42579 61.2527 8.01576 61.302 7.63687 61.4006C7.63168 61.5096 7.62909 61.5901 7.62909 61.642C7.62909 61.6939 7.63428 61.8418 7.64466 62.0857C7.64985 62.2415 7.65244 62.3972 7.65244 62.5529L7.62909 63.4949L7.63687 64.0554L7.69137 65.1532L7.69916 65.2933ZM9.52872 70.5874C10.0426 70.551 10.4733 70.442 10.8211 70.2604C10.982 70.1773 11.1714 70.0294 11.3894 69.8166C11.6126 69.5986 11.7839 69.3391 11.9033 69.0381C12.0278 68.7371 12.0901 68.4464 12.0901 68.1661C12.0901 67.9533 12.046 67.6912 11.9578 67.3798C11.8747 67.0684 11.7294 66.7959 11.5218 66.5623C11.3194 66.3236 11.0157 66.129 10.6109 65.9784C10.206 65.8227 9.75968 65.7449 9.2718 65.7449C8.32718 65.7449 7.79777 65.763 7.68358 65.7994C7.67839 65.9187 7.6758 66.007 7.6758 66.0641L7.68358 66.3521L7.6758 66.936V67.5978C7.69137 68.8175 7.71992 69.5389 7.76144 69.7621C7.80296 69.9853 7.9431 70.1773 8.18185 70.3382C8.42579 70.4991 8.87475 70.5822 9.52872 70.5874ZM20.8561 69.9412C20.8873 70.0087 20.9028 70.058 20.9028 70.0891C20.9028 70.167 20.8406 70.3045 20.716 70.5017C20.5551 70.7612 20.376 70.9507 20.1788 71.0701C20.0542 71.1479 19.883 71.1868 19.665 71.1868C19.2913 71.1868 19.011 71.0727 18.8241 70.8443C18.71 70.7093 18.6295 70.468 18.5828 70.1203L17.7108 70.7275C17.4046 70.904 17.171 71.0156 17.0102 71.0623C16.7506 71.1298 16.4392 71.1635 16.0759 71.1635C15.8112 71.1635 15.601 71.0856 15.4453 70.9299C15.2948 70.769 15.2195 70.564 15.2195 70.3149C15.2195 69.9568 15.4375 69.5286 15.8735 69.0303C16.3147 68.532 16.9115 68.1246 17.6641 67.808C18.1935 67.5848 18.5179 67.4421 18.6373 67.3798C18.6477 67.2085 18.6529 67.0217 18.6529 66.8193C18.6529 66.1601 18.5594 65.7137 18.3726 65.4802C18.1909 65.2466 17.9288 65.1298 17.5863 65.1298C17.2281 65.1298 16.8934 65.27 16.582 65.5502C16.3899 65.7267 16.2446 66.0589 16.146 66.5468C16.1148 66.6817 16.0551 66.827 15.9669 66.9827C15.7437 67.1281 15.5647 67.2007 15.4297 67.2007C15.3155 67.2007 15.2117 67.167 15.1183 67.0995C15.0664 67.0632 15.0405 67.0217 15.0405 66.975C15.0405 66.84 15.1832 66.5364 15.4686 66.0641C15.7593 65.5866 16.1226 65.231 16.5586 64.9975C16.9998 64.7587 17.3838 64.6393 17.7108 64.6393C18.1572 64.6393 18.4894 64.6809 18.7074 64.7639C18.9254 64.8418 19.1174 64.9819 19.2835 65.1843C19.4496 65.3867 19.5508 65.6073 19.5871 65.8461C19.6079 65.9603 19.6183 66.3677 19.6183 67.0684L19.5949 68.3063L19.6027 69.2094C19.6027 69.3287 19.6001 69.4299 19.5949 69.513C19.5897 69.6635 19.5871 69.7751 19.5871 69.8478C19.5871 70.019 19.6364 70.1566 19.735 70.2604C19.8336 70.3642 19.9504 70.4161 20.0854 70.4161C20.2826 70.4161 20.4513 70.3175 20.5914 70.1203L20.6848 69.9957C20.7108 69.9801 20.7679 69.962 20.8561 69.9412ZM18.5672 69.7154C18.6036 69.0563 18.6217 68.5917 18.6217 68.3218C18.6217 68.1817 18.6139 67.9923 18.5984 67.7535C18.2506 67.8781 17.8821 68.0675 17.4928 68.3218C17.1036 68.5762 16.7948 68.8694 16.5664 69.2016C16.4003 69.4403 16.3173 69.6661 16.3173 69.8789C16.3173 70.0813 16.3847 70.25 16.5197 70.385C16.6598 70.5199 16.8337 70.5874 17.0413 70.5874C17.2022 70.5874 17.3968 70.5303 17.6252 70.4161C17.9262 70.2656 18.2402 70.032 18.5672 69.7154ZM21.7278 61.3539V61.1826C21.8731 61.1359 22.034 61.0866 22.2105 61.0347C22.47 60.9517 22.8541 60.8245 23.3627 60.6532H23.7286C23.7338 60.9024 23.7364 61.0451 23.7364 61.0814C23.7364 65.3426 23.7234 67.8833 23.6975 68.7033C23.6819 69.186 23.6741 69.4429 23.6741 69.4741C23.6741 70.0554 23.6975 70.3798 23.7442 70.4472C23.8065 70.5407 23.9959 70.6055 24.3125 70.6419C24.6343 70.6782 24.8238 70.7145 24.8809 70.7509C24.9224 70.7716 24.9431 70.808 24.9431 70.8599C24.9431 70.917 24.9302 70.9585 24.9042 70.9844C24.8834 71.0052 24.8419 71.0156 24.7796 71.0156C24.7433 71.0156 24.4708 71.0078 23.9622 70.9922L22.9423 70.9611L21.6344 71.0156C21.5513 71.0208 21.489 71.0052 21.4475 70.9689C21.4164 70.9429 21.4008 70.9066 21.4008 70.8599C21.4008 70.808 21.4164 70.7716 21.4475 70.7509C21.4838 70.7249 21.6707 70.6834 22.008 70.6263C22.3506 70.5692 22.5452 70.5225 22.592 70.4862C22.6439 70.4446 22.6776 70.3564 22.6932 70.2215C22.7139 70.0346 22.7243 69.5078 22.7243 68.641L22.7165 66.8504L22.7399 64.9975L22.7321 63.1446L22.7554 62.2337C22.7554 62.052 22.7269 61.9223 22.6698 61.8444C22.6127 61.7614 22.4907 61.6809 22.3039 61.6031C22.0236 61.4889 21.8316 61.4058 21.7278 61.3539ZM25.6124 70.7275C25.6954 70.6704 25.8096 70.6315 25.9549 70.6107C26.1625 70.5848 26.3234 70.5433 26.4376 70.4862C26.531 70.4083 26.5933 70.2967 26.6245 70.1514C26.6608 69.9645 26.679 69.308 26.679 68.1817C26.679 67.0762 26.6452 66.3625 26.5778 66.0407C26.4636 65.9681 26.3156 65.911 26.134 65.8694C26.0769 65.8591 25.9575 65.8305 25.7759 65.7838V65.5269C26.0821 65.4386 26.3286 65.3245 26.5155 65.1843C26.7075 65.0442 26.9722 64.7639 27.3096 64.3435H27.3563C27.3874 64.3435 27.4367 64.3409 27.5042 64.3357C27.5457 64.3409 27.5795 64.3539 27.6054 64.3746L27.5976 65.2622C27.5976 65.4438 27.6028 65.6385 27.6132 65.8461C28.1686 65.3426 28.6668 64.9897 29.108 64.7873C29.409 64.6523 29.749 64.5849 30.1279 64.5849C30.5794 64.5849 30.9376 64.6705 31.2023 64.8418C31.467 65.013 31.7187 65.3219 31.9574 65.7682C32.4194 65.3115 32.8372 64.9923 33.2109 64.8106C33.5898 64.629 33.9713 64.5381 34.3553 64.5381C34.9366 64.5381 35.4142 64.7276 35.7878 65.1065C36.1564 65.4906 36.3458 66.0537 36.3562 66.7959V67.4421L36.364 68.1506L36.3562 69.9723C36.351 70.1851 36.3977 70.346 36.4963 70.455C36.5378 70.4706 36.6961 70.5173 36.9712 70.5952C37.1425 70.6419 37.2437 70.6782 37.2749 70.7042C37.306 70.7301 37.3216 70.7664 37.3216 70.8132C37.3216 70.8702 37.306 70.9377 37.2749 71.0156H37.2204L36.434 70.9689C36.3406 70.9637 36.1927 70.9611 35.9903 70.9611C35.7411 70.9611 35.3934 70.9715 34.947 70.9922H34.55C34.4929 70.9922 34.3813 70.9948 34.2152 71C34.21 70.9533 34.2074 70.9118 34.2074 70.8754C34.2074 70.8339 34.2256 70.782 34.2619 70.7197C34.4021 70.6574 34.5941 70.6081 34.838 70.5718C35.082 70.5303 35.2325 70.4602 35.2896 70.3616C35.3519 70.2578 35.383 69.853 35.383 69.1471C35.383 67.616 35.3648 66.7284 35.3285 66.4845C35.2662 66.0952 35.1001 65.7916 34.8302 65.5736C34.5655 65.3504 34.2308 65.2388 33.8259 65.2388C33.5145 65.2388 33.2109 65.3219 32.915 65.488C32.6192 65.6489 32.3285 65.8928 32.0431 66.2198L32.0353 66.4066V67.5978L32.0042 68.5243C32.0042 69.4689 32.0119 70.0061 32.0275 70.1358C32.0483 70.2656 32.0924 70.3616 32.1599 70.4239C32.2325 70.481 32.4375 70.5329 32.7749 70.5796C32.9254 70.6004 33.0422 70.6211 33.1253 70.6419C33.1875 70.6938 33.2187 70.7612 33.2187 70.8443C33.2187 70.9118 33.1953 70.9585 33.1486 70.9844H33.0163L32.627 70.9766H30.3614L29.7386 70.9844C29.7282 70.9066 29.723 70.8495 29.723 70.8132L29.7308 70.7197C29.845 70.6574 30.0578 70.5978 30.3692 70.5407C30.5301 70.5147 30.6962 70.4706 30.8675 70.4083C30.8986 70.3824 30.922 70.3486 30.9376 70.3071C30.9635 70.2344 30.9817 70.0268 30.9921 69.6843L31.031 68.7812L31.0154 67.7613L31.0232 67.193C31.0232 66.5546 30.8934 66.09 30.6339 65.7994C30.3744 65.5035 30.0474 65.3556 29.653 65.3556C29.2845 65.3556 28.9134 65.4464 28.5397 65.6281C28.1712 65.8098 27.8649 66.0537 27.621 66.3599C27.6158 66.5052 27.6132 66.6376 27.6132 66.757L27.6443 69.3729C27.6495 69.9438 27.6807 70.2708 27.7378 70.3538C27.8001 70.4317 27.935 70.4862 28.1426 70.5173C28.4748 70.564 28.6902 70.6211 28.7888 70.6886C28.8355 70.7197 28.8589 70.7664 28.8589 70.8287C28.8589 70.8702 28.8563 70.9196 28.8511 70.9766C28.2594 70.9351 27.8623 70.9144 27.6599 70.9144C27.4523 70.9144 27.2655 70.917 27.0994 70.9221L26.7101 70.9455H26.4688L25.5968 70.9766C25.5864 70.9403 25.5812 70.9092 25.5812 70.8832C25.5812 70.8573 25.5916 70.8054 25.6124 70.7275Z" fill="black"/>
</svg>
