<svg width="65" height="171" viewBox="0 0 65 171" fill="none" xmlns="http://www.w3.org/2000/svg">
<path d="M0.5 150V49C0.5 49 2.1254 39.724 5.5 35C8.72628 30.4836 16.5 26 16.5 26V10C16.5 10 24.9004 0.5 32 0.5C39.0996 0.5 47.5 10 47.5 10V26C47.5 26 54.7542 30.6835 58 35C61.575 39.7541 64 49 64 49V150C64 150 61.9762 159.837 58 164.5C55.5663 167.354 50.5 170.5 50.5 170.5H13.5C13.5 170.5 6.5 167 4 164.5C1.5 162 0.5 150 0.5 150Z" fill="#B8FECC" stroke="black"/>
<path d="M6.80546 91.3209C6.96636 91.2119 7.25702 91.1341 7.67743 91.0874C8.00441 91.0718 8.19905 91.0433 8.26133 91.0017C8.30285 90.9706 8.33399 90.9317 8.35475 90.885C8.43261 90.6929 8.4897 90.1713 8.52603 89.3201C8.57274 88.2146 8.648 86.7431 8.75181 84.9058C8.83485 83.5044 8.87637 82.6299 8.87637 82.2821V82.0797C8.50268 82.0018 7.91099 81.9188 7.10131 81.8306C7.04941 81.7527 7.02345 81.693 7.02345 81.6515C7.02345 81.6256 7.04162 81.5788 7.07795 81.5114C7.16619 81.4802 7.23366 81.4647 7.28037 81.4647C7.32189 81.4647 7.41272 81.475 7.55286 81.4958C7.80718 81.5321 8.15752 81.5503 8.60388 81.5503C8.74921 81.5503 8.99834 81.5399 9.35128 81.5192C9.60041 81.5036 9.74055 81.4958 9.77169 81.4958C9.85474 81.4958 9.95075 81.5088 10.0597 81.5347C10.1117 81.5866 10.1506 81.6359 10.1765 81.6826L10.5035 82.4145L12.7068 87.2881L13.6177 89.3357C14.3391 87.9083 14.8997 86.6393 15.2993 85.5286C15.3253 85.4456 15.3564 85.3703 15.3927 85.3028C15.4394 85.2146 15.4836 85.116 15.5251 85.007C15.5666 84.898 15.7353 84.4828 16.0311 83.7613C16.1505 83.4707 16.2465 83.2216 16.3192 83.0139C16.615 82.1835 16.7889 81.7086 16.8408 81.5892C16.9394 81.5529 17.0251 81.5347 17.0977 81.5347C17.1808 81.5347 17.2872 81.5399 17.4169 81.5503C17.7076 81.5659 18.1799 81.5736 18.8339 81.5736C19.2387 81.5736 19.5709 81.5685 19.8304 81.5581C19.8408 81.6152 19.846 81.6567 19.846 81.6826C19.846 81.719 19.8382 81.7683 19.8226 81.8306C19.6565 81.9188 19.4567 81.9681 19.2231 81.9785C18.7612 82.0044 18.468 82.0408 18.3434 82.0875C18.2188 82.1342 18.1384 82.1939 18.102 82.2665C18.0709 82.3392 18.0424 82.578 18.0164 82.9828L18.0242 83.3409L18.0164 83.7146C18.0164 84.4932 18.0372 85.8011 18.0787 87.6385L18.0709 89.1644L18.0787 90.1453C18.0787 90.5294 18.0969 90.7578 18.1332 90.8305C18.1695 90.8979 18.2733 90.9628 18.4446 91.0251C18.7249 91.1185 19.1816 91.2145 19.8148 91.3132C19.8512 91.3391 19.8693 91.3728 19.8693 91.4144C19.8693 91.4611 19.8667 91.513 19.8615 91.5701H19.5034C19.1972 91.5701 18.865 91.5597 18.5069 91.5389C18.1488 91.5234 17.9567 91.5156 17.9308 91.5156C16.8668 91.5156 16.1609 91.526 15.8131 91.5467C15.6003 91.5623 15.4654 91.5701 15.4083 91.5701C15.372 91.5701 15.333 91.5597 15.2915 91.5389V91.4377C15.2915 91.391 15.2993 91.3417 15.3149 91.2898C15.4862 91.2171 15.7197 91.1678 16.0156 91.1419C16.3425 91.0536 16.5813 90.9602 16.7318 90.8616C16.7785 90.6644 16.8019 90.2621 16.8019 89.6549L16.7785 88.0822C16.7785 87.9109 16.7863 87.5917 16.8019 87.1246C16.8226 86.6575 16.833 85.8971 16.833 84.8435C16.833 84.0079 16.8123 83.3747 16.7707 82.9439C16.6825 83.1255 16.5086 83.52 16.2491 84.1273L16.1323 84.4231L16.1168 84.4698L14.9645 87.1947L14.5519 88.2457L14.0147 89.5225C13.7812 90.109 13.5813 90.628 13.4152 91.0796C13.3426 91.2872 13.2829 91.4507 13.2362 91.5701L13.0571 91.5623C12.4706 89.8495 11.7699 88.0926 10.9551 86.2916C10.1454 84.4906 9.57706 83.302 9.25007 82.7259C9.20855 82.9491 9.16184 83.5978 9.10993 84.6722C9.04246 85.9802 9.00872 87.4205 9.00872 88.9931C9.00872 89.4862 9.04506 90.0415 9.11772 90.6592C9.13848 90.8356 9.21374 90.968 9.3435 91.0562C9.47325 91.1393 9.80802 91.186 10.3478 91.1964C10.5554 91.1964 10.7526 91.2119 10.9395 91.2431C10.9758 91.3209 10.994 91.378 10.994 91.4144C10.994 91.4403 10.981 91.4844 10.9551 91.5467L8.53382 91.4611C8.35735 91.4611 8.08226 91.474 7.70857 91.5C7.50096 91.5156 7.20252 91.526 6.81325 91.5311L6.80546 91.3209ZM21.4183 81.9318C21.4183 81.7605 21.4832 81.6126 21.6129 81.488C21.7479 81.3634 21.9088 81.3012 22.0956 81.3012C22.2877 81.3012 22.4563 81.3712 22.6017 81.5114C22.747 81.6515 22.8197 81.802 22.8197 81.9629C22.8197 82.1238 22.747 82.2769 22.6017 82.4223C22.4563 82.5624 22.2877 82.6325 22.0956 82.6325C21.9036 82.6325 21.7427 82.5676 21.6129 82.4378C21.4832 82.3081 21.4183 82.1394 21.4183 81.9318ZM20.7643 85.9646L20.7721 85.7388C21.1095 85.6402 21.2911 85.5831 21.3171 85.5675C21.5039 85.4845 21.6986 85.3573 21.901 85.1861C22.1086 85.0148 22.2825 84.8227 22.4226 84.6099C22.4849 84.5996 22.5342 84.5944 22.5705 84.5944L22.664 84.6022C22.6847 84.8513 22.6951 85.0329 22.6951 85.1471C22.6951 85.1731 22.6899 85.2899 22.6795 85.4975V85.9101L22.6873 88.1523L22.664 90.5268C22.6588 90.7189 22.6899 90.8538 22.7574 90.9317C22.8249 91.0043 23.0247 91.0874 23.3569 91.1808C23.5645 91.2379 23.7202 91.2872 23.824 91.3287C23.8395 91.3651 23.8473 91.3962 23.8473 91.4221C23.8473 91.4533 23.8344 91.4922 23.8084 91.5389C23.606 91.5337 23.3465 91.5208 23.0299 91.5C22.5991 91.4637 22.3136 91.4455 22.1735 91.4455C22.106 91.4455 21.6908 91.4585 20.9278 91.4844C20.7721 91.4896 20.6216 91.5026 20.4763 91.5234C20.4503 91.5234 20.4088 91.5156 20.3517 91.5C20.3258 91.4637 20.3128 91.4325 20.3128 91.4066C20.3128 91.3339 20.3621 91.2768 20.4607 91.2353C20.4815 91.2249 20.7462 91.1652 21.2548 91.0562C21.4209 91.0251 21.5299 90.9732 21.5818 90.9005C21.67 90.7915 21.7141 90.6177 21.7141 90.3789C21.7245 89.9793 21.7297 88.8841 21.7297 87.0935C21.7297 86.7354 21.7141 86.5122 21.683 86.4239C21.6571 86.3617 21.587 86.2916 21.4728 86.2137C21.3638 86.1307 21.1276 86.0476 20.7643 85.9646ZM30.5113 90.0753L30.5191 90.5813C30.1143 91.0121 29.7146 91.3132 29.3201 91.4844C28.9257 91.6557 28.4612 91.7413 27.9266 91.7413C27.3453 91.7413 26.821 91.5908 26.3539 91.2898C25.8868 90.9836 25.5261 90.5528 25.2717 89.9974C25.0226 89.4421 24.898 88.8971 24.898 88.3625C24.898 87.776 25.0486 87.2232 25.3496 86.7042C25.6558 86.18 26.0581 85.7907 26.5563 85.5364C27.0598 85.2769 27.6904 85.1471 28.4482 85.1471C29.1748 85.1471 29.7276 85.2717 30.1065 85.5208C30.3193 85.6662 30.4257 85.853 30.4257 86.0814C30.4257 86.2475 30.3712 86.385 30.2622 86.494C30.1532 86.603 30.013 86.6575 29.8418 86.6575C29.5822 86.6575 29.2968 86.4966 28.9854 86.1748C28.7933 85.9776 28.6195 85.8426 28.4638 85.77C28.308 85.6921 28.1342 85.6532 27.9421 85.6532C27.4802 85.6532 27.0961 85.8426 26.7899 86.2215C26.3643 86.7613 26.1515 87.4386 26.1515 88.2535C26.1515 89.0943 26.3695 89.7639 26.8055 90.2621C27.2414 90.7604 27.7501 91.0095 28.3314 91.0095C28.7362 91.0095 29.0944 90.9446 29.4058 90.8149C29.7224 90.6799 30.0909 90.4334 30.5113 90.0753ZM37.4244 87.3893L34.3025 87.4127H33.7108C33.472 87.4127 33.2281 87.4231 32.979 87.4438C32.9322 87.5995 32.9089 87.7059 32.9089 87.763L32.9167 87.8409V87.9187L32.9089 88.3002C32.9089 88.6168 33.0075 89.0061 33.2047 89.468C33.4072 89.9248 33.6926 90.2751 34.0611 90.519C34.4348 90.7578 34.8993 90.885 35.4547 90.9005C35.7505 90.885 35.9867 90.8486 36.1632 90.7915C36.3396 90.7344 36.5888 90.6021 36.9106 90.3945L37.4711 89.9351L37.5178 90.2466C37.5178 90.2829 37.5152 90.3218 37.51 90.3633C37.2765 90.6592 36.9806 90.9187 36.6225 91.1419C36.2644 91.3651 35.9011 91.5285 35.5326 91.6324C35.3561 91.6791 35.0654 91.7024 34.6606 91.7024C34.2921 91.7024 33.9288 91.6272 33.5706 91.4766C33.0412 91.2483 32.6234 90.8824 32.3172 90.3789C32.0162 89.8703 31.8656 89.2552 31.8656 88.5338C31.8656 88.3054 31.9072 88.0122 31.9902 87.654C32.0784 87.2959 32.2342 86.9144 32.4573 86.5096C32.6079 86.2345 32.7921 86.0087 33.0101 85.8322C33.3215 85.5831 33.594 85.4092 33.8276 85.3106C34.1649 85.1705 34.5568 85.1004 35.0032 85.1004C35.4858 85.1004 35.8803 85.1887 36.1865 85.3651C36.6018 85.5987 36.9106 85.8997 37.113 86.2682C37.3206 86.6367 37.4244 86.9741 37.4244 87.2803V87.3893ZM33.0802 87.109H33.4461C33.7108 87.109 34.4997 87.0675 35.8128 86.9845C36.0204 86.9741 36.1476 86.9533 36.1943 86.9222C36.2877 86.8236 36.3345 86.7354 36.3345 86.6575C36.3345 86.4966 36.2825 86.3149 36.1787 86.1125C36.0749 85.9049 35.914 85.7466 35.6961 85.6376C35.4833 85.5234 35.2341 85.4663 34.9487 85.4663C34.3466 85.4663 33.8639 85.6921 33.5006 86.1437C33.2203 86.4862 33.0802 86.808 33.0802 87.109ZM38.6308 81.8539V81.6826C38.7762 81.6359 38.9371 81.5866 39.1135 81.5347C39.373 81.4517 39.7571 81.3245 40.2658 81.1532H40.6317C40.6369 81.4024 40.6395 81.5451 40.6395 81.5814C40.6395 85.8426 40.6265 88.3833 40.6005 89.2033C40.585 89.686 40.5772 89.9429 40.5772 89.9741C40.5772 90.5554 40.6005 90.8798 40.6472 90.9472C40.7095 91.0407 40.899 91.1055 41.2156 91.1419C41.5374 91.1782 41.7268 91.2145 41.7839 91.2509C41.8254 91.2716 41.8462 91.308 41.8462 91.3599C41.8462 91.417 41.8332 91.4585 41.8073 91.4844C41.7865 91.5052 41.745 91.5156 41.6827 91.5156C41.6464 91.5156 41.3739 91.5078 40.8652 91.4922L39.8453 91.4611L38.5374 91.5156C38.4544 91.5208 38.3921 91.5052 38.3506 91.4689C38.3194 91.4429 38.3038 91.4066 38.3038 91.3599C38.3038 91.308 38.3194 91.2716 38.3506 91.2509C38.3869 91.2249 38.5737 91.1834 38.9111 91.1263C39.2537 91.0692 39.4483 91.0225 39.495 90.9862C39.5469 90.9446 39.5806 90.8564 39.5962 90.7215C39.617 90.5346 39.6274 90.0078 39.6274 89.141L39.6196 87.3504L39.6429 85.4975L39.6351 83.6446L39.6585 82.7337C39.6585 82.552 39.6299 82.4223 39.5729 82.3444C39.5158 82.2614 39.3938 82.1809 39.2069 82.1031C38.9267 81.9889 38.7346 81.9058 38.6308 81.8539ZM42.6088 81.8539V81.6826C42.7542 81.6359 42.9151 81.5866 43.0915 81.5347C43.351 81.4517 43.7351 81.3245 44.2438 81.1532H44.6097C44.6149 81.4024 44.6175 81.5451 44.6175 81.5814C44.6175 85.8426 44.6045 88.3833 44.5785 89.2033C44.563 89.686 44.5552 89.9429 44.5552 89.9741C44.5552 90.5554 44.5785 90.8798 44.6253 90.9472C44.6875 91.0407 44.877 91.1055 45.1936 91.1419C45.5154 91.1782 45.7048 91.2145 45.7619 91.2509C45.8034 91.2716 45.8242 91.308 45.8242 91.3599C45.8242 91.417 45.8112 91.4585 45.7853 91.4844C45.7645 91.5052 45.723 91.5156 45.6607 91.5156C45.6244 91.5156 45.3519 91.5078 44.8432 91.4922L43.8234 91.4611L42.5154 91.5156C42.4324 91.5208 42.3701 91.5052 42.3286 91.4689C42.2974 91.4429 42.2819 91.4066 42.2819 91.3599C42.2819 91.308 42.2974 91.2716 42.3286 91.2509C42.3649 91.2249 42.5517 91.1834 42.8891 91.1263C43.2317 91.0692 43.4263 91.0225 43.473 90.9862C43.5249 90.9446 43.5587 90.8564 43.5742 90.7215C43.595 90.5346 43.6054 90.0078 43.6054 89.141L43.5976 87.3504L43.6209 85.4975L43.6132 83.6446L43.6365 82.7337C43.6365 82.552 43.608 82.4223 43.5509 82.3444C43.4938 82.2614 43.3718 82.1809 43.185 82.1031C42.9047 81.9889 42.7126 81.9058 42.6088 81.8539ZM52.5115 90.4412C52.5427 90.5087 52.5582 90.558 52.5582 90.5891C52.5582 90.667 52.496 90.8045 52.3714 91.0017C52.2105 91.2612 52.0314 91.4507 51.8342 91.5701C51.7096 91.6479 51.5384 91.6868 51.3204 91.6868C50.9467 91.6868 50.6664 91.5727 50.4795 91.3443C50.3654 91.2093 50.2849 90.968 50.2382 90.6203L49.3662 91.2275C49.06 91.404 48.8265 91.5156 48.6656 91.5623C48.406 91.6298 48.0946 91.6635 47.7313 91.6635C47.4666 91.6635 47.2564 91.5856 47.1007 91.4299C46.9502 91.269 46.8749 91.064 46.8749 90.8149C46.8749 90.4568 47.0929 90.0286 47.5289 89.5303C47.9701 89.032 48.5669 88.6246 49.3195 88.308C49.8489 88.0848 50.1733 87.9421 50.2927 87.8798C50.3031 87.7085 50.3083 87.5217 50.3083 87.3193C50.3083 86.6601 50.2148 86.2137 50.028 85.9802C49.8463 85.7466 49.5842 85.6298 49.2417 85.6298C48.8835 85.6298 48.5488 85.77 48.2374 86.0502C48.0453 86.2267 47.9 86.5589 47.8014 87.0468C47.7702 87.1817 47.7105 87.327 47.6223 87.4827C47.3991 87.6281 47.2201 87.7007 47.0851 87.7007C46.9709 87.7007 46.8671 87.667 46.7737 87.5995C46.7218 87.5632 46.6959 87.5217 46.6959 87.475C46.6959 87.34 46.8386 87.0364 47.124 86.5641C47.4147 86.0866 47.778 85.731 48.214 85.4975C48.6552 85.2587 49.0393 85.1393 49.3662 85.1393C49.8126 85.1393 50.1448 85.1809 50.3628 85.2639C50.5808 85.3418 50.7728 85.4819 50.9389 85.6843C51.105 85.8867 51.2062 86.1073 51.2425 86.3461C51.2633 86.4603 51.2737 86.8677 51.2737 87.5684L51.2503 88.8063L51.2581 89.7094C51.2581 89.8287 51.2555 89.9299 51.2503 90.013C51.2451 90.1635 51.2425 90.2751 51.2425 90.3478C51.2425 90.519 51.2918 90.6566 51.3904 90.7604C51.489 90.8642 51.6058 90.9161 51.7408 90.9161C51.938 90.9161 52.1067 90.8175 52.2468 90.6203L52.3402 90.4957C52.3662 90.4801 52.4233 90.462 52.5115 90.4412ZM50.2226 90.2154C50.259 89.5563 50.2771 89.0917 50.2771 88.8218C50.2771 88.6817 50.2693 88.4923 50.2538 88.2535C49.906 88.3781 49.5375 88.5675 49.1482 88.8218C48.759 89.0762 48.4502 89.3694 48.2218 89.7016C48.0557 89.9403 47.9727 90.1661 47.9727 90.3789C47.9727 90.5813 48.0401 90.75 48.1751 90.885C48.3152 91.0199 48.4891 91.0874 48.6967 91.0874C48.8576 91.0874 49.0522 91.0303 49.2806 90.9161C49.5816 90.7656 49.8956 90.532 50.2226 90.2154ZM53.2975 91.5234L53.2664 91.4221C53.2664 91.3858 53.2898 91.3313 53.3365 91.2587L53.7958 91.1652L54.442 91.0484C54.4939 91.0225 54.5302 90.9862 54.551 90.9395C54.5821 90.872 54.5977 90.6722 54.5977 90.34C54.5977 88.5753 54.5873 87.558 54.5666 87.2881C54.5458 87.013 54.4991 86.8392 54.4264 86.7665C54.3538 86.6938 54.1669 86.6367 53.8659 86.5952C53.6894 86.5693 53.5493 86.5355 53.4455 86.494L53.4766 86.2604C54.0216 86.0373 54.3875 85.8452 54.5743 85.6843C54.8339 85.4508 55.0544 85.1445 55.2361 84.7657L55.5008 84.7734C55.5319 85.0329 55.5475 85.6091 55.5475 86.5018L55.5397 86.6341C55.5397 86.6653 55.5449 86.7146 55.5553 86.7821C55.7525 86.4239 55.9991 86.0944 56.2949 85.7933L56.474 85.6143C56.5466 85.5312 56.6167 85.4663 56.6842 85.4196C57.0475 85.2016 57.3174 85.0926 57.4939 85.0926C57.7222 85.0926 57.9091 85.1705 58.0544 85.3262C58.1997 85.4767 58.2724 85.6636 58.2724 85.8867C58.2724 86.0632 58.2205 86.2008 58.1167 86.2994C57.9765 86.4291 57.8156 86.494 57.634 86.494C57.5509 86.494 57.3875 86.4499 57.1435 86.3617C56.8996 86.2734 56.7387 86.2293 56.6608 86.2293C56.5155 86.2293 56.4143 86.2527 56.3572 86.2994C56.2119 86.4136 56.0354 86.6471 55.8278 87.0001C55.6669 87.2648 55.5864 87.5087 55.5864 87.7319L55.6254 89.0165L55.6409 90.558C55.6565 90.7344 55.6773 90.8486 55.7032 90.9005C55.724 90.9369 55.7759 90.981 55.8589 91.0329C56.4195 91.0796 56.7516 91.1133 56.8555 91.1341C56.9281 91.1393 56.9826 91.1445 57.0189 91.1497C57.2421 91.1548 57.3978 91.186 57.4861 91.2431C57.5328 91.269 57.5561 91.308 57.5561 91.3599C57.5561 91.391 57.5354 91.4325 57.4939 91.4844L56.6297 91.4766L56.3027 91.4689L55.8278 91.4766H55.0337L54.6055 91.5L53.2975 91.5234ZM13.6989 99.8461L13.6912 99.7216C13.7638 99.6281 13.9688 99.5814 14.3062 99.5814L15.0302 99.5892L15.4507 99.597L15.6375 99.5892C16.3174 99.5892 16.7275 99.5996 16.8676 99.6204C16.8728 99.6826 16.8754 99.7294 16.8754 99.7605C16.8754 99.8072 16.8702 99.8747 16.8598 99.9629L16.1046 99.9941C16.0683 99.9992 16.019 100.012 15.9567 100.033C15.9359 100.085 15.9256 100.124 15.9256 100.15C15.9256 100.181 15.9411 100.23 15.9723 100.298C16.0138 100.386 16.0527 100.479 16.0891 100.578L16.5795 101.948L17.7473 104.875C17.8823 105.234 17.9731 105.465 18.0198 105.568C18.1652 105.895 18.3494 106.352 18.5726 106.939C18.6504 107.141 18.8373 107.58 19.1331 108.254C19.1487 108.296 19.1798 108.363 19.2266 108.457C19.4601 108.078 19.8027 107.416 20.2542 106.471C20.6072 105.745 20.8278 105.244 20.916 104.969L20.8537 104.813L19.5146 101.777C19.3382 101.398 19.2006 101.097 19.102 100.874C18.8996 100.407 18.7517 100.139 18.6582 100.072C18.5648 100.004 18.2897 99.9577 17.833 99.9318L17.6695 99.8928C17.628 99.8461 17.6072 99.7916 17.6072 99.7294C17.6176 99.6826 17.6409 99.6463 17.6773 99.6204C17.8434 99.6152 17.9601 99.6126 18.0276 99.6126L18.5181 99.6281L18.7672 99.6204H19.1954L19.5769 99.6126H19.9817L20.7136 99.5736C20.7603 99.5736 20.8303 99.5762 20.9238 99.5814L21.0483 99.5736C21.121 99.5736 21.1755 99.5918 21.2118 99.6281C21.2482 99.6593 21.2663 99.6956 21.2663 99.7371C21.2663 99.7735 21.2559 99.815 21.2352 99.8617C21.1521 99.8928 21.0042 99.9188 20.7914 99.9396C20.4852 99.9759 20.3061 100.01 20.2542 100.041C20.2075 100.072 20.1842 100.113 20.1842 100.165C20.1842 100.264 20.384 100.786 20.7836 101.73L21.5777 103.529C21.8217 103.051 22.1539 102.299 22.5743 101.271C22.7507 100.845 22.839 100.531 22.839 100.329C22.839 100.22 22.7949 100.121 22.7066 100.033C22.6391 99.9707 22.4886 99.9292 22.2551 99.9084L22.0916 99.8851L21.9514 99.8228L21.9437 99.7605C21.9437 99.7294 21.9566 99.6852 21.9826 99.6281C22.0345 99.5866 22.0812 99.5633 22.1227 99.5581C22.2006 99.5477 22.5613 99.5607 23.2049 99.597H23.7343L24.0613 99.6048L24.6063 99.597C24.6478 99.6022 24.7101 99.6152 24.7931 99.6359C24.8346 99.6775 24.8554 99.7164 24.8554 99.7527C24.8554 99.8098 24.832 99.8565 24.7853 99.8928C24.7438 99.9292 24.6452 99.9603 24.4895 99.9863C24.095 100.054 23.7992 100.158 23.6019 100.298C23.4722 100.396 23.3554 100.536 23.2516 100.718L22.6833 101.979C22.5483 102.363 22.4367 102.651 22.3485 102.844C22.3122 102.963 22.2447 103.121 22.1461 103.318L21.8269 104.058C21.884 104.193 21.98 104.411 22.1149 104.712L22.9168 106.573C22.9532 106.656 23.0596 106.887 23.236 107.266C23.4177 107.644 23.5682 107.995 23.6876 108.317L23.8044 107.943L23.8199 107.904L24.2948 106.666C24.4609 106.287 24.627 105.888 24.7931 105.467L25.3926 103.957L26.2957 101.388C26.3891 101.092 26.4644 100.806 26.5215 100.531L26.5448 100.407C26.5604 100.35 26.5682 100.308 26.5682 100.282C26.5682 100.209 26.5318 100.145 26.4592 100.087C26.3865 100.025 26.1296 99.9422 25.6884 99.8384C25.6469 99.8228 25.6054 99.7994 25.5639 99.7683C25.5483 99.706 25.5405 99.6567 25.5405 99.6204L25.5483 99.5659C25.7663 99.5555 25.9038 99.5503 25.9609 99.5503L26.5604 99.5659L27.2377 99.5581H27.8216L28.0552 99.5736L28.063 99.6515C28.063 99.6878 28.0578 99.7423 28.0474 99.815C27.6737 99.9603 27.4401 100.064 27.3467 100.126C27.2585 100.189 27.1884 100.256 27.1365 100.329C27.0898 100.401 26.999 100.599 26.864 100.921C26.8484 100.952 26.6849 101.419 26.3735 102.322C26.3061 102.457 26.236 102.636 26.1633 102.859C26.1426 102.921 26.0984 103.033 26.031 103.194L25.9064 103.505L25.8208 103.731C25.4782 104.676 25.1019 105.664 24.6919 106.697L23.8511 109.033L23.5163 109.92C23.4333 109.931 23.371 109.936 23.3295 109.936C23.2931 109.936 23.2412 109.933 23.1737 109.928C23.1063 109.736 22.9583 109.373 22.73 108.838C22.1383 107.478 21.6063 106.35 21.134 105.452L21.0406 105.607C20.7758 106.111 20.4566 106.778 20.083 107.608L19.4757 108.838C19.2266 109.362 19.0241 109.726 18.8684 109.928L18.5337 109.936L17.2724 106.853L16.2292 104.408L15.3105 102.088C15.2482 101.938 15.1937 101.795 15.147 101.66C15.1107 101.562 15.077 101.46 15.0458 101.356C14.9939 101.196 14.8486 100.83 14.6098 100.259C14.5164 100.108 14.3659 100.012 14.1583 99.9707C13.9507 99.9292 13.7976 99.8877 13.6989 99.8461ZM33.419 108.441C33.4501 108.509 33.4657 108.558 33.4657 108.589C33.4657 108.667 33.4034 108.805 33.2788 109.002C33.118 109.261 32.9389 109.451 32.7417 109.57C32.6171 109.648 32.4458 109.687 32.2278 109.687C31.8541 109.687 31.5739 109.573 31.387 109.344C31.2728 109.209 31.1924 108.968 31.1457 108.62L30.2737 109.228C29.9675 109.404 29.7339 109.516 29.573 109.562C29.3135 109.63 29.0021 109.663 28.6388 109.663C28.3741 109.663 28.1639 109.586 28.0081 109.43C27.8576 109.269 27.7824 109.064 27.7824 108.815C27.7824 108.457 28.0004 108.029 28.4363 107.53C28.8775 107.032 29.4744 106.625 30.227 106.308C30.7564 106.085 31.0808 105.942 31.2002 105.88C31.2105 105.709 31.2157 105.522 31.2157 105.319C31.2157 104.66 31.1223 104.214 30.9355 103.98C30.7538 103.747 30.4917 103.63 30.1491 103.63C29.791 103.63 29.4562 103.77 29.1448 104.05C28.9528 104.227 28.8074 104.559 28.7088 105.047C28.6777 105.182 28.618 105.327 28.5298 105.483C28.3066 105.628 28.1275 105.701 27.9926 105.701C27.8784 105.701 27.7746 105.667 27.6812 105.6C27.6293 105.563 27.6033 105.522 27.6033 105.475C27.6033 105.34 27.746 105.036 28.0315 104.564C28.3222 104.087 28.6855 103.731 29.1215 103.497C29.5626 103.259 29.9467 103.139 30.2737 103.139C30.7201 103.139 31.0522 103.181 31.2702 103.264C31.4882 103.342 31.6803 103.482 31.8463 103.684C32.0124 103.887 32.1136 104.107 32.15 104.346C32.1707 104.46 32.1811 104.868 32.1811 105.568L32.1578 106.806L32.1655 107.709C32.1655 107.829 32.1629 107.93 32.1578 108.013C32.1526 108.164 32.15 108.275 32.15 108.348C32.15 108.519 32.1993 108.657 32.2979 108.76C32.3965 108.864 32.5133 108.916 32.6482 108.916C32.8455 108.916 33.0141 108.817 33.1543 108.62L33.2477 108.496C33.2737 108.48 33.3308 108.462 33.419 108.441ZM31.1301 108.215C31.1664 107.556 31.1846 107.092 31.1846 106.822C31.1846 106.682 31.1768 106.492 31.1612 106.253C30.8135 106.378 30.445 106.568 30.0557 106.822C29.6664 107.076 29.3576 107.369 29.1292 107.702C28.9632 107.94 28.8801 108.166 28.8801 108.379C28.8801 108.581 28.9476 108.75 29.0825 108.885C29.2227 109.02 29.3965 109.087 29.6042 109.087C29.765 109.087 29.9597 109.03 30.1881 108.916C30.4891 108.766 30.8031 108.532 31.1301 108.215ZM36.1124 101.808L36.3538 101.816L36.3849 102.555L36.3693 103.513C36.4679 103.518 36.5302 103.521 36.5562 103.521C36.6911 103.521 36.948 103.51 37.3269 103.49C37.5709 103.474 37.8044 103.466 38.0276 103.466C38.1314 103.466 38.2871 103.469 38.4947 103.474C38.5051 103.578 38.5103 103.661 38.5103 103.723C38.5103 103.791 38.4947 103.897 38.4636 104.042H38.3312L37.1245 104.081L36.525 104.097L36.3849 104.113C36.3434 104.242 36.3226 104.393 36.3226 104.564L36.346 105.732L36.3304 107.787C36.3304 108.327 36.4005 108.685 36.5406 108.862C36.6756 109.043 36.878 109.134 37.1479 109.134C37.2828 109.134 37.5371 109.093 37.9108 109.01C38.025 108.984 38.1781 108.898 38.3702 108.753H38.4402C38.487 108.753 38.5233 108.768 38.5492 108.799C38.5804 108.825 38.5959 108.862 38.5959 108.908L38.5882 108.963C38.365 109.207 38.1081 109.386 37.8174 109.5C37.5319 109.609 37.1505 109.663 36.673 109.663C36.3356 109.663 36.0553 109.586 35.8321 109.43C35.6141 109.274 35.474 109.09 35.4117 108.877C35.3494 108.664 35.3183 108.2 35.3183 107.484L35.3494 105.732L35.3417 104.891V104.58C35.3417 104.434 35.3365 104.289 35.3261 104.144L35.1937 104.136L34.5553 104.159L34.4931 104.167C34.436 104.167 34.3918 104.154 34.3607 104.128C34.3348 104.102 34.3218 104.071 34.3218 104.035C34.3218 103.972 34.3399 103.923 34.3763 103.887C34.4178 103.845 34.5372 103.783 34.7344 103.7C34.8693 103.643 35.0251 103.536 35.2015 103.381C35.3832 103.22 35.5363 103.043 35.6609 102.851C35.7231 102.747 35.8114 102.55 35.9256 102.26C36.0086 102.047 36.0709 101.896 36.1124 101.808ZM45.0264 105.389L41.9044 105.413H41.3127C41.074 105.413 40.83 105.423 40.5809 105.444C40.5342 105.6 40.5108 105.706 40.5108 105.763L40.5186 105.841V105.919L40.5108 106.3C40.5108 106.617 40.6095 107.006 40.8067 107.468C41.0091 107.925 41.2946 108.275 41.6631 108.519C42.0368 108.758 42.5013 108.885 43.0567 108.901C43.3525 108.885 43.5887 108.849 43.7651 108.792C43.9416 108.734 44.1907 108.602 44.5125 108.394L45.0731 107.935L45.1198 108.247C45.1198 108.283 45.1172 108.322 45.112 108.363C44.8784 108.659 44.5826 108.919 44.2245 109.142C43.8663 109.365 43.503 109.529 43.1345 109.632C42.958 109.679 42.6674 109.702 42.2625 109.702C41.894 109.702 41.5307 109.627 41.1726 109.477C40.6432 109.248 40.2254 108.882 39.9191 108.379C39.6181 107.87 39.4676 107.255 39.4676 106.534C39.4676 106.305 39.5091 106.012 39.5922 105.654C39.6804 105.296 39.8361 104.914 40.0593 104.51C40.2098 104.234 40.3941 104.009 40.612 103.832C40.9235 103.583 41.1959 103.409 41.4295 103.311C41.7669 103.17 42.1587 103.1 42.6051 103.1C43.0878 103.1 43.4823 103.189 43.7885 103.365C44.2037 103.599 44.5125 103.9 44.7149 104.268C44.9225 104.637 45.0264 104.974 45.0264 105.28V105.389ZM40.6821 105.109H41.048C41.3127 105.109 42.1016 105.068 43.4148 104.984C43.6224 104.974 43.7496 104.953 43.7963 104.922C43.8897 104.824 43.9364 104.735 43.9364 104.657C43.9364 104.497 43.8845 104.315 43.7807 104.113C43.6769 103.905 43.516 103.747 43.298 103.638C43.0852 103.523 42.8361 103.466 42.5506 103.466C41.9485 103.466 41.4658 103.692 41.1025 104.144C40.8223 104.486 40.6821 104.808 40.6821 105.109ZM46.1471 109.523L46.116 109.422C46.116 109.386 46.1393 109.331 46.1861 109.259L46.6454 109.165L47.2916 109.048C47.3435 109.022 47.3798 108.986 47.4006 108.939C47.4317 108.872 47.4473 108.672 47.4473 108.34C47.4473 106.575 47.4369 105.558 47.4162 105.288C47.3954 105.013 47.3487 104.839 47.276 104.766C47.2034 104.694 47.0165 104.637 46.7155 104.595C46.539 104.569 46.3989 104.536 46.2951 104.494L46.3262 104.26C46.8712 104.037 47.2371 103.845 47.4239 103.684C47.6834 103.451 47.904 103.145 48.0857 102.766L48.3504 102.773C48.3815 103.033 48.3971 103.609 48.3971 104.502L48.3893 104.634C48.3893 104.665 48.3945 104.715 48.4049 104.782C48.6021 104.424 48.8487 104.094 49.1445 103.793L49.3236 103.614C49.3962 103.531 49.4663 103.466 49.5338 103.42C49.8971 103.202 50.167 103.093 50.3435 103.093C50.5718 103.093 50.7587 103.17 50.904 103.326C51.0493 103.477 51.122 103.664 51.122 103.887C51.122 104.063 51.0701 104.201 50.9663 104.299C50.8261 104.429 50.6652 104.494 50.4836 104.494C50.4005 104.494 50.2371 104.45 49.9931 104.362C49.7492 104.273 49.5883 104.229 49.5104 104.229C49.3651 104.229 49.2639 104.253 49.2068 104.299C49.0615 104.414 48.885 104.647 48.6774 105C48.5165 105.265 48.436 105.509 48.436 105.732L48.475 107.016L48.4905 108.558C48.5061 108.734 48.5269 108.849 48.5528 108.901C48.5736 108.937 48.6255 108.981 48.7085 109.033C49.2691 109.08 49.6012 109.113 49.7051 109.134C49.7777 109.139 49.8322 109.144 49.8685 109.15C50.0917 109.155 50.2474 109.186 50.3357 109.243C50.3824 109.269 50.4057 109.308 50.4057 109.36C50.4057 109.391 50.385 109.433 50.3435 109.484L49.4793 109.477L49.1523 109.469L48.6774 109.477H47.8833L47.4551 109.5L46.1471 109.523Z" fill="black"/>
</svg>
