<svg width="110" height="92" viewBox="0 0 110 92" fill="none" xmlns="http://www.w3.org/2000/svg">
<path d="M2.08064 29.7682L107.194 29.2743C108.085 29.2702 108.811 29.9897 108.816 30.881L109.068 84.6773C109.085 88.2563 106.197 91.1711 102.618 91.1881L7.23758 91.6362C3.6587 91.6528 0.743584 88.7652 0.726736 85.1863L0.473984 31.39C0.46994 30.4987 1.18935 29.7725 2.08064 29.7682Z" fill="#DABCFC" stroke="black" stroke-width="0.664654"/>
<path d="M10.2559 1.00672L103.602 4.62744C106.104 4.72449 108.054 6.83182 107.957 9.33395L107.336 25.3463L4.92833 21.3741L5.54942 5.36175C5.64657 2.85968 7.75386 0.909761 10.2559 1.00672Z" fill="#DABCFC" stroke="black" stroke-width="0.664654"/>
<path d="M11.7136 66.918C11.9014 66.7907 12.2406 66.6999 12.7313 66.6453C13.113 66.6272 13.3402 66.5938 13.4128 66.5454C13.4613 66.509 13.4977 66.4636 13.5219 66.4091C13.6128 66.1849 13.6794 65.5761 13.7218 64.5826C13.7763 63.2922 13.8642 61.5748 13.9853 59.4302C14.0823 57.7945 14.1307 56.7738 14.1307 56.3679V56.1316C13.6945 56.0407 13.0039 55.9438 12.0589 55.8408C11.9983 55.7499 11.968 55.6803 11.968 55.6318C11.968 55.6015 11.9892 55.547 12.0316 55.4682C12.1346 55.4319 12.2134 55.4137 12.2679 55.4137C12.3163 55.4137 12.4224 55.4258 12.5859 55.4501C12.8828 55.4925 13.2917 55.5137 13.8127 55.5137C13.9823 55.5137 14.2731 55.5016 14.685 55.4773C14.9758 55.4592 15.1394 55.4501 15.1757 55.4501C15.2727 55.4501 15.3847 55.4652 15.512 55.4955C15.5725 55.5561 15.618 55.6136 15.6483 55.6682L16.0299 56.5223L18.6016 62.2108L19.6648 64.6007C20.5068 62.9348 21.1611 61.4536 21.6276 60.1572C21.6578 60.0602 21.6942 59.9724 21.7366 59.8936C21.7911 59.7907 21.8426 59.6756 21.8911 59.5483C21.9395 59.4211 22.1364 58.9365 22.4817 58.0944C22.6211 57.7552 22.7332 57.4644 22.818 57.222C23.1633 56.2528 23.3662 55.6984 23.4268 55.5591C23.5419 55.5167 23.6419 55.4955 23.7267 55.4955C23.8236 55.4955 23.9478 55.5016 24.0992 55.5137C24.4385 55.5319 24.9898 55.5409 25.7531 55.5409C26.2256 55.5409 26.6133 55.5349 26.9162 55.5228C26.9283 55.5894 26.9344 55.6379 26.9344 55.6682C26.9344 55.7106 26.9253 55.7681 26.9071 55.8408C26.7133 55.9438 26.4801 56.0014 26.2074 56.0135C25.6683 56.0438 25.326 56.0862 25.1806 56.1407C25.0352 56.1952 24.9413 56.2649 24.8989 56.3497C24.8626 56.4345 24.8292 56.7132 24.7989 57.1857L24.808 57.6037L24.7989 58.0399C24.7989 58.9486 24.8232 60.4752 24.8716 62.6198L24.8626 64.4008L24.8716 65.5458C24.8716 65.9941 24.8928 66.2607 24.9353 66.3455C24.9777 66.4242 25.0988 66.4999 25.2987 66.5726C25.6259 66.6817 26.159 66.7938 26.8981 66.9089C26.9405 66.9392 26.9617 66.9785 26.9617 67.027C26.9617 67.0815 26.9586 67.1421 26.9526 67.2087H26.5346C26.1772 67.2087 25.7894 67.1966 25.3714 67.1724C24.9534 67.1542 24.7293 67.1451 24.699 67.1451C23.4571 67.1451 22.6332 67.1572 22.2273 67.1815C21.9789 67.1996 21.8214 67.2087 21.7548 67.2087C21.7124 67.2087 21.6669 67.1966 21.6185 67.1724V67.0543C21.6185 66.9997 21.6276 66.9422 21.6457 66.8816C21.8456 66.7968 22.1183 66.7392 22.4636 66.7089C22.8452 66.606 23.1239 66.4969 23.2996 66.3818C23.3541 66.1516 23.3814 65.6821 23.3814 64.9733L23.3541 63.1377C23.3541 62.9378 23.3632 62.5652 23.3814 62.02C23.4056 61.4748 23.4177 60.5873 23.4177 59.3575C23.4177 58.3822 23.3935 57.6431 23.345 57.1403C23.242 57.3523 23.0391 57.8127 22.7362 58.5215L22.5999 58.8668L22.5817 58.9213L21.2368 62.1018L20.7552 63.3286L20.1282 64.8188C19.8556 65.5034 19.6223 66.1092 19.4285 66.6363C19.3437 66.8786 19.274 67.0694 19.2195 67.2087L19.0105 67.1996C18.3259 65.2005 17.5081 63.1498 16.557 61.0477C15.6119 58.9456 14.9486 57.5583 14.5669 56.8858C14.5184 57.1463 14.4639 57.9036 14.4033 59.1576C14.3246 60.6842 14.2852 62.3653 14.2852 64.2009C14.2852 64.7764 14.3276 65.4246 14.4124 66.1455C14.4367 66.3515 14.5245 66.506 14.6759 66.609C14.8274 66.7059 15.2181 66.7604 15.8482 66.7726C16.0905 66.7726 16.3207 66.7907 16.5388 66.8271C16.5812 66.918 16.6024 66.9846 16.6024 67.027C16.6024 67.0573 16.5873 67.1088 16.557 67.1815L13.7309 67.0815C13.5249 67.0815 13.2038 67.0967 12.7677 67.127C12.5253 67.1451 12.177 67.1572 11.7227 67.1633L11.7136 66.918ZM28.1426 63.474C28.1426 63.062 28.2274 62.6228 28.3971 62.1563C28.5727 61.6838 28.8363 61.2628 29.1876 60.8932C29.539 60.5176 29.9116 60.239 30.3053 60.0572C30.8566 59.8028 31.5291 59.6756 32.3227 59.6756C33.4555 59.6756 34.4006 60.0633 35.1578 60.8387C35.9212 61.6141 36.3028 62.5471 36.3028 63.6375C36.3028 64.6068 35.903 65.4731 35.1033 66.2364C34.3097 66.9937 33.3041 67.3723 32.0864 67.3723C31.3352 67.3723 30.6264 67.1754 29.96 66.7816C29.4633 66.4848 29.0362 66.0456 28.6788 65.464C28.3213 64.8824 28.1426 64.2191 28.1426 63.474ZM32.1591 67.0179C32.6195 67.0179 33.0618 66.8937 33.4858 66.6453C33.9159 66.397 34.2582 66.0002 34.5127 65.4549C34.7671 64.9037 34.8943 64.2676 34.8943 63.5466C34.8943 63.0741 34.7944 62.5259 34.5944 61.9019C34.4006 61.2779 34.0977 60.8114 33.6857 60.5025C33.2798 60.1875 32.8013 60.03 32.25 60.03C31.8501 60.03 31.4412 60.1239 31.0232 60.3117C30.6113 60.4995 30.2599 60.8599 29.9691 61.393C29.6844 61.9261 29.542 62.6834 29.542 63.6648C29.542 64.7673 29.7904 65.6034 30.2872 66.1728C30.79 66.7362 31.414 67.0179 32.1591 67.0179ZM38.6469 55.9589C38.6469 55.759 38.7226 55.5864 38.8741 55.441C39.0316 55.2956 39.2194 55.2229 39.4375 55.2229C39.6616 55.2229 39.8585 55.3047 40.0281 55.4682C40.1978 55.6318 40.2826 55.8075 40.2826 55.9953C40.2826 56.1831 40.1978 56.3618 40.0281 56.5314C39.8585 56.695 39.6616 56.7768 39.4375 56.7768C39.2133 56.7768 39.0255 56.7011 38.8741 56.5496C38.7226 56.3982 38.6469 56.2013 38.6469 55.9589ZM37.8836 60.666L37.8927 60.4025C38.2865 60.2874 38.4985 60.2208 38.5288 60.2026C38.7469 60.1057 38.974 59.9573 39.2103 59.7573C39.4526 59.5574 39.6556 59.3333 39.8191 59.0849C39.8918 59.0728 39.9494 59.0667 39.9918 59.0667L40.1008 59.0758C40.1251 59.3666 40.1372 59.5786 40.1372 59.7119C40.1372 59.7422 40.1311 59.8785 40.119 60.1208V60.6024L40.1281 63.2195L40.1008 65.9911C40.0948 66.2152 40.1311 66.3727 40.2099 66.4636C40.2886 66.5484 40.5219 66.6453 40.9096 66.7544C41.1519 66.821 41.3337 66.8786 41.4548 66.927C41.473 66.9694 41.4821 67.0058 41.4821 67.0361C41.4821 67.0724 41.4669 67.1179 41.4366 67.1724C41.2004 67.1663 40.8975 67.1512 40.5279 67.127C40.0251 67.0845 39.6919 67.0633 39.5284 67.0633C39.4496 67.0633 38.965 67.0785 38.0744 67.1088C37.8927 67.1148 37.717 67.13 37.5474 67.1542C37.5171 67.1542 37.4686 67.1451 37.402 67.127C37.3717 67.0845 37.3566 67.0482 37.3566 67.0179C37.3566 66.9331 37.4141 66.8665 37.5292 66.818C37.5534 66.8059 37.8624 66.7362 38.4561 66.609C38.6499 66.5726 38.7772 66.5121 38.8377 66.4272C38.9407 66.3 38.9922 66.0971 38.9922 65.8184C39.0043 65.3519 39.0104 64.0737 39.0104 61.9837C39.0104 61.5657 38.9922 61.3052 38.9559 61.2022C38.9256 61.1295 38.8438 61.0477 38.7105 60.9568C38.5833 60.8599 38.3077 60.763 37.8836 60.666ZM43.3173 64.8188C43.5415 65.3944 43.7111 65.7669 43.8262 65.9365C44.0564 66.2819 44.332 66.5514 44.6531 66.7453C44.9742 66.9331 45.3225 67.027 45.6981 67.027C46.0434 67.027 46.3857 66.8786 46.725 66.5817C46.9673 66.3576 47.0884 66.0971 47.0884 65.8002C47.0884 65.4065 46.9461 65.043 46.6613 64.7098C46.3766 64.3827 45.8344 64.0707 45.0348 63.7738C44.2412 63.4709 43.708 63.1498 43.4354 62.8106C43.1628 62.4713 43.0265 62.0836 43.0265 61.6474C43.0265 61.2355 43.1386 60.872 43.3627 60.557C43.5869 60.242 43.8958 60.0057 44.2896 59.8482C44.6834 59.6846 45.0469 59.6029 45.3801 59.6029C45.8102 59.6029 46.1949 59.6362 46.5341 59.7028C46.8794 59.7695 47.1763 59.8724 47.4247 60.0118C47.4731 60.3207 47.5125 60.7751 47.5428 61.3748L47.561 61.6656C47.4822 61.6717 47.4156 61.6747 47.3611 61.6747H47.2338C47.0521 61.1719 46.7734 60.7751 46.3978 60.4843C46.0283 60.1875 45.6618 60.039 45.2983 60.039C44.9348 60.039 44.641 60.1511 44.4168 60.3753C44.1927 60.5933 44.0806 60.8811 44.0806 61.2385C44.0806 61.5111 44.1715 61.7535 44.3532 61.9655C44.535 62.1775 44.959 62.4199 45.6254 62.6925C46.2979 62.9651 46.7855 63.2195 47.0884 63.4558C47.3974 63.686 47.6246 63.9677 47.77 64.3009C47.9154 64.6341 47.9881 64.9521 47.9881 65.255C47.9881 65.673 47.8487 66.0638 47.5701 66.4272C47.2974 66.7907 46.9521 67.0452 46.5341 67.1906C46.1222 67.342 45.7526 67.4177 45.4255 67.4177C44.6561 67.4177 43.9473 67.2754 43.2991 66.9906C43.2386 66.9422 43.2052 66.8513 43.1992 66.718C43.1992 66.6635 43.1931 66.5757 43.181 66.4545C43.0841 65.6367 43.0356 65.152 43.0356 65.0006C43.0356 64.9279 43.0508 64.8794 43.081 64.8552C43.1113 64.831 43.1901 64.8188 43.3173 64.8188ZM51.7679 58.1489L52.0496 58.158L52.086 59.0213L52.0678 60.139C52.1829 60.1451 52.2556 60.1481 52.2859 60.1481C52.4434 60.1481 52.7433 60.136 53.1855 60.1117C53.4702 60.0936 53.7428 60.0845 54.0033 60.0845C54.1245 60.0845 54.3062 60.0875 54.5486 60.0936C54.5607 60.2147 54.5667 60.3117 54.5667 60.3843C54.5667 60.4631 54.5486 60.5873 54.5122 60.7569H54.3577L52.9492 60.8024L52.2495 60.8205L52.086 60.8387C52.0375 60.9902 52.0133 61.1658 52.0133 61.3658L52.0405 62.7288L52.0224 65.1278C52.0224 65.7578 52.1041 66.1758 52.2677 66.3818C52.4252 66.5938 52.6615 66.6999 52.9765 66.6999C53.134 66.6999 53.4308 66.6514 53.867 66.5545C54.0003 66.5242 54.179 66.4242 54.4032 66.2546H54.4849C54.5395 66.2546 54.5819 66.2728 54.6122 66.3091C54.6485 66.3394 54.6667 66.3818 54.6667 66.4363L54.6576 66.4999C54.3971 66.7847 54.0972 66.9937 53.758 67.127C53.4248 67.2542 52.9795 67.3178 52.4222 67.3178C52.0284 67.3178 51.7013 67.2269 51.4408 67.0452C51.1863 66.8634 51.0228 66.6484 50.9501 66.4C50.8774 66.1516 50.841 65.6094 50.841 64.7734L50.8774 62.7288L50.8683 61.7474V61.3839C50.8683 61.2143 50.8622 61.0447 50.8501 60.875L50.6956 60.866L49.9505 60.8932L49.8778 60.9023C49.8112 60.9023 49.7597 60.8872 49.7233 60.8569C49.693 60.8266 49.6779 60.7902 49.6779 60.7478C49.6779 60.6751 49.6991 60.6176 49.7415 60.5752C49.79 60.5267 49.9293 60.454 50.1595 60.3571C50.317 60.2904 50.4988 60.1663 50.7047 59.9845C50.9168 59.7967 51.0955 59.5907 51.2409 59.3666C51.3136 59.2454 51.4165 59.0152 51.5498 58.676C51.6468 58.4276 51.7195 58.2519 51.7679 58.1489ZM55.2752 59.9936H55.9567L56.2566 60.0118L56.4928 59.9936C57.1168 59.9936 57.5045 59.9997 57.656 60.0118L57.6651 60.1844C57.6651 61.0386 57.6529 61.8655 57.6287 62.6652C57.6105 63.1377 57.6015 63.4073 57.6015 63.474C57.6015 64.5402 57.6348 65.2066 57.7014 65.4731C57.7741 65.7397 57.9377 65.9547 58.1921 66.1183C58.4526 66.2758 58.7646 66.3546 59.1281 66.3546C59.5703 66.3546 59.9914 66.2637 60.3912 66.0819C60.7971 65.8941 61.1424 65.667 61.4271 65.4004C61.4574 65.1702 61.4725 64.9158 61.4725 64.6371C61.4725 63.7344 61.4816 63.1256 61.4998 62.8106C61.5059 62.6228 61.5089 62.4592 61.5089 62.3199C61.5089 61.3385 61.4604 60.7842 61.3635 60.657C61.2666 60.5297 60.897 60.4328 60.2549 60.3662C60.0428 60.3419 59.8884 60.3207 59.7914 60.3026C59.743 60.2238 59.7187 60.1632 59.7187 60.1208L59.746 60.0209C59.9035 60.0027 60.058 59.9936 60.2094 59.9936L61.6543 60.0118C62.1692 59.9997 62.4418 59.9936 62.4721 59.9936C62.5388 59.9936 62.6024 59.9966 62.6629 60.0027L62.6811 60.666C62.6387 61.5869 62.6145 62.7258 62.6084 64.0828L62.5903 64.8188L62.6266 66.0547C62.6811 66.1516 62.7296 66.2092 62.772 66.2273C62.8447 66.2576 62.9931 66.2728 63.2173 66.2728H63.299C63.3778 66.2728 63.6019 66.2909 63.9715 66.3273C63.9775 66.406 63.9806 66.4636 63.9806 66.4999V66.5999C63.1688 66.7756 62.5115 66.9513 62.0087 67.127C61.8088 67.1936 61.6391 67.2421 61.4998 67.2723C61.4695 67.0603 61.4544 66.9301 61.4544 66.8816V66.1455C61.4544 66.1153 61.4513 66.0335 61.4453 65.9002C61.3665 65.9547 61.2757 66.0214 61.1727 66.1001C60.6941 66.4697 60.1882 66.7816 59.6551 67.0361C59.2977 67.2118 58.9524 67.2996 58.6192 67.2996C57.9831 67.2996 57.4651 67.0633 57.0653 66.5908C56.6594 66.1183 56.4565 65.3126 56.4565 64.1737C56.4565 64.1131 56.4595 64.004 56.4656 63.8465C56.4898 63.5557 56.5019 63.3528 56.5019 63.2377C56.5019 63.1953 56.4989 63.062 56.4928 62.8379C56.4868 62.7409 56.4837 62.6561 56.4837 62.5834C56.4837 62.5289 56.4868 62.4077 56.4928 62.2199C56.4989 62.0261 56.5019 61.8898 56.5019 61.811C56.5019 61.708 56.4989 61.6172 56.4928 61.5384L56.4747 61.0568L56.4837 60.8024C56.4837 60.7054 56.4353 60.6176 56.3383 60.5388C55.9567 60.4358 55.7053 60.3783 55.5841 60.3662C55.469 60.348 55.366 60.3207 55.2752 60.2844V59.9936ZM64.8435 67.1542L64.8071 67.0361C64.8071 66.9937 64.8344 66.9301 64.8889 66.8453L65.4251 66.7362L66.1793 66.5999C66.2399 66.5696 66.2823 66.5272 66.3065 66.4727C66.3428 66.3939 66.361 66.1607 66.361 65.773C66.361 63.7132 66.3489 62.5259 66.3247 62.2108C66.3004 61.8898 66.2459 61.6868 66.1611 61.602C66.0763 61.5172 65.8582 61.4506 65.5068 61.4021C65.3009 61.3718 65.1373 61.3324 65.0161 61.284L65.0525 61.0114C65.6886 60.7509 66.1157 60.5267 66.3338 60.3389C66.6367 60.0663 66.8941 59.7089 67.1062 59.2666L67.4151 59.2757C67.4515 59.5786 67.4696 60.2511 67.4696 61.2931L67.4606 61.4475C67.4606 61.4839 67.4666 61.5414 67.4787 61.6202C67.7089 61.2022 67.9967 60.8175 68.342 60.4661L68.551 60.2571C68.6358 60.1602 68.7176 60.0845 68.7964 60.03C69.2204 59.7755 69.5354 59.6483 69.7414 59.6483C70.008 59.6483 70.2261 59.7392 70.3957 59.9209C70.5653 60.0966 70.6501 60.3147 70.6501 60.5752C70.6501 60.7811 70.5895 60.9417 70.4684 61.0568C70.3048 61.2082 70.117 61.284 69.905 61.284C69.8081 61.284 69.6172 61.2325 69.3325 61.1295C69.0478 61.0265 68.86 60.975 68.7691 60.975C68.5995 60.975 68.4813 61.0023 68.4147 61.0568C68.2451 61.1901 68.0391 61.4627 67.7968 61.8746C67.609 62.1836 67.5151 62.4683 67.5151 62.7288L67.5605 64.2282L67.5787 66.0274C67.5969 66.2334 67.6211 66.3667 67.6514 66.4272C67.6756 66.4697 67.7362 66.5211 67.8331 66.5817C68.4874 66.6363 68.8751 66.6756 68.9963 66.6999C69.0811 66.7059 69.1447 66.712 69.1871 66.718C69.4476 66.7241 69.6293 66.7604 69.7323 66.8271C69.7868 66.8574 69.8141 66.9028 69.8141 66.9634C69.8141 66.9997 69.7899 67.0482 69.7414 67.1088L68.7327 67.0997L68.3511 67.0906L67.7968 67.0997H66.8699L66.3701 67.127L64.8435 67.1542ZM72.349 55.9589C72.349 55.759 72.4248 55.5864 72.5762 55.441C72.7337 55.2956 72.9215 55.2229 73.1396 55.2229C73.3638 55.2229 73.5606 55.3047 73.7303 55.4682C73.8999 55.6318 73.9847 55.8075 73.9847 55.9953C73.9847 56.1831 73.8999 56.3618 73.7303 56.5314C73.5606 56.695 73.3638 56.7768 73.1396 56.7768C72.9155 56.7768 72.7277 56.7011 72.5762 56.5496C72.4248 56.3982 72.349 56.2013 72.349 55.9589ZM71.5857 60.666L71.5948 60.4025C71.9886 60.2874 72.2006 60.2208 72.2309 60.2026C72.449 60.1057 72.6762 59.9573 72.9124 59.7573C73.1548 59.5574 73.3577 59.3333 73.5213 59.0849C73.594 59.0728 73.6515 59.0667 73.6939 59.0667L73.803 59.0758C73.8272 59.3666 73.8393 59.5786 73.8393 59.7119C73.8393 59.7422 73.8333 59.8785 73.8211 60.1208V60.6024L73.8302 63.2195L73.803 65.9911C73.7969 66.2152 73.8333 66.3727 73.912 66.4636C73.9908 66.5484 74.224 66.6453 74.6117 66.7544C74.854 66.821 75.0358 66.8786 75.1569 66.927C75.1751 66.9694 75.1842 67.0058 75.1842 67.0361C75.1842 67.0724 75.1691 67.1179 75.1388 67.1724C74.9025 67.1663 74.5996 67.1512 74.2301 67.127C73.7272 67.0845 73.3941 67.0633 73.2305 67.0633C73.1517 67.0633 72.6671 67.0785 71.7766 67.1088C71.5948 67.1148 71.4191 67.13 71.2495 67.1542C71.2192 67.1542 71.1707 67.1451 71.1041 67.127C71.0738 67.0845 71.0587 67.0482 71.0587 67.0179C71.0587 66.9331 71.1162 66.8665 71.2313 66.818C71.2556 66.8059 71.5645 66.7362 72.1582 66.609C72.3521 66.5726 72.4793 66.5121 72.5399 66.4272C72.6429 66.3 72.6943 66.0971 72.6943 65.8184C72.7065 65.3519 72.7125 64.0737 72.7125 61.9837C72.7125 61.5657 72.6943 61.3052 72.658 61.2022C72.6277 61.1295 72.5459 61.0477 72.4126 60.9568C72.2854 60.8599 72.0098 60.763 71.5857 60.666ZM76.1925 67.1542L76.2016 66.9634C76.9225 66.1516 77.4283 65.5579 77.7191 65.1823L78.4461 64.2554C78.5248 64.1706 78.8671 63.7799 79.4729 63.0832L80.2908 62.1291C80.4665 61.9413 80.839 61.4597 81.4085 60.6842C81.354 60.6479 81.2903 60.6297 81.2176 60.6297L80.8451 60.6206C80.4028 60.6085 79.8273 60.6146 79.1185 60.6388C78.6157 60.657 78.228 60.7175 77.9554 60.8205C77.7555 60.8932 77.5768 61.0083 77.4193 61.1658C77.1709 61.4142 76.9922 61.6474 76.8831 61.8655C76.8286 61.9746 76.7408 62.0655 76.6196 62.1382C76.553 62.1321 76.5045 62.1018 76.4742 62.0473C76.4984 61.9806 76.553 61.8201 76.6378 61.5657C76.7286 61.3052 76.8044 61.0689 76.8649 60.8569C77.0649 60.1844 77.2466 59.6513 77.4102 59.2576H77.7373C77.7252 59.3363 77.7161 59.3939 77.71 59.4302C77.6797 59.6059 77.6646 59.7392 77.6646 59.83C77.6646 59.9573 77.7191 60.0481 77.8282 60.1026C77.9796 60.1875 78.4764 60.2299 79.3185 60.2299C79.5184 60.2299 79.7546 60.2238 80.0272 60.2117C81.1298 60.1572 81.8265 60.1299 82.1173 60.1299C82.2324 60.1299 82.4959 60.142 82.9078 60.1663C82.9139 60.2329 82.9169 60.2904 82.9169 60.3389C82.9169 60.4419 82.8988 60.5207 82.8624 60.5752C82.717 60.8296 82.4626 61.1931 82.0991 61.6656L80.2453 63.9283L77.9281 66.7453C78.0493 66.7453 78.2492 66.7514 78.5279 66.7635H80.7179C80.9723 66.7695 81.2237 66.712 81.4721 66.5908C81.7265 66.4697 81.9537 66.2667 82.1536 65.982C82.3596 65.6912 82.5171 65.3519 82.6261 64.9642C82.6746 64.9339 82.7231 64.9188 82.7715 64.9188C82.8442 64.9188 82.9018 64.9491 82.9442 65.0097L82.7534 66.3C82.6988 66.7847 82.6322 67.0785 82.5534 67.1815L77.0467 67.1724H76.4833C76.3742 67.1724 76.2773 67.1663 76.1925 67.1542ZM91.2312 62.329L87.5873 62.3562H86.8967C86.618 62.3562 86.3333 62.3684 86.0425 62.3926C85.988 62.5743 85.9607 62.6985 85.9607 62.7652L85.9698 62.856V62.9469L85.9607 63.3922C85.9607 63.7617 86.0758 64.2161 86.3061 64.7552C86.5423 65.2883 86.8755 65.6973 87.3056 65.982C87.7418 66.2607 88.284 66.4091 88.9322 66.4272C89.2775 66.4091 89.5532 66.3667 89.7591 66.3C89.9651 66.2334 90.2559 66.0789 90.6315 65.8366L91.2858 65.3005L91.3403 65.6639C91.3403 65.7063 91.3373 65.7518 91.3312 65.8002C91.0586 66.1455 90.7133 66.4485 90.2953 66.7089C89.8773 66.9694 89.4532 67.1603 89.0231 67.2814C88.8171 67.336 88.4779 67.3632 88.0053 67.3632C87.5752 67.3632 87.1512 67.2754 86.7331 67.0997C86.1152 66.8331 85.6276 66.406 85.2701 65.8184C84.9188 65.2247 84.7431 64.5068 84.7431 63.6648C84.7431 63.3982 84.7915 63.0559 84.8885 62.6379C84.9915 62.2199 85.1732 61.7747 85.4337 61.3021C85.6094 60.9811 85.8244 60.7175 86.0789 60.5116C86.4424 60.2208 86.7604 60.0178 87.033 59.9027C87.4268 59.7392 87.8842 59.6574 88.4052 59.6574C88.9686 59.6574 89.429 59.7604 89.7864 59.9663C90.271 60.239 90.6315 60.5903 90.8678 61.0204C91.1101 61.4506 91.2312 61.8443 91.2312 62.2018V62.329ZM86.1607 62.0018H86.5878C86.8967 62.0018 87.8175 61.9534 89.3502 61.8565C89.5925 61.8443 89.741 61.8201 89.7955 61.7838C89.9045 61.6687 89.9591 61.5657 89.9591 61.4748C89.9591 61.287 89.8985 61.075 89.7773 60.8387C89.6562 60.5964 89.4684 60.4116 89.2139 60.2844C88.9655 60.1511 88.6748 60.0845 88.3416 60.0845C87.6388 60.0845 87.0754 60.348 86.6514 60.875C86.3242 61.2749 86.1607 61.6505 86.1607 62.0018ZM92.5394 67.1542L92.5031 67.0361C92.5031 66.9937 92.5303 66.9301 92.5848 66.8453L93.121 66.7362L93.8752 66.5999C93.9358 66.5696 93.9782 66.5272 94.0024 66.4727C94.0388 66.3939 94.057 66.1607 94.057 65.773C94.057 63.7132 94.0448 62.5259 94.0206 62.2108C93.9964 61.8898 93.9418 61.6868 93.857 61.602C93.7722 61.5172 93.5541 61.4506 93.2028 61.4021C92.9968 61.3718 92.8332 61.3324 92.7121 61.284L92.7484 61.0114C93.3845 60.7509 93.8116 60.5267 94.0297 60.3389C94.3326 60.0663 94.5901 59.7089 94.8021 59.2666L95.1111 59.2757C95.1474 59.5786 95.1656 60.2511 95.1656 61.2931L95.1565 61.4475C95.1565 61.4839 95.1625 61.5414 95.1747 61.6202C95.4049 61.2022 95.6926 60.8175 96.0379 60.4661L96.2469 60.2571C96.3317 60.1602 96.4135 60.0845 96.4923 60.03C96.9163 59.7755 97.2314 59.6483 97.4373 59.6483C97.7039 59.6483 97.922 59.7392 98.0916 59.9209C98.2612 60.0966 98.346 60.3147 98.346 60.5752C98.346 60.7811 98.2855 60.9417 98.1643 61.0568C98.0007 61.2082 97.8129 61.284 97.6009 61.284C97.504 61.284 97.3132 61.2325 97.0284 61.1295C96.7437 61.0265 96.5559 60.975 96.465 60.975C96.2954 60.975 96.1773 61.0023 96.1106 61.0568C95.941 61.1901 95.735 61.4627 95.4927 61.8746C95.3049 62.1836 95.211 62.4683 95.211 62.7288L95.2564 64.2282L95.2746 66.0274C95.2928 66.2334 95.317 66.3667 95.3473 66.4272C95.3715 66.4697 95.4321 66.5211 95.5291 66.5817C96.1833 66.6363 96.571 66.6756 96.6922 66.6999C96.777 66.7059 96.8406 66.712 96.883 66.718C97.1435 66.7241 97.3253 66.7604 97.4283 66.8271C97.4828 66.8574 97.51 66.9028 97.51 66.9634C97.51 66.9997 97.4858 67.0482 97.4373 67.1088L96.4287 67.0997L96.047 67.0906L95.4927 67.0997H94.5658L94.066 67.127L92.5394 67.1542Z" fill="black"/>
</svg>
