<svg width="110" height="85" viewBox="0 0 110 85" fill="none" xmlns="http://www.w3.org/2000/svg">
<path d="M2.04939 22.2213L107.162 21.7275C108.054 21.7233 108.78 22.4428 108.784 23.3341L109.037 77.1304C109.054 80.7094 106.166 83.6243 102.587 83.6412L7.20633 84.0894C3.62745 84.106 0.712334 81.2184 0.695486 77.6394L0.442734 23.8431C0.43869 22.9519 1.1581 22.2257 2.04939 22.2213Z" fill="#39C4BD" stroke="black" stroke-width="0.664654"/>
<path d="M7.8351 0.827993L101.251 0.787968C103.755 0.786895 105.786 2.81619 105.787 5.3202L105.794 21.3446L3.30973 21.3885L3.30287 5.36411C3.30189 2.86016 5.33115 0.829158 7.8351 0.827993Z" fill="#39C4BD" stroke="black" stroke-width="0.664654"/>
<path d="M6.19373 48.4666L6.18464 48.0304C7.12364 48.0304 7.81123 48.0062 8.2474 47.9577C8.41703 47.9395 8.53516 47.9305 8.6018 47.9305C8.65632 47.9305 8.73811 47.9335 8.84715 47.9395C9.10159 48.1516 9.33785 48.3939 9.55594 48.6665C9.60441 48.721 9.65893 48.7816 9.71951 48.8482L11.6369 50.9655L11.9095 51.2927C12.2972 51.747 12.6486 52.1347 12.9636 52.4558C13.2847 52.7769 13.9056 53.4463 14.8264 54.4641L16.9983 56.8721C17.2103 57.1084 17.4829 57.4022 17.8161 57.7536L17.8252 57.6082C17.7888 56.7661 17.7707 56.3208 17.7707 56.2724L17.807 55.7272L17.7888 54.873V54.4822C17.7888 54.2339 17.7676 53.4675 17.7252 52.1832C17.7192 52.0075 17.6949 51.6774 17.6525 51.1927C17.6101 50.702 17.5889 50.2719 17.5889 49.9023C17.5889 49.236 17.5495 48.8482 17.4708 48.7392C17.4163 48.6604 17.1588 48.5787 16.6984 48.4939C16.5893 48.4878 16.4197 48.4696 16.1895 48.4393C15.9169 48.4272 15.7564 48.4121 15.7079 48.3939C15.6594 48.3757 15.611 48.3242 15.5625 48.2394C15.5746 48.1425 15.6019 48.0516 15.6443 47.9668C15.8078 47.9183 15.9684 47.8941 16.1259 47.8941C16.2955 47.8941 16.5045 47.9153 16.7529 47.9577C17.0073 48.0001 17.2345 48.0213 17.4344 48.0213C17.7131 48.0213 18.1463 48.0032 18.7339 47.9668C19.0671 47.9426 19.2973 47.9305 19.4245 47.9305H19.579L19.5608 48.2122C19.4639 48.2546 19.3306 48.2818 19.161 48.2939C18.9914 48.3 18.8338 48.3242 18.6884 48.3666C18.4704 48.4333 18.3401 48.4908 18.2977 48.5393C18.1523 48.6968 18.0796 48.8573 18.0796 49.0209L18.1796 51.8924L18.2523 53.21L18.2432 53.5917L18.2977 55.4182C18.3341 56.6662 18.3522 57.7505 18.3522 58.6714C18.3522 58.8713 18.3401 59.3044 18.3159 59.9708L17.8888 60.0072C17.6768 59.7648 16.9468 59.0015 15.6988 57.7172C15.408 57.4204 15.2111 57.2114 15.1081 57.0902L14.3267 56.1906C14.0238 55.8574 13.8269 55.6454 13.736 55.5545C13.6451 55.4636 13.5785 55.397 13.5361 55.3546C12.8758 54.6034 12.0185 53.6644 10.9644 52.5376C10.6797 52.2347 10.2617 51.7622 9.71042 51.12C9.36511 50.7141 9.14702 50.4657 9.05615 50.3749C8.96528 50.284 8.84109 50.181 8.68358 50.0659L8.65632 50.3749C8.65632 51.5562 8.68661 53.1858 8.74719 55.2637L8.8108 58.2715C8.81686 58.526 8.83201 58.7713 8.85624 59.0076L9.17429 59.0803C9.7498 59.1348 10.3162 59.2166 10.8736 59.3256C10.916 59.362 10.9523 59.3892 10.9826 59.4074L10.9735 59.7527C10.8766 59.783 10.7978 59.7982 10.7373 59.7982C10.6706 59.7982 10.5888 59.7921 10.4919 59.78C9.89216 59.7315 9.16217 59.7073 8.30193 59.7073C7.69612 59.7073 7.16301 59.7224 6.7026 59.7527L6.57538 59.7618C6.52086 59.7618 6.44211 59.7558 6.33912 59.7436L6.33003 59.471L6.5663 59.362L6.99339 59.2984C7.37505 59.2439 7.65372 59.1833 7.8294 59.1166C7.9445 59.0742 8.0384 59.0106 8.1111 58.9258C8.17774 58.5078 8.21106 57.8959 8.21106 57.0902C8.21106 56.7146 8.20197 56.027 8.18379 55.0275V53.7916L8.16562 51.2109C8.1535 50.0599 8.11413 49.3814 8.04749 49.1754C8.01114 49.0663 7.93541 48.9694 7.82031 48.8846C7.59011 48.721 7.2872 48.618 6.91161 48.5756C6.54206 48.5332 6.30277 48.4969 6.19373 48.4666ZM21.9685 48.4121C21.9685 48.2122 22.0442 48.0395 22.1957 47.8941C22.3532 47.7487 22.541 47.676 22.7591 47.676C22.9832 47.676 23.1801 47.7578 23.3498 47.9214C23.5194 48.0849 23.6042 48.2606 23.6042 48.4484C23.6042 48.6362 23.5194 48.8149 23.3498 48.9846C23.1801 49.1481 22.9832 49.2299 22.7591 49.2299C22.5349 49.2299 22.3471 49.1542 22.1957 49.0027C22.0442 48.8513 21.9685 48.6544 21.9685 48.4121ZM21.2052 53.1192L21.2143 52.8556C21.6081 52.7405 21.8201 52.6739 21.8504 52.6557C22.0685 52.5588 22.2957 52.4104 22.5319 52.2105C22.7742 52.0105 22.9772 51.7864 23.1407 51.538C23.2134 51.5259 23.271 51.5198 23.3134 51.5198L23.4224 51.5289C23.4467 51.8197 23.4588 52.0318 23.4588 52.165C23.4588 52.1953 23.4527 52.3316 23.4406 52.5739V53.0556L23.4497 55.6726L23.4224 58.4442C23.4164 58.6683 23.4527 58.8259 23.5315 58.9167C23.6102 59.0015 23.8435 59.0985 24.2312 59.2075C24.4735 59.2741 24.6553 59.3317 24.7764 59.3802C24.7946 59.4226 24.8037 59.4589 24.8037 59.4892C24.8037 59.5256 24.7885 59.571 24.7582 59.6255C24.522 59.6195 24.2191 59.6043 23.8495 59.5801C23.3467 59.5377 23.0135 59.5165 22.85 59.5165C22.7712 59.5165 22.2866 59.5316 21.396 59.5619C21.2143 59.568 21.0386 59.5831 20.869 59.6073C20.8387 59.6073 20.7902 59.5983 20.7236 59.5801C20.6933 59.5377 20.6782 59.5013 20.6782 59.471C20.6782 59.3862 20.7357 59.3196 20.8508 59.2711C20.875 59.259 21.184 59.1893 21.7777 59.0621C21.9715 59.0258 22.0988 58.9652 22.1593 58.8804C22.2623 58.7532 22.3138 58.5502 22.3138 58.2715C22.3259 57.8051 22.332 56.5268 22.332 54.4368C22.332 54.0188 22.3138 53.7583 22.2775 53.6553C22.2472 53.5826 22.1654 53.5008 22.0321 53.41C21.9049 53.313 21.6293 53.2161 21.2052 53.1192ZM27.7748 60.1798C27.7021 60.1435 27.4689 60.0435 27.0751 59.88C26.6147 59.5831 26.3239 59.362 26.2027 59.2166C26.0816 59.0712 26.021 58.9107 26.021 58.735C26.021 58.5775 26.0664 58.4503 26.1573 58.3533C26.2906 58.214 26.5541 58.0807 26.9479 57.9535C27.3416 57.8263 27.6657 57.7021 27.9202 57.5809C27.8414 57.5264 27.7172 57.4476 27.5476 57.3447C26.645 56.7873 26.1936 56.0149 26.1936 55.0275C26.1936 54.2157 26.4784 53.5311 27.0478 52.9738C27.6233 52.4104 28.3594 52.1287 29.256 52.1287C29.6619 52.1287 30.0344 52.1862 30.3737 52.3013C30.5675 52.3619 30.8553 52.5134 31.237 52.7557C31.4793 52.9071 31.6216 52.992 31.6641 53.0101C31.761 53.0404 31.87 53.0556 31.9912 53.0556C32.0942 53.0556 32.3426 53.0313 32.7363 52.9829C33.1362 52.9283 33.3724 52.9011 33.4451 52.9011C33.5845 52.9011 33.6996 52.9283 33.7904 52.9829C33.8631 53.104 33.8995 53.307 33.8995 53.5917C33.8995 53.6886 33.8722 53.7613 33.8177 53.8098C33.7692 53.8583 33.6965 53.8825 33.5996 53.8825C33.43 53.8825 33.1483 53.831 32.7545 53.728C32.3668 53.619 32.1305 53.5644 32.0457 53.5644C32.0154 53.5644 31.9579 53.5705 31.8731 53.5826C32.1336 54.1036 32.2638 54.5792 32.2638 55.0093C32.2638 55.4394 32.1275 55.8847 31.8549 56.3451C31.5823 56.8055 31.2067 57.1569 30.7281 57.3992C30.2495 57.6415 29.7649 57.7627 29.2742 57.7627C29.2378 57.7627 29.1348 57.7596 28.9652 57.7536C28.4079 57.7536 27.896 57.8929 27.4295 58.1716C27.2053 58.3109 27.0933 58.4412 27.0933 58.5623C27.0933 58.6895 27.2023 58.8137 27.4204 58.9349C27.9959 59.2439 29.0864 59.4226 30.6917 59.471C31.3884 59.4953 31.9306 59.5952 32.3183 59.7709C32.706 59.9466 32.9968 60.2041 33.1907 60.5433C33.3906 60.8886 33.4906 61.243 33.4906 61.6065C33.4906 62.0972 33.324 62.5515 32.9908 62.9696C32.6576 63.3876 32.1517 63.7268 31.4732 63.9873C30.7947 64.2478 30.0163 64.3781 29.1379 64.3781C28.1686 64.3781 27.4204 64.2599 26.8933 64.0237C26.3663 63.7874 25.9907 63.5299 25.7665 63.2513C25.5485 62.9726 25.4394 62.6969 25.4394 62.4243C25.4394 62.1881 25.5606 61.8912 25.8029 61.5338C26.0452 61.1824 26.548 60.8129 27.3113 60.4252C27.5355 60.3101 27.69 60.2283 27.7748 60.1798ZM27.4113 54.9911C27.4113 55.5363 27.4931 55.9937 27.6567 56.3633C27.8202 56.7267 28.0444 56.9994 28.3291 57.1811C28.6138 57.3568 28.9016 57.4446 29.1924 57.4446C29.7194 57.4446 30.1556 57.2447 30.5009 56.8449C30.8523 56.439 31.028 55.8241 31.028 55.0002C31.028 54.1702 30.8462 53.5402 30.4827 53.1101C30.1193 52.6739 29.68 52.4558 29.1651 52.4558C28.5896 52.4558 28.1534 52.6618 27.8566 53.0737C27.5597 53.4857 27.4113 54.1248 27.4113 54.9911ZM27.1114 63.4057C27.6627 63.8298 28.3594 64.0418 29.2015 64.0418C29.8012 64.0418 30.3979 63.9449 30.9916 63.751C31.5914 63.5632 32.0275 63.2906 32.3002 62.9332C32.5788 62.5818 32.7182 62.2486 32.7182 61.9336C32.7182 61.7398 32.6697 61.5459 32.5728 61.3521C32.4758 61.1643 32.3426 61.0067 32.1729 60.8795C32.0094 60.7584 31.7913 60.6614 31.5187 60.5887C31.3248 60.5342 31.0492 60.4948 30.6917 60.4706C29.674 60.3919 29.05 60.3525 28.8198 60.3525C28.1716 60.3525 27.593 60.5706 27.0842 61.0067C26.6904 61.346 26.4935 61.7519 26.4935 62.2244C26.4935 62.6606 26.6995 63.0544 27.1114 63.4057ZM34.3807 59.362C35.0895 59.2348 35.4984 59.1378 35.6075 59.0712C35.6741 59.0288 35.7074 58.9319 35.7074 58.7804L35.6984 58.1807L35.7074 57.1175L35.6893 54.4095L35.6984 53.4009V52.683L35.7256 51.8015C35.7256 50.4203 35.7105 49.5964 35.6802 49.3299C35.6559 49.0573 35.6045 48.8876 35.5257 48.821C35.3803 48.6817 34.9805 48.5363 34.3262 48.3848V48.3394C34.3262 48.297 34.3323 48.2364 34.3444 48.1576C34.4292 48.1455 34.511 48.1304 34.5897 48.1122C34.6685 48.094 34.7442 48.0819 34.8169 48.0758C35.5378 47.8699 36.0618 47.67 36.389 47.4761H36.8342C36.8464 47.6457 36.8524 48.1819 36.8524 49.0845L36.8433 50.2386L36.8524 51.7288L36.8161 53.5644C36.8161 53.6735 36.8221 53.7946 36.8342 53.9279C37.2159 53.4857 37.4946 53.1919 37.6702 53.0465C37.9853 52.792 38.3215 52.5921 38.6789 52.4467C39.0363 52.2953 39.4119 52.2196 39.8057 52.2196C40.5508 52.2196 41.1597 52.5346 41.6322 53.1646C41.9048 53.5341 42.0411 54.0582 42.0411 54.7367L42.0139 55.6636L42.023 56.1815L41.9866 57.0811C41.9624 57.8263 41.9503 58.2685 41.9503 58.4078C41.9503 58.5654 41.9563 58.7774 41.9684 59.0439L42.4864 59.1621C42.8317 59.2348 43.0983 59.3014 43.2861 59.362L43.277 59.6437L41.3414 59.5892C41.2324 59.5892 40.9355 59.6013 40.4509 59.6255C40.154 59.6376 39.9814 59.6437 39.9329 59.6437H39.733C39.7027 59.5892 39.6876 59.5437 39.6876 59.5074V59.4256C39.7724 59.3166 39.9299 59.2439 40.1601 59.2075L40.7053 59.0803C40.778 59.0197 40.8204 58.9561 40.8325 58.8895C40.8568 58.732 40.884 57.9505 40.9143 56.545L40.9325 55.8726C40.9567 55.1638 40.9022 54.5761 40.7689 54.1097C40.6841 53.7886 40.4903 53.5341 40.1874 53.3463C39.8905 53.1525 39.5452 53.0556 39.1514 53.0556C38.8243 53.0556 38.5153 53.1252 38.2246 53.2646C38.0246 53.3676 37.7854 53.5463 37.5067 53.8007C37.228 54.0551 37.0342 54.2732 36.9251 54.455C36.8524 54.5761 36.8161 54.776 36.8161 55.0547L36.8251 55.6908L36.807 56.3542C36.807 56.4087 36.8161 56.7873 36.8342 57.4901L36.8251 58.0716L36.8433 58.7077C36.8494 58.7986 36.8585 58.8652 36.8706 58.9076L38.1519 59.2166C38.2185 59.2348 38.3185 59.2711 38.4517 59.3256L38.479 59.4256C38.479 59.4559 38.4639 59.5044 38.4336 59.571C38.2579 59.577 38.1246 59.5801 38.0337 59.5801L37.3249 59.571L35.762 59.5892L34.5897 59.6255C34.5292 59.6195 34.4383 59.6134 34.3171 59.6073L34.308 59.5437C34.308 59.4953 34.3323 59.4347 34.3807 59.362ZM46.5116 50.6021L46.7933 50.6111L46.8297 51.4744L46.8115 52.5921C46.9266 52.5982 46.9993 52.6012 47.0296 52.6012C47.1871 52.6012 47.4869 52.5891 47.9292 52.5649C48.2139 52.5467 48.4865 52.5376 48.747 52.5376C48.8682 52.5376 49.0499 52.5406 49.2922 52.5467C49.3044 52.6678 49.3104 52.7648 49.3104 52.8375C49.3104 52.9162 49.2922 53.0404 49.2559 53.21H49.1014L47.6929 53.2555L46.9932 53.2737L46.8297 53.2918C46.7812 53.4433 46.757 53.619 46.757 53.8189L46.7842 55.1819L46.766 57.5809C46.766 58.211 46.8478 58.629 47.0114 58.8349C47.1689 59.047 47.4052 59.153 47.7202 59.153C47.8777 59.153 48.1745 59.1045 48.6107 59.0076C48.744 58.9773 48.9227 58.8773 49.1469 58.7077H49.2286C49.2832 58.7077 49.3256 58.7259 49.3559 58.7622C49.3922 58.7925 49.4104 58.8349 49.4104 58.8895L49.4013 58.9531C49.1408 59.2378 48.8409 59.4468 48.5017 59.5801C48.1685 59.7073 47.7232 59.7709 47.1659 59.7709C46.7721 59.7709 46.445 59.68 46.1845 59.4983C45.93 59.3166 45.7665 59.1015 45.6938 58.8531C45.6211 58.6047 45.5847 58.0625 45.5847 57.2265L45.6211 55.1819L45.612 54.2005V53.837C45.612 53.6674 45.6059 53.4978 45.5938 53.3282L45.4393 53.3191L44.6942 53.3463L44.6215 53.3554C44.5549 53.3554 44.5034 53.3403 44.467 53.31C44.4367 53.2797 44.4216 53.2434 44.4216 53.201C44.4216 53.1283 44.4428 53.0707 44.4852 53.0283C44.5337 52.9798 44.673 52.9071 44.9032 52.8102C45.0607 52.7436 45.2424 52.6194 45.4484 52.4376C45.6604 52.2498 45.8392 52.0439 45.9846 51.8197C46.0572 51.6986 46.1602 51.4684 46.2935 51.1291C46.3904 50.8807 46.4631 50.705 46.5116 50.6021ZM65.5119 48.4575C65.5846 48.924 65.621 49.4026 65.621 49.8933C65.621 49.9902 65.618 50.1204 65.6119 50.284C65.5271 50.3022 65.4635 50.3113 65.4211 50.3113C65.3847 50.3113 65.3332 50.3052 65.2666 50.2931C65.0121 49.5843 64.5972 49.0391 64.0217 48.6574C63.4461 48.2758 62.7343 48.0849 61.8862 48.0849C61.4379 48.0849 61.0593 48.1364 60.7503 48.2394C60.2051 48.4272 59.7265 48.6877 59.3146 49.0209C58.9026 49.348 58.5543 49.7418 58.2695 50.2022C57.9848 50.6566 57.7576 51.2109 57.588 51.8652C57.4244 52.5134 57.3427 53.1767 57.3427 53.8552C57.3427 55.1516 57.5395 56.2239 57.9333 57.072C58.3271 57.9141 58.8663 58.5169 59.5508 58.8804C60.2354 59.2378 60.926 59.4165 61.6227 59.4165L62.0498 59.4074C62.5344 59.3468 62.8646 59.2893 63.0403 59.2348C63.4825 59.1076 63.846 58.9591 64.1307 58.7895C64.4215 58.6138 64.7032 58.3685 64.9758 58.0535C65.2545 57.7384 65.4907 57.3719 65.6846 56.9539L65.7936 56.9176C65.8239 56.9176 65.8694 56.9357 65.9299 56.9721C65.9239 57.1175 65.9178 57.2114 65.9118 57.2538C65.6573 58.2776 65.4726 58.9773 65.3575 59.3529C65.2605 59.3771 65.1394 59.4135 64.994 59.4619C64.2852 59.7043 63.3371 59.8254 62.1497 59.8254C61.1925 59.8254 60.4747 59.7588 59.9961 59.6255C59.5236 59.4983 59.0056 59.2984 58.4422 59.0258C57.8849 58.7471 57.3942 58.3806 56.9701 57.9262C56.546 57.4719 56.2037 56.8994 55.9433 56.2088C55.6828 55.5121 55.5525 54.7548 55.5525 53.937C55.5525 53.1616 55.6555 52.4861 55.8615 51.9106C56.0674 51.329 56.3855 50.7414 56.8156 50.1477C57.2457 49.554 57.7516 49.0603 58.3332 48.6665C58.9208 48.2727 59.572 47.9941 60.2869 47.8305C60.7897 47.7215 61.5015 47.6669 62.4223 47.6669C63.0948 47.6669 63.7278 47.7578 64.3215 47.9395C64.9152 48.1152 65.312 48.2879 65.5119 48.4575ZM67.3199 59.6073L67.2836 59.4892C67.2836 59.4468 67.3108 59.3832 67.3653 59.2984L67.9015 59.1893L68.6557 59.053C68.7163 59.0227 68.7587 58.9803 68.7829 58.9258C68.8193 58.8471 68.8374 58.6138 68.8374 58.2261C68.8374 56.1664 68.8253 54.979 68.8011 54.664C68.7769 54.3429 68.7223 54.14 68.6375 54.0551C68.5527 53.9703 68.3346 53.9037 67.9833 53.8552C67.7773 53.8249 67.6137 53.7856 67.4926 53.7371L67.5289 53.4645C68.165 53.204 68.5921 52.9798 68.8102 52.792C69.1131 52.5194 69.3705 52.162 69.5826 51.7198L69.8915 51.7288C69.9279 52.0318 69.9461 52.7042 69.9461 53.7462L69.937 53.9007C69.937 53.937 69.943 53.9946 69.9552 54.0733C70.1854 53.6553 70.4731 53.2706 70.8184 52.9193L71.0274 52.7103C71.1122 52.6133 71.194 52.5376 71.2728 52.4831C71.6968 52.2286 72.0119 52.1014 72.2178 52.1014C72.4844 52.1014 72.7025 52.1923 72.8721 52.374C73.0417 52.5497 73.1265 52.7678 73.1265 53.0283C73.1265 53.2343 73.066 53.3948 72.9448 53.5099C72.7812 53.6614 72.5934 53.7371 72.3814 53.7371C72.2845 53.7371 72.0936 53.6856 71.8089 53.5826C71.5242 53.4796 71.3364 53.4281 71.2455 53.4281C71.0759 53.4281 70.9578 53.4554 70.8911 53.5099C70.7215 53.6432 70.5155 53.9158 70.2732 54.3278C70.0854 54.6367 69.9915 54.9214 69.9915 55.1819L70.0369 56.6813L70.0551 58.4805C70.0733 58.6865 70.0975 58.8198 70.1278 58.8804C70.152 58.9228 70.2126 58.9743 70.3095 59.0349C70.9638 59.0894 71.3515 59.1288 71.4727 59.153C71.5575 59.159 71.6211 59.1651 71.6635 59.1712C71.924 59.1772 72.1058 59.2136 72.2087 59.2802C72.2633 59.3105 72.2905 59.3559 72.2905 59.4165C72.2905 59.4529 72.2663 59.5013 72.2178 59.5619L71.2092 59.5528L70.8275 59.5437L70.2732 59.5528H69.3463L68.8465 59.5801L67.3199 59.6073ZM80.7321 54.7821L77.0881 54.8094H76.3975C76.1189 54.8094 75.8341 54.8215 75.5433 54.8457C75.4888 55.0275 75.4616 55.1516 75.4616 55.2183L75.4706 55.3092V55.4L75.4616 55.8453C75.4616 56.2148 75.5767 56.6692 75.8069 57.2084C76.0431 57.7415 76.3763 58.1504 76.8064 58.4351C77.2426 58.7138 77.7848 58.8622 78.433 58.8804C78.7783 58.8622 79.054 58.8198 79.2599 58.7532C79.4659 58.6865 79.7567 58.532 80.1323 58.2897L80.7866 57.7536L80.8411 58.1171C80.8411 58.1595 80.8381 58.2049 80.832 58.2534C80.5594 58.5987 80.2141 58.9016 79.7961 59.1621C79.3781 59.4226 78.954 59.6134 78.5239 59.7346C78.3179 59.7891 77.9787 59.8163 77.5061 59.8163C77.076 59.8163 76.652 59.7285 76.234 59.5528C75.616 59.2863 75.1284 58.8592 74.7709 58.2715C74.4196 57.6779 74.2439 56.96 74.2439 56.1179C74.2439 55.8514 74.2924 55.5091 74.3893 55.0911C74.4923 54.6731 74.674 54.2278 74.9345 53.7553C75.1102 53.4342 75.3252 53.1707 75.5797 52.9647C75.9432 52.6739 76.2612 52.471 76.5338 52.3559C76.9276 52.1923 77.385 52.1105 77.906 52.1105C78.4694 52.1105 78.9298 52.2135 79.2872 52.4195C79.7719 52.6921 80.1323 53.0434 80.3686 53.4736C80.6109 53.9037 80.7321 54.2975 80.7321 54.6549V54.7821ZM75.6615 54.455H76.0886C76.3975 54.455 77.3183 54.4065 78.851 54.3096C79.0934 54.2975 79.2418 54.2732 79.2963 54.2369C79.4053 54.1218 79.4599 54.0188 79.4599 53.9279C79.4599 53.7401 79.3993 53.5281 79.2781 53.2918C79.157 53.0495 78.9692 52.8647 78.7147 52.7375C78.4663 52.6042 78.1756 52.5376 77.8424 52.5376C77.1396 52.5376 76.5762 52.8011 76.1522 53.3282C75.825 53.728 75.6615 54.1036 75.6615 54.455ZM89.0555 58.3442C89.0918 58.423 89.11 58.4805 89.11 58.5169C89.11 58.6078 89.0373 58.7683 88.8919 58.9985C88.7041 59.3014 88.4951 59.5225 88.2649 59.6619C88.1195 59.7527 87.9196 59.7982 87.6651 59.7982C87.229 59.7982 86.9018 59.6649 86.6837 59.3983C86.5504 59.2408 86.4565 58.9591 86.402 58.5532L85.3843 59.262C85.0269 59.468 84.7542 59.5983 84.5664 59.6528C84.2635 59.7315 83.9001 59.7709 83.476 59.7709C83.167 59.7709 82.9217 59.68 82.7399 59.4983C82.5643 59.3105 82.4764 59.0712 82.4764 58.7804C82.4764 58.3624 82.7309 57.8626 83.2397 57.281C83.7547 56.6995 84.4513 56.2239 85.3298 55.8544C85.9477 55.5939 86.3263 55.4273 86.4656 55.3546C86.4778 55.1547 86.4838 54.9366 86.4838 54.7003C86.4838 53.9309 86.3748 53.41 86.1567 53.1373C85.9446 52.8647 85.6387 52.7284 85.2389 52.7284C84.8209 52.7284 84.4301 52.892 84.0667 53.2191C83.8425 53.4251 83.6729 53.8128 83.5578 54.3823C83.5214 54.5398 83.4518 54.7094 83.3488 54.8912C83.0883 55.0608 82.8793 55.1456 82.7218 55.1456C82.5885 55.1456 82.4673 55.1062 82.3583 55.0275C82.2977 54.985 82.2674 54.9366 82.2674 54.8821C82.2674 54.7246 82.434 54.3702 82.7672 53.8189C83.1064 53.2615 83.5305 52.8466 84.0394 52.5739C84.5543 52.2953 85.0026 52.1559 85.3843 52.1559C85.9053 52.1559 86.293 52.2044 86.5474 52.3013C86.8019 52.3922 87.026 52.5558 87.2199 52.792C87.4137 53.0283 87.5319 53.2858 87.5743 53.5644C87.5985 53.6977 87.6106 54.1733 87.6106 54.9911L87.5833 56.436L87.5924 57.4901C87.5924 57.6294 87.5894 57.7475 87.5833 57.8444C87.5773 58.0201 87.5743 58.1504 87.5743 58.2352C87.5743 58.4351 87.6318 58.5956 87.7469 58.7168C87.862 58.838 87.9983 58.8985 88.1558 58.8985C88.386 58.8985 88.5829 58.7834 88.7465 58.5532L88.8555 58.4078C88.8858 58.3897 88.9525 58.3685 89.0555 58.3442ZM86.3839 58.0807C86.4263 57.3113 86.4475 56.7691 86.4475 56.4541C86.4475 56.2906 86.4384 56.0694 86.4202 55.7908C86.0143 55.9362 85.5842 56.1573 85.1298 56.4541C84.6755 56.751 84.315 57.0932 84.0485 57.481C83.8546 57.7596 83.7577 58.0232 83.7577 58.2715C83.7577 58.5078 83.8364 58.7047 83.994 58.8622C84.1575 59.0197 84.3605 59.0985 84.6028 59.0985C84.7906 59.0985 85.0178 59.0318 85.2843 58.8985C85.6357 58.7229 86.0022 58.4503 86.3839 58.0807ZM89.9638 59.262C90.0607 59.1954 90.194 59.15 90.3636 59.1257C90.6059 59.0954 90.7937 59.047 90.927 58.9803C91.0361 58.8895 91.1088 58.7592 91.1451 58.5896C91.1875 58.3715 91.2087 57.6052 91.2087 56.2906C91.2087 55.0002 91.1693 54.1672 91.0906 53.7916C90.9573 53.7068 90.7847 53.6402 90.5726 53.5917C90.506 53.5796 90.3667 53.5463 90.1546 53.4917V53.1919C90.512 53.0889 90.7998 52.9556 91.0179 52.792C91.242 52.6285 91.551 52.3013 91.9448 51.8106H91.9993C92.0356 51.8106 92.0932 51.8076 92.172 51.8015C92.2204 51.8076 92.2598 51.8227 92.2901 51.847L92.281 52.8829C92.281 53.0949 92.2871 53.3221 92.2992 53.5644C92.9474 52.9768 93.529 52.5649 94.0439 52.3286C94.3953 52.1711 94.7921 52.0923 95.2343 52.0923C95.7613 52.0923 96.1793 52.1923 96.4883 52.3922C96.7973 52.5921 97.0911 52.9526 97.3698 53.4736C97.9089 52.9405 98.3966 52.5679 98.8328 52.3559C99.275 52.1438 99.7203 52.0378 100.169 52.0378C100.847 52.0378 101.404 52.2589 101.841 52.7012C102.271 53.1495 102.492 53.8068 102.504 54.6731V55.4273L102.513 56.2542L102.504 58.3806C102.498 58.629 102.552 58.8168 102.668 58.944C102.716 58.9622 102.901 59.0167 103.222 59.1076C103.422 59.1621 103.54 59.2045 103.576 59.2348C103.613 59.2651 103.631 59.3075 103.631 59.362C103.631 59.4286 103.613 59.5074 103.576 59.5983H103.513L102.595 59.5437C102.486 59.5377 102.313 59.5346 102.077 59.5346C101.786 59.5346 101.38 59.5468 100.859 59.571H100.396C100.329 59.571 100.199 59.574 100.005 59.5801C99.9989 59.5256 99.9959 59.4771 99.9959 59.4347C99.9959 59.3862 100.017 59.3256 100.06 59.2529C100.223 59.1802 100.447 59.1227 100.732 59.0803C101.017 59.0318 101.192 58.95 101.259 58.8349C101.332 58.7138 101.368 58.2412 101.368 57.4174C101.368 55.6302 101.347 54.5943 101.304 54.3096C101.232 53.8552 101.038 53.5008 100.723 53.2464C100.414 52.9859 100.023 52.8556 99.5507 52.8556C99.1872 52.8556 98.8328 52.9526 98.4875 53.1464C98.1422 53.3342 97.8029 53.619 97.4697 54.0006L97.4606 54.2187V55.609L97.4243 56.6904C97.4243 57.793 97.4334 58.42 97.4515 58.5714C97.4758 58.7229 97.5273 58.8349 97.606 58.9076C97.6908 58.9743 97.9301 59.0349 98.3239 59.0894C98.4996 59.1136 98.6359 59.1378 98.7328 59.1621C98.8055 59.2227 98.8419 59.3014 98.8419 59.3983C98.8419 59.4771 98.8146 59.5316 98.7601 59.5619H98.6056L98.1512 59.5528H95.5069L94.7799 59.5619C94.7678 59.471 94.7618 59.4044 94.7618 59.362L94.7709 59.2529C94.9041 59.1802 95.1525 59.1106 95.516 59.0439C95.7038 59.0137 95.8977 58.9622 96.0976 58.8895C96.1339 58.8592 96.1612 58.8198 96.1793 58.7713C96.2096 58.6865 96.2308 58.4442 96.243 58.0444L96.2884 56.9903L96.2702 55.7999L96.2793 55.1365C96.2793 54.3914 96.1279 53.8492 95.825 53.5099C95.5221 53.1646 95.1404 52.992 94.68 52.992C94.2499 52.992 93.8167 53.098 93.3805 53.31C92.9504 53.522 92.593 53.8068 92.3083 54.1642C92.3022 54.3338 92.2992 54.4883 92.2992 54.6276L92.3355 57.6809C92.3416 58.3473 92.3779 58.7289 92.4446 58.8259C92.5173 58.9167 92.6748 58.9803 92.9171 59.0167C93.3048 59.0712 93.5562 59.1378 93.6713 59.2166C93.7258 59.2529 93.7531 59.3075 93.7531 59.3802C93.7531 59.4286 93.7501 59.4862 93.744 59.5528C93.0534 59.5044 92.59 59.4801 92.3537 59.4801C92.1114 59.4801 91.8933 59.4831 91.6994 59.4892L91.2451 59.5165H90.9634L89.9456 59.5528C89.9335 59.5104 89.9274 59.4741 89.9274 59.4438C89.9274 59.4135 89.9396 59.3529 89.9638 59.262Z" fill="black"/>
</svg>
