<svg width="84" height="85" viewBox="0 0 84 85" fill="none" xmlns="http://www.w3.org/2000/svg">
<path d="M35.4501 6.40025C41.5642 -3.41226 56.5779 -0.378479 58.4022 11.0381L59.1222 15.5414C59.977 20.8906 63.9465 25.2108 69.2043 26.5145L73.6302 27.6121C84.8518 30.3947 86.6062 45.6116 76.3122 50.8746L72.2513 52.9503C67.4282 55.4162 64.5462 60.5262 64.9311 65.9294L65.2553 70.4783C66.0766 82.0106 52.1466 88.381 43.9602 80.2171L40.7312 76.9972C36.8956 73.172 31.1441 72.0098 26.1241 74.0456L21.8982 75.7591C11.1842 80.1038 0.820668 68.8245 6.0553 58.5159L8.12031 54.4498C10.5729 49.62 9.9012 43.7919 6.41398 39.6467L3.47763 36.1572C-3.96523 27.3101 3.56002 13.9683 14.9816 15.7611L19.4865 16.4681C24.8379 17.3082 30.1734 14.8682 33.0381 10.2707L35.4501 6.40025Z" fill="#EB818B" stroke="black"/>
</svg>
