<svg width="65" height="111" viewBox="0 0 65 111" fill="none" xmlns="http://www.w3.org/2000/svg">
<path d="M50.0318 108.015L49.1303 106.773L42.6909 107.536C42.6909 107.536 33.7919 83.8239 27.3808 68.9131C17.79 46.6068 0.382304 12.8674 0.382304 12.8674L32.948 0.360611C32.948 0.360611 41.3699 33.5465 48.0336 54.4449C53.7331 72.319 64.0599 99.7496 64.0599 99.7496L58.3698 103.736L58.6996 105.066L59.8723 105.806L60.7738 107.049L49.3976 110.646L49.2181 109.522L50.0318 108.015Z" fill="#FECEF6"/>
<path d="M50.0318 108.015L49.1303 106.773L42.6909 107.536C42.6909 107.536 33.7919 83.8239 27.3808 68.9131C17.79 46.6068 0.382304 12.8674 0.382304 12.8674L32.948 0.360612C32.948 0.360612 41.3699 33.5465 48.0336 54.4449C53.7331 72.319 64.0599 99.7496 64.0599 99.7496L58.3698 103.736L58.6996 105.066M50.0318 108.015L58.6996 105.066M50.0318 108.015L49.2181 109.522L49.3976 110.646L60.7738 107.049L59.8723 105.806L58.6996 105.066" stroke="black" stroke-width="0.540811" stroke-linecap="round"/>
</svg>
