<svg width="44" height="135" viewBox="0 0 44 135" fill="none" xmlns="http://www.w3.org/2000/svg">
<path d="M0.265625 67.4558V129.448C0.265625 129.448 0.537096 132.05 1.5294 133.125C2.38826 134.055 4.05102 134.266 4.05102 134.266H39.6338C39.6338 134.266 41.2921 133.854 42.0312 133.125C43.0986 132.071 43.1668 129.448 43.1668 129.448V66.9487C43.1668 66.9487 41.6554 61.0042 39.3814 57.9477C37.3526 55.2208 32.8201 52.2429 32.8201 52.2429V40.1994H36.6055V28.1559H31.3059L28.5299 2.16723C28.5299 2.16723 24.4779 0.265625 21.7162 0.265625C18.9545 0.265625 14.9025 2.16723 14.9025 2.16723L12.8836 28.1559H6.7008V40.7065H10.36V52.8768C10.36 52.8768 5.24603 56.53 3.16776 59.8494C1.48179 62.5421 0.265625 67.4558 0.265625 67.4558Z" fill="#B4FFC9" stroke="black" stroke-width="0.529644"/>
<path d="M9.71736 82.6065C9.75046 82.8796 9.76702 83.0368 9.76702 83.0782L9.74219 83.6306C9.73391 83.8664 9.72357 84.0175 9.71115 84.0837C9.67391 84.1002 9.64288 84.1085 9.61805 84.1085L9.56219 84.0961C9.42978 83.5168 9.20427 83.0947 8.88565 82.8299C8.57118 82.5651 8.18636 82.4327 7.7312 82.4327C7.25948 82.4327 6.87259 82.5651 6.57053 82.8299C6.26847 83.0947 6.11744 83.403 6.11744 83.7547C6.11744 84.0237 6.22295 84.2699 6.43398 84.4933C6.64501 84.7168 7.185 85.0519 8.05395 85.4988C8.716 85.8423 9.18979 86.1236 9.4753 86.3429C9.76081 86.5581 9.97598 86.8085 10.1208 87.094C10.2656 87.3795 10.338 87.6981 10.338 88.0498C10.338 88.4926 10.2222 88.9084 9.99046 89.2974C9.76288 89.6863 9.45461 89.9801 9.06565 90.1787C8.67669 90.3732 8.16153 90.4704 7.52017 90.4704C6.96156 90.4704 6.4257 90.3815 5.91261 90.2036C5.61055 90.096 5.42642 90.0091 5.36021 89.9429C5.294 89.8767 5.2609 89.8063 5.2609 89.7318C5.2609 89.6863 5.26504 89.6284 5.27331 89.5581C5.33124 89.0698 5.36228 88.6684 5.36642 88.3539C5.37469 88.1595 5.38917 88.0457 5.40986 88.0126C5.42642 87.9836 5.45745 87.9691 5.50297 87.9691C5.54021 87.9691 5.56917 87.9836 5.58986 88.0126C5.61469 88.0374 5.63124 88.087 5.63951 88.1615C5.68503 88.6705 5.92089 89.1256 6.34709 89.527C6.76915 89.9284 7.24707 90.1291 7.78085 90.1291C8.10774 90.1291 8.40773 90.0608 8.68083 89.9243C8.95807 89.7877 9.17323 89.5912 9.32634 89.3346C9.48357 89.0739 9.56219 88.8215 9.56219 88.5774C9.56219 88.2422 9.44426 87.936 9.20841 87.6588C8.97255 87.3815 8.49877 87.0588 7.78706 86.6905C7.07535 86.3181 6.61191 86.0471 6.39674 85.8774C6.04916 85.6002 5.78848 85.3064 5.61469 84.9961C5.48641 84.7561 5.42228 84.4768 5.42228 84.1582C5.42228 83.583 5.64986 83.0968 6.10502 82.6996C6.56018 82.2982 7.17052 82.0975 7.93602 82.0975C8.35808 82.0975 8.72221 82.1451 9.02841 82.2403C9.25185 82.3148 9.4815 82.4368 9.71736 82.6065ZM16.048 86.9885L13.5591 87.0071H13.0874C12.897 87.0071 12.7026 87.0153 12.504 87.0319C12.4667 87.156 12.4481 87.2409 12.4481 87.2864L12.4543 87.3484V87.4105L12.4481 87.7146C12.4481 87.9671 12.5267 88.2774 12.6839 88.6457C12.8453 89.0098 13.0729 89.2891 13.3667 89.4836C13.6646 89.6739 14.035 89.7753 14.4777 89.7877C14.7136 89.7753 14.9018 89.7463 15.0425 89.7008C15.1832 89.6553 15.3818 89.5498 15.6384 89.3843L16.0853 89.0181L16.1225 89.2663C16.1225 89.2953 16.1204 89.3263 16.1163 89.3594C15.9301 89.5953 15.6942 89.8022 15.4087 89.9801C15.1232 90.158 14.8336 90.2884 14.5398 90.3711C14.3991 90.4084 14.1674 90.427 13.8446 90.427C13.5508 90.427 13.2612 90.367 12.9757 90.247C12.5536 90.0649 12.2205 89.7732 11.9764 89.3719C11.7364 88.9663 11.6164 88.476 11.6164 87.9008C11.6164 87.7188 11.6495 87.485 11.7157 87.1995C11.786 86.914 11.9102 86.6098 12.0881 86.2871C12.2081 86.0678 12.355 85.8878 12.5288 85.7471C12.7771 85.5485 12.9943 85.4099 13.1805 85.3312C13.4495 85.2195 13.7619 85.1637 14.1177 85.1637C14.5025 85.1637 14.817 85.234 15.0611 85.3747C15.3922 85.5609 15.6384 85.8009 15.7997 86.0947C15.9653 86.3885 16.048 86.6574 16.048 86.9016V86.9885ZM12.5846 86.765H12.8764C13.0874 86.765 13.7163 86.7319 14.7632 86.6657C14.9287 86.6574 15.0301 86.6409 15.0673 86.616C15.1418 86.5374 15.1791 86.4671 15.1791 86.405C15.1791 86.2767 15.1377 86.1319 15.0549 85.9705C14.9722 85.805 14.8439 85.6788 14.6701 85.5919C14.5005 85.5009 14.3018 85.4554 14.0743 85.4554C13.5943 85.4554 13.2095 85.6354 12.9198 85.9954C12.6964 86.2685 12.5846 86.525 12.5846 86.765ZM16.9415 90.2842L16.9167 90.2036C16.9167 90.1746 16.9353 90.1311 16.9726 90.0732L17.3388 89.9987L17.8539 89.9056C17.8953 89.8849 17.9243 89.856 17.9408 89.8187C17.9657 89.7649 17.9781 89.6056 17.9781 89.3408C17.9781 87.9339 17.9698 87.1229 17.9532 86.9078C17.9367 86.6885 17.8995 86.5498 17.8415 86.4919C17.7836 86.434 17.6346 86.3885 17.3946 86.3554C17.254 86.3347 17.1422 86.3078 17.0595 86.2747L17.0843 86.0885C17.5188 85.9105 17.8105 85.7574 17.9595 85.6292C18.1663 85.443 18.3422 85.1988 18.487 84.8968L18.6981 84.903C18.7229 85.1099 18.7353 85.5692 18.7353 86.2809L18.7291 86.3864C18.7291 86.4112 18.7332 86.4505 18.7415 86.5043C18.8987 86.2188 19.0953 85.9561 19.3312 85.7161L19.4739 85.5733C19.5318 85.5071 19.5877 85.4554 19.6415 85.4181C19.9311 85.2443 20.1463 85.1575 20.287 85.1575C20.4691 85.1575 20.618 85.2195 20.7339 85.3437C20.8497 85.4637 20.9077 85.6126 20.9077 85.7905C20.9077 85.9312 20.8663 86.0409 20.7835 86.1195C20.6718 86.2229 20.5435 86.2747 20.3987 86.2747C20.3325 86.2747 20.2022 86.2395 20.0077 86.1692C19.8132 86.0988 19.6849 86.0636 19.6229 86.0636C19.507 86.0636 19.4263 86.0823 19.3808 86.1195C19.2649 86.2105 19.1243 86.3967 18.9587 86.6781C18.8305 86.8891 18.7663 87.0836 18.7663 87.2615L18.7974 88.2857L18.8098 89.5146C18.8222 89.6553 18.8387 89.7463 18.8594 89.7877C18.876 89.8167 18.9174 89.8518 18.9836 89.8932C19.4305 89.9305 19.6953 89.9574 19.778 89.9739C19.836 89.978 19.8794 89.9822 19.9084 89.9863C20.0863 89.9905 20.2104 90.0153 20.2808 90.0608C20.318 90.0815 20.3366 90.1125 20.3366 90.1539C20.3366 90.1787 20.3201 90.2118 20.287 90.2532L19.598 90.247L19.3374 90.2408L18.9587 90.247H18.3257L17.9843 90.2656L16.9415 90.2842ZM21.8012 85.3933H22.2667L22.4715 85.4057L22.6329 85.3933C23.0591 85.3933 23.3239 85.3974 23.4274 85.4057L23.4336 85.5237C23.4336 86.1071 23.4253 86.6719 23.4087 87.2181C23.3963 87.5409 23.3901 87.725 23.3901 87.7705C23.3901 88.4988 23.4129 88.9539 23.4584 89.136C23.5081 89.3181 23.6198 89.465 23.7936 89.5767C23.9715 89.6843 24.1846 89.738 24.4329 89.738C24.7349 89.738 25.0225 89.676 25.2956 89.5518C25.5728 89.4236 25.8087 89.2684 26.0032 89.0863C26.0239 88.9291 26.0342 88.7553 26.0342 88.565C26.0342 87.9484 26.0404 87.5326 26.0528 87.3174C26.057 87.1891 26.059 87.0774 26.059 86.9822C26.059 86.3119 26.0259 85.9333 25.9597 85.8464C25.8935 85.7595 25.6411 85.6933 25.2025 85.6478C25.0577 85.6312 24.9522 85.6168 24.886 85.6043C24.8529 85.5505 24.8363 85.5092 24.8363 85.4802L24.8549 85.4119C24.9625 85.3995 25.068 85.3933 25.1715 85.3933L26.1583 85.4057C26.5101 85.3974 26.6963 85.3933 26.717 85.3933C26.7625 85.3933 26.8059 85.3954 26.8473 85.3995L26.8597 85.8526C26.8307 86.4816 26.8142 87.2595 26.8101 88.1864L26.7976 88.6891L26.8225 89.5332C26.8597 89.5994 26.8928 89.6387 26.9218 89.6512C26.9714 89.6718 27.0728 89.6822 27.2259 89.6822H27.2818C27.3356 89.6822 27.4887 89.6946 27.7411 89.7194C27.7452 89.7732 27.7473 89.8125 27.7473 89.8374V89.9056C27.1928 90.0256 26.7439 90.1456 26.4004 90.2656C26.2639 90.3111 26.148 90.3442 26.0528 90.3649C26.0321 90.2201 26.0218 90.1311 26.0218 90.098V89.5953C26.0218 89.5746 26.0197 89.5187 26.0156 89.4277C25.9618 89.465 25.8997 89.5105 25.8294 89.5643C25.5025 89.8167 25.157 90.0298 24.7929 90.2036C24.5487 90.3236 24.3129 90.3836 24.0853 90.3836C23.6508 90.3836 23.297 90.2222 23.0239 89.8994C22.7467 89.5767 22.6081 89.0263 22.6081 88.2484C22.6081 88.207 22.6101 88.1326 22.6143 88.025C22.6308 87.8264 22.6391 87.6877 22.6391 87.6091C22.6391 87.5802 22.637 87.4891 22.6329 87.336C22.6288 87.2698 22.6267 87.2119 22.6267 87.1622C22.6267 87.125 22.6288 87.0422 22.6329 86.914C22.637 86.7816 22.6391 86.6885 22.6391 86.6347C22.6391 86.5643 22.637 86.5023 22.6329 86.4485L22.6205 86.1195L22.6267 85.9457C22.6267 85.8795 22.5936 85.8195 22.5274 85.7657C22.2667 85.6954 22.095 85.6561 22.0122 85.6478C21.9336 85.6354 21.8633 85.6168 21.8012 85.5919V85.3933ZM28.3305 90.0484C28.3967 90.0029 28.4877 89.9718 28.6036 89.9553C28.7691 89.9346 28.8974 89.9015 28.9884 89.856C29.0629 89.7939 29.1125 89.7049 29.1373 89.5891C29.1663 89.4401 29.1808 88.9167 29.1808 88.0188C29.1808 87.1374 29.1539 86.5685 29.1001 86.3119C29.0091 86.254 28.8911 86.2085 28.7463 86.1754C28.7008 86.1671 28.6056 86.1443 28.4608 86.1071V85.9023C28.7049 85.8319 28.9015 85.7409 29.0505 85.6292C29.2036 85.5174 29.4146 85.294 29.6835 84.9588H29.7208C29.7456 84.9588 29.7849 84.9568 29.8387 84.9526C29.8718 84.9568 29.8987 84.9671 29.9194 84.9837L29.9132 85.6912C29.9132 85.8361 29.9173 85.9912 29.9256 86.1567C30.3684 85.7554 30.7656 85.474 31.1173 85.3126C31.3573 85.205 31.6283 85.1512 31.9304 85.1512C32.2904 85.1512 32.5759 85.2195 32.7869 85.3561C32.998 85.4926 33.1986 85.7388 33.389 86.0947C33.7573 85.7305 34.0904 85.4761 34.3883 85.3312C34.6903 85.1864 34.9945 85.114 35.3007 85.114C35.7641 85.114 36.1448 85.265 36.4427 85.5671C36.7365 85.8733 36.8875 86.3223 36.8958 86.914V87.4291L36.902 87.9939L36.8958 89.4463C36.8917 89.616 36.9289 89.7443 37.0075 89.8312C37.0406 89.8436 37.1668 89.8808 37.3861 89.9429C37.5227 89.9801 37.6034 90.0091 37.6282 90.0298C37.653 90.0505 37.6655 90.0794 37.6655 90.1167C37.6655 90.1622 37.653 90.216 37.6282 90.278H37.5848L36.9579 90.2408C36.8834 90.2367 36.7655 90.2346 36.6041 90.2346C36.4055 90.2346 36.1282 90.2429 35.7724 90.2594H35.4558C35.4103 90.2594 35.3214 90.2615 35.189 90.2656C35.1848 90.2284 35.1827 90.1953 35.1827 90.1663C35.1827 90.1332 35.1972 90.0918 35.2262 90.0422C35.3379 89.9925 35.491 89.9532 35.6855 89.9243C35.88 89.8911 36 89.8353 36.0455 89.7567C36.0951 89.6739 36.12 89.3512 36.12 88.7884C36.12 87.5677 36.1055 86.8602 36.0765 86.6657C36.0269 86.3554 35.8945 86.1133 35.6793 85.9395C35.4683 85.7616 35.2014 85.6726 34.8786 85.6726C34.6303 85.6726 34.3883 85.7388 34.1524 85.8712C33.9166 85.9995 33.6848 86.194 33.4573 86.4547L33.4511 86.6036V87.5533L33.4262 88.2919C33.4262 89.045 33.4324 89.4732 33.4448 89.5767C33.4614 89.6801 33.4966 89.7567 33.5504 89.8063C33.6083 89.8518 33.7717 89.8932 34.0407 89.9305C34.1607 89.947 34.2538 89.9636 34.32 89.9801C34.3697 90.0215 34.3945 90.0753 34.3945 90.1415C34.3945 90.1953 34.3759 90.2325 34.3386 90.2532H34.2331L33.9228 90.247H32.1166L31.6201 90.2532C31.6118 90.1911 31.6076 90.1456 31.6076 90.1167L31.6139 90.0422C31.7049 89.9925 31.8745 89.9449 32.1228 89.8994C32.2511 89.8787 32.3835 89.8436 32.52 89.7939C32.5449 89.7732 32.5635 89.7463 32.5759 89.7132C32.5966 89.6553 32.6111 89.4898 32.6193 89.2167L32.6504 88.4967L32.638 87.6836L32.6442 87.2305C32.6442 86.7216 32.5407 86.3512 32.3338 86.1195C32.1269 85.8836 31.8663 85.7657 31.5518 85.7657C31.258 85.7657 30.9621 85.8381 30.6642 85.983C30.3704 86.1278 30.1263 86.3223 29.9318 86.5664C29.9277 86.6823 29.9256 86.7878 29.9256 86.8829L29.9504 88.9684C29.9546 89.4236 29.9794 89.6843 30.0249 89.7505C30.0746 89.8125 30.1822 89.856 30.3477 89.8808C30.6125 89.918 30.7842 89.9636 30.8628 90.0174C30.9001 90.0422 30.9187 90.0794 30.9187 90.1291C30.9187 90.1622 30.9166 90.2015 30.9125 90.247C30.4408 90.2139 30.1242 90.1974 29.9629 90.1974C29.7973 90.1974 29.6484 90.1994 29.516 90.2036L29.2056 90.2222H29.0132L28.3181 90.247C28.3098 90.218 28.3056 90.1932 28.3056 90.1725C28.3056 90.1518 28.3139 90.1105 28.3305 90.0484Z" fill="black"/>
</svg>
