<svg width="55" height="55" viewBox="0 0 55 55" fill="none" xmlns="http://www.w3.org/2000/svg">
<path d="M21.833 3.31445C24.5674 -0.439679 30.167 -0.439679 32.9014 3.31445C34.6346 5.69392 37.5538 6.90331 40.4619 6.44629C45.05 5.72523 49.0091 9.68437 48.2881 14.2725C47.8311 17.1805 49.0405 20.0998 51.4199 21.833C55.1741 24.5674 55.1741 30.167 51.4199 32.9014C49.0405 34.6346 47.8311 37.5538 48.2881 40.4619C49.0091 45.05 45.05 49.0091 40.4619 48.2881C37.5538 47.8311 34.6346 49.0405 32.9014 51.4199C30.167 55.1741 24.5674 55.1741 21.833 51.4199C20.0998 49.0405 17.1805 47.8311 14.2725 48.2881C9.68437 49.0091 5.72523 45.05 6.44629 40.4619C6.90331 37.5538 5.69392 34.6346 3.31445 32.9014C-0.439679 30.167 -0.439679 24.5674 3.31445 21.833C5.69392 20.0998 6.90331 17.1805 6.44629 14.2725C5.72523 9.68437 9.68437 5.72523 14.2725 6.44629C17.1805 6.90331 20.0998 5.69392 21.833 3.31445Z" fill="#9AAAFF" stroke="black"/>
</svg>
