<svg width="81" height="140" viewBox="0 0 81 140" fill="none" xmlns="http://www.w3.org/2000/svg">
<path d="M0.240875 7.0456C6.58495 -2.34746 20.4151 -2.34746 26.7591 7.0456L27.9305 8.77987C31.4438 13.9817 37.6743 16.6486 43.8632 15.5997L45.9168 15.2517C56.6235 13.437 65.9892 22.5881 64.4232 33.334L63.6029 38.9626C62.7766 44.6331 65.0458 50.3126 69.5522 53.8523L73.9816 57.3316C82.137 63.7377 82.137 76.0904 73.9816 82.4965L69.5522 85.9758C65.0458 89.5155 62.7766 95.195 63.6029 100.865L64.4232 106.494C65.9892 117.24 56.6235 126.391 45.9168 124.576L43.8632 124.228C37.6743 123.18 31.4438 125.846 27.9305 131.048L26.7591 132.783C20.4151 142.176 6.58495 142.176 0.240875 132.783L-0.93045 131.048C-4.44377 125.846 -10.6743 123.18 -16.8632 124.228L-18.9168 124.576C-29.6235 126.391 -38.9891 117.24 -37.4232 106.494L-36.6029 100.865C-35.7765 95.195 -38.0458 89.5155 -42.5522 85.9758L-46.9816 82.4965C-55.137 76.0904 -55.137 63.7377 -46.9816 57.3316L-42.5522 53.8523C-38.0458 50.3126 -35.7765 44.6331 -36.6029 38.9626L-37.4232 33.334C-38.9891 22.5881 -29.6235 13.437 -18.9168 15.2517L-16.8632 15.5997C-10.6743 16.6486 -4.44377 13.9817 -0.930447 8.77987L0.240875 7.0456Z" fill="#39C4BD"/>
</svg>
