<svg width="91" height="140" viewBox="0 0 91 140" fill="none" xmlns="http://www.w3.org/2000/svg">
<path d="M53.3424 7.0456C59.6865 -2.34746 73.5166 -2.34746 79.8607 7.0456L81.032 8.77987C84.5453 13.9817 90.7759 16.6486 96.9648 15.5997L99.0183 15.2517C109.725 13.437 119.091 22.5881 117.525 33.334L116.704 38.9626C115.878 44.6331 118.147 50.3126 122.654 53.8523L127.083 57.3316C135.239 63.7377 135.239 76.0904 127.083 82.4965L122.654 85.9758C118.147 89.5155 115.878 95.195 116.704 100.865L117.525 106.494C119.091 117.24 109.725 126.391 99.0183 124.576L96.9648 124.228C90.7759 123.18 84.5453 125.846 81.032 131.048L79.8607 132.783C73.5166 142.176 59.6865 142.176 53.3424 132.783L52.1711 131.048C48.6578 125.846 42.4273 123.18 36.2384 124.228L34.1848 124.576C23.4781 126.391 14.1124 117.24 15.6784 106.494L16.4987 100.865C17.325 95.195 15.0557 89.5155 10.5494 85.9758L6.11994 82.4965C-2.03544 76.0904 -2.03544 63.7377 6.11993 57.3316L10.5494 53.8523C15.0557 50.3126 17.325 44.6331 16.4987 38.9626L15.6784 33.334C14.1124 22.5881 23.4781 13.437 34.1848 15.2517L36.2384 15.5997C42.4273 16.6486 48.6578 13.9817 52.1711 8.77987L53.3424 7.0456Z" fill="#574CFF"/>
</svg>
