<svg width="73" height="73" viewBox="0 0 73 73" fill="none" xmlns="http://www.w3.org/2000/svg">
<path d="M28.7588 4.29199C32.4411 -0.763211 39.9807 -0.76321 43.6631 4.29199C45.9205 7.3912 49.7231 8.9662 53.5107 8.37109C59.6894 7.40007 65.0218 12.7325 64.0508 18.9111C63.4557 22.6988 65.0307 26.5014 68.1299 28.7588C73.1851 32.4411 73.1851 39.9807 68.1299 43.6631C65.0307 45.9205 63.4557 49.7231 64.0508 53.5107C65.0218 59.6894 59.6894 65.0218 53.5107 64.0508C49.7231 63.4557 45.9205 65.0307 43.6631 68.1299C39.9807 73.1851 32.4411 73.1851 28.7588 68.1299C26.5014 65.0307 22.6988 63.4557 18.9111 64.0508C12.7325 65.0218 7.40007 59.6894 8.37109 53.5107C8.9662 49.7231 7.3912 45.9205 4.29199 43.6631C-0.763209 39.9807 -0.763209 32.4411 4.29199 28.7588C7.3912 26.5014 8.9662 22.6988 8.37109 18.9111C7.40007 12.7325 12.7325 7.40007 18.9111 8.37109C22.6988 8.9662 26.5014 7.3912 28.7588 4.29199Z" fill="#FDE67B" stroke="black"/>
</svg>
