<svg width="85" height="165" viewBox="0 0 85 165" fill="none" xmlns="http://www.w3.org/2000/svg">
<path d="M14.9549 131.817L16.2552 164.162H68.7547V131.817L84.0332 16.2533V0.162109H0.164062V16.2533L14.9549 131.817Z" fill="#39C4BD" stroke="black" stroke-width="0.325074"/>
<path d="M15.3827 42.1389C15.4242 42.4815 15.445 42.6787 15.445 42.7306L15.4138 43.4235C15.4034 43.7194 15.3905 43.9088 15.3749 43.9919C15.3282 44.0126 15.2892 44.023 15.2581 44.023L15.188 44.0074C15.0219 43.2808 14.7391 42.7514 14.3394 42.4192C13.945 42.087 13.4623 41.921 12.8914 41.921C12.2997 41.921 11.8144 42.087 11.4355 42.4192C11.0566 42.7514 10.8672 43.1381 10.8672 43.5792C10.8672 43.9166 10.9995 44.2254 11.2642 44.5057C11.5289 44.786 12.2062 45.2064 13.2962 45.7669C14.1266 46.1977 14.7209 46.5507 15.079 46.8257C15.4372 47.0956 15.7071 47.4096 15.8887 47.7678C16.0704 48.1259 16.1612 48.5255 16.1612 48.9667C16.1612 49.5221 16.0159 50.0437 15.7252 50.5316C15.4398 51.0195 15.0531 51.388 14.5652 51.6371C14.0773 51.881 13.4311 52.003 12.6266 52.003C11.926 52.003 11.2538 51.8914 10.6102 51.6682C10.2313 51.5333 10.0004 51.4243 9.91734 51.3413C9.83429 51.2582 9.79277 51.17 9.79277 51.0766C9.79277 51.0195 9.79796 50.9468 9.80834 50.8586C9.88101 50.2461 9.91993 49.7427 9.92512 49.3482C9.9355 49.1043 9.95367 48.9615 9.97962 48.92C10.0004 48.8837 10.0393 48.8655 10.0964 48.8655C10.1431 48.8655 10.1794 48.8837 10.2054 48.92C10.2365 48.9511 10.2573 49.0134 10.2677 49.1069C10.3248 49.7453 10.6206 50.3162 11.1552 50.8196C11.6846 51.3231 12.2841 51.5748 12.9536 51.5748C13.3637 51.5748 13.74 51.4892 14.0825 51.3179C14.4303 51.1466 14.7002 50.9001 14.8922 50.5783C15.0894 50.2513 15.188 49.9347 15.188 49.6285C15.188 49.2081 15.0401 48.824 14.7443 48.4762C14.4484 48.1285 13.8541 47.7237 12.9614 47.2617C12.0687 46.7946 11.4874 46.4546 11.2175 46.2418C10.7815 45.8941 10.4545 45.5256 10.2365 45.1363C10.0756 44.8353 9.99519 44.4849 9.99519 44.0853C9.99519 43.3638 10.2807 42.754 10.8516 42.2557C11.4225 41.7523 12.1881 41.5005 13.1483 41.5005C13.6777 41.5005 14.1344 41.5602 14.5185 41.6796C14.7988 41.773 15.0868 41.9261 15.3827 42.1389ZM17.4143 45.6346H17.9982L18.2552 45.6501L18.4576 45.6346C18.9922 45.6346 19.3244 45.6398 19.4541 45.6501L19.4619 45.7981C19.4619 46.5299 19.4515 47.2384 19.4308 47.9235C19.4152 48.3283 19.4074 48.5593 19.4074 48.6164C19.4074 49.5299 19.4359 50.1008 19.493 50.3292C19.5553 50.5575 19.6955 50.7418 19.9134 50.8819C20.1366 51.0169 20.4039 51.0843 20.7153 51.0843C21.0942 51.0843 21.455 51.0065 21.7975 50.8508C22.1453 50.6899 22.4411 50.4952 22.685 50.2669C22.711 50.0696 22.724 49.8517 22.724 49.6129C22.724 48.8396 22.7318 48.3179 22.7473 48.048C22.7525 47.8871 22.7551 47.747 22.7551 47.6276C22.7551 46.7868 22.7136 46.3119 22.6305 46.2029C22.5475 46.0939 22.2309 46.0109 21.6807 45.9538C21.4991 45.933 21.3667 45.9148 21.2837 45.8993C21.2422 45.8318 21.2214 45.7799 21.2214 45.7436L21.2447 45.6579C21.3797 45.6424 21.512 45.6346 21.6418 45.6346L22.8797 45.6501C23.3208 45.6398 23.5544 45.6346 23.5804 45.6346C23.6375 45.6346 23.6919 45.6372 23.7439 45.6424L23.7594 46.2107C23.7231 46.9996 23.7023 47.9754 23.6971 49.138L23.6816 49.7686L23.7127 50.8274C23.7594 50.9105 23.8009 50.9598 23.8373 50.9753C23.8996 51.0013 24.0267 51.0143 24.2188 51.0143H24.2888C24.3563 51.0143 24.5483 51.0298 24.8649 51.061C24.8701 51.1285 24.8727 51.1778 24.8727 51.2089V51.2945C24.1772 51.4451 23.6141 51.5956 23.1833 51.7461C23.012 51.8032 22.8667 51.8447 22.7473 51.8707C22.7214 51.689 22.7084 51.5774 22.7084 51.5359V50.9053C22.7084 50.8793 22.7058 50.8093 22.7006 50.6951C22.6331 50.7418 22.5553 50.7989 22.467 50.8663C22.057 51.183 21.6236 51.4502 21.1669 51.6682C20.8607 51.8188 20.5648 51.894 20.2794 51.894C19.7344 51.894 19.2906 51.6916 18.9481 51.2868C18.6003 50.8819 18.4264 50.1916 18.4264 49.2158C18.4264 49.1639 18.429 49.0705 18.4342 48.9356C18.455 48.6864 18.4654 48.5126 18.4654 48.414C18.4654 48.3776 18.4628 48.2634 18.4576 48.0714C18.4524 47.9884 18.4498 47.9157 18.4498 47.8534C18.4498 47.8067 18.4524 47.7029 18.4576 47.542C18.4628 47.3759 18.4654 47.2591 18.4654 47.1917C18.4654 47.1034 18.4628 47.0256 18.4576 46.9581L18.442 46.5455L18.4498 46.3275C18.4498 46.2444 18.4083 46.1692 18.3252 46.1017C17.9982 46.0135 17.7828 45.9642 17.679 45.9538C17.5804 45.9382 17.4922 45.9148 17.4143 45.8837V45.6346ZM25.5887 51.497C25.7184 51.4606 25.8689 51.4295 26.0402 51.4035C26.3672 51.3568 26.5618 51.3023 26.6241 51.24C26.6916 51.1778 26.7253 51.035 26.7253 50.8118L26.7409 50.5316C26.7461 50.4278 26.7487 50.2954 26.7487 50.1345L26.7331 47.7444C26.7331 47.4226 26.6916 47.215 26.6086 47.1216C26.4684 46.9763 26.2089 46.875 25.83 46.818V46.5377C26.2089 46.4339 26.4996 46.2989 26.702 46.1328C26.9978 45.8993 27.247 45.5827 27.4494 45.183L27.7141 45.1908C27.7296 45.4348 27.7374 45.6086 27.7374 45.7124V46.2263L27.7452 46.3664C27.8075 46.3249 27.8802 46.273 27.9632 46.2107C28.2746 45.9771 28.5938 45.7877 28.9208 45.6424C29.2478 45.4918 29.5385 45.388 29.7928 45.3309C29.9537 45.2894 30.1353 45.2687 30.3377 45.2687C30.7634 45.2687 31.1293 45.3828 31.4355 45.6112C31.7417 45.8396 31.9389 46.1095 32.0272 46.4209C32.1206 46.7271 32.1673 47.3396 32.1673 48.2582V49.4338C32.1673 49.465 32.1621 49.5688 32.1517 49.7453C32.1466 49.9217 32.144 50.1241 32.144 50.3525C32.144 50.7158 32.1595 50.9468 32.1907 51.0454C32.2166 51.1129 32.2841 51.1804 32.3931 51.2478C32.8914 51.3153 33.182 51.3958 33.2651 51.4892V51.5515C33.2651 51.6034 33.2495 51.6682 33.2183 51.7461H33.0704L32.0427 51.7383L31.0306 51.7539C30.657 51.7643 30.3118 51.7617 29.9952 51.7461L29.9485 51.5826C29.9485 51.5515 29.9666 51.5099 30.003 51.458C30.1431 51.3958 30.3403 51.3542 30.5947 51.3335C30.7452 51.3231 30.849 51.3075 30.9061 51.2868C30.9632 51.266 31.0332 51.2245 31.1163 51.1622C31.1786 51.0376 31.2097 50.9338 31.2097 50.8508C31.2097 50.8144 31.2045 50.7418 31.1941 50.6328C31.1786 50.394 31.1682 49.7998 31.163 48.8499V48.4451L31.1786 47.8223C31.1786 47.1527 31.0436 46.6908 30.7737 46.4365C30.5038 46.1821 30.1431 46.055 29.6916 46.055C29.3438 46.055 29.0039 46.1328 28.6717 46.2885C28.3395 46.4391 28.0177 46.6674 27.7063 46.9737C27.6959 47.2228 27.6907 47.4356 27.6907 47.6121L27.7141 49.3326C27.7141 50.2305 27.7271 50.7807 27.753 50.9831C27.7634 51.0662 27.7816 51.1233 27.8075 51.1544C27.849 51.1959 27.9321 51.2297 28.0566 51.2556C28.1812 51.2816 28.3239 51.3179 28.4848 51.3646C28.6509 51.4113 28.7599 51.4399 28.8118 51.4502C28.9156 51.4762 28.9857 51.5281 29.022 51.606L29.0142 51.7617H28.1968L26.5151 51.7383C26.1259 51.7487 25.8793 51.7539 25.7755 51.7539H25.5809L25.5653 51.6527C25.5653 51.6163 25.5731 51.5644 25.5887 51.497ZM34.8841 49.7686C35.0761 50.2617 35.2215 50.5809 35.3201 50.7262C35.5173 51.0221 35.7535 51.253 36.0285 51.4191C36.3036 51.58 36.6021 51.6605 36.9239 51.6605C37.2197 51.6605 37.513 51.5333 37.8036 51.279C38.0112 51.0869 38.115 50.8638 38.115 50.6094C38.115 50.2721 37.9931 49.9606 37.7491 49.6752C37.5052 49.3949 37.0406 49.1276 36.3555 48.8733C35.6756 48.6138 35.2189 48.3387 34.9853 48.048C34.7517 47.7574 34.635 47.4252 34.635 47.0515C34.635 46.6986 34.731 46.3872 34.923 46.1173C35.1151 45.8474 35.3798 45.645 35.7171 45.51C36.0545 45.3699 36.3659 45.2998 36.6514 45.2998C37.0199 45.2998 37.3495 45.3284 37.6401 45.3854C37.936 45.4425 38.1903 45.5308 38.4031 45.6501C38.4446 45.9148 38.4783 46.3041 38.5043 46.818L38.5199 47.0671C38.4524 47.0723 38.3953 47.0749 38.3486 47.0749H38.2396C38.0839 46.6441 37.8451 46.3041 37.5233 46.055C37.2067 45.8007 36.8927 45.6735 36.5813 45.6735C36.2699 45.6735 36.0182 45.7695 35.8261 45.9616C35.6341 46.1484 35.5381 46.3949 35.5381 46.7012C35.5381 46.9347 35.6159 47.1423 35.7716 47.324C35.9273 47.5057 36.2907 47.7133 36.8616 47.9468C37.4377 48.1804 37.8555 48.3984 38.115 48.6008C38.3797 48.798 38.5744 49.0394 38.6989 49.3248C38.8235 49.6103 38.8858 49.8828 38.8858 50.1423C38.8858 50.5004 38.7664 50.8352 38.5277 51.1466C38.2941 51.458 37.9982 51.676 37.6401 51.8006C37.2872 51.9303 36.9706 51.9952 36.6903 51.9952C36.0311 51.9952 35.4239 51.8733 34.8685 51.6293C34.8166 51.5878 34.7881 51.5099 34.7829 51.3958C34.7829 51.349 34.7777 51.2738 34.7673 51.17C34.6843 50.4693 34.6428 50.0541 34.6428 49.9243C34.6428 49.862 34.6557 49.8205 34.6817 49.7998C34.7076 49.779 34.7751 49.7686 34.8841 49.7686ZM46.1181 50.3214L46.1259 50.8274C45.721 51.2582 45.3214 51.5592 44.9269 51.7305C44.5325 51.9018 44.0679 51.9874 43.5333 51.9874C42.952 51.9874 42.4278 51.8369 41.9607 51.5359C41.4936 51.2297 41.1328 50.7989 40.8785 50.2435C40.6294 49.6882 40.5048 49.1432 40.5048 48.6086C40.5048 48.0221 40.6553 47.4693 40.9564 46.9503C41.2626 46.4261 41.6648 46.0368 42.1631 45.7825C42.6666 45.523 43.2972 45.3932 44.055 45.3932C44.7816 45.3932 45.3344 45.5178 45.7132 45.7669C45.926 45.9123 46.0324 46.0991 46.0324 46.3275C46.0324 46.4936 45.9779 46.6311 45.8689 46.7401C45.76 46.8491 45.6198 46.9036 45.4485 46.9036C45.189 46.9036 44.9036 46.7427 44.5921 46.4209C44.4001 46.2237 44.2262 46.0887 44.0705 46.0161C43.9148 45.9382 43.7409 45.8993 43.5489 45.8993C43.087 45.8993 42.7029 46.0887 42.3967 46.4676C41.9711 47.0074 41.7583 47.6847 41.7583 48.4996C41.7583 49.3404 41.9763 50.01 42.4122 50.5082C42.8482 51.0065 43.3569 51.2556 43.9382 51.2556C44.343 51.2556 44.7011 51.1907 45.0126 51.061C45.3292 50.926 45.6977 50.6795 46.1181 50.3214ZM47.1844 51.7694L47.1532 51.6682C47.1532 51.6319 47.1766 51.5774 47.2233 51.5047L47.6826 51.4113L48.3288 51.2945C48.3807 51.2686 48.4171 51.2323 48.4378 51.1855C48.469 51.1181 48.4845 50.9182 48.4845 50.5861C48.4845 48.8214 48.4741 47.8041 48.4534 47.5342C48.4326 47.2591 48.3859 47.0852 48.3132 47.0126C48.2406 46.9399 48.0537 46.8828 47.7527 46.8413C47.5762 46.8154 47.4361 46.7816 47.3323 46.7401L47.3634 46.5065C47.9084 46.2834 48.2743 46.0913 48.4612 45.9304C48.7207 45.6969 48.9413 45.3906 49.1229 45.0117L49.3876 45.0195C49.4188 45.279 49.4343 45.8552 49.4343 46.7479L49.4266 46.8802C49.4266 46.9114 49.4317 46.9607 49.4421 47.0282C49.6394 46.67 49.8859 46.3404 50.1817 46.0394L50.3608 45.8604C50.4335 45.7773 50.5035 45.7124 50.571 45.6657C50.9343 45.4477 51.2042 45.3387 51.3807 45.3387C51.6091 45.3387 51.7959 45.4166 51.9412 45.5723C52.0866 45.7228 52.1592 45.9097 52.1592 46.1328C52.1592 46.3093 52.1073 46.4468 52.0035 46.5455C51.8634 46.6752 51.7025 46.7401 51.5208 46.7401C51.4378 46.7401 51.2743 46.696 51.0303 46.6077C50.7864 46.5195 50.6255 46.4754 50.5476 46.4754C50.4023 46.4754 50.3011 46.4988 50.244 46.5455C50.0987 46.6596 49.9222 46.8932 49.7146 47.2461C49.5537 47.5109 49.4733 47.7548 49.4733 47.978L49.5122 49.2626L49.5278 50.8041C49.5433 50.9805 49.5641 51.0947 49.59 51.1466C49.6108 51.183 49.6627 51.2271 49.7458 51.279C50.3063 51.3257 50.6385 51.3594 50.7423 51.3802C50.8149 51.3854 50.8694 51.3906 50.9058 51.3958C51.129 51.4009 51.2847 51.4321 51.3729 51.4892C51.4196 51.5151 51.443 51.5541 51.443 51.606C51.443 51.6371 51.4222 51.6786 51.3807 51.7305L50.5165 51.7227L50.1895 51.715L49.7146 51.7227H48.9205L48.4923 51.7461L47.1844 51.7694ZM58.6753 47.6354L55.5533 47.6588H54.9616C54.7229 47.6588 54.479 47.6692 54.2298 47.6899C54.1831 47.8456 54.1597 47.952 54.1597 48.0091L54.1675 48.087V48.1648L54.1597 48.5463C54.1597 48.8629 54.2584 49.2522 54.4556 49.7141C54.658 50.1709 54.9435 50.5212 55.312 50.7651C55.6857 51.0039 56.1502 51.131 56.7056 51.1466C57.0014 51.131 57.2376 51.0947 57.414 51.0376C57.5905 50.9805 57.8396 50.8482 58.1614 50.6406L58.722 50.1812L58.7687 50.4926C58.7687 50.529 58.7661 50.5679 58.7609 50.6094C58.5273 50.9053 58.2315 51.1648 57.8734 51.388C57.5152 51.6111 57.1519 51.7746 56.7834 51.8784C56.607 51.9252 56.3163 51.9485 55.9115 51.9485C55.543 51.9485 55.1796 51.8733 54.8215 51.7227C54.2921 51.4944 53.8743 51.1285 53.5681 50.625C53.267 50.1164 53.1165 49.5013 53.1165 48.7799C53.1165 48.5515 53.158 48.2582 53.2411 47.9001C53.3293 47.542 53.485 47.1605 53.7082 46.7557C53.8587 46.4806 54.043 46.2548 54.261 46.0783C54.5724 45.8292 54.8449 45.6553 55.0784 45.5567C55.4158 45.4166 55.8077 45.3465 56.254 45.3465C56.7367 45.3465 57.1312 45.4348 57.4374 45.6112C57.8526 45.8448 58.1614 46.1458 58.3639 46.5143C58.5715 46.8828 58.6753 47.2202 58.6753 47.5264V47.6354ZM54.331 47.3551H54.6969C54.9616 47.3551 55.7506 47.3136 57.0637 47.2306C57.2713 47.2202 57.3985 47.1994 57.4452 47.1683C57.5386 47.0697 57.5853 46.9814 57.5853 46.9036C57.5853 46.7427 57.5334 46.561 57.4296 46.3586C57.3258 46.151 57.1649 45.9927 56.9469 45.8837C56.7341 45.7695 56.485 45.7124 56.1995 45.7124C55.5974 45.7124 55.1148 45.9382 54.7514 46.3898C54.4712 46.7323 54.331 47.0541 54.331 47.3551ZM65.6429 47.6354L62.5209 47.6588H61.9292C61.6905 47.6588 61.4465 47.6692 61.1974 47.6899C61.1507 47.8456 61.1273 47.952 61.1273 48.0091L61.1351 48.087V48.1648L61.1273 48.5463C61.1273 48.8629 61.226 49.2522 61.4232 49.7141C61.6256 50.1709 61.9111 50.5212 62.2796 50.7651C62.6533 51.0039 63.1178 51.131 63.6732 51.1466C63.969 51.131 64.2052 51.0947 64.3816 51.0376C64.5581 50.9805 64.8072 50.8482 65.129 50.6406L65.6896 50.1812L65.7363 50.4926C65.7363 50.529 65.7337 50.5679 65.7285 50.6094C65.4949 50.9053 65.1991 51.1648 64.841 51.388C64.4828 51.6111 64.1195 51.7746 63.751 51.8784C63.5746 51.9252 63.2839 51.9485 62.8791 51.9485C62.5105 51.9485 62.1472 51.8733 61.7891 51.7227C61.2597 51.4944 60.8419 51.1285 60.5357 50.625C60.2346 50.1164 60.0841 49.5013 60.0841 48.7799C60.0841 48.5515 60.1256 48.2582 60.2087 47.9001C60.2969 47.542 60.4526 47.1605 60.6758 46.7557C60.8263 46.4806 61.0106 46.2548 61.2286 46.0783C61.54 45.8292 61.8125 45.6553 62.046 45.5567C62.3834 45.4166 62.7753 45.3465 63.2216 45.3465C63.7043 45.3465 64.0988 45.4348 64.405 45.6112C64.8202 45.8448 65.129 46.1458 65.3314 46.5143C65.5391 46.8828 65.6429 47.2202 65.6429 47.5264V47.6354ZM61.2986 47.3551H61.6645C61.9292 47.3551 62.7182 47.3136 64.0313 47.2306C64.2389 47.2202 64.3661 47.1994 64.4128 47.1683C64.5062 47.0697 64.5529 46.9814 64.5529 46.9036C64.5529 46.7427 64.501 46.561 64.3972 46.3586C64.2934 46.151 64.1325 45.9927 63.9145 45.8837C63.7017 45.7695 63.4526 45.7124 63.1671 45.7124C62.565 45.7124 62.0824 45.9382 61.719 46.3898C61.4388 46.7323 61.2986 47.0541 61.2986 47.3551ZM66.7403 51.497C66.87 51.4606 67.0206 51.4295 67.1918 51.4035C67.5188 51.3568 67.7135 51.3023 67.7757 51.24C67.8432 51.1778 67.877 51.035 67.877 50.8118L67.8925 50.5316C67.8977 50.4278 67.9003 50.2954 67.9003 50.1345L67.8847 47.7444C67.8847 47.4226 67.8432 47.215 67.7602 47.1216C67.62 46.9763 67.3605 46.875 66.9816 46.818V46.5377C67.3605 46.4339 67.6512 46.2989 67.8536 46.1328C68.1494 45.8993 68.3986 45.5827 68.601 45.183L68.8657 45.1908C68.8813 45.4348 68.8891 45.6086 68.8891 45.7124V46.2263L68.8968 46.3664C68.9591 46.3249 69.0318 46.273 69.1148 46.2107C69.4262 45.9771 69.7454 45.7877 70.0724 45.6424C70.3994 45.4918 70.6901 45.388 70.9444 45.3309C71.1053 45.2894 71.2869 45.2687 71.4894 45.2687C71.915 45.2687 72.2809 45.3828 72.5871 45.6112C72.8933 45.8396 73.0906 46.1095 73.1788 46.4209C73.2722 46.7271 73.3189 47.3396 73.3189 48.2582V49.4338C73.3189 49.465 73.3137 49.5688 73.3034 49.7453C73.2982 49.9217 73.2956 50.1241 73.2956 50.3525C73.2956 50.7158 73.3111 50.9468 73.3423 51.0454C73.3682 51.1129 73.4357 51.1804 73.5447 51.2478C74.043 51.3153 74.3336 51.3958 74.4167 51.4892V51.5515C74.4167 51.6034 74.4011 51.6682 74.37 51.7461H74.222L73.1944 51.7383L72.1823 51.7539C71.8086 51.7643 71.4634 51.7617 71.1468 51.7461L71.1001 51.5826C71.1001 51.5515 71.1183 51.5099 71.1546 51.458C71.2947 51.3958 71.492 51.3542 71.7463 51.3335C71.8968 51.3231 72.0006 51.3075 72.0577 51.2868C72.1148 51.266 72.1849 51.2245 72.2679 51.1622C72.3302 51.0376 72.3613 50.9338 72.3613 50.8508C72.3613 50.8144 72.3561 50.7418 72.3458 50.6328C72.3302 50.394 72.3198 49.7998 72.3146 48.8499V48.4451L72.3302 47.8223C72.3302 47.1527 72.1952 46.6908 71.9253 46.4365C71.6555 46.1821 71.2947 46.055 70.8432 46.055C70.4954 46.055 70.1555 46.1328 69.8233 46.2885C69.4911 46.4391 69.1693 46.6674 68.8579 46.9737C68.8475 47.2228 68.8423 47.4356 68.8423 47.6121L68.8657 49.3326C68.8657 50.2305 68.8787 50.7807 68.9046 50.9831C68.915 51.0662 68.9332 51.1233 68.9591 51.1544C69.0006 51.1959 69.0837 51.2297 69.2083 51.2556C69.3328 51.2816 69.4756 51.3179 69.6364 51.3646C69.8025 51.4113 69.9115 51.4399 69.9634 51.4502C70.0672 51.4762 70.1373 51.5281 70.1736 51.606L70.1659 51.7617H69.3484L67.6668 51.7383C67.2775 51.7487 67.0309 51.7539 66.9271 51.7539H66.7325L66.7169 51.6527C66.7169 51.6163 66.7247 51.5644 66.7403 51.497Z" fill="black"/>
</svg>
