<svg width="559" height="123" viewBox="0 0 559 123" fill="none" xmlns="http://www.w3.org/2000/svg">
<path d="M12.9894 41.5527V8.51273H-0.00256249V2.35273H33.2614V8.51273H20.2694V41.5527H12.9894ZM54.891 41.5527V35.5047L54.499 34.2167V23.6327C54.499 21.5794 53.883 19.9927 52.651 18.8727C51.419 17.7154 49.5523 17.1367 47.051 17.1367C45.371 17.1367 43.7097 17.3981 42.067 17.9207C40.4617 18.4434 39.099 19.1714 37.979 20.1047L35.235 15.0087C36.8403 13.7767 38.7443 12.8621 40.947 12.2647C43.187 11.6301 45.5017 11.3127 47.891 11.3127C52.2217 11.3127 55.563 12.3581 57.915 14.4487C60.3043 16.5021 61.499 19.6941 61.499 24.0247V41.5527H54.891ZM45.483 41.9447C43.243 41.9447 41.283 41.5714 39.603 40.8247C37.923 40.0407 36.6163 38.9767 35.683 37.6327C34.787 36.2514 34.339 34.7021 34.339 32.9847C34.339 31.3047 34.731 29.7927 35.515 28.4487C36.3363 27.1047 37.6617 26.0407 39.491 25.2567C41.3203 24.4727 43.747 24.0807 46.771 24.0807H55.451V28.7287H47.275C44.8857 28.7287 43.2803 29.1207 42.459 29.9047C41.6377 30.6514 41.227 31.5847 41.227 32.7047C41.227 33.9741 41.731 34.9821 42.739 35.7287C43.747 36.4754 45.147 36.8487 46.939 36.8487C48.6563 36.8487 50.187 36.4567 51.531 35.6727C52.9123 34.8887 53.9017 33.7314 54.499 32.2007L55.675 36.4007C55.003 38.1554 53.7897 39.5181 52.035 40.4887C50.3177 41.4594 48.1337 41.9447 45.483 41.9447ZM70.4826 41.5527V0.000731945H77.4826V41.5527H70.4826ZM92.3821 34.8887L92.5501 26.0967L108.174 11.6487H116.574L103.302 24.9767L99.6061 28.0567L92.3821 34.8887ZM86.6701 41.5527V0.000731945H93.6701V41.5527H86.6701ZM109.238 41.5527L98.3181 28.0567L102.742 22.4567L117.75 41.5527H109.238ZM149.004 41.9447C145.719 41.9447 143.18 41.1047 141.388 39.4247C139.596 37.7074 138.7 35.1874 138.7 31.8647V5.04073H145.7V31.6967C145.7 33.1154 146.055 34.2167 146.764 35.0007C147.511 35.7847 148.538 36.1767 149.844 36.1767C151.412 36.1767 152.719 35.7661 153.764 34.9447L155.724 39.9287C154.903 40.6007 153.895 41.1047 152.7 41.4407C151.506 41.7767 150.274 41.9447 149.004 41.9447ZM133.772 17.4727V11.8727H153.708V17.4727H133.772ZM173.938 41.9447C170.877 41.9447 168.152 41.2914 165.762 39.9847C163.373 38.6407 161.488 36.8114 160.106 34.4967C158.725 32.1821 158.034 29.5501 158.034 26.6007C158.034 23.6141 158.725 20.9821 160.106 18.7047C161.488 16.3901 163.373 14.5794 165.762 13.2727C168.152 11.9661 170.877 11.3127 173.938 11.3127C177.037 11.3127 179.781 11.9661 182.17 13.2727C184.597 14.5794 186.482 16.3714 187.826 18.6487C189.208 20.9261 189.898 23.5767 189.898 26.6007C189.898 29.5501 189.208 32.1821 187.826 34.4967C186.482 36.8114 184.597 38.6407 182.17 39.9847C179.781 41.2914 177.037 41.9447 173.938 41.9447ZM173.938 35.9527C175.656 35.9527 177.186 35.5794 178.53 34.8327C179.874 34.0861 180.92 33.0034 181.666 31.5847C182.45 30.1661 182.842 28.5047 182.842 26.6007C182.842 24.6594 182.45 22.9981 181.666 21.6167C180.92 20.1981 179.874 19.1154 178.53 18.3687C177.186 17.6221 175.674 17.2487 173.994 17.2487C172.277 17.2487 170.746 17.6221 169.402 18.3687C168.096 19.1154 167.05 20.1981 166.266 21.6167C165.482 22.9981 165.09 24.6594 165.09 26.6007C165.09 28.5047 165.482 30.1661 166.266 31.5847C167.05 33.0034 168.096 34.0861 169.402 34.8327C170.746 35.5794 172.258 35.9527 173.938 35.9527ZM214.533 52.8087C213.077 52.8087 211.621 52.5661 210.165 52.0807C208.709 51.5954 207.495 50.9234 206.525 50.0647L209.325 44.9127C210.034 45.5474 210.837 46.0514 211.733 46.4247C212.629 46.7981 213.543 46.9847 214.477 46.9847C215.746 46.9847 216.773 46.6674 217.557 46.0327C218.341 45.3981 219.069 44.3341 219.741 42.8407L221.477 38.9207L222.037 38.0807L233.349 11.6487H240.069L226.069 43.9607C225.135 46.2007 224.09 47.9741 222.933 49.2807C221.813 50.5874 220.543 51.5021 219.125 52.0247C217.743 52.5474 216.213 52.8087 214.533 52.8087ZM220.693 42.6167L207.197 11.6487H214.477L225.453 37.4647L220.693 42.6167ZM257.063 41.9447C254.002 41.9447 251.277 41.2914 248.887 39.9847C246.498 38.6407 244.613 36.8114 243.231 34.4967C241.85 32.1821 241.159 29.5501 241.159 26.6007C241.159 23.6141 241.85 20.9821 243.231 18.7047C244.613 16.3901 246.498 14.5794 248.887 13.2727C251.277 11.9661 254.002 11.3127 257.063 11.3127C260.162 11.3127 262.906 11.9661 265.295 13.2727C267.722 14.5794 269.607 16.3714 270.951 18.6487C272.333 20.9261 273.023 23.5767 273.023 26.6007C273.023 29.5501 272.333 32.1821 270.951 34.4967C269.607 36.8114 267.722 38.6407 265.295 39.9847C262.906 41.2914 260.162 41.9447 257.063 41.9447ZM257.063 35.9527C258.781 35.9527 260.311 35.5794 261.655 34.8327C262.999 34.0861 264.045 33.0034 264.791 31.5847C265.575 30.1661 265.967 28.5047 265.967 26.6007C265.967 24.6594 265.575 22.9981 264.791 21.6167C264.045 20.1981 262.999 19.1154 261.655 18.3687C260.311 17.6221 258.799 17.2487 257.119 17.2487C255.402 17.2487 253.871 17.6221 252.527 18.3687C251.221 19.1154 250.175 20.1981 249.391 21.6167C248.607 22.9981 248.215 24.6594 248.215 26.6007C248.215 28.5047 248.607 30.1661 249.391 31.5847C250.175 33.0034 251.221 34.0861 252.527 34.8327C253.871 35.5794 255.383 35.9527 257.063 35.9527ZM292.373 41.9447C289.834 41.9447 287.594 41.4781 285.653 40.5447C283.712 39.5741 282.2 38.1181 281.117 36.1767C280.034 34.1981 279.493 31.7154 279.493 28.7287V11.6487H286.493V27.7767C286.493 30.4647 287.09 32.4807 288.285 33.8247C289.517 35.1314 291.253 35.7847 293.493 35.7847C295.136 35.7847 296.554 35.4487 297.749 34.7767C298.981 34.1047 299.933 33.0967 300.605 31.7527C301.314 30.4087 301.669 28.7474 301.669 26.7687V11.6487H308.669V41.5527H302.005V33.4887L303.181 35.9527C302.173 37.8941 300.698 39.3874 298.757 40.4327C296.816 41.4407 294.688 41.9447 292.373 41.9447ZM317.834 41.5527V11.6487H324.498V19.8807L323.714 17.4727C324.61 15.4567 326.01 13.9261 327.914 12.8807C329.856 11.8354 332.264 11.3127 335.138 11.3127V17.9767C334.84 17.9021 334.56 17.8647 334.298 17.8647C334.037 17.8274 333.776 17.8087 333.514 17.8087C330.864 17.8087 328.754 18.5927 327.186 20.1607C325.618 21.6914 324.834 23.9874 324.834 27.0487V41.5527H317.834ZM356.867 53.5527C357.284 53.3652 357.596 53.2715 357.805 53.2715C358.513 53.2715 359.138 53.7507 359.68 54.709C359.909 55.1257 360.138 55.4694 360.367 55.7402C360.888 56.2611 361.451 56.5215 362.055 56.5215C362.93 56.5215 364.013 56.0215 365.305 55.0215C366.388 53.8757 367.398 52.2298 368.336 50.084C369.294 47.959 370.138 45.6673 370.867 43.209L373.93 32.6777C374.117 32.0319 374.305 31.3236 374.492 30.5527L376.555 23.1777C377.117 21.3027 377.544 19.9798 377.836 19.209C377.461 19.1882 377.18 19.1777 376.992 19.1777C376.846 19.1777 376.513 19.1986 375.992 19.2402C375.471 19.2611 374.242 19.2715 372.305 19.2715C372.367 18.6882 372.43 18.1673 372.492 17.709C372.93 17.6673 373.398 17.6361 373.898 17.6152L378.43 17.459C379.346 14.3965 380.388 11.5215 381.555 8.83398C382.284 7.22982 383.326 5.61523 384.68 3.99023C385.721 2.76107 386.961 1.77148 388.398 1.02148C389.086 0.646484 389.971 0.458984 391.055 0.458984C392.388 0.458984 393.461 0.823568 394.273 1.55273C395.086 2.26107 395.492 3.00065 395.492 3.77148C395.492 4.27148 395.326 4.70898 394.992 5.08398C394.659 5.43815 394.284 5.61523 393.867 5.61523C393.326 5.61523 392.836 5.43815 392.398 5.08398C391.982 4.72982 391.68 4.17773 391.492 3.42773C391.346 2.88607 391.148 2.50065 390.898 2.27148C390.628 2.06315 390.273 1.95898 389.836 1.95898C389.419 1.95898 389.055 2.04232 388.742 2.20898C388.096 2.54232 387.388 3.17773 386.617 4.11523C386.076 4.80273 385.492 5.81315 384.867 7.14648C384.263 8.47982 383.596 10.3861 382.867 12.8652C382.159 15.3236 381.763 16.8444 381.68 17.4277L382.523 17.4902L385.461 17.4277C385.586 17.4277 385.909 17.4486 386.43 17.4902C386.451 17.6777 386.461 17.8236 386.461 17.9277C386.461 18.2402 386.398 18.6257 386.273 19.084L381.117 19.2715L380.086 22.7715L377.461 32.209C377.315 32.709 377.19 33.1152 377.086 33.4277C376.711 34.4069 376.482 35.1465 376.398 35.6465L374.086 43.0527C373.065 45.9069 372.044 48.2611 371.023 50.1152C370.023 51.9694 368.773 53.6361 367.273 55.1152C366.169 56.1777 365.003 56.959 363.773 57.459C362.982 57.7923 361.951 57.959 360.68 57.959C358.93 57.959 357.721 57.6777 357.055 57.1152C356.367 56.5736 356.023 55.9173 356.023 55.1465C356.023 54.4173 356.305 53.8861 356.867 53.5527ZM405.43 18.9277C405.638 18.5736 405.773 18.2923 405.836 18.084C406.086 17.459 406.336 17.0527 406.586 16.8652C407.169 16.8027 407.596 16.7715 407.867 16.7715C408.221 16.7715 408.565 16.8444 408.898 16.9902L408.992 17.3652C408.992 17.4902 408.94 17.6777 408.836 17.9277C408.773 18.0527 408.638 18.4486 408.43 19.1152L408.18 19.7402L406.117 25.334C405.242 27.8548 404.471 29.8652 403.805 31.3652C403.159 32.8652 402.596 34.3965 402.117 35.959C401.638 37.5007 401.201 38.6048 400.805 39.2715L400.68 39.584C400.68 39.709 400.794 39.8757 401.023 40.084C401.961 39.5632 402.753 39.0007 403.398 38.3965C405.065 36.834 406.055 35.8652 406.367 35.4902C406.596 35.2194 406.815 34.9694 407.023 34.7402C407.273 34.9486 407.503 35.1673 407.711 35.3965C407.128 36.209 406.148 37.3132 404.773 38.709C403.398 40.1048 402.159 41.0944 401.055 41.6777C400.201 42.1152 399.398 42.334 398.648 42.334C398.169 42.334 397.805 42.2298 397.555 42.0215C397.326 41.8132 397.211 41.5423 397.211 41.209C397.211 40.9173 397.315 40.3757 397.523 39.584C398.044 38.209 398.409 37.3027 398.617 36.8652C398.826 36.4277 399.107 35.7507 399.461 34.834C399.669 34.2715 400.096 33.2923 400.742 31.8965C400.346 32.2923 399.857 32.8757 399.273 33.6465C397.586 35.7715 395.648 37.7819 393.461 39.6777C392.961 40.1152 391.753 40.8132 389.836 41.7715C389.128 42.0423 388.294 42.2194 387.336 42.3027C386.523 42.2819 385.982 42.1986 385.711 42.0527C385.211 41.7819 384.805 41.3548 384.492 40.7715C384.263 40.334 384.148 39.6569 384.148 38.7402C384.148 37.4069 384.44 35.9277 385.023 34.3027C386.023 31.5319 387.034 29.4798 388.055 28.1465C389.805 25.834 391.534 24.0007 393.242 22.6465C394.971 21.2923 396.555 20.3027 397.992 19.6777C399.888 18.8444 401.534 18.4277 402.93 18.4277C403.388 18.4277 403.826 18.4694 404.242 18.5527C404.659 18.6361 405.055 18.7611 405.43 18.9277ZM390.555 39.4277C391.055 39.3027 391.492 39.1257 391.867 38.8965C392.096 38.7715 392.909 38.1986 394.305 37.1777C396.846 34.6152 398.284 33.1465 398.617 32.7715C399.346 31.959 400.169 30.8444 401.086 29.4277C401.336 29.0736 401.867 28.0944 402.68 26.4902L403.492 24.334C403.784 23.0632 403.93 22.334 403.93 22.1465C403.93 21.5632 403.69 21.0111 403.211 20.4902C402.898 20.1777 402.388 20.0215 401.68 20.0215C400.867 20.0215 400.169 20.1569 399.586 20.4277C398.273 21.0527 397.076 21.8444 395.992 22.8027C394.534 24.1152 393.128 25.8027 391.773 27.8652C390.419 29.9069 389.461 31.6152 388.898 32.9902C388.128 34.8861 387.742 36.3027 387.742 37.2402C387.742 38.0111 387.898 38.584 388.211 38.959C388.523 39.334 388.919 39.5215 389.398 39.5215C389.565 39.5215 389.951 39.4902 390.555 39.4277ZM413.93 24.834L412.93 24.8965H412.648C413.857 21.6673 415.482 19.0423 417.523 17.0215C418.503 16.0423 419.461 15.5527 420.398 15.5527C420.961 15.5527 421.471 15.8027 421.93 16.3027C422.388 16.7819 422.617 17.4486 422.617 18.3027C422.617 19.2194 422.513 20.1569 422.305 21.1152C422.096 22.0527 421.596 23.5527 420.805 25.6152L417.992 32.7715C417.159 34.7298 416.669 35.9277 416.523 36.3652L416.086 37.6152C415.628 38.7611 415.398 39.5423 415.398 39.959C415.398 40.084 415.471 40.3548 415.617 40.7715C415.846 40.8757 416.013 40.9277 416.117 40.9277L418.148 39.959C420.648 38.0215 422.232 36.6882 422.898 35.959C424.19 34.6257 425.659 32.8236 427.305 30.5527C428.096 29.4694 428.721 28.2402 429.18 26.8652C429.492 25.9277 429.648 25.0007 429.648 24.084C429.648 23.0007 429.409 21.1986 428.93 18.6777C428.93 17.6986 429.18 16.8861 429.68 16.2402C430.055 15.7402 430.451 15.4902 430.867 15.4902C431.305 15.4902 431.732 15.7611 432.148 16.3027C432.586 16.8444 432.805 17.6257 432.805 18.6465C432.805 21.3132 432.055 24.2298 430.555 27.3965C429.513 29.6257 427.826 32.1257 425.492 34.8965C423.159 37.6673 420.711 39.8236 418.148 41.3652C416.898 42.1361 415.586 42.5215 414.211 42.5215C413.794 42.5215 413.294 42.4069 412.711 42.1777C412.169 41.7194 411.898 41.2402 411.898 40.7402C411.898 39.8861 412.148 38.8444 412.648 37.6152C414.919 32.0736 416.919 26.8861 418.648 22.0527C418.961 21.1361 419.117 20.3757 419.117 19.7715C419.117 19.3965 419.023 19.084 418.836 18.834C418.69 18.6465 418.523 18.5527 418.336 18.5527C417.878 18.5527 417.367 18.9173 416.805 19.6465C415.763 21.0007 414.805 22.7298 413.93 24.834ZM453.242 23.8027C453.242 28.6361 451.773 32.9277 448.836 36.6777C445.919 40.4277 442.888 42.3027 439.742 42.3027C438.055 42.3027 436.69 41.6777 435.648 40.4277C434.607 39.1569 434.086 37.1777 434.086 34.4902C434.086 32.6777 434.492 30.5944 435.305 28.2402C436.117 25.8652 437.169 23.8965 438.461 22.334C438.753 21.9798 439.086 21.5527 439.461 21.0527C440.565 19.6152 441.878 18.4069 443.398 17.4277C444.919 16.4486 446.471 15.959 448.055 15.959C449.513 15.959 450.742 16.5736 451.742 17.8027C452.742 19.0111 453.242 21.0111 453.242 23.8027ZM436.992 38.0215C436.992 38.9798 437.211 39.6882 437.648 40.1465C438.107 40.6048 438.836 40.834 439.836 40.834C440.815 40.834 441.805 40.3548 442.805 39.3965C444.596 37.6465 446.388 34.6361 448.18 30.3652C449.971 26.0944 450.867 22.7298 450.867 20.2715C450.867 19.3965 450.648 18.709 450.211 18.209C449.773 17.6882 449.273 17.4277 448.711 17.4277C447.482 17.4277 446.201 18.1465 444.867 19.584C442.596 22.0007 440.638 25.334 438.992 29.584C437.659 33.0423 436.992 35.8548 436.992 38.0215ZM463.461 18.584C462.773 19.084 462.128 19.6673 461.523 20.334C461.357 20.5215 460.409 21.7715 458.68 24.084L457.398 24.1465C457.919 23.0215 458.888 21.6361 460.305 19.9902C461.721 18.3444 462.951 17.2194 463.992 16.6152C464.659 16.2194 465.409 15.9902 466.242 15.9277C466.763 16.0736 467.117 16.2715 467.305 16.5215C467.513 16.7715 467.617 17.0736 467.617 17.4277C467.617 17.7819 467.576 18.1361 467.492 18.4902C467.263 19.6361 466.805 21.2715 466.117 23.3965C465.43 25.5215 464.815 27.1986 464.273 28.4277L462.648 32.2715L462.523 32.834C462.815 32.334 463.409 31.2194 464.305 29.4902C467.701 23.0527 470.148 19.0736 471.648 17.5527C472.753 16.4694 474.044 15.9277 475.523 15.9277C476.357 15.9277 477.138 16.2611 477.867 16.9277C478.409 17.4486 478.68 18.1361 478.68 18.9902C478.68 19.9486 478.378 20.7715 477.773 21.459C477.357 21.9382 476.763 22.1777 475.992 22.1777C475.346 22.1777 474.888 22.0319 474.617 21.7402C474.367 21.4277 474.211 20.6673 474.148 19.459C473.878 18.9173 473.576 18.6465 473.242 18.6465C472.909 18.6465 472.555 18.8236 472.18 19.1777C471.18 20.0736 469.294 22.9486 466.523 27.8027C463.753 32.6361 462.013 36.0007 461.305 37.8965C460.617 39.7715 460.055 41.0632 459.617 41.7715C459.388 42.1257 458.961 42.3027 458.336 42.3027C457.773 42.3027 457.367 42.1986 457.117 41.9902C456.888 41.8027 456.773 41.5527 456.773 41.2402C456.773 40.8236 456.878 40.3444 457.086 39.8027C457.982 37.6152 459.419 33.584 461.398 27.709L463.586 21.0215C463.732 20.4173 463.836 20.0319 463.898 19.8652L464.086 19.3965C464.086 19.1882 463.878 18.9173 463.461 18.584ZM485.867 4.58398C485.867 3.85482 486.148 3.20898 486.711 2.64648C487.273 2.06315 487.93 1.77148 488.68 1.77148C489.388 1.77148 489.992 2.02148 490.492 2.52148C490.992 3.02148 491.242 3.5944 491.242 4.24023C491.242 5.07357 490.93 5.83398 490.305 6.52148C489.93 6.91732 489.242 7.11523 488.242 7.11523C487.576 7.11523 487.013 6.88607 486.555 6.42773C486.096 5.9694 485.867 5.35482 485.867 4.58398ZM484.648 18.6152C484.211 18.6152 483.888 18.6465 483.68 18.709C482.701 19.2298 481.982 19.6777 481.523 20.0527C480.586 20.7819 479.701 21.6361 478.867 22.6152L477.055 23.0215C478.659 20.8548 480.44 19.1569 482.398 17.9277C484.357 16.6986 485.898 16.084 487.023 16.084C487.503 16.084 487.857 16.209 488.086 16.459C488.336 16.6882 488.461 16.9902 488.461 17.3652C488.461 18.3861 487.878 20.084 486.711 22.459C486.565 22.7507 486.221 23.5007 485.68 24.709C484.43 27.4382 483.096 30.0215 481.68 32.459C481.221 33.2507 480.721 34.1882 480.18 35.2715C479.888 35.8548 479.628 36.3444 479.398 36.7402C478.753 37.8236 478.43 38.6257 478.43 39.1465C478.43 39.2923 478.482 39.4277 478.586 39.5527C478.711 39.6569 478.857 39.709 479.023 39.709C479.253 39.709 479.586 39.584 480.023 39.334C480.753 38.9173 481.617 38.2298 482.617 37.2715C483.638 36.2923 484.534 35.1777 485.305 33.9277H486.586C485.982 35.0527 485.086 36.3444 483.898 37.8027C482.732 39.2611 481.398 40.4277 479.898 41.3027C478.773 41.9694 477.773 42.3027 476.898 42.3027C476.232 42.3027 475.742 42.1569 475.43 41.8652C475.117 41.5944 474.961 41.2298 474.961 40.7715C474.961 39.1673 476.138 36.1465 478.492 31.709L483.523 22.209C484.044 21.2298 484.409 20.459 484.617 19.8965C484.742 19.5423 484.805 19.3027 484.805 19.1777C484.805 19.0736 484.753 18.8861 484.648 18.6152ZM498.805 18.834H496.992L496.117 18.8027L494.086 18.8652H493.68C493.721 18.4069 493.898 17.8757 494.211 17.2715C497.211 17.1882 498.992 17.1152 499.555 17.0527C499.971 16.0527 500.326 15.2507 500.617 14.6465C501.242 13.2923 501.888 11.6882 502.555 9.83398C502.763 9.22982 502.992 8.67773 503.242 8.17773C503.701 8.11523 504.232 8.08398 504.836 8.08398C505.336 8.08398 505.815 8.13607 506.273 8.24023L506.336 8.74023C506.336 9.13607 505.398 11.4277 503.523 15.6152C503.315 16.0944 503.138 16.584 502.992 17.084C503.596 17.1882 503.951 17.2402 504.055 17.2402H504.711L505.773 17.2715L508.773 17.209C508.773 17.8965 508.648 18.459 508.398 18.8965C507.565 18.9798 506.471 19.0215 505.117 19.0215C504.451 19.0215 504.023 19.0319 503.836 19.0527C502.773 19.1569 502.159 19.2611 501.992 19.3652L496.805 31.4902C496.263 32.6777 495.305 34.9382 493.93 38.2715C493.93 38.3965 493.992 38.5423 494.117 38.709L494.523 38.7715C495.086 38.7715 495.784 38.4173 496.617 37.709C498.471 36.1465 500.221 34.3236 501.867 32.2402C502.221 32.4277 502.534 32.6465 502.805 32.8965C500.701 35.4173 499.221 37.084 498.367 37.8965C497.513 38.6882 496.43 39.5215 495.117 40.3965C493.805 41.2507 493.013 41.7298 492.742 41.834C492.263 42.0215 491.773 42.1152 491.273 42.1152C490.753 42.1152 490.367 42.0007 490.117 41.7715C489.867 41.5632 489.742 41.2507 489.742 40.834C489.742 40.2298 490.253 38.8236 491.273 36.6152L492.617 33.709L497.336 22.6152C497.94 21.1777 498.43 19.9173 498.805 18.834ZM510.836 30.2715C510.148 32.1673 509.805 34.084 509.805 36.0215C509.805 37.4382 510.138 38.5736 510.805 39.4277C511.242 40.0111 511.836 40.3027 512.586 40.3027C513.044 40.3027 513.451 40.209 513.805 40.0215C514.576 39.6257 515.232 39.1569 515.773 38.6152C516.336 38.0736 516.919 37.3652 517.523 36.4902C518.128 35.6152 518.617 34.6361 518.992 33.5527H519.43C519.68 33.5527 519.961 33.5736 520.273 33.6152C519.648 35.9486 518.107 38.2402 515.648 40.4902C514.107 41.8861 512.513 42.584 510.867 42.584C509.763 42.584 508.826 42.084 508.055 41.084C507.034 39.7715 506.523 37.959 506.523 35.6465C506.523 34.6465 506.669 33.4486 506.961 32.0527C507.273 30.6569 507.628 29.4902 508.023 28.5527C508.648 27.0944 509.346 25.7194 510.117 24.4277L512.523 20.9277C514.086 19.2611 514.961 18.3444 515.148 18.1777C515.878 17.5527 516.607 17.084 517.336 16.7715C518.086 16.4382 518.857 16.2715 519.648 16.2715C520.669 16.2715 521.565 16.6986 522.336 17.5527C523.107 18.4069 523.492 19.4798 523.492 20.7715C523.492 21.9173 523.19 23.0527 522.586 24.1777C522.003 25.2819 521.367 26.0944 520.68 26.6152L518.086 28.3027C517.794 28.4486 517.013 28.7194 515.742 29.1152C514.471 29.4902 512.836 29.8757 510.836 30.2715ZM511.367 28.709C512.034 28.7298 513.076 28.4694 514.492 27.9277C515.263 27.6361 516.284 27.0632 517.555 26.209C518.055 25.8757 518.628 25.3132 519.273 24.5215C519.919 23.709 520.409 22.8757 520.742 22.0215C521.076 21.1465 521.242 20.2507 521.242 19.334C521.242 18.7298 521.065 18.2298 520.711 17.834C520.357 17.4382 519.961 17.2402 519.523 17.2402C518.961 17.2402 518.294 17.5632 517.523 18.209C516.232 19.334 514.878 21.2194 513.461 23.8652C512.398 25.8861 511.701 27.5007 511.367 28.709ZM17.1894 122.113C14.1281 122.113 11.1974 121.683 8.39744 120.825C5.59744 119.929 3.3761 118.79 1.73344 117.409L4.25344 111.753C5.82144 112.985 7.76277 114.011 10.0774 114.833C12.3921 115.654 14.7628 116.065 17.1894 116.065C19.2428 116.065 20.9041 115.841 22.1734 115.393C23.4428 114.945 24.3761 114.347 24.9734 113.601C25.5708 112.817 25.8694 111.939 25.8694 110.969C25.8694 109.774 25.4401 108.822 24.5814 108.113C23.7228 107.366 22.6028 106.787 21.2214 106.377C19.8774 105.929 18.3654 105.518 16.6854 105.145C15.0428 104.771 13.3814 104.342 11.7014 103.857C10.0588 103.334 8.54677 102.681 7.16544 101.897C5.82144 101.075 4.7201 99.9927 3.86144 98.6487C3.00277 97.3047 2.57344 95.5874 2.57344 93.4967C2.57344 91.3687 3.13344 89.4274 4.25344 87.6727C5.41077 85.8807 7.14677 84.4621 9.46144 83.4167C11.8134 82.3341 14.7814 81.7927 18.3654 81.7927C20.7174 81.7927 23.0508 82.0914 25.3654 82.6887C27.6801 83.2861 29.6961 84.1447 31.4134 85.2647L29.1174 90.9207C27.3628 89.8754 25.5521 89.1101 23.6854 88.6247C21.8188 88.1021 20.0268 87.8407 18.3094 87.8407C16.2934 87.8407 14.6508 88.0834 13.3814 88.5687C12.1494 89.0541 11.2348 89.6887 10.6374 90.4727C10.0774 91.2567 9.79744 92.1527 9.79744 93.1607C9.79744 94.3554 10.2081 95.3261 11.0294 96.0727C11.8881 96.7821 12.9894 97.3421 14.3334 97.7527C15.7148 98.1634 17.2454 98.5741 18.9254 98.9847C20.6054 99.3581 22.2668 99.7874 23.9094 100.273C25.5894 100.758 27.1014 101.393 28.4454 102.177C29.8268 102.961 30.9281 104.025 31.7494 105.369C32.6081 106.713 33.0374 108.411 33.0374 110.465C33.0374 112.555 32.4588 114.497 31.3014 116.289C30.1814 118.043 28.4454 119.462 26.0934 120.545C23.7414 121.59 20.7734 122.113 17.1894 122.113ZM45.2962 114.889L45.4642 106.097L61.0882 91.6487H69.4882L56.2162 104.977L52.5202 108.057L45.2962 114.889ZM39.5842 121.553V80.0007H46.5842V121.553H39.5842ZM62.1522 121.553L51.2322 108.057L55.6562 102.457L70.6642 121.553H62.1522ZM75.1858 121.553V91.6487H82.1858V121.553H75.1858ZM78.7138 86.7207C77.4071 86.7207 76.3244 86.3101 75.4658 85.4887C74.6444 84.6674 74.2338 83.6781 74.2338 82.5207C74.2338 81.3261 74.6444 80.3367 75.4658 79.5527C76.3244 78.7314 77.4071 78.3207 78.7138 78.3207C80.0204 78.3207 81.0844 78.7127 81.9058 79.4967C82.7644 80.2434 83.1938 81.1954 83.1938 82.3527C83.1938 83.5847 82.7831 84.6301 81.9618 85.4887C81.1404 86.3101 80.0578 86.7207 78.7138 86.7207ZM108.341 91.3127C110.731 91.3127 112.859 91.7794 114.725 92.7127C116.629 93.6461 118.123 95.0834 119.205 97.0247C120.288 98.9287 120.829 101.393 120.829 104.417V121.553H113.829V105.313C113.829 102.662 113.195 100.683 111.925 99.3767C110.693 98.0701 108.957 97.4167 106.717 97.4167C105.075 97.4167 103.619 97.7527 102.349 98.4247C101.08 99.0967 100.091 100.105 99.3813 101.449C98.7093 102.755 98.3733 104.417 98.3733 106.433V121.553H91.3733V91.6487H98.0373V99.7127L96.8613 97.2487C97.9066 95.3447 99.4186 93.8887 101.397 92.8807C103.413 91.8354 105.728 91.3127 108.341 91.3127ZM143.484 121.945C140.348 121.945 137.548 121.291 135.084 119.985C132.657 118.641 130.753 116.811 129.372 114.497C127.991 112.182 127.3 109.55 127.3 106.601C127.3 103.614 127.991 100.982 129.372 98.7047C130.753 96.3901 132.657 94.5794 135.084 93.2727C137.548 91.9661 140.348 91.3127 143.484 91.3127C146.396 91.3127 148.953 91.9101 151.156 93.1047C153.396 94.2621 155.095 95.9794 156.252 98.2567L150.876 101.393C149.98 99.9741 148.879 98.9287 147.572 98.2567C146.303 97.5847 144.921 97.2487 143.428 97.2487C141.711 97.2487 140.161 97.6221 138.78 98.3687C137.399 99.1154 136.316 100.198 135.532 101.617C134.748 102.998 134.356 104.659 134.356 106.601C134.356 108.542 134.748 110.222 135.532 111.641C136.316 113.022 137.399 114.086 138.78 114.833C140.161 115.579 141.711 115.953 143.428 115.953C144.921 115.953 146.303 115.617 147.572 114.945C148.879 114.273 149.98 113.227 150.876 111.809L156.252 114.945C155.095 117.185 153.396 118.921 151.156 120.153C148.953 121.347 146.396 121.945 143.484 121.945ZM180.727 121.553V115.505L180.335 114.217V103.633C180.335 101.579 179.719 99.9927 178.487 98.8727C177.255 97.7154 175.388 97.1367 172.887 97.1367C171.207 97.1367 169.546 97.3981 167.903 97.9207C166.298 98.4434 164.935 99.1714 163.815 100.105L161.071 95.0087C162.676 93.7767 164.58 92.8621 166.783 92.2647C169.023 91.6301 171.338 91.3127 173.727 91.3127C178.058 91.3127 181.399 92.3581 183.751 94.4487C186.14 96.5021 187.335 99.6941 187.335 104.025V121.553H180.727ZM171.319 121.945C169.079 121.945 167.119 121.571 165.439 120.825C163.759 120.041 162.452 118.977 161.519 117.633C160.623 116.251 160.175 114.702 160.175 112.985C160.175 111.305 160.567 109.793 161.351 108.449C162.172 107.105 163.498 106.041 165.327 105.257C167.156 104.473 169.583 104.081 172.607 104.081H181.287V108.729H173.111C170.722 108.729 169.116 109.121 168.295 109.905C167.474 110.651 167.063 111.585 167.063 112.705C167.063 113.974 167.567 114.982 168.575 115.729C169.583 116.475 170.983 116.849 172.775 116.849C174.492 116.849 176.023 116.457 177.367 115.673C178.748 114.889 179.738 113.731 180.335 112.201L181.511 116.401C180.839 118.155 179.626 119.518 177.871 120.489C176.154 121.459 173.97 121.945 171.319 121.945ZM196.319 121.553V91.6487H202.983V99.8807L202.199 97.4727C203.095 95.4567 204.495 93.9261 206.399 92.8807C208.34 91.8354 210.748 91.3127 213.623 91.3127V97.9767C213.324 97.9021 213.044 97.8647 212.783 97.8647C212.521 97.8274 212.26 97.8087 211.999 97.8087C209.348 97.8087 207.239 98.5927 205.671 100.161C204.103 101.691 203.319 103.987 203.319 107.049V121.553H196.319ZM233.343 121.945C230.021 121.945 227.109 121.291 224.607 119.985C222.143 118.641 220.221 116.811 218.839 114.497C217.495 112.182 216.823 109.55 216.823 106.601C216.823 103.614 217.477 100.982 218.783 98.7047C220.127 96.3901 221.957 94.5794 224.271 93.2727C226.623 91.9661 229.293 91.3127 232.279 91.3127C235.191 91.3127 237.786 91.9474 240.063 93.2167C242.341 94.4861 244.133 96.2781 245.439 98.5927C246.746 100.907 247.399 103.633 247.399 106.769C247.399 107.067 247.381 107.403 247.343 107.777C247.343 108.15 247.325 108.505 247.287 108.841H222.367V104.193H243.591L240.847 105.649C240.885 103.931 240.53 102.419 239.783 101.113C239.037 99.8061 238.01 98.7794 236.703 98.0327C235.434 97.2861 233.959 96.9127 232.279 96.9127C230.562 96.9127 229.05 97.2861 227.743 98.0327C226.474 98.7794 225.466 99.8247 224.719 101.169C224.01 102.475 223.655 104.025 223.655 105.817V106.937C223.655 108.729 224.066 110.315 224.887 111.697C225.709 113.078 226.866 114.142 228.359 114.889C229.853 115.635 231.57 116.009 233.511 116.009C235.191 116.009 236.703 115.747 238.047 115.225C239.391 114.702 240.586 113.881 241.631 112.761L245.383 117.073C244.039 118.641 242.341 119.854 240.287 120.713C238.271 121.534 235.957 121.945 233.343 121.945ZM270.272 121.553V82.3527H277.552V121.553H270.272ZM304.451 91.3127C306.84 91.3127 308.968 91.7794 310.835 92.7127C312.739 93.6461 314.232 95.0834 315.315 97.0247C316.397 98.9287 316.939 101.393 316.939 104.417V121.553H309.939V105.313C309.939 102.662 309.304 100.683 308.035 99.3767C306.803 98.0701 305.067 97.4167 302.827 97.4167C301.184 97.4167 299.728 97.7527 298.459 98.4247C297.189 99.0967 296.2 100.105 295.491 101.449C294.819 102.755 294.483 104.417 294.483 106.433V121.553H287.483V91.6487H294.147V99.7127L292.971 97.2487C294.016 95.3447 295.528 93.8887 297.507 92.8807C299.523 91.8354 301.837 91.3127 304.451 91.3127ZM326.771 121.553V89.9687C326.771 86.8327 327.685 84.3314 329.515 82.4647C331.381 80.5607 334.032 79.6087 337.467 79.6087C338.699 79.6087 339.856 79.7394 340.939 80.0007C342.059 80.2621 342.992 80.6727 343.739 81.2327L341.835 86.4967C341.312 86.0861 340.715 85.7874 340.043 85.6007C339.371 85.3767 338.68 85.2647 337.971 85.2647C336.515 85.2647 335.413 85.6754 334.667 86.4967C333.92 87.2807 333.547 88.4754 333.547 90.0807V93.4407L333.771 96.5767V121.553H326.771ZM321.843 97.4727V91.8727H341.779V97.4727H321.843ZM346.707 121.553V80.0007H353.707V121.553H346.707ZM375.553 121.945C373.014 121.945 370.774 121.478 368.833 120.545C366.891 119.574 365.379 118.118 364.297 116.177C363.214 114.198 362.673 111.715 362.673 108.729V91.6487H369.673V107.777C369.673 110.465 370.27 112.481 371.465 113.825C372.697 115.131 374.433 115.785 376.673 115.785C378.315 115.785 379.734 115.449 380.929 114.777C382.161 114.105 383.113 113.097 383.785 111.753C384.494 110.409 384.849 108.747 384.849 106.769V91.6487H391.849V121.553H385.185V113.489L386.361 115.953C385.353 117.894 383.878 119.387 381.937 120.433C379.995 121.441 377.867 121.945 375.553 121.945ZM415.07 121.945C411.747 121.945 408.835 121.291 406.334 119.985C403.87 118.641 401.947 116.811 400.566 114.497C399.222 112.182 398.55 109.55 398.55 106.601C398.55 103.614 399.203 100.982 400.51 98.7047C401.854 96.3901 403.683 94.5794 405.998 93.2727C408.35 91.9661 411.019 91.3127 414.006 91.3127C416.918 91.3127 419.513 91.9474 421.79 93.2167C424.067 94.4861 425.859 96.2781 427.166 98.5927C428.473 100.907 429.126 103.633 429.126 106.769C429.126 107.067 429.107 107.403 429.07 107.777C429.07 108.15 429.051 108.505 429.014 108.841H404.094V104.193H425.318L422.574 105.649C422.611 103.931 422.257 102.419 421.51 101.113C420.763 99.8061 419.737 98.7794 418.43 98.0327C417.161 97.2861 415.686 96.9127 414.006 96.9127C412.289 96.9127 410.777 97.2861 409.47 98.0327C408.201 98.7794 407.193 99.8247 406.446 101.169C405.737 102.475 405.382 104.025 405.382 105.817V106.937C405.382 108.729 405.793 110.315 406.614 111.697C407.435 113.078 408.593 114.142 410.086 114.889C411.579 115.635 413.297 116.009 415.238 116.009C416.918 116.009 418.43 115.747 419.774 115.225C421.118 114.702 422.313 113.881 423.358 112.761L427.11 117.073C425.766 118.641 424.067 119.854 422.014 120.713C419.998 121.534 417.683 121.945 415.07 121.945ZM452.818 91.3127C455.207 91.3127 457.335 91.7794 459.202 92.7127C461.106 93.6461 462.599 95.0834 463.682 97.0247C464.764 98.9287 465.306 101.393 465.306 104.417V121.553H458.306V105.313C458.306 102.662 457.671 100.683 456.402 99.3767C455.17 98.0701 453.434 97.4167 451.194 97.4167C449.551 97.4167 448.095 97.7527 446.826 98.4247C445.556 99.0967 444.567 100.105 443.858 101.449C443.186 102.755 442.85 104.417 442.85 106.433V121.553H435.85V91.6487H442.514V99.7127L441.338 97.2487C442.383 95.3447 443.895 93.8887 445.874 92.8807C447.89 91.8354 450.204 91.3127 452.818 91.3127ZM487.96 121.945C484.824 121.945 482.024 121.291 479.56 119.985C477.134 118.641 475.23 116.811 473.848 114.497C472.467 112.182 471.776 109.55 471.776 106.601C471.776 103.614 472.467 100.982 473.848 98.7047C475.23 96.3901 477.134 94.5794 479.56 93.2727C482.024 91.9661 484.824 91.3127 487.96 91.3127C490.872 91.3127 493.43 91.9101 495.632 93.1047C497.872 94.2621 499.571 95.9794 500.728 98.2567L495.352 101.393C494.456 99.9741 493.355 98.9287 492.048 98.2567C490.779 97.5847 489.398 97.2487 487.904 97.2487C486.187 97.2487 484.638 97.6221 483.256 98.3687C481.875 99.1154 480.792 100.198 480.008 101.617C479.224 102.998 478.832 104.659 478.832 106.601C478.832 108.542 479.224 110.222 480.008 111.641C480.792 113.022 481.875 114.086 483.256 114.833C484.638 115.579 486.187 115.953 487.904 115.953C489.398 115.953 490.779 115.617 492.048 114.945C493.355 114.273 494.456 113.227 495.352 111.809L500.728 114.945C499.571 117.185 497.872 118.921 495.632 120.153C493.43 121.347 490.872 121.945 487.96 121.945ZM520.398 121.945C517.075 121.945 514.163 121.291 511.662 119.985C509.198 118.641 507.275 116.811 505.894 114.497C504.55 112.182 503.878 109.55 503.878 106.601C503.878 103.614 504.531 100.982 505.838 98.7047C507.182 96.3901 509.011 94.5794 511.326 93.2727C513.678 91.9661 516.347 91.3127 519.334 91.3127C522.246 91.3127 524.841 91.9474 527.118 93.2167C529.395 94.4861 531.187 96.2781 532.494 98.5927C533.801 100.907 534.454 103.633 534.454 106.769C534.454 107.067 534.435 107.403 534.398 107.777C534.398 108.15 534.379 108.505 534.342 108.841H509.422V104.193H530.646L527.902 105.649C527.939 103.931 527.585 102.419 526.838 101.113C526.091 99.8061 525.065 98.7794 523.758 98.0327C522.489 97.2861 521.014 96.9127 519.334 96.9127C517.617 96.9127 516.105 97.2861 514.798 98.0327C513.529 98.7794 512.521 99.8247 511.774 101.169C511.065 102.475 510.71 104.025 510.71 105.817V106.937C510.71 108.729 511.121 110.315 511.942 111.697C512.763 113.078 513.921 114.142 515.414 114.889C516.907 115.635 518.625 116.009 520.566 116.009C522.246 116.009 523.758 115.747 525.102 115.225C526.446 114.702 527.641 113.881 528.686 112.761L532.438 117.073C531.094 118.641 529.395 119.854 527.342 120.713C525.326 121.534 523.011 121.945 520.398 121.945ZM541.178 121.553V91.6487H547.842V99.8807L547.058 97.4727C547.954 95.4567 549.354 93.9261 551.258 92.8807C553.199 91.8354 555.607 91.3127 558.482 91.3127V97.9767C558.183 97.9021 557.903 97.8647 557.642 97.8647C557.381 97.8274 557.119 97.8087 556.858 97.8087C554.207 97.8087 552.098 98.5927 550.53 100.161C548.962 101.691 548.178 103.987 548.178 107.049V121.553H541.178Z" fill="black"/>
</svg>
