<svg width="199" height="40" viewBox="0 0 199 40" fill="none" xmlns="http://www.w3.org/2000/svg">
<path d="M14.2747 14.8398V3.03984H9.63469V0.839843H21.5147V3.03984H16.8747V14.8398H14.2747ZM29.2395 14.8398V12.6798L29.0995 12.2198V8.43984C29.0995 7.70651 28.8795 7.13984 28.4395 6.73984C27.9995 6.32651 27.3329 6.11984 26.4395 6.11984C25.8395 6.11984 25.2462 6.21318 24.6595 6.39984C24.0862 6.58651 23.5995 6.84651 23.1995 7.17984L22.2195 5.35984C22.7929 4.91984 23.4729 4.59318 24.2595 4.37984C25.0595 4.15318 25.8862 4.03984 26.7395 4.03984C28.2862 4.03984 29.4795 4.41318 30.3195 5.15984C31.1729 5.89318 31.5995 7.03318 31.5995 8.57984V14.8398H29.2395ZM25.8795 14.9798C25.0795 14.9798 24.3795 14.8465 23.7795 14.5798C23.1795 14.2998 22.7129 13.9198 22.3795 13.4398C22.0595 12.9465 21.8995 12.3932 21.8995 11.7798C21.8995 11.1798 22.0395 10.6398 22.3195 10.1598C22.6129 9.67984 23.0862 9.29984 23.7395 9.01984C24.3929 8.73984 25.2595 8.59984 26.3395 8.59984H29.4395V10.2598H26.5195C25.6662 10.2598 25.0929 10.3998 24.7995 10.6798C24.5062 10.9465 24.3595 11.2798 24.3595 11.6798C24.3595 12.1332 24.5395 12.4932 24.8995 12.7598C25.2595 13.0265 25.7595 13.1598 26.3995 13.1598C27.0129 13.1598 27.5595 13.0198 28.0395 12.7398C28.5329 12.4598 28.8862 12.0465 29.0995 11.4998L29.5195 12.9998C29.2795 13.6265 28.8462 14.1132 28.2195 14.4598C27.6062 14.8065 26.8262 14.9798 25.8795 14.9798ZM34.808 14.8398V-0.000157118H37.308V14.8398H34.808ZM42.6292 12.4598L42.6892 9.31984L48.2692 4.15984H51.2692L46.5292 8.91984L45.2092 10.0198L42.6292 12.4598ZM40.5892 14.8398V-0.000157118H43.0892V14.8398H40.5892ZM48.6492 14.8398L44.7492 10.0198L46.3292 8.01984L51.6892 14.8398H48.6492ZM62.8514 14.9798C61.6781 14.9798 60.7714 14.6798 60.1314 14.0798C59.4914 13.4665 59.1714 12.5665 59.1714 11.3798V1.79984H61.6714V11.3198C61.6714 11.8265 61.7981 12.2198 62.0514 12.4998C62.3181 12.7798 62.6847 12.9198 63.1514 12.9198C63.7114 12.9198 64.1781 12.7732 64.5514 12.4798L65.2514 14.2598C64.9581 14.4998 64.5981 14.6798 64.1714 14.7998C63.7447 14.9198 63.3047 14.9798 62.8514 14.9798ZM57.4114 6.23984V4.23984H64.5314V6.23984H57.4114ZM71.7564 14.9798C70.6631 14.9798 69.6897 14.7465 68.8364 14.2798C67.9831 13.7998 67.3097 13.1465 66.8164 12.3198C66.3231 11.4932 66.0764 10.5532 66.0764 9.49984C66.0764 8.43318 66.3231 7.49318 66.8164 6.67984C67.3097 5.85318 67.9831 5.20651 68.8364 4.73984C69.6897 4.27318 70.6631 4.03984 71.7564 4.03984C72.8631 4.03984 73.8431 4.27318 74.6964 4.73984C75.5631 5.20651 76.2364 5.84651 76.7164 6.65984C77.2097 7.47318 77.4564 8.41984 77.4564 9.49984C77.4564 10.5532 77.2097 11.4932 76.7164 12.3198C76.2364 13.1465 75.5631 13.7998 74.6964 14.2798C73.8431 14.7465 72.8631 14.9798 71.7564 14.9798ZM71.7564 12.8398C72.3697 12.8398 72.9164 12.7065 73.3964 12.4398C73.8764 12.1732 74.2497 11.7865 74.5164 11.2798C74.7964 10.7732 74.9364 10.1798 74.9364 9.49984C74.9364 8.80651 74.7964 8.21318 74.5164 7.71984C74.2497 7.21318 73.8764 6.82651 73.3964 6.55984C72.9164 6.29318 72.3764 6.15984 71.7764 6.15984C71.1631 6.15984 70.6164 6.29318 70.1364 6.55984C69.6697 6.82651 69.2964 7.21318 69.0164 7.71984C68.7364 8.21318 68.5964 8.80651 68.5964 9.49984C68.5964 10.1798 68.7364 10.7732 69.0164 11.2798C69.2964 11.7865 69.6697 12.1732 70.1364 12.4398C70.6164 12.7065 71.1564 12.8398 71.7564 12.8398ZM86.2544 18.8598C85.7344 18.8598 85.2144 18.7732 84.6944 18.5998C84.1744 18.4265 83.741 18.1865 83.3944 17.8798L84.3944 16.0398C84.6477 16.2665 84.9344 16.4465 85.2544 16.5798C85.5744 16.7132 85.901 16.7798 86.2344 16.7798C86.6877 16.7798 87.0544 16.6665 87.3344 16.4398C87.6144 16.2132 87.8744 15.8332 88.1144 15.2998L88.7344 13.8998L88.9344 13.5998L92.9744 4.15984H95.3744L90.3744 15.6998C90.041 16.4998 89.6677 17.1332 89.2544 17.5998C88.8544 18.0665 88.401 18.3932 87.8944 18.5798C87.401 18.7665 86.8544 18.8598 86.2544 18.8598ZM88.4544 15.2198L83.6344 4.15984H86.2344L90.1544 13.3798L88.4544 15.2198ZM101.444 14.9798C100.351 14.9798 99.3772 14.7465 98.5239 14.2798C97.6706 13.7998 96.9972 13.1465 96.5039 12.3198C96.0106 11.4932 95.7639 10.5532 95.7639 9.49984C95.7639 8.43318 96.0106 7.49318 96.5039 6.67984C96.9972 5.85318 97.6706 5.20651 98.5239 4.73984C99.3772 4.27318 100.351 4.03984 101.444 4.03984C102.551 4.03984 103.531 4.27318 104.384 4.73984C105.251 5.20651 105.924 5.84651 106.404 6.65984C106.897 7.47318 107.144 8.41984 107.144 9.49984C107.144 10.5532 106.897 11.4932 106.404 12.3198C105.924 13.1465 105.251 13.7998 104.384 14.2798C103.531 14.7465 102.551 14.9798 101.444 14.9798ZM101.444 12.8398C102.057 12.8398 102.604 12.7065 103.084 12.4398C103.564 12.1732 103.937 11.7865 104.204 11.2798C104.484 10.7732 104.624 10.1798 104.624 9.49984C104.624 8.80651 104.484 8.21318 104.204 7.71984C103.937 7.21318 103.564 6.82651 103.084 6.55984C102.604 6.29318 102.064 6.15984 101.464 6.15984C100.851 6.15984 100.304 6.29318 99.8239 6.55984C99.3572 6.82651 98.9839 7.21318 98.7039 7.71984C98.4239 8.21318 98.2839 8.80651 98.2839 9.49984C98.2839 10.1798 98.4239 10.7732 98.7039 11.2798C98.9839 11.7865 99.3572 12.1732 99.8239 12.4398C100.304 12.7065 100.844 12.8398 101.444 12.8398ZM114.055 14.9798C113.148 14.9798 112.348 14.8132 111.655 14.4798C110.961 14.1332 110.421 13.6132 110.035 12.9198C109.648 12.2132 109.455 11.3265 109.455 10.2598V4.15984H111.955V9.91984C111.955 10.8798 112.168 11.5998 112.595 12.0798C113.035 12.5465 113.655 12.7798 114.455 12.7798C115.041 12.7798 115.548 12.6598 115.975 12.4198C116.415 12.1798 116.755 11.8198 116.995 11.3398C117.248 10.8598 117.375 10.2665 117.375 9.55984V4.15984H119.875V14.8398H117.495V11.9598L117.915 12.8398C117.555 13.5332 117.028 14.0665 116.335 14.4398C115.641 14.7998 114.881 14.9798 114.055 14.9798ZM123.148 14.8398V4.15984H125.528V7.09984L125.248 6.23984C125.568 5.51984 126.068 4.97318 126.748 4.59984C127.441 4.22651 128.301 4.03984 129.328 4.03984V6.41984C129.221 6.39318 129.121 6.37984 129.028 6.37984C128.934 6.36651 128.841 6.35984 128.748 6.35984C127.801 6.35984 127.048 6.63984 126.488 7.19984C125.928 7.74651 125.648 8.56651 125.648 9.65984V14.8398H123.148ZM137.572 18.5898C137.702 18.5312 137.8 18.502 137.865 18.502C138.087 18.502 138.282 18.6517 138.451 18.9512C138.523 19.0814 138.594 19.1888 138.666 19.2734C138.829 19.4362 139.005 19.5176 139.193 19.5176C139.467 19.5176 139.805 19.3613 140.209 19.0488C140.548 18.6908 140.863 18.1764 141.156 17.5059C141.456 16.8418 141.719 16.1257 141.947 15.3574L142.904 12.0664C142.963 11.8646 143.021 11.6432 143.08 11.4023L143.725 9.09766C143.9 8.51172 144.034 8.09831 144.125 7.85742C144.008 7.85091 143.92 7.84766 143.861 7.84766C143.816 7.84766 143.712 7.85417 143.549 7.86719C143.386 7.8737 143.002 7.87695 142.396 7.87695C142.416 7.69466 142.436 7.5319 142.455 7.38867C142.592 7.37565 142.738 7.36589 142.895 7.35938L144.311 7.31055C144.597 6.35352 144.923 5.45508 145.287 4.61523C145.515 4.11393 145.84 3.60938 146.264 3.10156C146.589 2.71745 146.977 2.4082 147.426 2.17383C147.641 2.05664 147.917 1.99805 148.256 1.99805C148.673 1.99805 149.008 2.11198 149.262 2.33984C149.516 2.5612 149.643 2.79232 149.643 3.0332C149.643 3.18945 149.59 3.32617 149.486 3.44336C149.382 3.55404 149.265 3.60938 149.135 3.60938C148.965 3.60938 148.812 3.55404 148.676 3.44336C148.546 3.33268 148.451 3.16016 148.393 2.92578C148.347 2.75651 148.285 2.63607 148.207 2.56445C148.122 2.49935 148.012 2.4668 147.875 2.4668C147.745 2.4668 147.631 2.49284 147.533 2.54492C147.331 2.64909 147.11 2.84766 146.869 3.14062C146.7 3.35547 146.518 3.67122 146.322 4.08789C146.133 4.50456 145.925 5.10026 145.697 5.875C145.476 6.64323 145.352 7.11849 145.326 7.30078L145.59 7.32031L146.508 7.30078C146.547 7.30078 146.648 7.30729 146.811 7.32031C146.817 7.37891 146.82 7.42448 146.82 7.45703C146.82 7.55469 146.801 7.67513 146.762 7.81836L145.15 7.87695L144.828 8.9707L144.008 11.9199C143.962 12.0762 143.923 12.2031 143.891 12.3008C143.773 12.6068 143.702 12.8379 143.676 12.9941L142.953 15.3086C142.634 16.2005 142.315 16.9362 141.996 17.5156C141.684 18.0951 141.293 18.6159 140.824 19.0781C140.479 19.4102 140.115 19.6543 139.73 19.8105C139.483 19.9147 139.161 19.9668 138.764 19.9668C138.217 19.9668 137.839 19.8789 137.631 19.7031C137.416 19.5339 137.309 19.3288 137.309 19.0879C137.309 18.86 137.396 18.694 137.572 18.5898ZM152.748 7.76953C152.813 7.65885 152.855 7.57096 152.875 7.50586C152.953 7.31055 153.031 7.18359 153.109 7.125C153.292 7.10547 153.425 7.0957 153.51 7.0957C153.62 7.0957 153.728 7.11849 153.832 7.16406L153.861 7.28125C153.861 7.32031 153.845 7.37891 153.812 7.45703C153.793 7.49609 153.751 7.61979 153.686 7.82812L153.607 8.02344L152.963 9.77148C152.689 10.5592 152.449 11.1875 152.24 11.6562C152.038 12.125 151.863 12.6035 151.713 13.0918C151.563 13.5736 151.426 13.9186 151.303 14.127L151.264 14.2246C151.264 14.2637 151.299 14.3158 151.371 14.3809C151.664 14.2181 151.911 14.0423 152.113 13.8535C152.634 13.3652 152.943 13.0625 153.041 12.9453C153.113 12.8607 153.181 12.7826 153.246 12.7109C153.324 12.776 153.396 12.8444 153.461 12.916C153.279 13.1699 152.973 13.515 152.543 13.9512C152.113 14.3874 151.726 14.6966 151.381 14.8789C151.114 15.0156 150.863 15.084 150.629 15.084C150.479 15.084 150.365 15.0514 150.287 14.9863C150.215 14.9212 150.18 14.8366 150.18 14.7324C150.18 14.6413 150.212 14.472 150.277 14.2246C150.44 13.7949 150.554 13.5117 150.619 13.375C150.684 13.2383 150.772 13.0267 150.883 12.7402C150.948 12.5645 151.081 12.2585 151.283 11.8223C151.16 11.946 151.007 12.1283 150.824 12.3691C150.297 13.0332 149.691 13.6615 149.008 14.2539C148.852 14.3906 148.474 14.6087 147.875 14.9082C147.654 14.9928 147.393 15.0482 147.094 15.0742C146.84 15.0677 146.671 15.0417 146.586 14.9961C146.43 14.9115 146.303 14.778 146.205 14.5957C146.133 14.459 146.098 14.2474 146.098 13.9609C146.098 13.5443 146.189 13.082 146.371 12.5742C146.684 11.7083 146.999 11.0671 147.318 10.6504C147.865 9.92773 148.406 9.35482 148.939 8.93164C149.48 8.50846 149.975 8.19922 150.424 8.00391C151.016 7.74349 151.531 7.61328 151.967 7.61328C152.11 7.61328 152.247 7.6263 152.377 7.65234C152.507 7.67839 152.631 7.71745 152.748 7.76953ZM148.1 14.1758C148.256 14.1367 148.393 14.0814 148.51 14.0098C148.581 13.9707 148.835 13.7917 149.271 13.4727C150.066 12.6719 150.515 12.2129 150.619 12.0957C150.847 11.8418 151.104 11.4935 151.391 11.0508C151.469 10.9401 151.635 10.6341 151.889 10.1328L152.143 9.45898C152.234 9.06185 152.279 8.83398 152.279 8.77539C152.279 8.5931 152.204 8.42057 152.055 8.25781C151.957 8.16016 151.798 8.11133 151.576 8.11133C151.322 8.11133 151.104 8.15365 150.922 8.23828C150.512 8.43359 150.137 8.68099 149.799 8.98047C149.343 9.39062 148.904 9.91797 148.48 10.5625C148.057 11.2005 147.758 11.7344 147.582 12.1641C147.341 12.7565 147.221 13.1992 147.221 13.4922C147.221 13.7331 147.27 13.9121 147.367 14.0293C147.465 14.1465 147.589 14.2051 147.738 14.2051C147.79 14.2051 147.911 14.1953 148.1 14.1758ZM155.404 9.61523L155.092 9.63477H155.004C155.382 8.62565 155.889 7.80534 156.527 7.17383C156.833 6.86784 157.133 6.71484 157.426 6.71484C157.602 6.71484 157.761 6.79297 157.904 6.94922C158.048 7.09896 158.119 7.30729 158.119 7.57422C158.119 7.86068 158.087 8.15365 158.021 8.45312C157.956 8.74609 157.8 9.21484 157.553 9.85938L156.674 12.0957C156.413 12.7077 156.26 13.082 156.215 13.2188L156.078 13.6094C155.935 13.9674 155.863 14.2116 155.863 14.3418C155.863 14.3809 155.886 14.4655 155.932 14.5957C156.003 14.6283 156.055 14.6445 156.088 14.6445L156.723 14.3418C157.504 13.7363 157.999 13.3197 158.207 13.0918C158.611 12.6751 159.07 12.112 159.584 11.4023C159.831 11.0638 160.027 10.6797 160.17 10.25C160.268 9.95703 160.316 9.66732 160.316 9.38086C160.316 9.04232 160.242 8.47917 160.092 7.69141C160.092 7.38542 160.17 7.13151 160.326 6.92969C160.443 6.77344 160.567 6.69531 160.697 6.69531C160.834 6.69531 160.967 6.77995 161.098 6.94922C161.234 7.11849 161.303 7.36263 161.303 7.68164C161.303 8.51497 161.068 9.42643 160.6 10.416C160.274 11.1126 159.747 11.8939 159.018 12.7598C158.288 13.6257 157.523 14.2995 156.723 14.7812C156.332 15.0221 155.922 15.1426 155.492 15.1426C155.362 15.1426 155.206 15.1068 155.023 15.0352C154.854 14.8919 154.77 14.7422 154.77 14.5859C154.77 14.319 154.848 13.9935 155.004 13.6094C155.714 11.8776 156.339 10.2565 156.879 8.74609C156.977 8.45964 157.025 8.22201 157.025 8.0332C157.025 7.91602 156.996 7.81836 156.938 7.74023C156.892 7.68164 156.84 7.65234 156.781 7.65234C156.638 7.65234 156.479 7.76628 156.303 7.99414C155.977 8.41732 155.678 8.95768 155.404 9.61523ZM167.689 9.29297C167.689 10.8034 167.23 12.1445 166.312 13.3164C165.401 14.4883 164.454 15.0742 163.471 15.0742C162.943 15.0742 162.517 14.8789 162.191 14.4883C161.866 14.0911 161.703 13.4727 161.703 12.6328C161.703 12.0664 161.83 11.4154 162.084 10.6797C162.338 9.9375 162.667 9.32227 163.07 8.83398C163.161 8.72331 163.266 8.58984 163.383 8.43359C163.728 7.98438 164.138 7.60677 164.613 7.30078C165.089 6.99479 165.574 6.8418 166.068 6.8418C166.524 6.8418 166.908 7.03385 167.221 7.41797C167.533 7.79557 167.689 8.42057 167.689 9.29297ZM162.611 13.7363C162.611 14.0358 162.68 14.2572 162.816 14.4004C162.96 14.5436 163.188 14.6152 163.5 14.6152C163.806 14.6152 164.115 14.4655 164.428 14.166C164.988 13.6191 165.548 12.6784 166.107 11.3438C166.667 10.0091 166.947 8.95768 166.947 8.18945C166.947 7.91602 166.879 7.70117 166.742 7.54492C166.605 7.38216 166.449 7.30078 166.273 7.30078C165.889 7.30078 165.489 7.52539 165.072 7.97461C164.363 8.72982 163.751 9.77148 163.236 11.0996C162.82 12.1803 162.611 13.0592 162.611 13.7363ZM170.883 7.66211C170.668 7.81836 170.466 8.00065 170.277 8.20898C170.225 8.26758 169.929 8.6582 169.389 9.38086L168.988 9.40039C169.151 9.04883 169.454 8.61589 169.896 8.10156C170.339 7.58724 170.723 7.23568 171.049 7.04688C171.257 6.92318 171.492 6.85156 171.752 6.83203C171.915 6.8776 172.025 6.93945 172.084 7.01758C172.149 7.0957 172.182 7.1901 172.182 7.30078C172.182 7.41146 172.169 7.52214 172.143 7.63281C172.071 7.99089 171.928 8.50195 171.713 9.16602C171.498 9.83008 171.306 10.3542 171.137 10.7383L170.629 11.9395L170.59 12.1152C170.681 11.959 170.867 11.6107 171.146 11.0703C172.208 9.05859 172.973 7.8151 173.441 7.33984C173.786 7.0013 174.19 6.83203 174.652 6.83203C174.913 6.83203 175.157 6.9362 175.385 7.14453C175.554 7.30729 175.639 7.52214 175.639 7.78906C175.639 8.08854 175.544 8.3457 175.355 8.56055C175.225 8.71029 175.04 8.78516 174.799 8.78516C174.597 8.78516 174.454 8.73958 174.369 8.64844C174.291 8.55078 174.242 8.31315 174.223 7.93555C174.138 7.76628 174.044 7.68164 173.939 7.68164C173.835 7.68164 173.725 7.73698 173.607 7.84766C173.295 8.1276 172.706 9.02604 171.84 10.543C170.974 12.0534 170.43 13.1048 170.209 13.6973C169.994 14.2832 169.818 14.6868 169.682 14.9082C169.61 15.0189 169.477 15.0742 169.281 15.0742C169.105 15.0742 168.979 15.0417 168.9 14.9766C168.829 14.918 168.793 14.8398 168.793 14.7422C168.793 14.612 168.826 14.4622 168.891 14.293C169.171 13.6094 169.62 12.3496 170.238 10.5137L170.922 8.42383C170.967 8.23503 171 8.11458 171.02 8.0625L171.078 7.91602C171.078 7.85091 171.013 7.76628 170.883 7.66211ZM177.885 3.28711C177.885 3.05924 177.973 2.85742 178.148 2.68164C178.324 2.49935 178.529 2.4082 178.764 2.4082C178.985 2.4082 179.174 2.48633 179.33 2.64258C179.486 2.79883 179.564 2.97786 179.564 3.17969C179.564 3.4401 179.467 3.67773 179.271 3.89258C179.154 4.01628 178.939 4.07812 178.627 4.07812C178.419 4.07812 178.243 4.00651 178.1 3.86328C177.956 3.72005 177.885 3.52799 177.885 3.28711ZM177.504 7.67188C177.367 7.67188 177.266 7.68164 177.201 7.70117C176.895 7.86393 176.671 8.00391 176.527 8.12109C176.234 8.34896 175.958 8.61589 175.697 8.92188L175.131 9.04883C175.632 8.37174 176.189 7.84115 176.801 7.45703C177.413 7.07292 177.895 6.88086 178.246 6.88086C178.396 6.88086 178.507 6.91992 178.578 6.99805C178.656 7.06966 178.695 7.16406 178.695 7.28125C178.695 7.60026 178.513 8.13086 178.148 8.87305C178.103 8.96419 177.995 9.19857 177.826 9.57617C177.436 10.429 177.019 11.2363 176.576 11.998C176.433 12.2454 176.277 12.5384 176.107 12.877C176.016 13.0592 175.935 13.2122 175.863 13.3359C175.661 13.6745 175.561 13.9251 175.561 14.0879C175.561 14.1335 175.577 14.1758 175.609 14.2148C175.648 14.2474 175.694 14.2637 175.746 14.2637C175.818 14.2637 175.922 14.2246 176.059 14.1465C176.286 14.0163 176.557 13.8014 176.869 13.502C177.188 13.196 177.468 12.8477 177.709 12.457H178.109C177.921 12.8086 177.641 13.2122 177.27 13.668C176.905 14.1237 176.488 14.4883 176.02 14.7617C175.668 14.9701 175.355 15.0742 175.082 15.0742C174.874 15.0742 174.721 15.0286 174.623 14.9375C174.525 14.8529 174.477 14.7389 174.477 14.5957C174.477 14.0944 174.844 13.1504 175.58 11.7637L177.152 8.79492C177.315 8.48893 177.429 8.24805 177.494 8.07227C177.533 7.96159 177.553 7.88672 177.553 7.84766C177.553 7.8151 177.536 7.75651 177.504 7.67188ZM181.928 7.74023H181.361L181.088 7.73047L180.453 7.75H180.326C180.339 7.60677 180.395 7.44076 180.492 7.25195C181.43 7.22591 181.986 7.20312 182.162 7.18359C182.292 6.87109 182.403 6.62044 182.494 6.43164C182.689 6.00846 182.891 5.50716 183.1 4.92773C183.165 4.73893 183.236 4.56641 183.314 4.41016C183.458 4.39062 183.624 4.38086 183.812 4.38086C183.969 4.38086 184.118 4.39714 184.262 4.42969L184.281 4.58594C184.281 4.70964 183.988 5.42578 183.402 6.73438C183.337 6.88411 183.282 7.03711 183.236 7.19336C183.425 7.22591 183.536 7.24219 183.568 7.24219H183.773L184.105 7.25195L185.043 7.23242C185.043 7.44727 185.004 7.62305 184.926 7.75977C184.665 7.78581 184.324 7.79883 183.9 7.79883C183.692 7.79883 183.559 7.80208 183.5 7.80859C183.168 7.84115 182.976 7.8737 182.924 7.90625L181.303 11.6953C181.133 12.0664 180.834 12.7728 180.404 13.8145C180.404 13.8535 180.424 13.8991 180.463 13.9512L180.59 13.9707C180.766 13.9707 180.984 13.86 181.244 13.6387C181.824 13.1504 182.37 12.5807 182.885 11.9297C182.995 11.9883 183.093 12.0566 183.178 12.1348C182.52 12.9225 182.058 13.4434 181.791 13.6973C181.524 13.9447 181.186 14.2051 180.775 14.4785C180.365 14.7454 180.118 14.8952 180.033 14.9277C179.883 14.9863 179.73 15.0156 179.574 15.0156C179.411 15.0156 179.291 14.9798 179.213 14.9082C179.135 14.8431 179.096 14.7454 179.096 14.6152C179.096 14.4264 179.255 13.987 179.574 13.2969L179.994 12.3887L181.469 8.92188C181.658 8.47266 181.811 8.07878 181.928 7.74023ZM185.688 11.3145C185.473 11.9069 185.365 12.5059 185.365 13.1113C185.365 13.554 185.469 13.9089 185.678 14.1758C185.814 14.3581 186 14.4492 186.234 14.4492C186.378 14.4492 186.505 14.4199 186.615 14.3613C186.856 14.2376 187.061 14.0911 187.23 13.9219C187.406 13.7526 187.589 13.5312 187.777 13.2578C187.966 12.9844 188.119 12.6784 188.236 12.3398H188.373C188.451 12.3398 188.539 12.3464 188.637 12.3594C188.441 13.0885 187.96 13.8047 187.191 14.5078C186.71 14.944 186.212 15.1621 185.697 15.1621C185.352 15.1621 185.059 15.0059 184.818 14.6934C184.499 14.2832 184.34 13.7168 184.34 12.9941C184.34 12.6816 184.385 12.3073 184.477 11.8711C184.574 11.4349 184.685 11.0703 184.809 10.7773C185.004 10.3216 185.222 9.89193 185.463 9.48828L186.215 8.39453C186.703 7.8737 186.977 7.58724 187.035 7.53516C187.263 7.33984 187.491 7.19336 187.719 7.0957C187.953 6.99154 188.194 6.93945 188.441 6.93945C188.76 6.93945 189.04 7.07292 189.281 7.33984C189.522 7.60677 189.643 7.94206 189.643 8.3457C189.643 8.70378 189.548 9.05859 189.359 9.41016C189.177 9.75521 188.979 10.0091 188.764 10.1719L187.953 10.6992C187.862 10.7448 187.618 10.8294 187.221 10.9531C186.824 11.0703 186.312 11.1908 185.688 11.3145ZM185.854 10.8262C186.062 10.8327 186.387 10.7513 186.83 10.582C187.071 10.4909 187.39 10.3118 187.787 10.0449C187.943 9.94076 188.122 9.76497 188.324 9.51758C188.526 9.26367 188.679 9.00326 188.783 8.73633C188.887 8.46289 188.939 8.18294 188.939 7.89648C188.939 7.70768 188.884 7.55143 188.773 7.42773C188.663 7.30404 188.539 7.24219 188.402 7.24219C188.227 7.24219 188.018 7.3431 187.777 7.54492C187.374 7.89648 186.951 8.48568 186.508 9.3125C186.176 9.94401 185.958 10.4486 185.854 10.8262ZM5.52078 39.0398C4.42745 39.0398 3.38078 38.8865 2.38078 38.5798C1.38078 38.2598 0.587448 37.8532 0.000781253 37.3598L0.900781 35.3398C1.46078 35.7798 2.15411 36.1465 2.98078 36.4398C3.80745 36.7332 4.65411 36.8798 5.52078 36.8798C6.25412 36.8798 6.84745 36.7998 7.30078 36.6398C7.75411 36.4798 8.08745 36.2665 8.30078 35.9998C8.51411 35.7198 8.62078 35.4065 8.62078 35.0598C8.62078 34.6332 8.46745 34.2932 8.16078 34.0398C7.85411 33.7732 7.45411 33.5665 6.96078 33.4198C6.48078 33.2598 5.94078 33.1132 5.34078 32.9798C4.75411 32.8465 4.16078 32.6932 3.56078 32.5198C2.97411 32.3332 2.43411 32.0998 1.94078 31.8198C1.46078 31.5265 1.06745 31.1398 0.760781 30.6598C0.454115 30.1798 0.300781 29.5665 0.300781 28.8198C0.300781 28.0598 0.500781 27.3665 0.900781 26.7398C1.31411 26.0998 1.93411 25.5932 2.76078 25.2198C3.60078 24.8332 4.66078 24.6398 5.94078 24.6398C6.78078 24.6398 7.61411 24.7465 8.44078 24.9598C9.26745 25.1732 9.98745 25.4798 10.6008 25.8798L9.78078 27.8998C9.15412 27.5265 8.50745 27.2532 7.84078 27.0798C7.17411 26.8932 6.53411 26.7998 5.92078 26.7998C5.20078 26.7998 4.61411 26.8865 4.16078 27.0598C3.72078 27.2332 3.39411 27.4598 3.18078 27.7398C2.98078 28.0198 2.88078 28.3398 2.88078 28.6998C2.88078 29.1265 3.02745 29.4732 3.32078 29.7398C3.62745 29.9932 4.02078 30.1932 4.50078 30.3398C4.99411 30.4865 5.54078 30.6332 6.14078 30.7798C6.74078 30.9132 7.33412 31.0665 7.92078 31.2398C8.52078 31.4132 9.06078 31.6398 9.54078 31.9198C10.0341 32.1998 10.4274 32.5798 10.7208 33.0598C11.0274 33.5398 11.1808 34.1465 11.1808 34.8798C11.1808 35.6265 10.9741 36.3198 10.5608 36.9598C10.1608 37.5865 9.54078 38.0932 8.70078 38.4798C7.86078 38.8532 6.80078 39.0398 5.52078 39.0398ZM15.5589 36.4598L15.6189 33.3198L21.1989 28.1598H24.1989L19.4589 32.9198L18.1389 34.0198L15.5589 36.4598ZM13.5189 38.8398V23.9998H16.0189V38.8398H13.5189ZM21.5789 38.8398L17.6789 34.0198L19.2589 32.0198L24.6189 38.8398H21.5789ZM26.2338 38.8398V28.1598H28.7338V38.8398H26.2338ZM27.4938 26.3998C27.0271 26.3998 26.6404 26.2532 26.3338 25.9598C26.0404 25.6665 25.8938 25.3132 25.8938 24.8998C25.8938 24.4732 26.0404 24.1198 26.3338 23.8398C26.6404 23.5465 27.0271 23.3998 27.4938 23.3998C27.9604 23.3998 28.3404 23.5398 28.6338 23.8198C28.9404 24.0865 29.0938 24.4265 29.0938 24.8398C29.0938 25.2798 28.9471 25.6532 28.6538 25.9598C28.3604 26.2532 27.9738 26.3998 27.4938 26.3998ZM38.075 28.0398C38.9283 28.0398 39.6883 28.2065 40.355 28.5398C41.035 28.8732 41.5683 29.3865 41.955 30.0798C42.3417 30.7598 42.535 31.6398 42.535 32.7198V38.8398H40.035V33.0398C40.035 32.0932 39.8083 31.3865 39.355 30.9198C38.915 30.4532 38.295 30.2198 37.495 30.2198C36.9083 30.2198 36.3883 30.3398 35.935 30.5798C35.4817 30.8198 35.1283 31.1798 34.875 31.6598C34.635 32.1265 34.515 32.7198 34.515 33.4398V38.8398H32.015V28.1598H34.395V31.0398L33.975 30.1598C34.3483 29.4798 34.8883 28.9598 35.595 28.5998C36.315 28.2265 37.1417 28.0398 38.075 28.0398ZM50.6259 38.9798C49.5059 38.9798 48.5059 38.7465 47.6259 38.2798C46.7593 37.7998 46.0793 37.1465 45.5859 36.3198C45.0926 35.4932 44.8459 34.5532 44.8459 33.4998C44.8459 32.4332 45.0926 31.4932 45.5859 30.6798C46.0793 29.8532 46.7593 29.2065 47.6259 28.7398C48.5059 28.2732 49.5059 28.0398 50.6259 28.0398C51.6659 28.0398 52.5793 28.2532 53.3659 28.6798C54.1659 29.0932 54.7726 29.7065 55.1859 30.5198L53.2659 31.6398C52.9459 31.1332 52.5526 30.7598 52.0859 30.5198C51.6326 30.2798 51.1393 30.1598 50.6059 30.1598C49.9926 30.1598 49.4393 30.2932 48.9459 30.5598C48.4526 30.8265 48.0659 31.2132 47.7859 31.7198C47.5059 32.2132 47.3659 32.8065 47.3659 33.4998C47.3659 34.1932 47.5059 34.7932 47.7859 35.2998C48.0659 35.7932 48.4526 36.1732 48.9459 36.4398C49.4393 36.7065 49.9926 36.8398 50.6059 36.8398C51.1393 36.8398 51.6326 36.7198 52.0859 36.4798C52.5526 36.2398 52.9459 35.8665 53.2659 35.3598L55.1859 36.4798C54.7726 37.2798 54.1659 37.8998 53.3659 38.3398C52.5793 38.7665 51.6659 38.9798 50.6259 38.9798ZM63.927 38.8398V36.6798L63.787 36.2198V32.4398C63.787 31.7065 63.567 31.1398 63.127 30.7398C62.687 30.3265 62.0204 30.1198 61.127 30.1198C60.527 30.1198 59.9337 30.2132 59.347 30.3998C58.7737 30.5865 58.287 30.8465 57.887 31.1798L56.907 29.3598C57.4804 28.9198 58.1604 28.5932 58.947 28.3798C59.747 28.1532 60.5737 28.0398 61.427 28.0398C62.9737 28.0398 64.167 28.4132 65.007 29.1598C65.8604 29.8932 66.287 31.0332 66.287 32.5798V38.8398H63.927ZM60.567 38.9798C59.767 38.9798 59.067 38.8465 58.467 38.5798C57.867 38.2998 57.4004 37.9198 57.067 37.4398C56.747 36.9465 56.587 36.3932 56.587 35.7798C56.587 35.1798 56.727 34.6398 57.007 34.1598C57.3004 33.6798 57.7737 33.2998 58.427 33.0198C59.0804 32.7398 59.947 32.5998 61.027 32.5998H64.127V34.2598H61.207C60.3537 34.2598 59.7804 34.3998 59.487 34.6798C59.1937 34.9465 59.047 35.2798 59.047 35.6798C59.047 36.1332 59.227 36.4932 59.587 36.7598C59.947 37.0265 60.447 37.1598 61.087 37.1598C61.7004 37.1598 62.247 37.0198 62.727 36.7398C63.2204 36.4598 63.5737 36.0465 63.787 35.4998L64.207 36.9998C63.967 37.6265 63.5337 38.1132 62.907 38.4598C62.2937 38.8065 61.5137 38.9798 60.567 38.9798ZM69.4955 38.8398V28.1598H71.8755V31.0998L71.5955 30.2398C71.9155 29.5198 72.4155 28.9732 73.0955 28.5998C73.7888 28.2265 74.6488 28.0398 75.6755 28.0398V30.4198C75.5688 30.3932 75.4688 30.3798 75.3755 30.3798C75.2821 30.3665 75.1888 30.3598 75.0955 30.3598C74.1488 30.3598 73.3955 30.6398 72.8355 31.1998C72.2755 31.7465 71.9955 32.5665 71.9955 33.6598V38.8398H69.4955ZM82.7186 38.9798C81.5319 38.9798 80.4919 38.7465 79.5986 38.2798C78.7186 37.7998 78.0319 37.1465 77.5386 36.3198C77.0586 35.4932 76.8186 34.5532 76.8186 33.4998C76.8186 32.4332 77.0519 31.4932 77.5186 30.6798C77.9986 29.8532 78.6519 29.2065 79.4786 28.7398C80.3186 28.2732 81.2719 28.0398 82.3386 28.0398C83.3786 28.0398 84.3053 28.2665 85.1186 28.7198C85.9319 29.1732 86.5719 29.8132 87.0386 30.6398C87.5053 31.4665 87.7386 32.4398 87.7386 33.5598C87.7386 33.6665 87.7319 33.7865 87.7186 33.9198C87.7186 34.0532 87.7119 34.1798 87.6986 34.2998H78.7986V32.6398H86.3786L85.3986 33.1598C85.4119 32.5465 85.2853 32.0065 85.0186 31.5398C84.7519 31.0732 84.3853 30.7065 83.9186 30.4398C83.4653 30.1732 82.9386 30.0398 82.3386 30.0398C81.7253 30.0398 81.1853 30.1732 80.7186 30.4398C80.2653 30.7065 79.9053 31.0798 79.6386 31.5598C79.3853 32.0265 79.2586 32.5798 79.2586 33.2198V33.6198C79.2586 34.2598 79.4053 34.8265 79.6986 35.3198C79.9919 35.8132 80.4053 36.1932 80.9386 36.4598C81.4719 36.7265 82.0853 36.8598 82.7786 36.8598C83.3786 36.8598 83.9186 36.7665 84.3986 36.5798C84.8786 36.3932 85.3053 36.0998 85.6786 35.6998L87.0186 37.2398C86.5386 37.7998 85.9319 38.2332 85.1986 38.5398C84.4786 38.8332 83.6519 38.9798 82.7186 38.9798ZM95.9073 38.8398V24.8398H98.5073V38.8398H95.9073ZM108.114 28.0398C108.967 28.0398 109.727 28.2065 110.394 28.5398C111.074 28.8732 111.607 29.3865 111.994 30.0798C112.381 30.7598 112.574 31.6398 112.574 32.7198V38.8398H110.074V33.0398C110.074 32.0932 109.847 31.3865 109.394 30.9198C108.954 30.4532 108.334 30.2198 107.534 30.2198C106.947 30.2198 106.427 30.3398 105.974 30.5798C105.521 30.8198 105.167 31.1798 104.914 31.6598C104.674 32.1265 104.554 32.7198 104.554 33.4398V38.8398H102.054V28.1598H104.434V31.0398L104.014 30.1598C104.387 29.4798 104.927 28.9598 105.634 28.5998C106.354 28.2265 107.181 28.0398 108.114 28.0398ZM116.085 38.8398V27.5598C116.085 26.4398 116.412 25.5465 117.065 24.8798C117.732 24.1998 118.679 23.8598 119.905 23.8598C120.345 23.8598 120.759 23.9065 121.145 23.9998C121.545 24.0932 121.879 24.2398 122.145 24.4398L121.465 26.3198C121.279 26.1732 121.065 26.0665 120.825 25.9998C120.585 25.9198 120.339 25.8798 120.085 25.8798C119.565 25.8798 119.172 26.0265 118.905 26.3198C118.639 26.5998 118.505 27.0265 118.505 27.5998V28.7998L118.585 29.9198V38.8398H116.085ZM114.325 30.2398V28.2398H121.445V30.2398H114.325ZM123.205 38.8398V23.9998H125.705V38.8398H123.205ZM133.508 38.9798C132.601 38.9798 131.801 38.8132 131.108 38.4798C130.414 38.1332 129.874 37.6132 129.488 36.9198C129.101 36.2132 128.908 35.3265 128.908 34.2598V28.1598H131.408V33.9198C131.408 34.8798 131.621 35.5998 132.048 36.0798C132.488 36.5465 133.108 36.7798 133.908 36.7798C134.494 36.7798 135.001 36.6598 135.428 36.4198C135.868 36.1798 136.208 35.8198 136.448 35.3398C136.701 34.8598 136.828 34.2665 136.828 33.5598V28.1598H139.328V38.8398H136.948V35.9598L137.368 36.8398C137.008 37.5332 136.481 38.0665 135.788 38.4398C135.094 38.7998 134.334 38.9798 133.508 38.9798ZM147.621 38.9798C146.434 38.9798 145.394 38.7465 144.501 38.2798C143.621 37.7998 142.934 37.1465 142.441 36.3198C141.961 35.4932 141.721 34.5532 141.721 33.4998C141.721 32.4332 141.954 31.4932 142.421 30.6798C142.901 29.8532 143.554 29.2065 144.381 28.7398C145.221 28.2732 146.174 28.0398 147.241 28.0398C148.281 28.0398 149.208 28.2665 150.021 28.7198C150.834 29.1732 151.474 29.8132 151.941 30.6398C152.408 31.4665 152.641 32.4398 152.641 33.5598C152.641 33.6665 152.634 33.7865 152.621 33.9198C152.621 34.0532 152.614 34.1798 152.601 34.2998H143.701V32.6398H151.281L150.301 33.1598C150.314 32.5465 150.188 32.0065 149.921 31.5398C149.654 31.0732 149.288 30.7065 148.821 30.4398C148.368 30.1732 147.841 30.0398 147.241 30.0398C146.628 30.0398 146.088 30.1732 145.621 30.4398C145.168 30.7065 144.808 31.0798 144.541 31.5598C144.288 32.0265 144.161 32.5798 144.161 33.2198V33.6198C144.161 34.2598 144.308 34.8265 144.601 35.3198C144.894 35.8132 145.308 36.1932 145.841 36.4598C146.374 36.7265 146.988 36.8598 147.681 36.8598C148.281 36.8598 148.821 36.7665 149.301 36.5798C149.781 36.3932 150.208 36.0998 150.581 35.6998L151.921 37.2398C151.441 37.7998 150.834 38.2332 150.101 38.5398C149.381 38.8332 148.554 38.9798 147.621 38.9798ZM161.102 28.0398C161.956 28.0398 162.716 28.2065 163.382 28.5398C164.062 28.8732 164.596 29.3865 164.982 30.0798C165.369 30.7598 165.562 31.6398 165.562 32.7198V38.8398H163.062V33.0398C163.062 32.0932 162.836 31.3865 162.382 30.9198C161.942 30.4532 161.322 30.2198 160.522 30.2198C159.936 30.2198 159.416 30.3398 158.962 30.5798C158.509 30.8198 158.156 31.1798 157.902 31.6598C157.662 32.1265 157.542 32.7198 157.542 33.4398V38.8398H155.042V28.1598H157.422V31.0398L157.002 30.1598C157.376 29.4798 157.916 28.9598 158.622 28.5998C159.342 28.2265 160.169 28.0398 161.102 28.0398ZM173.653 38.9798C172.533 38.9798 171.533 38.7465 170.653 38.2798C169.787 37.7998 169.107 37.1465 168.613 36.3198C168.12 35.4932 167.873 34.5532 167.873 33.4998C167.873 32.4332 168.12 31.4932 168.613 30.6798C169.107 29.8532 169.787 29.2065 170.653 28.7398C171.533 28.2732 172.533 28.0398 173.653 28.0398C174.693 28.0398 175.607 28.2532 176.393 28.6798C177.193 29.0932 177.8 29.7065 178.213 30.5198L176.293 31.6398C175.973 31.1332 175.58 30.7598 175.113 30.5198C174.66 30.2798 174.167 30.1598 173.633 30.1598C173.02 30.1598 172.467 30.2932 171.973 30.5598C171.48 30.8265 171.093 31.2132 170.813 31.7198C170.533 32.2132 170.393 32.8065 170.393 33.4998C170.393 34.1932 170.533 34.7932 170.813 35.2998C171.093 35.7932 171.48 36.1732 171.973 36.4398C172.467 36.7065 173.02 36.8398 173.633 36.8398C174.167 36.8398 174.66 36.7198 175.113 36.4798C175.58 36.2398 175.973 35.8665 176.293 35.3598L178.213 36.4798C177.8 37.2798 177.193 37.8998 176.393 38.3398C175.607 38.7665 174.693 38.9798 173.653 38.9798ZM185.238 38.9798C184.051 38.9798 183.011 38.7465 182.118 38.2798C181.238 37.7998 180.551 37.1465 180.058 36.3198C179.578 35.4932 179.338 34.5532 179.338 33.4998C179.338 32.4332 179.571 31.4932 180.038 30.6798C180.518 29.8532 181.171 29.2065 181.998 28.7398C182.838 28.2732 183.791 28.0398 184.858 28.0398C185.898 28.0398 186.825 28.2665 187.638 28.7198C188.451 29.1732 189.091 29.8132 189.558 30.6398C190.025 31.4665 190.258 32.4398 190.258 33.5598C190.258 33.6665 190.251 33.7865 190.238 33.9198C190.238 34.0532 190.231 34.1798 190.218 34.2998H181.318V32.6398H188.898L187.918 33.1598C187.931 32.5465 187.805 32.0065 187.538 31.5398C187.271 31.0732 186.905 30.7065 186.438 30.4398C185.985 30.1732 185.458 30.0398 184.858 30.0398C184.245 30.0398 183.705 30.1732 183.238 30.4398C182.785 30.7065 182.425 31.0798 182.158 31.5598C181.905 32.0265 181.778 32.5798 181.778 33.2198V33.6198C181.778 34.2598 181.925 34.8265 182.218 35.3198C182.511 35.8132 182.925 36.1932 183.458 36.4598C183.991 36.7265 184.605 36.8598 185.298 36.8598C185.898 36.8598 186.438 36.7665 186.918 36.5798C187.398 36.3932 187.825 36.0998 188.198 35.6998L189.538 37.2398C189.058 37.7998 188.451 38.2332 187.718 38.5398C186.998 38.8332 186.171 38.9798 185.238 38.9798ZM192.66 38.8398V28.1598H195.04V31.0998L194.76 30.2398C195.08 29.5198 195.58 28.9732 196.26 28.5998C196.953 28.2265 197.813 28.0398 198.84 28.0398V30.4198C198.733 30.3932 198.633 30.3798 198.54 30.3798C198.446 30.3665 198.353 30.3598 198.26 30.3598C197.313 30.3598 196.56 30.6398 196 31.1998C195.44 31.7465 195.16 32.5665 195.16 33.6598V38.8398H192.66Z" fill="black"/>
</svg>
