<svg width="51" height="94" viewBox="0 0 51 94" fill="none" xmlns="http://www.w3.org/2000/svg">
<path d="M0.355356 75.9003C0.355356 75.9003 9.33 36.0045 10.3416 32.8166C11.3531 29.6288 26.1223 22.2243 26.1223 22.2243L25.2567 21.927L28.0104 10.2912L29.7416 10.8859L30.1022 9.86598L30.4627 8.84603L31.6287 8.29341L33.3599 8.88809L34.2612 6.33821L26.605 2.18327L21.0966 2.38806L20.8247 0.960247L26.9197 0.194417L43.2005 5.21499L42.7799 6.40494L40.0945 7.96068L39.2533 10.3406L41.5039 11.1137L42.3624 11.9804L42.1679 13.6293L44.2454 14.3429L41.0925 25.4603L40.4 25.2224C40.4 25.2224 50.305 39.6482 50.097 42.2788C49.889 44.9093 41.2982 83.1015 41.2982 83.1015C41.2982 83.1015 40.283 88.7624 37.7217 91.0233C35.6505 92.8515 31.1389 93.7185 31.1389 93.7185L4.37489 88.147C4.37489 88.147 1.70921 85.4736 0.842143 83.3115C-0.240699 80.6114 0.355356 75.9003 0.355356 75.9003Z" fill="#FBECAB" stroke="black" stroke-width="0.382945" stroke-linecap="round"/>
</svg>
