<svg width="112" height="140" viewBox="0 0 112 140" fill="none" xmlns="http://www.w3.org/2000/svg">
<g filter="url(#filter0_d_309_586)">
<path d="M4.44549 181.403C4.44549 181.403 17.7756 92.0737 19.4784 84.8901C21.1812 77.7065 52.0327 59.0866 52.0327 59.0866L50.1126 58.5661L54.2953 32.4918L58.1356 33.5328L58.7602 31.2287L59.3848 28.9245L61.8255 27.5249L65.6657 28.566L67.2273 22.8056L50.011 14.8405L38.1132 16.1498L37.3058 13.0452L50.3881 10.408L86.4146 18.9377L85.6859 21.6259L80.1083 25.473L78.6508 30.8494L83.6431 32.2027L85.635 33.9794L85.4661 37.6438L90.0743 38.8931L84.9477 63.8871L83.4116 63.4706C83.4116 63.4706 107.07 93.7226 107.022 99.5528C106.974 105.383 94.2146 190.897 94.2146 190.897C94.2146 190.897 92.8823 203.532 87.6815 208.914C83.476 213.266 73.8381 215.88 73.8381 215.88L15.0245 207.769C15.0245 207.769 8.84253 202.292 6.63389 197.661C3.87564 191.879 4.44549 181.403 4.44549 181.403Z" fill="#FBECAB"/>
<path d="M4.44549 181.403C4.44549 181.403 17.7756 92.0737 19.4784 84.8901C21.1812 77.7065 52.0327 59.0866 52.0327 59.0866L50.1126 58.5661L54.2953 32.4918L58.1356 33.5328L58.7602 31.2287L59.3848 28.9245L61.8255 27.5249L65.6657 28.566L67.2273 22.8056L50.011 14.8405L38.1132 16.1498L37.3058 13.0452L50.3881 10.408L86.4146 18.9377L85.6859 21.6259L80.1083 25.473L78.6508 30.8494L83.6431 32.2027L85.635 33.9794L85.4661 37.6438L90.0743 38.8931L84.9477 63.8871L83.4116 63.4706C83.4116 63.4706 107.07 93.7226 107.022 99.5528C106.974 105.383 94.2146 190.897 94.2146 190.897C94.2146 190.897 92.8823 203.532 87.6815 208.914C83.476 213.266 73.8381 215.88 73.8381 215.88L15.0245 207.769C15.0245 207.769 8.84253 202.292 6.63389 197.661C3.87564 191.879 4.44549 181.403 4.44549 181.403Z" stroke="black" stroke-width="0.795769" stroke-linecap="round"/>
</g>
<defs>
<filter id="filter0_d_309_586" x="0" y="0" width="111.422" height="216.285" filterUnits="userSpaceOnUse" color-interpolation-filters="sRGB">
<feFlood flood-opacity="0" result="BackgroundImageFix"/>
<feColorMatrix in="SourceAlpha" type="matrix" values="0 0 0 0 0 0 0 0 0 0 0 0 0 0 0 0 0 0 127 0" result="hardAlpha"/>
<feOffset dy="-6"/>
<feGaussianBlur stdDeviation="2"/>
<feComposite in2="hardAlpha" operator="out"/>
<feColorMatrix type="matrix" values="0 0 0 0 0 0 0 0 0 0 0 0 0 0 0 0 0 0 0.42 0"/>
<feBlend mode="normal" in2="BackgroundImageFix" result="effect1_dropShadow_309_586"/>
<feBlend mode="normal" in="SourceGraphic" in2="effect1_dropShadow_309_586" result="shape"/>
</filter>
</defs>
</svg>
