<svg width="60" height="82" viewBox="0 0 60 82" fill="none" xmlns="http://www.w3.org/2000/svg">
<g filter="url(#filter0_d_309_580)">
<path d="M60.1461 38.2474C55.2169 42.9524 44.0487 58.1816 40.9392 61.5369C37.8297 64.8922 28.6446 71.7687 21.0978 64.3633C16.2928 59.6483 18.411 50.7187 18.411 50.7187C18.411 50.7187 25.5995 35.464 23.7325 33.309C21.8656 31.1539 11.7972 28.9066 11.7972 28.9066C11.7972 28.9066 4.93041 25.8403 4.18031 21.7347C3.21529 16.4528 12.5305 10.8117 12.5305 10.8117C12.5305 10.8117 39.8975 -1.48848 58.5966 0.289378C66.3743 1.02886 78.8835 4.46882 78.8835 4.46882C78.8835 4.46882 85.7216 7.86256 86.5032 11.9623C87.3131 16.2105 81.7632 21.9708 81.7632 21.9708C81.7632 21.9708 65.9136 32.7424 60.1461 38.2474Z" fill="#FDE67B"/>
<path d="M60.1461 38.2474C55.2169 42.9524 44.0487 58.1816 40.9392 61.5369C37.8297 64.8922 28.6446 71.7687 21.0978 64.3633C16.2928 59.6483 18.411 50.7187 18.411 50.7187C18.411 50.7187 25.5995 35.464 23.7325 33.309C21.8656 31.1539 11.7972 28.9066 11.7972 28.9066C11.7972 28.9066 4.93041 25.8403 4.18031 21.7347C3.21529 16.4528 12.5305 10.8117 12.5305 10.8117C12.5305 10.8117 39.8975 -1.48848 58.5966 0.289378C66.3743 1.02886 78.8835 4.46882 78.8835 4.46882C78.8835 4.46882 85.7216 7.86256 86.5032 11.9623C87.3131 16.2105 81.7632 21.9708 81.7632 21.9708C81.7632 21.9708 65.9136 32.7424 60.1461 38.2474Z" stroke="black" stroke-width="0.227383"/>
</g>
<defs>
<filter id="filter0_d_309_580" x="0" y="0" width="90.6953" height="81.7832" filterUnits="userSpaceOnUse" color-interpolation-filters="sRGB">
<feFlood flood-opacity="0" result="BackgroundImageFix"/>
<feColorMatrix in="SourceAlpha" type="matrix" values="0 0 0 0 0 0 0 0 0 0 0 0 0 0 0 0 0 0 127 0" result="hardAlpha"/>
<feOffset dy="10"/>
<feGaussianBlur stdDeviation="2"/>
<feComposite in2="hardAlpha" operator="out"/>
<feColorMatrix type="matrix" values="0 0 0 0 0 0 0 0 0 0 0 0 0 0 0 0 0 0 0.45 0"/>
<feBlend mode="normal" in2="BackgroundImageFix" result="effect1_dropShadow_309_580"/>
<feBlend mode="normal" in="SourceGraphic" in2="effect1_dropShadow_309_580" result="shape"/>
</filter>
</defs>
</svg>
