<svg width="80" height="64" viewBox="0 0 80 64" fill="none" xmlns="http://www.w3.org/2000/svg">
<path d="M53.7477 35.9772C49.0297 40.4022 38.3399 54.7251 35.3636 57.8807C32.3874 61.0363 23.5957 67.5035 16.3723 60.5389C11.7731 56.1045 13.8006 47.7063 13.8006 47.7063C13.8006 47.7063 20.6811 33.3595 18.8941 31.3326C17.1072 29.3058 7.47009 27.1923 7.47009 27.1923C7.47009 27.1923 0.897489 24.3084 0.179527 20.4472C-0.744153 15.4796 8.17196 10.1742 8.17196 10.1742C8.17196 10.1742 34.3665 -1.39394 52.2646 0.278117C59.7091 0.973588 71.6824 4.20883 71.6824 4.20883C71.6824 4.20883 78.2276 7.4006 78.9757 11.2563C79.7508 15.2517 74.4387 20.6692 74.4387 20.6692C74.4387 20.6692 59.2681 30.7997 53.7477 35.9772Z" fill="#FDE67B" stroke="black" stroke-width="0.227383"/>
</svg>
